<svg width="177" height="155" viewBox="0 0 177 155" fill="none" xmlns="http://www.w3.org/2000/svg">
<g id="Frame" clip-path="url(#clip0_307_7)">
<path id="Vector" d="M165.353 79.8304C164.905 81.1631 164.546 82.2293 164.188 83.2955C157.554 103.02 150.897 122.811 144.263 142.536C141.416 150.999 136.162 153.608 127.7 150.762C89.3164 137.852 50.9333 124.943 12.4836 112.01C3.99821 109.231 1.32232 103.954 4.19113 95.4247C10.8701 75.5668 17.5491 55.7089 24.228 35.8509C24.5642 34.8514 24.878 33.9185 25.2814 32.719C71.9942 48.4303 118.44 64.0519 165.353 79.8304ZM80.9136 63.3724C66.3867 58.4865 52.1929 53.7126 37.9991 48.9387C37.394 50.7379 36.9009 52.2039 36.363 53.8032C50.7567 58.6444 65.0171 63.4407 79.2775 68.237C79.8602 66.5044 80.3309 65.105 80.9136 63.3724Z" fill="black"/>
<path id="Vector_2" d="M170.69 63.0813C124.043 47.3924 77.5972 31.7708 31.2176 16.1716C33.1601 4.88267 39.4178 1.05333 50.0132 4.61694C87.3967 17.1904 124.78 29.7639 162.164 42.3374C173.359 46.1027 175.811 51.8232 170.69 63.0813Z" fill="black"/>
</g>
<defs>
<clipPath id="clip0_307_7">
<rect width="147.782" height="113.825" fill="white" transform="translate(36.2861) rotate(18.5897)"/>
</clipPath>
</defs>
</svg>
