<svg width="260" height="193" viewBox="0 0 260 193" fill="none" xmlns="http://www.w3.org/2000/svg">
<g clip-path="url(#clip0_238_102)">
<path d="M18.8266 33.4347C14.1375 33.7837 10.0783 32.7367 6.57893 30.0145C0.980008 25.7566 -1.39953 18.2181 0.840035 11.5172C3.0796 4.81627 9.37839 0.0698011 16.377 0.0698011C30.0244 0 43.6018 0.0698011 57.2492 0C59.6287 0 61.3784 0.767812 62.9181 2.51284C73.2061 13.8206 83.4941 24.9888 93.8521 36.2268C95.0419 37.4832 96.2317 38.8094 97.2815 39.996C102.251 38.4604 107.08 36.7852 112.049 35.5986C128.425 31.6897 144.452 33.1555 159.989 39.4376C161.879 40.2054 162.789 39.996 164.119 38.5302C175.107 26.4546 186.164 14.5186 197.152 2.51284C198.692 0.837613 200.302 0.0698011 202.611 0.0698011C216.049 0.139602 229.486 0.0698011 242.923 0.139602C251.602 0.139602 258.95 6.4217 259.79 14.5186C260.77 23.8022 255.241 31.4803 246.213 33.2951C244.673 33.5743 243.133 33.5743 241.244 33.6441C243.763 39.5772 244.113 45.4405 240.404 50.9548C236.695 56.5389 231.306 58.8423 224.377 58.5631C227.247 65.3338 227.177 71.6857 222.557 77.4792C217.868 83.3425 211.22 84.1103 204.431 83.5519C216.259 123.827 207.16 157.401 171.187 180.296C143.193 198.165 113.658 196.63 85.5937 178.83C69.8468 168.849 59.3488 154.33 53.7499 136.531C48.1509 118.801 49.0608 101.281 55.6395 83.5519C48.2909 84.1801 41.7122 83.3425 37.0931 77.4792C32.5439 71.7555 32.194 65.4036 35.3434 58.8423C20.3663 59.1215 13.1577 45.2311 18.8266 33.4347ZM129.615 183.926C168.878 184.065 201.002 152.236 201.142 113.148C201.281 74.1288 169.438 42.0901 130.385 41.8807C91.1227 41.6712 58.8589 73.4307 58.7189 112.519C58.5789 151.608 90.4228 183.786 129.615 183.926ZM170.347 44.2539C171.327 44.8821 172.027 45.3707 172.727 45.8593C182.035 51.7924 190.364 58.9819 195.753 68.5447C199.112 74.5476 203.241 75.8738 209.33 75.2456C214.089 74.757 217.728 71.8253 217.938 67.4278C218.148 62.6116 214.999 59.0517 209.96 58.5631C207.16 58.2839 205.341 56.5389 205.411 54.1656C205.481 51.7226 207.44 50.1172 210.52 50.0474C215.769 50.0474 221.018 50.1172 226.197 50.0474C230.956 49.9776 234.525 46.6271 234.665 42.2297C234.875 37.553 231.726 33.9931 226.897 33.4347C223.887 33.0857 221.998 31.3407 222.207 28.9675C222.347 26.5244 224.307 24.9888 227.386 24.9888C232.635 24.9888 237.884 25.0586 243.063 24.9888C248.032 24.919 251.532 21.2893 251.462 16.5429C251.392 12.0058 247.823 8.44593 242.993 8.37613C230.256 8.30633 217.518 8.30633 204.781 8.37613C203.941 8.37613 202.891 8.79494 202.331 9.42315C191.693 21.0101 181.125 32.5273 170.347 44.2539ZM89.0931 43.6955C89.303 43.9747 89.0931 43.6955 88.8831 43.4163C78.5251 32.1085 68.1671 20.8007 57.7391 9.56275C57.1092 8.86474 55.7795 8.51573 54.7997 8.51573C42.412 8.44593 30.0244 8.44593 17.6368 8.44593C12.3178 8.44593 8.46857 12.0058 8.53855 16.8221C8.60854 21.6383 12.3878 25.0586 17.7768 25.0586C22.9558 25.0586 28.0648 25.0586 33.2438 25.0586C35.9733 25.0586 37.7229 26.5942 37.8629 29.0373C38.0029 31.5501 36.3932 33.2253 33.5238 33.5045C28.4847 34.0629 25.0554 37.6926 25.3353 42.2297C25.6153 46.8365 29.3246 50.0474 34.4336 50.1172C39.4026 50.1172 44.3717 50.1172 49.3407 50.1172C52.7001 50.1172 54.5197 51.583 54.6597 54.1656C54.7297 56.6785 53.19 58.2141 49.9006 58.5631C45.2115 59.1215 41.9221 62.7512 42.0621 67.1486C42.2721 71.5461 45.8414 75.0362 50.4605 75.1758C52.91 75.2456 55.3596 75.106 57.8091 75.2456C59.3488 75.3154 60.0486 74.6174 60.8885 73.4307C64.3178 68.5447 67.4672 63.3096 71.6664 59.0517C76.9854 53.5374 83.1442 48.8608 89.0931 43.6955Z" fill="black" fill-opacity="0.1"/>
<path d="M129.965 50.187C164.678 50.187 192.813 78.247 192.813 112.938C192.813 147.56 164.608 175.62 129.895 175.62C95.1117 175.62 66.9771 147.49 67.0471 112.659C67.1171 78.247 95.3917 50.187 129.965 50.187ZM165.448 71.7555C156.14 64.0774 146.062 59.7498 134.164 58.8423C134.164 61.425 134.164 63.7284 134.164 66.0319C134.164 69.2427 132.555 71.1273 129.825 71.0575C127.236 70.9877 125.696 69.1729 125.696 66.1017C125.696 63.7284 125.696 61.3552 125.696 58.7725C113.728 59.8196 103.65 64.0774 94.4119 71.7555C96.3015 73.5006 98.0512 74.9664 99.6609 76.5718C102.04 78.9451 102.18 81.3183 100.221 83.2029C98.2611 85.0876 95.8816 84.9479 93.572 82.5049C91.9623 80.8297 90.5626 78.9451 88.9529 76.9906C80.9744 86.693 76.6353 96.7443 75.7255 108.541C78.3849 108.541 80.6945 108.541 83.074 108.541C86.1535 108.541 87.9731 110.146 87.9731 112.729C87.9731 115.311 86.1535 116.987 83.144 116.987C80.6945 116.987 78.315 116.987 75.6555 116.987C76.6353 128.853 80.9045 138.904 88.533 148.048C90.4226 146.164 92.0323 144.349 93.782 142.673C95.8816 140.649 98.1911 140.51 100.081 142.255C101.97 144.069 101.9 146.513 99.8008 148.676C98.1212 150.421 96.3015 152.027 94.5518 153.632C101.55 160.682 116.318 166.755 125.346 166.476C125.416 166.336 125.556 166.196 125.556 165.987C125.556 163.753 125.556 161.45 125.626 159.216C125.696 156.215 127.306 154.4 129.965 154.47C132.485 154.54 134.024 156.285 134.094 159.147C134.164 161.59 134.094 163.963 134.094 166.685C145.992 165.778 156.07 161.45 165.378 153.702C163.489 151.957 161.739 150.421 160.129 148.886C157.75 146.513 157.61 144.209 159.569 142.255C161.529 140.37 163.839 140.51 166.218 142.953C167.828 144.628 169.227 146.443 170.837 148.397C178.816 138.695 183.155 128.643 183.995 117.266C183.645 117.056 183.575 116.987 183.505 116.987C181.265 116.987 178.956 116.917 176.716 116.917C173.637 116.847 171.817 115.311 171.817 112.729C171.817 110.146 173.637 108.541 176.646 108.471C179.096 108.471 181.475 108.471 184.065 108.471C183.085 96.6047 178.816 86.5534 170.837 76.9906C169.927 78.247 169.297 79.2243 168.458 80.1317C167.618 81.1089 166.638 82.0163 165.658 82.9237C163.629 84.7386 161.319 84.8083 159.569 83.1331C157.75 81.3881 157.68 78.9451 159.709 76.9208C161.529 75.3852 163.349 73.7798 165.448 71.7555Z" fill="black" fill-opacity="0.1"/>
<path d="M128.565 125.433C124.506 125.223 120.587 122.78 118.417 118.034C116.248 113.287 116.947 108.61 120.377 104.702C123.736 100.863 128.075 99.3967 133.044 100.793C134.794 101.281 135.914 101.142 137.104 99.7457C137.943 98.7685 138.853 97.7913 139.903 97.0235C141.723 95.6275 143.682 95.7671 145.362 97.3027C146.972 98.7685 147.462 101.491 145.712 102.887C142.423 105.609 141.863 108.61 142.283 112.868C143.122 119.848 136.964 125.502 128.565 125.433Z" fill="black" fill-opacity="0.1"/>
</g>
<defs>
<clipPath id="clip0_238_102">
<rect width="260" height="193" fill="white"/>
</clipPath>
</defs>
</svg>
