<svg width="89" height="89" viewBox="0 0 89 89" fill="none" xmlns="http://www.w3.org/2000/svg">
<g clip-path="url(#clip0_313_6)">
<path d="M0 47.4609C0 45.5015 0 43.5203 0 41.5609C0.130594 40.4941 0.239423 39.4491 0.391783 38.4041C1.67596 29.6304 5.15847 21.8799 11.0135 15.2397C18.1526 7.1409 27.0765 2.19887 37.7853 0.522505C39.0259 0.326566 40.2883 0.174168 41.5507 0C43.5097 0 45.4903 0 47.4493 0C48.4722 0.130626 49.4952 0.239481 50.5182 0.391879C62.2499 2.15533 71.9357 7.57632 79.3143 16.8726C87.1499 26.7566 90.2407 38.0775 88.5429 50.5523C86.9323 62.4829 81.2297 72.2363 71.7398 79.6167C61.9235 87.2583 50.7141 90.1974 38.4165 88.5863C29.6231 87.4325 21.831 83.8403 15.1925 77.9621C7.11739 70.8212 2.19834 61.8951 0.500611 51.2273C0.326486 49.9645 0.174126 48.7018 0 47.4609ZM44.4674 82.0768C65.1883 82.0986 82.0132 65.3131 82.0567 44.5653C82.1003 23.8175 65.2754 6.94496 44.5109 6.92319C23.7899 6.90142 6.96503 23.6869 6.9215 44.4347C6.87797 65.1825 23.7029 82.055 44.4674 82.0768Z" fill="white"/>
<path d="M41.0284 34.3982C41.0284 30.9802 41.0066 27.5621 41.0284 24.1441C41.0502 21.5969 43.5315 19.9205 45.8169 20.9002C47.2969 21.5533 47.9499 22.7507 47.9499 24.3618C47.9499 29.9787 47.9934 35.5957 47.9064 41.2126C47.8846 42.5406 48.2546 43.3461 49.3429 44.1299C53.0213 46.786 56.6344 49.5509 60.2475 52.294C61.597 53.3173 62.0323 54.8413 61.4882 56.2999C60.9658 57.7368 59.5728 58.6947 58.0492 58.5423C57.3962 58.477 56.6779 58.2158 56.1338 57.8239C51.563 54.4494 47.0357 51.0531 42.5085 47.635C41.4637 46.8513 40.9849 45.7845 40.9849 44.4782C41.0284 41.1255 41.0284 37.7728 41.0284 34.3982Z" fill="white"/>
</g>
<defs>
<clipPath id="clip0_313_6">
<rect width="89" height="89" fill="white"/>
</clipPath>
</defs>
</svg>
