<svg width="467" height="195" viewBox="0 0 467 195" fill="none" xmlns="http://www.w3.org/2000/svg">
<g clip-path="url(#clip0_341_756)">
<path d="M467 6.40625H88.3846V195H467V6.40625Z" fill="black"/>
<path d="M205.003 140.743C204.064 143.906 202.353 146.531 199.033 147.541C196.048 148.45 194.539 147.204 194.002 143.502C193.298 144.209 192.66 144.916 191.956 145.522C190.011 147.238 187.831 148.618 185.214 147.373C182.733 146.228 182.397 143.772 182.598 141.349C182.967 136.401 184.611 131.993 188.568 128.795C189.709 127.887 191.252 127.281 192.694 126.944C194.74 126.44 196.517 127.281 198.127 129.469C198.865 125.497 199.536 121.997 200.24 118.228C202.32 117.992 204.701 117.757 207.384 117.454C207.015 118.968 206.747 120.214 206.412 121.492C204.634 128.156 202.823 134.82 201.079 141.483C200.945 141.988 201.112 142.56 201.146 143.099C201.683 142.964 202.32 142.964 202.722 142.661C203.527 142.123 204.265 141.382 205.003 140.743ZM188.971 142.055C189.239 142.526 189.407 143.469 189.91 143.704C190.447 143.94 191.419 143.704 191.922 143.334C192.761 142.728 193.633 141.921 194.002 141.012C195.142 138.286 196.048 135.459 197.021 132.666C197.39 131.589 197.457 130.478 196.316 129.839C195.176 129.199 194.27 129.973 193.566 130.781C190.782 133.911 189.809 137.815 188.971 142.055Z" fill="white"/>
<path d="M262.256 120.045C261.585 122.401 260.981 124.589 260.277 127.113C259.707 126.406 259.338 125.901 258.902 125.43C257.359 123.848 255.984 122.031 254.206 120.752C252.093 119.204 249.242 119.877 247.867 121.863C246.526 123.781 246.928 126.171 249.075 127.921C250.651 129.166 252.395 130.209 254.005 131.421C258.935 135.123 259.505 140.44 255.414 144.512C253.67 146.262 251.557 147.272 249.142 147.71C244.949 148.45 239.985 147.575 235.893 145.32C236.463 143.2 237.034 141.012 237.704 138.455C238.409 139.397 238.845 140.137 239.415 140.709C241.025 142.291 242.568 144.041 244.412 145.32C246.458 146.734 249.142 146.094 250.55 144.31C252.026 142.426 251.959 139.733 250.148 137.882C249.075 136.805 247.766 135.93 246.559 134.988C245.687 134.315 244.748 133.709 243.842 133.036C238.14 128.661 240.991 121.661 245.519 119.541C249.678 117.589 253.938 117.757 258.265 118.8C259.573 119.103 260.847 119.574 262.256 120.045Z" fill="white"/>
<path d="M279.797 143.469C281.038 142.594 282.246 141.685 283.42 140.844C283.386 144.411 278.221 148.517 274.766 147.609C273.324 147.205 272.385 145.657 272.519 143.806C272.553 143.334 272.653 142.897 272.72 142.224C271.681 143.368 270.842 144.411 269.903 145.32C268.394 146.734 266.683 147.777 264.503 147.642C262.155 147.508 260.545 145.892 260.545 143.536C260.545 142.493 260.747 141.416 261.015 140.407C262.155 136.132 263.933 131.959 263.463 127.248C266.08 127.248 268.528 127.248 271.178 127.248C270.037 131.286 268.897 135.257 267.79 139.229C267.555 140.104 267.287 140.979 267.22 141.854C267.086 143.469 268.025 144.109 269.366 143.166C270.44 142.426 271.379 141.416 272.117 140.373C274.565 136.906 275.303 132.767 276.41 128.796C276.779 127.45 277.315 126.978 278.657 127.079C280.133 127.18 281.609 127.113 283.218 127.113C281.776 132.565 280.435 137.781 279.06 142.998C279.328 143.166 279.563 143.301 279.797 143.469Z" fill="white"/>
<path d="M304.416 143.469C305.69 142.56 306.931 141.652 308.474 140.541C307.2 143.738 305.556 146.229 302.437 147.406C299.217 148.584 297.439 147.238 297.171 143.435C296.165 144.378 295.226 145.387 294.186 146.229C292.442 147.608 290.463 148.382 288.283 147.406C286.069 146.397 285.566 144.243 285.633 142.156C285.801 136.974 287.411 132.296 291.503 128.863C293.784 126.978 296.467 126.305 299.385 127.214C299.687 127.315 300.089 127.382 300.223 127.618C301.833 129.872 303.577 128.56 305.321 127.887C306.059 127.584 306.831 127.315 307.971 126.877C306.495 132.531 305.12 137.748 303.745 142.964C303.946 143.166 304.181 143.334 304.416 143.469ZM292.006 141.954C292.207 142.392 292.408 143.469 292.912 143.671C293.549 143.906 294.656 143.671 295.159 143.2C296.165 142.291 297.171 141.214 297.641 139.969C298.815 137.075 299.72 134.079 300.592 131.084C300.928 129.94 300.156 129.132 299.083 129.199C298.244 129.267 297.171 129.738 296.635 130.377C293.985 133.608 292.912 137.546 292.006 141.954Z" fill="white"/>
<path d="M214.461 138.219C213.556 142.09 215.803 144.412 219.425 143.234C221.136 142.662 222.679 141.517 224.255 140.609C224.59 140.407 224.859 140.138 225.295 140.003C224.289 142.527 222.545 144.445 220.331 145.892C219.224 146.599 218.017 147.239 216.742 147.542C211.51 148.854 207.317 145.219 207.552 139.801C207.854 133.306 211.644 128.594 217.849 127.113C219.895 126.642 221.941 126.743 223.886 127.652C226.636 128.931 227.341 131.657 225.563 134.147C223.987 136.301 221.74 137.277 219.224 137.714C217.715 137.984 216.105 138.051 214.461 138.219ZM214.596 136.57C217.648 136.738 220.767 134.383 221.236 131.421C221.371 130.58 220.8 129.604 220.532 128.729C219.694 128.998 218.654 129.032 218.05 129.57C216.071 131.421 215.199 133.945 214.596 136.57Z" fill="white"/>
<path d="M328.464 138.253C328.464 138.926 328.43 139.431 328.464 139.969C328.699 142.931 330.543 144.31 333.394 143.334C335.541 142.594 337.486 141.282 339.566 140.205C339.431 140.036 339.566 140.137 339.532 140.171C337.62 143.94 334.769 146.734 330.577 147.609C325.412 148.719 321.555 145.152 321.756 139.733C321.991 133.373 325.781 128.526 331.952 127.18C333.763 126.776 335.876 127.012 337.654 127.55C340.941 128.56 341.679 131.926 339.398 134.551C337.788 136.402 335.675 137.31 333.327 137.714C331.851 137.983 330.241 138.051 328.464 138.253ZM328.732 136.705C332.455 136.301 335.239 134.113 335.44 131.286C335.507 130.411 334.937 129.502 334.635 128.594C333.797 128.93 332.79 129.065 332.187 129.637C330.241 131.522 329.47 134.012 328.732 136.705Z" fill="white"/>
<path d="M340.974 145.892C341.544 143.873 342.047 141.988 342.651 139.801C343.456 140.911 343.993 141.887 344.731 142.594C345.938 143.738 347.213 144.883 348.621 145.758C349.627 146.397 350.835 146.094 351.606 145.084C352.411 143.974 352.176 142.796 351.304 141.854C350.533 141.012 349.56 140.306 348.688 139.565C347.749 138.791 346.743 138.084 345.871 137.209C342.618 133.978 343.59 129.401 347.883 127.719C351.808 126.171 355.631 126.776 359.656 128.224C359.186 130.075 358.75 131.858 358.247 133.911C357.576 133.002 357.174 132.161 356.537 131.623C355.229 130.512 353.854 129.401 352.344 128.661C351.774 128.392 350.466 128.93 349.896 129.502C349.124 130.276 349.527 131.32 350.298 132.06C351.07 132.767 351.942 133.373 352.78 134.046C353.518 134.652 354.323 135.19 355.027 135.829C356.973 137.68 358.314 139.767 357.375 142.594C356.436 145.522 354.256 147.07 351.338 147.575C347.783 148.248 344.429 147.373 340.974 145.892Z" fill="white"/>
<path d="M314.142 127.214C316.457 127.214 318.737 127.214 321.253 127.214C320.414 130.377 319.676 133.406 318.838 136.401C317.899 139.767 317.094 143.2 315.886 146.464C314.075 151.243 309.413 154.171 304.583 154.036C304.382 154.036 304.214 154.003 303.812 153.969C304.047 153.666 304.114 153.464 304.248 153.397C307.736 150.974 309.648 147.507 310.721 143.469C311.593 140.137 312.566 136.805 313.337 133.44C313.807 131.42 313.874 129.334 314.142 127.214Z" fill="white"/>
<path d="M315.652 121.695C315.652 119.238 318.066 116.747 320.515 116.714C322.259 116.68 323.668 118.127 323.534 119.877C323.366 122.065 321.253 124.353 319.073 124.656C317.06 124.959 315.652 123.747 315.652 121.695Z" fill="white"/>
<path d="M179.244 92.8189C180.586 91.641 181.76 90.3621 183.168 89.4198C184.745 88.3765 186.556 88.2419 188.199 89.4198C189.809 90.564 189.876 92.2468 189.44 93.9631C188.837 96.3526 188.132 98.7084 187.495 101.098C187.327 101.704 187.26 102.343 187.16 102.983C187.294 103.084 187.428 103.218 187.562 103.319C188.669 102.579 189.742 101.805 190.782 101.098C190.614 104.127 186.657 107.425 183.638 107.055C182.028 106.853 181.123 105.877 181.29 104.329C181.491 102.444 181.995 100.593 182.431 98.7757C182.732 97.4632 183.269 96.218 183.504 94.9055C183.638 94.0978 183.303 93.2564 183.202 92.415C182.364 92.7516 181.19 92.8525 180.787 93.4583C179.479 95.5113 178.272 97.6651 177.333 99.8863C176.561 101.737 176.125 103.723 175.656 105.675C175.454 106.55 175.052 106.886 174.18 106.853C172.738 106.786 171.295 106.853 169.618 106.853C170.356 104.228 171.061 101.805 171.731 99.4152C172.201 97.7998 172.738 96.218 173.039 94.5689C173.174 93.8958 172.805 93.1554 172.67 92.415C171.966 92.617 171.128 92.6506 170.591 93.0881C168.377 94.9728 167.371 97.5978 166.533 100.29C165.996 102.04 165.56 103.858 165.157 105.641C164.956 106.483 164.587 106.886 163.682 106.853C162.239 106.786 160.797 106.819 159.154 106.819C159.791 104.362 160.462 102.141 160.965 99.8527C161.669 96.5209 162.239 93.1891 162.944 89.8573C163.044 89.4534 163.514 88.8477 163.849 88.8477C165.56 88.7467 167.304 88.814 169.249 88.814C168.847 90.4294 168.511 91.8766 168.176 93.2901C168.277 93.3574 168.344 93.391 168.444 93.4583C168.914 92.8862 169.316 92.2131 169.853 91.7419C170.926 90.7996 172 89.7227 173.274 89.1169C176.293 87.7034 178.506 89.1506 179.244 92.8189Z" fill="white"/>
<path d="M257.326 88.814C256.051 93.6939 254.844 98.3046 253.636 102.949C253.837 103.084 254.072 103.184 254.273 103.319C255.347 102.545 256.42 101.771 257.493 100.997C256.923 103.79 254.341 106.55 251.892 106.987C249.142 107.492 247.7 106.281 247.8 103.454C247.8 103.184 247.834 102.915 247.867 102.343C247.163 103.151 246.693 103.79 246.123 104.261C245.251 105.035 244.379 105.877 243.373 106.382C241.83 107.189 240.12 107.29 238.61 106.247C237.067 105.17 236.933 103.555 237.302 101.872C237.604 100.526 238.074 99.1796 238.409 97.8334C239.08 94.9055 239.684 91.9775 240.354 88.8813C242.132 88.8813 244.211 88.8813 246.593 88.8813C246.358 89.8573 246.157 90.766 245.922 91.641C245.117 94.5016 244.245 97.3286 243.44 100.156C243.272 100.728 243.138 101.367 243.105 101.973C243.071 103.285 243.876 103.858 244.882 103.084C245.989 102.276 247.163 101.3 247.7 100.088C249.008 97.1603 250.115 94.0978 251.02 91.0016C251.49 89.3525 252.06 88.4438 253.905 88.7467C254.944 88.9486 255.984 88.814 257.326 88.814Z" fill="white"/>
<path d="M329.068 88.9146C330.812 88.9146 332.925 88.9146 335.273 88.9146C334.4 91.9435 333.596 94.8041 332.791 97.6984C332.455 98.8763 332.053 100.054 331.885 101.266C331.784 101.905 332.086 102.612 332.22 103.285C332.925 103.083 333.931 103.117 334.266 102.646C335.641 100.795 337.017 98.8763 337.989 96.7561C338.928 94.7032 339.398 92.4147 339.935 90.1935C340.203 89.0829 340.706 88.7463 341.779 88.8136C343.087 88.8809 344.429 88.8473 345.972 88.8473C344.697 93.7272 343.49 98.3379 342.282 102.949C342.484 103.083 342.718 103.184 342.92 103.319C343.959 102.578 345.033 101.838 346.005 101.131C345.938 104.295 341.544 107.761 338.459 106.987C337.184 106.684 336.614 105.809 336.513 104.564C336.48 103.958 336.513 103.352 336.513 102.444C335.608 103.42 334.836 104.261 334.032 105.035C332.69 106.314 331.147 107.122 329.202 106.953C327.189 106.785 325.814 105.506 325.848 103.487C325.881 102.242 326.217 100.963 326.519 99.7177C327.324 96.2176 328.162 92.7176 329.068 88.9146Z" fill="white"/>
<path d="M223.819 88.9148C223.484 90.4629 223.182 91.9437 222.88 93.3908C222.947 93.4581 223.048 93.4918 223.115 93.5591C223.584 92.987 223.953 92.3139 224.523 91.8764C225.764 90.8667 226.938 89.6215 228.38 89.0494C231.768 87.6695 234.552 90.16 233.747 93.6937C233.177 96.2514 232.305 98.7419 231.634 101.3C231.5 101.838 231.567 102.444 231.567 103.016C232.17 102.814 232.808 102.747 233.344 102.444C233.982 102.04 234.518 101.468 235.189 100.896C234.72 103.857 231.734 106.819 229.051 107.088C226.603 107.324 225.194 106.112 225.53 103.655C225.831 101.569 226.536 99.5496 227.072 97.4967C227.374 96.2514 227.81 95.0062 227.911 93.761C228.045 92.3475 227.173 91.809 226.066 92.6504C224.959 93.5254 223.752 94.5687 223.215 95.8476C221.907 98.9101 220.901 102.107 219.962 105.304C219.627 106.449 219.258 107.021 217.983 106.92C216.675 106.785 215.333 106.886 213.958 106.886C215.367 100.828 216.742 94.9726 218.117 88.9484C219.727 88.9148 221.706 88.9148 223.819 88.9148Z" fill="white"/>
<path d="M379.915 103.353C380.954 102.612 382.028 101.838 383 101.131C382.866 104.228 378.808 107.593 375.722 107.021C374.213 106.752 373.676 105.944 373.374 103.487C372.435 104.329 371.597 105.204 370.657 105.877C367.069 108.535 363.815 107.156 363.178 102.747C362.541 98.3381 365.895 91.5399 369.785 89.5879C372.334 88.3091 374.883 88.0398 377.231 90.2274C377.5 90.4629 378.137 90.5303 378.539 90.3956C379.914 89.9245 381.223 89.386 382.967 88.6793C381.692 93.6265 380.451 98.3044 379.244 102.949C379.512 103.083 379.713 103.218 379.915 103.353ZM368.913 101.939C369.115 102.377 369.282 103.353 369.718 103.521C370.289 103.723 371.194 103.42 371.798 103.016C372.435 102.612 373.039 101.973 373.307 101.266C374.447 98.3718 375.521 95.4438 376.46 92.4822C376.862 91.237 375.688 90.2947 374.447 90.7995C373.81 91.0687 373.173 91.5399 372.77 92.112C370.657 94.939 369.618 98.2035 368.913 101.939Z" fill="white"/>
<path d="M202.924 103.454C201.951 104.329 201.045 105.237 200.039 105.978C198.53 107.088 196.786 107.627 195.008 106.752C193.264 105.877 192.66 104.161 192.761 102.377C192.996 97.0931 194.505 92.3815 199.402 89.5881C201.85 88.1746 204.5 88.04 206.848 90.2276C207.116 90.4631 207.753 90.4968 208.156 90.3622C209.531 89.891 210.839 89.3526 212.549 88.6795C211.275 93.6603 210.068 98.3046 208.86 102.949C209.061 103.084 209.296 103.185 209.497 103.319C210.537 102.579 211.61 101.838 212.617 101.132C212.449 104.127 208.558 107.459 205.506 107.055C203.829 106.819 203.393 106.213 202.924 103.454ZM198.496 101.973C198.664 102.377 198.832 103.353 199.268 103.521C199.838 103.723 200.71 103.386 201.347 103.05C201.85 102.781 202.387 102.242 202.588 101.737C203.796 98.6412 205.037 95.545 206.043 92.3815C206.412 91.2372 205.037 90.2949 203.829 90.867C203.192 91.1699 202.588 91.6747 202.186 92.2468C200.207 95.0402 199.1 98.2037 198.496 101.973Z" fill="white"/>
<path d="M286.975 90.7324C288.518 90.1266 290.128 89.4872 292.174 88.6794C290.899 93.6267 289.692 98.271 288.484 102.915C288.686 103.05 288.887 103.185 289.088 103.319C290.128 102.579 291.168 101.872 292.174 101.165C292.241 104.295 287.411 108.098 284.493 106.819C283.52 106.382 282.984 104.901 282.112 103.689C281.978 103.858 281.575 104.43 281.072 104.901C279.294 106.55 277.248 107.963 274.766 106.786C272.385 105.641 272.251 103.252 272.486 100.963C272.888 97.1267 274.23 93.6603 277.047 90.968C280.099 88.0064 284.024 87.939 286.975 90.7324ZM278.12 102.007C278.355 102.444 278.523 103.353 278.993 103.555C279.496 103.757 280.401 103.454 280.904 103.084C281.609 102.579 282.313 101.872 282.615 101.064C283.722 98.2037 284.761 95.343 285.667 92.4151C286.036 91.2708 284.929 90.3622 283.722 90.766C283.084 91.0016 282.414 91.4391 281.978 92.0112C279.865 94.8719 278.791 98.2037 278.12 102.007Z" fill="white"/>
<path d="M263.195 90.564C262.29 90.4967 261.585 90.4294 260.881 90.3957C260.78 90.2275 260.713 90.0928 260.613 89.9246C261.116 89.5544 261.686 88.8476 262.155 88.9149C263.732 89.0832 264.101 88.2418 264.47 86.963C266.381 80.333 273.19 79.559 277.651 81.9484C277.282 83.4292 276.879 84.91 276.443 86.7274C275.739 85.4822 275.27 84.4389 274.632 83.4965C273.458 81.7465 271.949 81.8475 271.144 83.7994C270.507 85.3475 270.104 86.963 269.534 88.814C271.312 88.814 272.888 88.814 274.465 88.814C274.565 90.0592 274.163 90.4967 273.056 90.4967C268.998 90.5977 269.031 90.6313 267.958 94.6025C266.952 98.3718 266.046 102.208 264.805 105.91C263.128 110.925 258.868 113.718 253.737 113.348C254.072 113.012 254.307 112.776 254.575 112.574C257.057 110.656 258.634 108.132 259.472 105.136C260.747 100.66 261.887 96.1843 263.061 91.7083C263.162 91.3717 263.162 91.0352 263.195 90.564Z" fill="white"/>
<path d="M323.5 83.2273C323.097 84.8764 322.628 86.6937 322.125 88.7803C323.601 88.7803 325.009 88.7803 326.384 88.7803C326.552 90.3957 325.714 90.564 324.64 90.4967C323.701 90.4294 322.762 90.4967 321.655 90.4967C320.582 94.2996 319.509 98.0353 318.536 101.805C318.234 102.949 319.039 103.285 319.878 102.814C321.018 102.175 322.024 101.266 323.03 100.526C322.628 103.117 319.542 106.483 317.027 106.987C314.411 107.526 312.566 106.18 312.801 103.521C313.002 101.199 313.706 98.9439 314.276 96.6554C314.746 94.6698 315.316 92.6842 315.853 90.5976C315.014 90.5303 314.377 90.463 313.404 90.362C313.74 89.7226 313.874 89.0495 314.276 88.8139C317.362 86.8956 320.448 85.0783 323.5 83.2273Z" fill="white"/>
<path d="M310.017 100.627C308.105 103.79 305.69 106.516 301.632 107.122C298.815 107.526 296.232 106.146 295.259 103.588C293.214 98.3718 296.098 89.1168 304.818 88.7803C306.697 88.713 308.608 89.7226 310.52 90.2274C310.084 91.9775 309.682 93.6939 309.246 95.5112C308.642 94.1987 308.172 92.8862 307.502 91.6746C306.529 89.8572 305.288 89.6217 303.946 91.1025C301.397 93.9294 300.19 97.2949 300.76 101.132C301.028 102.983 302.471 103.891 304.215 103.285C306.16 102.612 308.038 101.535 310.017 100.627Z" fill="white"/>
<path d="M347.381 106.853C348.789 100.829 350.164 94.9727 351.607 88.9486C353.082 88.9486 355.028 88.9486 357.208 88.9486C356.872 90.6313 356.537 92.2804 356.135 94.1987C358.315 91.2371 359.992 87.9389 364.587 88.9822C363.782 91.1361 363.077 93.0544 362.373 95.0064C359.824 93.189 357.979 93.3236 356.571 96.117C355.162 98.9103 354.29 102.007 353.418 105.069C353.015 106.483 352.512 107.021 351.07 106.886C349.896 106.752 348.689 106.853 347.381 106.853Z" fill="white"/>
<path d="M194.874 60.2749C196.249 58.222 197.591 56.1691 198.966 54.0825C201.515 50.1786 204.064 46.2747 206.546 42.3371C207.116 41.3948 207.753 41.0582 208.827 41.0919C210.906 41.1592 213.019 41.1255 215.266 41.1255C211.208 50.4815 208.324 60.0394 206.445 70.0684C203.829 70.0684 201.012 70.0684 198.329 70.0684C200.71 62.9 203.125 55.6306 205.54 48.3949C205.372 48.3276 205.204 48.2266 205.003 48.1593C203.192 50.8853 201.414 53.645 199.603 56.371C196.886 60.5442 194.136 64.6837 191.486 68.8905C190.782 70.0011 189.977 70.5732 188.468 69.9338C187.864 62.5971 187.227 55.1595 186.623 47.7555C186.523 47.7218 186.388 47.7218 186.288 47.6882C185.785 49.4045 185.214 51.0873 184.745 52.8036C183.236 58.1211 181.089 63.3375 181.793 69.0588C181.827 69.3953 181.123 70.1021 180.754 70.1357C179.177 70.2703 177.601 70.203 175.723 70.203C181.089 61.1836 183.94 51.6257 185.147 41.2601C187.395 41.2601 190.011 41.2601 192.828 41.2601C193.398 47.5199 193.935 53.8133 194.505 60.073C194.572 60.1403 194.74 60.2076 194.874 60.2749Z" fill="white"/>
<path d="M251.59 51.693C251.724 49.6064 253.099 49.5391 254.676 49.6401C256.252 49.7074 257.795 49.6737 259.103 49.6737C257.661 54.4527 256.152 59.097 254.877 63.8086C253.636 68.453 252.63 73.1982 251.456 78.1118C249.578 78.1118 247.263 78.1118 244.58 78.1118C245.62 74.1406 246.626 70.2703 247.666 66.2991C246.358 67.4097 245.218 68.6212 243.876 69.4962C240.119 71.953 236.564 70.3376 236.195 65.8616C235.726 60.3086 237.637 55.5296 241.696 51.7603C244.882 48.7314 247.934 48.8324 251.59 51.693ZM242.568 64.751C242.803 65.1548 243.037 66.2654 243.608 66.4673C244.245 66.6693 245.251 66.1644 245.922 65.6933C246.559 65.2558 247.196 64.549 247.498 63.8086C248.572 61.1163 249.544 58.3566 250.517 55.5969C250.919 54.4527 251.221 53.0055 249.913 52.6353C249.075 52.3998 247.532 53.0392 246.895 53.7796C244.379 56.7748 243.172 60.4095 242.568 64.751Z" fill="white"/>
<path d="M278.825 66.1979C280.066 65.3229 281.307 64.4142 282.48 63.5728C282.179 66.4671 278.925 69.8999 276.007 70.371C273.022 70.8422 271.513 69.597 271.446 66.5681C271.446 66.2652 271.446 65.9286 271.446 65.2892C270.54 66.2652 269.869 67.0729 269.098 67.8133C267.555 69.2941 265.845 70.472 263.53 70.371C260.679 70.2701 258.801 68.0489 259.338 65.2219C259.64 63.6065 260.243 62.0247 260.612 60.4093C261.384 56.9429 262.122 53.4765 262.893 49.8081C264.939 49.8081 267.354 49.8081 270.104 49.8081C268.93 53.9476 267.823 57.9189 266.717 61.8901C266.482 62.7315 266.18 63.6065 266.113 64.4815C266.079 65.02 266.314 65.8613 266.717 66.0969C267.119 66.3325 268.025 66.1642 268.427 65.8277C269.467 64.919 270.708 63.9767 271.245 62.7988C272.72 59.366 274.095 55.8659 275.135 52.2649C275.705 50.2793 276.477 49.337 278.59 49.6399C279.697 49.8081 280.871 49.6735 282.313 49.6735C280.871 55.1928 279.495 60.4766 278.12 65.794C278.355 65.895 278.59 66.0633 278.825 66.1979Z" fill="white"/>
<path d="M330.108 66.1978C331.315 65.3228 332.489 64.4815 333.696 63.6065C333.294 66.9719 329.437 70.5056 326.183 70.472C323.869 70.472 323.064 69.5296 322.662 66.3325C321.555 67.3084 320.582 68.3517 319.442 69.1931C315.316 72.1883 311.56 70.4383 311.09 65.3901C310.587 59.8371 314.176 52.6351 318.67 50.4475C321.521 49.0677 324.406 48.7985 327.022 51.1879C327.357 51.4908 328.196 51.5245 328.665 51.3899C330.208 50.885 331.684 50.2456 333.596 49.4716C332.12 55.1592 330.745 60.4429 329.336 65.7267C329.571 65.895 329.839 66.0296 330.108 66.1978ZM317.564 64.6834C317.798 65.1209 318.033 66.2652 318.603 66.4671C319.241 66.669 320.213 66.1642 320.918 65.7267C321.488 65.3901 322.058 64.7844 322.293 64.1786C323.634 60.7122 324.976 57.2121 326.116 53.6784C326.519 52.4668 325.278 51.4235 324.003 51.861C323.265 52.0966 322.494 52.6014 322.024 53.2409C319.542 56.438 318.301 60.241 317.564 64.6834Z" fill="white"/>
<path d="M222.846 66.8375C220.868 68.0154 219.023 69.5298 216.876 70.3375C214.361 71.2462 212.248 69.7654 211.51 67.1404C210.101 62.0922 213.422 53.7122 217.916 50.9189C221.27 48.866 223.987 49.0006 227.24 51.2891C227.609 51.5583 228.313 51.5583 228.75 51.3901C230.292 50.8852 231.802 50.2458 233.747 49.4718C232.271 55.1257 230.896 60.4095 229.487 65.6932C229.689 65.8615 229.923 66.0298 230.125 66.198C231.399 65.323 232.64 64.448 234.217 63.3711C232.908 66.6019 231.231 69.0923 228.179 70.2029C225.06 71.3135 223.45 70.1356 222.846 66.8375ZM217.748 64.6163C217.983 65.1211 218.184 66.2317 218.688 66.4C219.358 66.6019 220.297 66.1644 221.035 65.7942C221.505 65.5586 222.008 65.0874 222.209 64.5826C223.618 60.9479 225.094 57.3133 226.301 53.5776C226.704 52.2987 225.63 51.5247 224.356 51.7939C223.618 51.9622 222.813 52.467 222.343 53.0728C219.727 56.3709 218.553 60.2412 217.748 64.6163Z" fill="white"/>
<path d="M359.757 51.289C361.669 50.8515 363.849 50.3131 366.566 49.7073C365.928 51.9285 365.492 53.7458 364.855 55.5295C362.138 63.1018 358.382 70.0009 351.842 74.9482C348.119 77.7751 343.926 78.8521 339.029 77.5059C340.069 75.3184 341.075 73.2991 342.149 71.0442C342.685 71.7173 343.021 72.3904 343.557 72.727C344.664 73.4 345.804 74.2078 347.045 74.4097C349.058 74.7462 349.561 74.2078 349.46 72.1548C349.259 67.2413 349.024 62.3277 348.689 57.4142C348.622 56.4382 348.018 55.4622 347.649 54.5199C346.71 54.9574 345.771 55.3276 344.865 55.8324C344.496 56.0343 344.228 56.4045 343.826 56.7747C344.06 53.8131 347.951 50.3131 349.997 49.9765C352.11 49.6063 353.552 50.3467 354.122 52.6689C354.692 55.092 354.994 57.5488 355.229 60.0392C355.497 62.6979 355.598 65.3566 355.766 68.3519C357.745 65.8278 358.784 63.0681 359.254 60.2748C359.69 57.4142 359.589 54.4526 359.757 51.289Z" fill="white"/>
<path d="M304.248 40.7888C306.126 40.5868 308.474 40.3513 311.157 40.082C308.877 48.7985 306.63 57.2795 304.382 65.7604C304.584 65.8614 304.818 65.996 305.02 66.097C305.724 65.7268 306.428 65.3902 307.066 64.9191C307.669 64.4815 308.172 63.9094 308.81 63.3036C308.34 66.3662 305.254 69.7317 302.571 70.3038C299.083 71.0105 297.104 68.9576 297.943 65.4912C298.379 63.7075 298.882 61.9238 299.351 60.1401C300.995 53.7794 302.571 47.4187 304.248 40.7888Z" fill="white"/>
<path d="M295.561 49.8083C294.085 55.2267 292.677 60.4431 291.234 65.6596C291.469 65.8279 291.704 65.9961 291.939 66.1307C293.18 65.2557 294.387 64.3807 295.595 63.5394C295.226 66.7702 291.67 70.2366 288.551 70.3712C286.069 70.5058 284.761 69.3616 284.862 66.9048C284.929 65.323 285.331 63.7749 285.7 62.2268C286.639 58.1546 287.646 54.1161 288.719 49.7747C290.564 49.8083 292.945 49.8083 295.561 49.8083Z" fill="white"/>
<path d="M290.128 44.188C290.161 41.7985 292.71 39.2744 295.092 39.2744C296.735 39.2744 298.11 40.6879 298.077 42.337C298.01 44.8274 295.393 47.3515 292.945 47.2842C291.201 47.2505 290.094 46.039 290.128 44.188Z" fill="white"/>
</g>
<path d="M148.086 25.0456L148.13 119.787C148.13 122.409 147.423 124.982 146.084 127.235C144.745 129.489 142.822 131.339 140.52 132.592L81.0244 164.949C78.8884 166.11 76.4961 166.718 74.0651 166.718C71.6342 166.718 69.2418 166.11 67.1058 164.949L7.6104 132.592C5.30781 131.339 3.38554 129.489 2.04617 127.235C0.706789 124.982 -9.57141e-05 122.409 9.72063e-09 119.787V0.417969H105.411" fill="#FF0000"/>
<path d="M148.171 121.716L143.548 121.817L138.924 121.891L129.676 122.068L111.177 122.267L106.553 122.318L101.93 122.342L92.6813 122.392L74.1823 122.418L55.687 122.368C49.5164 122.318 43.3622 122.318 37.1917 122.243L18.6963 122.042L9.44959 121.891L4.82621 121.817L0.193726 121.716V121.465L4.8171 121.366L9.44048 121.29L18.6891 121.139L37.188 120.941C43.3586 120.865 49.5128 120.839 55.6833 120.813L74.1823 120.763L92.6777 120.789L101.924 120.839L106.55 120.865L111.173 120.915L129.668 121.115L138.915 121.29L143.538 121.366L148.164 121.465V121.716H148.171Z" fill="black"/>
<path d="M148.171 116.42L74.1896 117.124L0.193726 116.42V116.176L74.1896 115.47L148.171 116.176V116.42Z" fill="black"/>
<path d="M148.171 110.924L74.1896 111.499L0.193726 110.924V110.733L74.1896 110.176L148.171 110.733V110.924Z" fill="black"/>
<path d="M148.171 105.642L111.177 105.926L92.6849 106.073L83.4382 106.15L78.813 106.188C77.2676 106.206 75.7368 106.206 74.1896 106.206L0.193726 105.642V105.452L74.1823 104.883C75.7295 104.883 77.2603 104.883 78.8057 104.902L83.4309 104.94L92.6777 105.015L111.173 105.167L148.167 105.452L148.171 105.642Z" fill="black"/>
<path d="M148.171 100.334L111.176 100.633L92.6799 100.782L83.4329 100.856L78.8076 100.893C77.2622 100.912 75.7314 100.912 74.1841 100.912L0.193726 100.334V100.148L74.1841 99.5889C75.7314 99.5889 77.2622 99.5889 78.8076 99.6081L83.4329 99.6451L92.6799 99.719L111.176 99.8683L148.171 100.167V100.334Z" fill="black"/>
<path d="M148.171 95.0404L111.177 95.3391L92.6813 95.4869L83.4345 95.5624L78.8093 95.5993C77.264 95.6186 75.7332 95.6186 74.186 95.6186L0.193726 95.0404V94.8541L74.1823 94.2952C75.7295 94.2952 77.2603 94.2952 78.8057 94.3128L83.4309 94.3514L92.6777 94.4253L111.177 94.5746L148.171 94.8717V95.0404Z" fill="black"/>
<path d="M148.171 89.9409L111.177 90.3147L92.6813 90.4996L83.4345 90.5941C80.3565 90.6162 77.264 90.6866 74.186 90.6403L0.193726 89.9409V89.7077L74.1823 89.0082C77.2603 88.9841 80.3529 89.0303 83.4309 89.0545L92.6777 89.1469L111.173 89.3338L148.167 89.7077L148.171 89.9409Z" fill="black"/>
<path d="M148.171 84.6552L111.177 85.0237L92.6813 85.2079L83.4345 85.2991C80.3565 85.3228 77.264 85.3922 74.186 85.3466L0.193726 84.6552V84.4254L74.1823 83.7142C77.2603 83.6904 80.3529 83.736 83.4309 83.7598L92.6777 83.8509L111.177 84.0351L148.171 84.4036V84.6552Z" fill="black"/>
<path d="M148.171 79.3455L111.176 79.7366L92.6799 79.9165L83.4329 80.0084C80.3549 80.0299 77.2622 80.0983 74.1841 80.0533L0.193726 79.3494V79.1226L74.1841 78.4206C77.2622 78.3972 80.3549 78.4422 83.4329 78.4656L92.6799 78.5556L111.176 78.7374L148.171 79.1285V79.3455Z" fill="black"/>
<path d="M148.171 74.0553L111.176 74.4444L92.6799 74.6233L83.4329 74.7147C80.3549 74.7361 77.2622 74.8042 74.1841 74.7595L0.193726 74.0592V73.8336L74.1841 73.1353C77.2622 73.0906 80.3549 73.1567 83.4329 73.18L92.6799 73.2695L111.176 73.4504L148.171 73.8394V74.0553Z" fill="black"/>
<path d="M148.171 68.7581L111.177 69.1346L92.6849 69.3361L83.4382 69.4227C80.3602 69.4453 77.2676 69.5093 74.1896 69.466L0.193726 68.7581V68.5396L74.1823 67.8411C77.2603 67.7978 80.3529 67.8618 83.4309 67.8844L92.6777 67.971L111.177 68.1687L148.171 68.5453V68.7581Z" fill="black"/>
<path d="M148.171 63.4681L111.177 63.8448L92.6813 64.0426L83.4345 64.1292C80.3565 64.1518 77.264 64.2159 74.186 64.1725L0.193726 63.4681V63.2497L74.1823 62.5509C77.2603 62.5076 80.3529 62.5509 83.4309 62.5942L92.6777 62.6809L111.177 62.8786L148.171 63.2553V63.4681Z" fill="black"/>
<path d="M148.171 57.8387L111.177 58.2276L92.6849 58.4183L83.4382 58.5043C80.3602 58.5268 77.2676 58.5922 74.1896 58.5474L0.193726 57.8387V57.6218L74.1823 56.9262C77.2603 56.8832 80.3529 56.9262 83.4309 56.9711L92.6777 57.0571L111.173 57.2441L148.167 57.6349L148.171 57.8387Z" fill="black"/>
<path d="M148.171 52.5582L111.177 52.9439L92.6813 53.1385L83.4345 53.2238C80.3565 53.2665 77.264 53.2887 74.186 53.2461L0.193726 52.5582V52.3431L74.1823 51.633C77.2603 51.5904 80.3529 51.633 83.4309 51.6534L92.6777 51.7406L111.173 51.926L148.167 52.3135L148.171 52.5582Z" fill="black"/>
<path d="M148.171 47.2533L111.177 47.6347L92.6813 47.8172L83.4345 47.923L78.8093 47.9668C77.264 47.9869 75.7332 47.9668 74.186 47.9449L0.193726 47.2533V47.0416L74.1823 46.3409C75.7295 46.3208 77.2603 46.3208 78.8057 46.3208L83.4309 46.3628L92.6777 46.4686L111.173 46.6511L148.167 47.0325L148.171 47.2533Z" fill="black"/>
<path d="M148.171 41.9677L111.177 42.3493L92.6813 42.5319L83.4345 42.6378L78.8093 42.6816C77.264 42.6816 75.7332 42.6816 74.186 42.6597L0.193726 41.9677V41.7559L74.1823 41.0566C75.7295 41.0365 77.2603 41.0146 78.8057 41.0365L83.4309 41.0785L92.6777 41.1844L111.173 41.367L148.167 41.7486L148.171 41.9677Z" fill="black"/>
<path d="M147.853 36.8209L110.938 37.1327L92.4814 37.2738L83.2543 37.3557L78.6389 37.3881C77.0968 37.3881 75.5693 37.3726 74.0253 37.3726L0.193726 36.8082V36.6446L74.0253 36.0886C75.5693 36.0717 77.0968 36.0548 78.6389 36.0717L83.2543 36.1042L92.4814 36.186L110.938 36.3468L147.853 36.6573V36.8209Z" fill="black"/>
<path d="M144.36 31.7002L108.319 32.0795L90.2996 32.2795L81.291 32.3796L76.7849 32.4192C75.2793 32.4399 73.7879 32.4003 72.2806 32.3796L0.193726 31.7002V31.5001L72.277 30.8104C73.7844 30.7914 75.2758 30.7708 76.7813 30.7708L81.2874 30.8104L90.2961 30.9104L108.319 31.1191L144.36 31.5001V31.7002Z" fill="black"/>
<path d="M133.881 26.2701L100.459 26.7501L83.7501 26.957L75.3963 27.0771L71.2177 27.1246C69.8216 27.1495 68.4386 27.1019 67.0408 27.0771L0.193726 26.2701V26.0218L67.0375 25.1941C68.4353 25.1713 69.8183 25.1465 71.2144 25.1465L75.393 25.1941L83.7468 25.3141L100.456 25.521L133.878 26.0011L133.881 26.2701Z" fill="black"/>
<path d="M111.258 21.4556L92.7524 21.6713L83.4989 21.7904L78.8703 21.8377C77.3238 21.8377 75.7919 21.813 74.2436 21.7904L0.193726 20.9789V20.7406L74.2363 19.9065C75.7846 19.8839 77.3165 19.8346 78.863 19.8593L83.4916 19.9065L92.7451 20.0257L111.258 20.2414" fill="black"/>
<path d="M111.258 16.1661L92.7487 16.4018L83.4952 16.5196L78.8667 16.544C77.3202 16.544 75.7882 16.4952 74.2399 16.4952L0.193726 15.6725V15.4369L74.2363 14.6122C75.7846 14.5899 77.3165 14.5411 78.863 14.5655L83.4916 14.6122L92.7451 14.73L111.258 14.9636" fill="black"/>
<path d="M112.288 10.9959L103.662 11.1122C100.793 11.1583 97.9095 11.1583 95.0416 11.1803C92.1737 11.2024 89.2888 11.2285 86.4192 11.2285L77.7985 11.2505H69.1727C63.42 11.2285 57.6825 11.2505 51.9297 11.1803L43.2937 11.1342L34.6832 11.042L26.0609 10.9257L17.4402 10.7853L8.8178 10.5988L4.50746 10.5066L0.193726 10.3903V10.1577L4.50406 10.0414L8.8144 9.92509L17.4368 9.7386L26.0575 9.59824L34.6832 9.47392L43.3039 9.38168L51.9263 9.33556C57.6791 9.28944 63.4166 9.28944 69.1693 9.26538H77.7866L86.409 9.28944C89.2786 9.28944 92.1618 9.33556 95.0297 9.33556C97.8976 9.33556 100.782 9.35762 103.652 9.40574L112.273 9.52204" fill="black"/>
<path d="M32.9987 90.7075C32.5715 85.1507 18.2216 52.3207 17.9121 46.758C17.5496 40.1228 21.8111 34.9868 28.9351 33.188C35.8161 31.4519 42.5287 33.8966 46.4865 39.5728C49.5214 43.9219 66.391 75.5462 69.4103 79.9032C70.2528 81.1186 71.1952 82.1854 73.0918 81.563C75.1275 80.8975 75.0158 79.5274 74.5456 78.0398C70.431 64.9767 61.9042 33.7243 57.7975 20.6573C55.8127 14.343 58.0483 8.80775 63.8184 5.53512C69.951 2.05698 80.8643 2.94364 85.5451 10.0369C99.3483 30.9175 117.921 69.8328 131.933 90.6214C134.551 94.5067 137.19 98.3802 139.808 102.263C144.455 109.159 142.255 116.804 134.537 120.603C126.969 124.322 118.181 122.197 113.573 115.401C102.577 99.1553 91.662 82.8822 80.6664 66.6404C79.6221 65.0981 78.9364 62.5555 75.9288 63.634C72.9213 64.7125 74.6181 66.9223 75.1451 68.6271C79.0108 81.0638 82.9823 93.4732 86.8637 105.906C88.87 112.338 85.2296 118.679 78.1566 121.31C71.1462 123.917 63.2267 121.756 59.1906 116.025C53.5262 107.989 47.952 99.9088 42.3406 91.8467C41.4452 90.5627 40.6438 88.9753 38.422 89.6251C36.1237 90.2926 36.6371 91.9739 36.6488 93.6102C36.69 98.9889 36.69 103.536 36.6273 109.014C36.5646 114.493 34.233 119.685 28.1533 121.606C22.1814 123.494 15.2631 121.84 11.3661 117.591C7.26132 113.115 7.01641 106.904 10.7881 102.248C14.4657 97.6892 21.3075 95.6908 27.5361 97.3663C28.0887 97.515 28.6138 97.7401 29.1624 97.9006C31.9054 98.7051 33.4297 97.7245 33.3788 95.1839C33.3651 94.4381 33.2514 93.6924 33.1828 92.9467C33.1143 92.2009 33.0339 91.4572 32.9595 90.7114L32.9987 90.7075Z" fill="black"/>
<path d="M134.622 84.7172C133.111 88.083 131.676 91.4792 130.316 94.906C129.533 96.9091 128.271 97.8834 126.042 97.8288C124.624 97.7899 123.203 97.7645 121.779 97.7528C119.495 97.7411 117.205 97.7528 114.929 97.8405C112.917 97.9068 111.771 97.1098 110.755 95.4205C104.296 84.6665 97.7438 73.9867 91.2462 63.2542C90.479 61.9779 89.5885 60.988 87.9797 61.0718C86.2281 61.1556 85.1908 62.5313 85.1869 64.8091C85.1654 73.7275 85.1869 90.5862 85.1869 99.4929V101.584C85.1693 105.12 84.5685 105.732 81.077 105.736H63.2202C59.9811 105.736 59.3548 105.101 59.3509 101.792V95.1535C52.9511 84.4873 46.4456 73.8892 40.0087 63.2464C39.2415 61.9701 38.351 60.9802 36.7422 61.064C34.9906 61.1478 33.9533 62.5235 33.9494 64.8013C33.9279 73.7197 33.9494 90.5784 33.9494 99.4851V101.576C33.9318 105.112 33.3309 105.724 29.8394 105.728H11.9826C8.74555 105.728 8.11927 105.093 8.11536 101.784C8.11536 95.7264 8.11536 81.7145 8.11536 75.6604C8.11536 69.672 8.11536 63.6828 8.11536 57.6931C8.11536 54.1389 8.80426 53.4784 12.4504 53.4784C18.3218 53.4784 24.2049 53.4784 30.0802 53.4784C33.2311 53.4784 33.9944 52.6892 34.012 49.4995C34.012 45.1075 34.0022 40.7214 34.012 36.3313C34.012 33.5216 34.7675 32.7909 37.6484 32.7831C42.4746 32.7694 47.3029 32.8201 52.1311 32.7538C53.6263 32.7324 54.5795 33.2215 55.3819 34.5075C59.3366 40.8363 63.2965 47.1606 67.2616 53.4803C71.9457 53.4803 76.6297 53.4803 81.3138 53.4803C84.4647 53.4803 85.228 52.6912 85.2456 49.5014C85.2456 45.1095 85.2456 40.7233 85.2456 36.3333C85.2456 33.5235 86.0011 32.7928 88.882 32.785C93.7083 32.7714 98.5384 32.822 103.365 32.7558C104.86 32.7344 105.813 33.2234 106.615 34.5095C111.206 41.8515 115.8 49.191 120.4 56.5278C124.948 63.7712 129.509 71.0047 134.082 78.2286C135.462 80.3934 135.659 82.4082 134.622 84.7172Z" fill="white"/>
<path d="M133.965 84.2398C132.545 87.5289 131.195 90.848 129.915 94.1972C129.174 96.1596 127.993 97.1055 125.898 97.0447C124.563 97.0068 123.227 96.9819 121.891 96.9701C125.96 93.1179 132.979 81.8457 119.644 55.343L120.608 56.6951C124.884 63.7717 129.171 70.8397 133.469 77.8992C134.756 80.0147 134.94 81.985 133.965 84.2398Z" fill="#BCBEC0"/>
<path d="M68.9178 104.678C68.9178 104.678 84.8205 106.632 84.9002 66.4646V102.2C84.9002 102.857 84.6403 103.487 84.1775 103.952C83.7148 104.417 83.0872 104.678 82.4329 104.678H68.9178Z" fill="#BCBEC0"/>
<path d="M19.2335 105.041H31.0327C31.7693 105.04 32.4755 104.754 32.9962 104.246C33.5169 103.737 33.8093 103.048 33.8093 102.329V66.8118C33.8093 66.8118 34.9124 105.041 19.2335 105.041Z" fill="#BCBEC0"/>
<path d="M113.436 34.7139C113.436 34.7139 120.183 15.1943 148.072 24.8957C149.728 31.6127 143.162 33.2545 136.597 29.9708C126.625 24.9833 113.436 34.7139 113.436 34.7139Z" fill="black"/>
<path d="M113.436 34.727L105.411 0.417969L148.072 24.7136C148.072 24.7136 122.189 17.2012 113.436 34.727Z" fill="#CC030B"/>
<mask id="path-61-inside-1_341_756" fill="white">
<path d="M33.7541 127.49C33.7416 128.203 33.7292 128.895 33.7167 129.563C33.7104 129.85 33.7042 130.143 33.6979 130.442C33.6979 130.742 33.6948 131.038 33.6886 131.331C33.6886 131.618 33.6855 131.895 33.6792 132.162C33.6792 132.424 33.6792 132.656 33.6792 132.86C33.6792 133.287 33.6823 133.803 33.6886 134.408C33.6948 135.013 33.7011 135.634 33.7073 136.271C33.7198 136.908 33.7354 137.52 33.7541 138.106C33.7729 138.692 33.7947 139.179 33.8197 139.567C33.9071 139.58 34.0226 139.596 34.1662 139.615C34.316 139.628 34.4721 139.641 34.6344 139.653C34.7967 139.66 34.9559 139.666 35.1119 139.673C35.268 139.679 35.3991 139.682 35.5052 139.682C35.9422 139.682 36.3886 139.653 36.8443 139.596C37.3063 139.532 37.7495 139.418 38.174 139.252C38.6048 139.087 39.0075 138.86 39.382 138.574C39.7628 138.281 40.0937 137.905 40.3746 137.446C40.6618 136.988 40.8866 136.437 41.0489 135.793C41.2112 135.144 41.2923 134.379 41.2923 133.5C41.2923 132.525 41.1768 131.659 40.9459 130.901C40.7149 130.137 40.3746 129.493 39.9252 128.971C39.4819 128.449 38.9294 128.054 38.2677 127.786C37.6122 127.512 36.8568 127.375 36.0015 127.375C35.833 127.375 35.6426 127.382 35.4303 127.394C35.2181 127.401 35.0058 127.41 34.7936 127.423C34.5876 127.429 34.3909 127.442 34.2036 127.461C34.0226 127.474 33.8727 127.484 33.7541 127.49ZM31.7034 126.63C31.847 126.636 31.9812 126.643 32.106 126.649C32.2122 126.656 32.3214 126.662 32.4338 126.668C32.5461 126.668 32.6367 126.668 32.7053 126.668C32.824 126.668 33.0206 126.662 33.2953 126.649C33.5762 126.636 33.8946 126.624 34.2504 126.611C34.6063 126.598 34.9746 126.585 35.3554 126.573C35.7425 126.56 36.1046 126.554 36.4417 126.554C37.3469 126.554 38.2084 126.668 39.0262 126.898C39.844 127.127 40.5619 127.503 41.18 128.025C41.798 128.547 42.2881 129.232 42.6502 130.079C43.0122 130.927 43.1933 131.968 43.1933 133.204C43.1933 134.089 43.0965 134.886 42.903 135.593C42.7157 136.3 42.4504 136.924 42.107 137.465C41.7637 138.007 41.3516 138.472 40.8709 138.86C40.3965 139.243 39.869 139.558 39.2884 139.806C38.7141 140.055 38.0991 140.236 37.4436 140.351C36.7881 140.466 36.1108 140.523 35.4116 140.523C35.1619 140.523 34.8591 140.513 34.5033 140.494C34.1537 140.482 33.801 140.466 33.4451 140.447C33.0893 140.427 32.7522 140.408 32.4338 140.389C32.1216 140.376 31.8782 140.37 31.7034 140.37V140.332C31.7408 140.198 31.7752 140.033 31.8064 139.835C31.8438 139.638 31.875 139.392 31.9 139.099C31.925 138.806 31.9437 138.459 31.9562 138.058C31.9687 137.65 31.9749 137.176 31.9749 136.634V130.414C31.9749 129.872 31.9687 129.398 31.9562 128.99C31.9437 128.576 31.925 128.223 31.9 127.93C31.875 127.63 31.8438 127.379 31.8064 127.175C31.7752 126.971 31.7408 126.802 31.7034 126.668V126.63Z"/>
<path d="M45.2815 130.099C45.8933 130.099 46.5207 130.099 47.1637 130.099C47.8067 130.092 48.4029 130.086 48.9523 130.079C49.5016 130.067 49.973 130.054 50.3663 130.041C50.7658 130.028 51.028 130.009 51.1529 129.984L50.7877 131.016C50.6191 130.971 50.4287 130.93 50.2164 130.892C50.0292 130.86 49.8013 130.831 49.5329 130.806C49.2707 130.774 48.9648 130.758 48.6152 130.758C48.4903 130.758 48.3467 130.764 48.1844 130.777C48.0221 130.783 47.866 130.793 47.7162 130.806C47.5414 130.818 47.3635 130.831 47.1824 130.844V134.618C47.6881 134.612 48.1438 134.599 48.5496 134.58C48.9554 134.561 49.3019 134.535 49.589 134.503C49.9262 134.478 50.2227 134.443 50.4786 134.398L50.2539 135.535C49.9105 135.491 49.5641 135.452 49.2145 135.421C48.9148 135.389 48.5839 135.363 48.2219 135.344C47.8598 135.319 47.5133 135.306 47.1824 135.306V139.644C47.763 139.644 48.2968 139.622 48.7837 139.577C49.2707 139.526 49.6952 139.472 50.0573 139.415C50.4818 139.345 50.8657 139.265 51.2091 139.176L50.9937 140.427C50.9 140.421 50.7471 140.412 50.5348 140.399C50.3288 140.392 50.1103 140.386 49.8793 140.38C49.6546 140.38 49.4423 140.376 49.2426 140.37C49.0428 140.37 48.9055 140.37 48.8305 140.37H45.2815V140.332C45.3252 140.198 45.3627 140.026 45.3939 139.816C45.4313 139.606 45.4594 139.348 45.4781 139.042C45.5031 138.73 45.5218 138.36 45.5343 137.934C45.5468 137.507 45.5531 137.007 45.5531 136.433V134.026C45.5531 133.452 45.5468 132.955 45.5343 132.535C45.5218 132.108 45.5031 131.742 45.4781 131.436C45.4594 131.124 45.4313 130.863 45.3939 130.653C45.3627 130.442 45.3252 130.271 45.2815 130.137V130.099Z"/>
<path d="M57.8577 132.096H57.6704C57.6329 131.987 57.5705 131.85 57.4831 131.685C57.4019 131.519 57.2896 131.357 57.146 131.197C57.0086 131.038 56.837 130.904 56.6309 130.796C56.4249 130.681 56.1783 130.624 55.8912 130.624C55.6727 130.624 55.476 130.662 55.3012 130.739C55.1327 130.809 54.9891 130.908 54.8705 131.035C54.7519 131.162 54.6613 131.315 54.5989 131.494C54.5365 131.666 54.5053 131.853 54.5053 132.057C54.5053 132.389 54.602 132.704 54.7956 133.003C54.9953 133.303 55.2419 133.602 55.5353 133.901C55.8287 134.194 56.1471 134.491 56.4905 134.79C56.8338 135.089 57.1522 135.402 57.4456 135.726C57.739 136.051 57.9825 136.395 58.176 136.758C58.3758 137.121 58.4757 137.51 58.4757 137.924C58.4757 138.23 58.4195 138.545 58.3071 138.87C58.201 139.195 58.0262 139.488 57.7827 139.749C57.5393 140.01 57.2271 140.224 56.8463 140.389C56.4655 140.561 56.0035 140.647 55.4604 140.647C55.1608 140.647 54.8736 140.622 54.5989 140.571C54.3305 140.52 54.0808 140.456 53.8498 140.38C53.625 140.31 53.4221 140.233 53.2411 140.15C53.0663 140.061 52.9196 139.978 52.801 139.902L52.9695 138.096H53.1662C53.2286 138.319 53.3191 138.542 53.4377 138.765C53.5626 138.988 53.7124 139.192 53.8872 139.376C54.0683 139.555 54.2774 139.701 54.5146 139.816C54.7581 139.924 55.0359 139.978 55.348 139.978C55.5665 139.978 55.7726 139.943 55.9661 139.873C56.1596 139.797 56.325 139.692 56.4624 139.558C56.606 139.424 56.7183 139.262 56.7995 139.071C56.8807 138.873 56.9212 138.653 56.9212 138.411C56.9212 138.125 56.865 137.86 56.7527 137.618C56.6403 137.37 56.4905 137.134 56.3032 136.911C56.1159 136.682 55.9037 136.462 55.6664 136.252C55.4354 136.042 55.1951 135.828 54.9454 135.612C54.6957 135.395 54.4522 135.175 54.215 134.952C53.984 134.723 53.7749 134.478 53.5876 134.217C53.4003 133.956 53.2505 133.678 53.1381 133.385C53.0257 133.086 52.9695 132.758 52.9695 132.401C52.9695 132.025 53.0476 131.688 53.2036 131.388C53.3597 131.089 53.5657 130.837 53.8217 130.634C54.0776 130.423 54.371 130.264 54.7019 130.156C55.0328 130.041 55.3761 129.984 55.732 129.984C55.9942 129.984 56.2376 130.003 56.4624 130.041C56.6934 130.079 56.8994 130.127 57.0804 130.185C57.2677 130.235 57.43 130.29 57.5674 130.347C57.7047 130.398 57.8171 130.439 57.9045 130.471L57.8577 132.096Z"/>
<path d="M62.3712 130.777C62.365 131.299 62.3587 131.806 62.3525 132.296C62.3525 132.506 62.3494 132.723 62.3431 132.946C62.3431 133.162 62.34 133.379 62.3338 133.596C62.3338 133.812 62.3338 134.019 62.3338 134.217C62.3338 134.408 62.3338 134.58 62.3338 134.733C62.3338 135.051 62.3338 135.437 62.3338 135.889C62.34 136.335 62.3462 136.793 62.3525 137.265C62.3587 137.736 62.3681 138.192 62.3806 138.631C62.3931 139.064 62.4087 139.427 62.4274 139.72C62.4898 139.733 62.571 139.746 62.6709 139.759C62.7708 139.765 62.8738 139.775 62.9799 139.787C63.0923 139.794 63.2015 139.8 63.3076 139.806C63.4138 139.806 63.5043 139.806 63.5792 139.806C63.9226 139.806 64.269 139.784 64.6186 139.739C64.9745 139.695 65.3147 139.612 65.6393 139.491C65.9702 139.364 66.2792 139.192 66.5664 138.975C66.8536 138.759 67.1033 138.481 67.3155 138.144C67.534 137.8 67.7026 137.389 67.8212 136.911C67.9461 136.427 68.0085 135.857 68.0085 135.201C68.0085 133.755 67.6682 132.64 66.9878 131.857C66.3136 131.073 65.3053 130.681 63.9631 130.681C63.832 130.681 63.6916 130.685 63.5417 130.691C63.3982 130.697 63.2546 130.707 63.111 130.72C62.9674 130.726 62.8301 130.736 62.699 130.748C62.5741 130.761 62.4649 130.771 62.3712 130.777ZM60.4328 130.079C60.5826 130.086 60.7231 130.089 60.8542 130.089C60.9666 130.095 61.0758 130.099 61.182 130.099C61.2881 130.099 61.3661 130.099 61.4161 130.099C61.5035 130.099 61.6595 130.095 61.8843 130.089C62.109 130.083 62.3618 130.076 62.6428 130.07C62.9299 130.057 63.2296 130.048 63.5417 130.041C63.8601 130.028 64.1535 130.022 64.422 130.022C65.1524 130.022 65.8485 130.108 66.5102 130.28C67.1719 130.452 67.7525 130.736 68.2519 131.13C68.7576 131.519 69.1572 132.032 69.4506 132.669C69.744 133.299 69.8907 134.08 69.8907 135.01C69.8907 136.01 69.7221 136.857 69.385 137.551C69.0479 138.246 68.5922 138.813 68.0178 139.252C67.4435 139.685 66.7755 140.001 66.0139 140.198C65.2585 140.389 64.4594 140.485 63.6167 140.485C63.4169 140.485 63.1672 140.478 62.8675 140.466C62.5679 140.453 62.262 140.44 61.9498 140.427C61.6377 140.415 61.3411 140.402 61.0602 140.389C60.7855 140.376 60.5764 140.37 60.4328 140.37V140.332C60.4765 140.198 60.514 140.026 60.5452 139.816C60.5826 139.606 60.6107 139.348 60.6295 139.042C60.6544 138.73 60.6732 138.36 60.6857 137.934C60.6981 137.507 60.7044 137.007 60.7044 136.433V134.026C60.7044 133.452 60.6981 132.952 60.6857 132.525C60.6732 132.099 60.6544 131.729 60.6295 131.417C60.6107 131.105 60.5826 130.844 60.5452 130.634C60.514 130.423 60.4765 130.251 60.4328 130.118V130.079Z"/>
<path d="M71.8759 130.099C72.4877 130.099 73.1151 130.099 73.7581 130.099C74.4011 130.092 74.9973 130.086 75.5467 130.079C76.096 130.067 76.5674 130.054 76.9607 130.041C77.3602 130.028 77.6224 130.009 77.7473 129.984L77.3821 131.016C77.2135 130.971 77.0231 130.93 76.8109 130.892C76.6236 130.86 76.3957 130.831 76.1273 130.806C75.8651 130.774 75.5592 130.758 75.2096 130.758C75.0847 130.758 74.9411 130.764 74.7788 130.777C74.6165 130.783 74.4604 130.793 74.3106 130.806C74.1358 130.818 73.9579 130.831 73.7768 130.844V134.618C74.2825 134.612 74.7382 134.599 75.144 134.58C75.5498 134.561 75.8963 134.535 76.1834 134.503C76.5206 134.478 76.8171 134.443 77.073 134.398L76.8483 135.535C76.505 135.491 76.1585 135.452 75.8089 135.421C75.5092 135.389 75.1784 135.363 74.8163 135.344C74.4542 135.319 74.1077 135.306 73.7768 135.306V139.644C74.3574 139.644 74.8912 139.622 75.3781 139.577C75.8651 139.526 76.2896 139.472 76.6517 139.415C77.0762 139.345 77.4601 139.265 77.8035 139.176L77.5881 140.427C77.4944 140.421 77.3415 140.412 77.1292 140.399C76.9232 140.392 76.7047 140.386 76.4737 140.38C76.249 140.38 76.0367 140.376 75.837 140.37C75.6372 140.37 75.4999 140.37 75.4249 140.37H71.8759V140.332C71.9196 140.198 71.9571 140.026 71.9883 139.816C72.0257 139.606 72.0538 139.348 72.0726 139.042C72.0975 138.73 72.1163 138.36 72.1287 137.934C72.1412 137.507 72.1475 137.007 72.1475 136.433V134.026C72.1475 133.452 72.1412 132.955 72.1287 132.535C72.1163 132.108 72.0975 131.742 72.0726 131.436C72.0538 131.124 72.0257 130.863 71.9883 130.653C71.9571 130.442 71.9196 130.271 71.8759 130.137V130.099Z"/>
<path d="M86.1563 140.332C86.1938 140.198 86.2281 140.033 86.2594 139.835C86.2968 139.638 86.328 139.392 86.353 139.099C86.378 138.806 86.3967 138.459 86.4092 138.058C86.4217 137.65 86.4279 137.176 86.4279 136.634V130.414C86.4279 129.872 86.3905 129.442 86.3155 129.124C86.2406 128.805 86.1501 128.56 86.044 128.388C85.9441 128.216 85.838 128.092 85.7256 128.016C85.6195 127.939 85.5289 127.869 85.454 127.805V127.767L88.3288 126.668V126.707C88.2914 126.84 88.2539 127.006 88.2165 127.203C88.1853 127.401 88.1572 127.649 88.1322 127.949C88.1072 128.242 88.0885 128.592 88.076 129C88.0635 129.401 88.0573 129.872 88.0573 130.414V136.634C88.0573 137.176 88.0635 137.65 88.076 138.058C88.0885 138.459 88.1072 138.806 88.1322 139.099C88.1572 139.392 88.1853 139.638 88.2165 139.835C88.2539 140.033 88.2914 140.198 88.3288 140.332V140.37H86.1563V140.332Z"/>
<path d="M89.1154 141.861C89.7897 141.81 90.4483 141.676 91.0913 141.459C91.7406 141.249 92.3617 140.969 92.9548 140.619C93.5478 140.275 94.1035 139.87 94.6216 139.405C95.146 138.934 95.6142 138.418 96.0262 137.857C96.4445 137.29 96.8003 136.685 97.0938 136.042C97.3934 135.392 97.615 134.714 97.7586 134.007C97.4964 134.172 97.2498 134.315 97.0188 134.436C96.7941 134.551 96.56 134.647 96.3165 134.723C96.0793 134.8 95.8233 134.857 95.5487 134.895C95.2802 134.933 94.9743 134.952 94.631 134.952C94.2002 134.952 93.7445 134.87 93.2638 134.704C92.7893 134.538 92.3523 134.284 91.9528 133.94C91.5533 133.596 91.2224 133.159 90.9602 132.631C90.698 132.102 90.5669 131.471 90.5669 130.739C90.5669 130.242 90.6605 129.739 90.8478 129.229C91.0351 128.713 91.316 128.251 91.6906 127.844C92.0714 127.429 92.549 127.092 93.1233 126.831C93.6977 126.57 94.375 126.439 95.1554 126.439C95.7609 126.439 96.3446 126.554 96.9065 126.783C97.4746 127.012 97.9771 127.363 98.4141 127.834C98.8511 128.299 99.1976 128.885 99.4535 129.592C99.7157 130.299 99.8468 131.134 99.8468 132.096C99.8468 132.936 99.7189 133.768 99.4629 134.589C99.207 135.405 98.848 136.182 98.386 136.921C97.9241 137.66 97.3716 138.348 96.7286 138.985C96.0855 139.615 95.3739 140.166 94.5935 140.638C93.8132 141.115 92.9797 141.498 92.0933 141.784C91.2068 142.071 90.2891 142.24 89.3402 142.291L89.1154 141.861ZM95.6891 133.949C96.0574 133.949 96.432 133.895 96.8128 133.787C97.1936 133.678 97.5495 133.513 97.8804 133.29C97.9116 133.112 97.9303 132.93 97.9365 132.745C97.949 132.561 97.9553 132.369 97.9553 132.172C97.9553 131.376 97.871 130.669 97.7024 130.051C97.5339 129.426 97.3091 128.901 97.0282 128.474C96.7473 128.047 96.4195 127.723 96.045 127.5C95.6766 127.277 95.2896 127.165 94.8838 127.165C94.5717 127.165 94.2658 127.226 93.9661 127.347C93.6665 127.468 93.398 127.652 93.1608 127.901C92.9236 128.149 92.7332 128.465 92.5896 128.847C92.446 129.229 92.3742 129.684 92.3742 130.213C92.3742 130.742 92.4522 131.236 92.6083 131.694C92.7644 132.146 92.986 132.541 93.2732 132.879C93.5603 133.21 93.9068 133.471 94.3126 133.663C94.7246 133.854 95.1835 133.949 95.6891 133.949Z"/>
<path d="M105.409 128.417C104.879 128.417 104.413 128.423 104.014 128.436C103.621 128.449 103.28 128.468 102.993 128.493C102.706 128.519 102.466 128.547 102.272 128.579C102.079 128.611 101.916 128.646 101.785 128.684H101.748V126.611H101.785C101.916 126.624 102.079 126.636 102.272 126.649C102.466 126.656 102.706 126.662 102.993 126.668C103.28 126.668 103.621 126.668 104.014 126.668C104.413 126.668 104.879 126.668 105.409 126.668H110.279V126.869L102.553 140.37H101.476L108.265 128.417H105.409Z"/>
<path d="M108.949 141.861C109.623 141.81 110.282 141.676 110.925 141.459C111.574 141.249 112.195 140.969 112.788 140.619C113.381 140.275 113.937 139.87 114.455 139.405C114.979 138.934 115.448 138.418 115.86 137.857C116.278 137.29 116.634 136.685 116.927 136.042C117.227 135.392 117.448 134.714 117.592 134.007C117.33 134.172 117.083 134.315 116.852 134.436C116.628 134.551 116.393 134.647 116.15 134.723C115.913 134.8 115.657 134.857 115.382 134.895C115.114 134.933 114.808 134.952 114.464 134.952C114.034 134.952 113.578 134.87 113.097 134.704C112.623 134.538 112.186 134.284 111.786 133.94C111.387 133.596 111.056 133.159 110.794 132.631C110.531 132.102 110.4 131.471 110.4 130.739C110.4 130.242 110.494 129.739 110.681 129.229C110.869 128.713 111.149 128.251 111.524 127.844C111.905 127.429 112.382 127.092 112.957 126.831C113.531 126.57 114.208 126.439 114.989 126.439C115.594 126.439 116.178 126.554 116.74 126.783C117.308 127.012 117.811 127.363 118.248 127.834C118.685 128.299 119.031 128.885 119.287 129.592C119.549 130.299 119.68 131.134 119.68 132.096C119.68 132.936 119.552 133.768 119.296 134.589C119.04 135.405 118.681 136.182 118.219 136.921C117.757 137.66 117.205 138.348 116.562 138.985C115.919 139.615 115.207 140.166 114.427 140.638C113.647 141.115 112.813 141.498 111.927 141.784C111.04 142.071 110.123 142.24 109.174 142.291L108.949 141.861ZM115.523 133.949C115.891 133.949 116.265 133.895 116.646 133.787C117.027 133.678 117.383 133.513 117.714 133.29C117.745 133.112 117.764 132.93 117.77 132.745C117.782 132.561 117.789 132.369 117.789 132.172C117.789 131.376 117.704 130.669 117.536 130.051C117.367 129.426 117.143 128.901 116.862 128.474C116.581 128.047 116.253 127.723 115.878 127.5C115.51 127.277 115.123 127.165 114.717 127.165C114.405 127.165 114.099 127.226 113.8 127.347C113.5 127.468 113.231 127.652 112.994 127.901C112.757 128.149 112.567 128.465 112.423 128.847C112.279 129.229 112.208 129.684 112.208 130.213C112.208 130.742 112.286 131.236 112.442 131.694C112.598 132.146 112.819 132.541 113.107 132.879C113.394 133.21 113.74 133.471 114.146 133.663C114.558 133.854 115.017 133.949 115.523 133.949Z"/>
</mask>
<path d="M33.7541 127.49C33.7416 128.203 33.7292 128.895 33.7167 129.563C33.7104 129.85 33.7042 130.143 33.6979 130.442C33.6979 130.742 33.6948 131.038 33.6886 131.331C33.6886 131.618 33.6855 131.895 33.6792 132.162C33.6792 132.424 33.6792 132.656 33.6792 132.86C33.6792 133.287 33.6823 133.803 33.6886 134.408C33.6948 135.013 33.7011 135.634 33.7073 136.271C33.7198 136.908 33.7354 137.52 33.7541 138.106C33.7729 138.692 33.7947 139.179 33.8197 139.567C33.9071 139.58 34.0226 139.596 34.1662 139.615C34.316 139.628 34.4721 139.641 34.6344 139.653C34.7967 139.66 34.9559 139.666 35.1119 139.673C35.268 139.679 35.3991 139.682 35.5052 139.682C35.9422 139.682 36.3886 139.653 36.8443 139.596C37.3063 139.532 37.7495 139.418 38.174 139.252C38.6048 139.087 39.0075 138.86 39.382 138.574C39.7628 138.281 40.0937 137.905 40.3746 137.446C40.6618 136.988 40.8866 136.437 41.0489 135.793C41.2112 135.144 41.2923 134.379 41.2923 133.5C41.2923 132.525 41.1768 131.659 40.9459 130.901C40.7149 130.137 40.3746 129.493 39.9252 128.971C39.4819 128.449 38.9294 128.054 38.2677 127.786C37.6122 127.512 36.8568 127.375 36.0015 127.375C35.833 127.375 35.6426 127.382 35.4303 127.394C35.2181 127.401 35.0058 127.41 34.7936 127.423C34.5876 127.429 34.3909 127.442 34.2036 127.461C34.0226 127.474 33.8727 127.484 33.7541 127.49ZM31.7034 126.63C31.847 126.636 31.9812 126.643 32.106 126.649C32.2122 126.656 32.3214 126.662 32.4338 126.668C32.5461 126.668 32.6367 126.668 32.7053 126.668C32.824 126.668 33.0206 126.662 33.2953 126.649C33.5762 126.636 33.8946 126.624 34.2504 126.611C34.6063 126.598 34.9746 126.585 35.3554 126.573C35.7425 126.56 36.1046 126.554 36.4417 126.554C37.3469 126.554 38.2084 126.668 39.0262 126.898C39.844 127.127 40.5619 127.503 41.18 128.025C41.798 128.547 42.2881 129.232 42.6502 130.079C43.0122 130.927 43.1933 131.968 43.1933 133.204C43.1933 134.089 43.0965 134.886 42.903 135.593C42.7157 136.3 42.4504 136.924 42.107 137.465C41.7637 138.007 41.3516 138.472 40.8709 138.86C40.3965 139.243 39.869 139.558 39.2884 139.806C38.7141 140.055 38.0991 140.236 37.4436 140.351C36.7881 140.466 36.1108 140.523 35.4116 140.523C35.1619 140.523 34.8591 140.513 34.5033 140.494C34.1537 140.482 33.801 140.466 33.4451 140.447C33.0893 140.427 32.7522 140.408 32.4338 140.389C32.1216 140.376 31.8782 140.37 31.7034 140.37V140.332C31.7408 140.198 31.7752 140.033 31.8064 139.835C31.8438 139.638 31.875 139.392 31.9 139.099C31.925 138.806 31.9437 138.459 31.9562 138.058C31.9687 137.65 31.9749 137.176 31.9749 136.634V130.414C31.9749 129.872 31.9687 129.398 31.9562 128.99C31.9437 128.576 31.925 128.223 31.9 127.93C31.875 127.63 31.8438 127.379 31.8064 127.175C31.7752 126.971 31.7408 126.802 31.7034 126.668V126.63Z" fill="white"/>
<path d="M45.2815 130.099C45.8933 130.099 46.5207 130.099 47.1637 130.099C47.8067 130.092 48.4029 130.086 48.9523 130.079C49.5016 130.067 49.973 130.054 50.3663 130.041C50.7658 130.028 51.028 130.009 51.1529 129.984L50.7877 131.016C50.6191 130.971 50.4287 130.93 50.2164 130.892C50.0292 130.86 49.8013 130.831 49.5329 130.806C49.2707 130.774 48.9648 130.758 48.6152 130.758C48.4903 130.758 48.3467 130.764 48.1844 130.777C48.0221 130.783 47.866 130.793 47.7162 130.806C47.5414 130.818 47.3635 130.831 47.1824 130.844V134.618C47.6881 134.612 48.1438 134.599 48.5496 134.58C48.9554 134.561 49.3019 134.535 49.589 134.503C49.9262 134.478 50.2227 134.443 50.4786 134.398L50.2539 135.535C49.9105 135.491 49.5641 135.452 49.2145 135.421C48.9148 135.389 48.5839 135.363 48.2219 135.344C47.8598 135.319 47.5133 135.306 47.1824 135.306V139.644C47.763 139.644 48.2968 139.622 48.7837 139.577C49.2707 139.526 49.6952 139.472 50.0573 139.415C50.4818 139.345 50.8657 139.265 51.2091 139.176L50.9937 140.427C50.9 140.421 50.7471 140.412 50.5348 140.399C50.3288 140.392 50.1103 140.386 49.8793 140.38C49.6546 140.38 49.4423 140.376 49.2426 140.37C49.0428 140.37 48.9055 140.37 48.8305 140.37H45.2815V140.332C45.3252 140.198 45.3627 140.026 45.3939 139.816C45.4313 139.606 45.4594 139.348 45.4781 139.042C45.5031 138.73 45.5218 138.36 45.5343 137.934C45.5468 137.507 45.5531 137.007 45.5531 136.433V134.026C45.5531 133.452 45.5468 132.955 45.5343 132.535C45.5218 132.108 45.5031 131.742 45.4781 131.436C45.4594 131.124 45.4313 130.863 45.3939 130.653C45.3627 130.442 45.3252 130.271 45.2815 130.137V130.099Z" fill="white"/>
<path d="M57.8577 132.096H57.6704C57.6329 131.987 57.5705 131.85 57.4831 131.685C57.4019 131.519 57.2896 131.357 57.146 131.197C57.0086 131.038 56.837 130.904 56.6309 130.796C56.4249 130.681 56.1783 130.624 55.8912 130.624C55.6727 130.624 55.476 130.662 55.3012 130.739C55.1327 130.809 54.9891 130.908 54.8705 131.035C54.7519 131.162 54.6613 131.315 54.5989 131.494C54.5365 131.666 54.5053 131.853 54.5053 132.057C54.5053 132.389 54.602 132.704 54.7956 133.003C54.9953 133.303 55.2419 133.602 55.5353 133.901C55.8287 134.194 56.1471 134.491 56.4905 134.79C56.8338 135.089 57.1522 135.402 57.4456 135.726C57.739 136.051 57.9825 136.395 58.176 136.758C58.3758 137.121 58.4757 137.51 58.4757 137.924C58.4757 138.23 58.4195 138.545 58.3071 138.87C58.201 139.195 58.0262 139.488 57.7827 139.749C57.5393 140.01 57.2271 140.224 56.8463 140.389C56.4655 140.561 56.0035 140.647 55.4604 140.647C55.1608 140.647 54.8736 140.622 54.5989 140.571C54.3305 140.52 54.0808 140.456 53.8498 140.38C53.625 140.31 53.4221 140.233 53.2411 140.15C53.0663 140.061 52.9196 139.978 52.801 139.902L52.9695 138.096H53.1662C53.2286 138.319 53.3191 138.542 53.4377 138.765C53.5626 138.988 53.7124 139.192 53.8872 139.376C54.0683 139.555 54.2774 139.701 54.5146 139.816C54.7581 139.924 55.0359 139.978 55.348 139.978C55.5665 139.978 55.7726 139.943 55.9661 139.873C56.1596 139.797 56.325 139.692 56.4624 139.558C56.606 139.424 56.7183 139.262 56.7995 139.071C56.8807 138.873 56.9212 138.653 56.9212 138.411C56.9212 138.125 56.865 137.86 56.7527 137.618C56.6403 137.37 56.4905 137.134 56.3032 136.911C56.1159 136.682 55.9037 136.462 55.6664 136.252C55.4354 136.042 55.1951 135.828 54.9454 135.612C54.6957 135.395 54.4522 135.175 54.215 134.952C53.984 134.723 53.7749 134.478 53.5876 134.217C53.4003 133.956 53.2505 133.678 53.1381 133.385C53.0257 133.086 52.9695 132.758 52.9695 132.401C52.9695 132.025 53.0476 131.688 53.2036 131.388C53.3597 131.089 53.5657 130.837 53.8217 130.634C54.0776 130.423 54.371 130.264 54.7019 130.156C55.0328 130.041 55.3761 129.984 55.732 129.984C55.9942 129.984 56.2376 130.003 56.4624 130.041C56.6934 130.079 56.8994 130.127 57.0804 130.185C57.2677 130.235 57.43 130.29 57.5674 130.347C57.7047 130.398 57.8171 130.439 57.9045 130.471L57.8577 132.096Z" fill="white"/>
<path d="M62.3712 130.777C62.365 131.299 62.3587 131.806 62.3525 132.296C62.3525 132.506 62.3494 132.723 62.3431 132.946C62.3431 133.162 62.34 133.379 62.3338 133.596C62.3338 133.812 62.3338 134.019 62.3338 134.217C62.3338 134.408 62.3338 134.58 62.3338 134.733C62.3338 135.051 62.3338 135.437 62.3338 135.889C62.34 136.335 62.3462 136.793 62.3525 137.265C62.3587 137.736 62.3681 138.192 62.3806 138.631C62.3931 139.064 62.4087 139.427 62.4274 139.72C62.4898 139.733 62.571 139.746 62.6709 139.759C62.7708 139.765 62.8738 139.775 62.9799 139.787C63.0923 139.794 63.2015 139.8 63.3076 139.806C63.4138 139.806 63.5043 139.806 63.5792 139.806C63.9226 139.806 64.269 139.784 64.6186 139.739C64.9745 139.695 65.3147 139.612 65.6393 139.491C65.9702 139.364 66.2792 139.192 66.5664 138.975C66.8536 138.759 67.1033 138.481 67.3155 138.144C67.534 137.8 67.7026 137.389 67.8212 136.911C67.9461 136.427 68.0085 135.857 68.0085 135.201C68.0085 133.755 67.6682 132.64 66.9878 131.857C66.3136 131.073 65.3053 130.681 63.9631 130.681C63.832 130.681 63.6916 130.685 63.5417 130.691C63.3982 130.697 63.2546 130.707 63.111 130.72C62.9674 130.726 62.8301 130.736 62.699 130.748C62.5741 130.761 62.4649 130.771 62.3712 130.777ZM60.4328 130.079C60.5826 130.086 60.7231 130.089 60.8542 130.089C60.9666 130.095 61.0758 130.099 61.182 130.099C61.2881 130.099 61.3661 130.099 61.4161 130.099C61.5035 130.099 61.6595 130.095 61.8843 130.089C62.109 130.083 62.3618 130.076 62.6428 130.07C62.9299 130.057 63.2296 130.048 63.5417 130.041C63.8601 130.028 64.1535 130.022 64.422 130.022C65.1524 130.022 65.8485 130.108 66.5102 130.28C67.1719 130.452 67.7525 130.736 68.2519 131.13C68.7576 131.519 69.1572 132.032 69.4506 132.669C69.744 133.299 69.8907 134.08 69.8907 135.01C69.8907 136.01 69.7221 136.857 69.385 137.551C69.0479 138.246 68.5922 138.813 68.0178 139.252C67.4435 139.685 66.7755 140.001 66.0139 140.198C65.2585 140.389 64.4594 140.485 63.6167 140.485C63.4169 140.485 63.1672 140.478 62.8675 140.466C62.5679 140.453 62.262 140.44 61.9498 140.427C61.6377 140.415 61.3411 140.402 61.0602 140.389C60.7855 140.376 60.5764 140.37 60.4328 140.37V140.332C60.4765 140.198 60.514 140.026 60.5452 139.816C60.5826 139.606 60.6107 139.348 60.6295 139.042C60.6544 138.73 60.6732 138.36 60.6857 137.934C60.6981 137.507 60.7044 137.007 60.7044 136.433V134.026C60.7044 133.452 60.6981 132.952 60.6857 132.525C60.6732 132.099 60.6544 131.729 60.6295 131.417C60.6107 131.105 60.5826 130.844 60.5452 130.634C60.514 130.423 60.4765 130.251 60.4328 130.118V130.079Z" fill="white"/>
<path d="M71.8759 130.099C72.4877 130.099 73.1151 130.099 73.7581 130.099C74.4011 130.092 74.9973 130.086 75.5467 130.079C76.096 130.067 76.5674 130.054 76.9607 130.041C77.3602 130.028 77.6224 130.009 77.7473 129.984L77.3821 131.016C77.2135 130.971 77.0231 130.93 76.8109 130.892C76.6236 130.86 76.3957 130.831 76.1273 130.806C75.8651 130.774 75.5592 130.758 75.2096 130.758C75.0847 130.758 74.9411 130.764 74.7788 130.777C74.6165 130.783 74.4604 130.793 74.3106 130.806C74.1358 130.818 73.9579 130.831 73.7768 130.844V134.618C74.2825 134.612 74.7382 134.599 75.144 134.58C75.5498 134.561 75.8963 134.535 76.1834 134.503C76.5206 134.478 76.8171 134.443 77.073 134.398L76.8483 135.535C76.505 135.491 76.1585 135.452 75.8089 135.421C75.5092 135.389 75.1784 135.363 74.8163 135.344C74.4542 135.319 74.1077 135.306 73.7768 135.306V139.644C74.3574 139.644 74.8912 139.622 75.3781 139.577C75.8651 139.526 76.2896 139.472 76.6517 139.415C77.0762 139.345 77.4601 139.265 77.8035 139.176L77.5881 140.427C77.4944 140.421 77.3415 140.412 77.1292 140.399C76.9232 140.392 76.7047 140.386 76.4737 140.38C76.249 140.38 76.0367 140.376 75.837 140.37C75.6372 140.37 75.4999 140.37 75.4249 140.37H71.8759V140.332C71.9196 140.198 71.9571 140.026 71.9883 139.816C72.0257 139.606 72.0538 139.348 72.0726 139.042C72.0975 138.73 72.1163 138.36 72.1287 137.934C72.1412 137.507 72.1475 137.007 72.1475 136.433V134.026C72.1475 133.452 72.1412 132.955 72.1287 132.535C72.1163 132.108 72.0975 131.742 72.0726 131.436C72.0538 131.124 72.0257 130.863 71.9883 130.653C71.9571 130.442 71.9196 130.271 71.8759 130.137V130.099Z" fill="white"/>
<path d="M86.1563 140.332C86.1938 140.198 86.2281 140.033 86.2594 139.835C86.2968 139.638 86.328 139.392 86.353 139.099C86.378 138.806 86.3967 138.459 86.4092 138.058C86.4217 137.65 86.4279 137.176 86.4279 136.634V130.414C86.4279 129.872 86.3905 129.442 86.3155 129.124C86.2406 128.805 86.1501 128.56 86.044 128.388C85.9441 128.216 85.838 128.092 85.7256 128.016C85.6195 127.939 85.5289 127.869 85.454 127.805V127.767L88.3288 126.668V126.707C88.2914 126.84 88.2539 127.006 88.2165 127.203C88.1853 127.401 88.1572 127.649 88.1322 127.949C88.1072 128.242 88.0885 128.592 88.076 129C88.0635 129.401 88.0573 129.872 88.0573 130.414V136.634C88.0573 137.176 88.0635 137.65 88.076 138.058C88.0885 138.459 88.1072 138.806 88.1322 139.099C88.1572 139.392 88.1853 139.638 88.2165 139.835C88.2539 140.033 88.2914 140.198 88.3288 140.332V140.37H86.1563V140.332Z" fill="white"/>
<path d="M89.1154 141.861C89.7897 141.81 90.4483 141.676 91.0913 141.459C91.7406 141.249 92.3617 140.969 92.9548 140.619C93.5478 140.275 94.1035 139.87 94.6216 139.405C95.146 138.934 95.6142 138.418 96.0262 137.857C96.4445 137.29 96.8003 136.685 97.0938 136.042C97.3934 135.392 97.615 134.714 97.7586 134.007C97.4964 134.172 97.2498 134.315 97.0188 134.436C96.7941 134.551 96.56 134.647 96.3165 134.723C96.0793 134.8 95.8233 134.857 95.5487 134.895C95.2802 134.933 94.9743 134.952 94.631 134.952C94.2002 134.952 93.7445 134.87 93.2638 134.704C92.7893 134.538 92.3523 134.284 91.9528 133.94C91.5533 133.596 91.2224 133.159 90.9602 132.631C90.698 132.102 90.5669 131.471 90.5669 130.739C90.5669 130.242 90.6605 129.739 90.8478 129.229C91.0351 128.713 91.316 128.251 91.6906 127.844C92.0714 127.429 92.549 127.092 93.1233 126.831C93.6977 126.57 94.375 126.439 95.1554 126.439C95.7609 126.439 96.3446 126.554 96.9065 126.783C97.4746 127.012 97.9771 127.363 98.4141 127.834C98.8511 128.299 99.1976 128.885 99.4535 129.592C99.7157 130.299 99.8468 131.134 99.8468 132.096C99.8468 132.936 99.7189 133.768 99.4629 134.589C99.207 135.405 98.848 136.182 98.386 136.921C97.9241 137.66 97.3716 138.348 96.7286 138.985C96.0855 139.615 95.3739 140.166 94.5935 140.638C93.8132 141.115 92.9797 141.498 92.0933 141.784C91.2068 142.071 90.2891 142.24 89.3402 142.291L89.1154 141.861ZM95.6891 133.949C96.0574 133.949 96.432 133.895 96.8128 133.787C97.1936 133.678 97.5495 133.513 97.8804 133.29C97.9116 133.112 97.9303 132.93 97.9365 132.745C97.949 132.561 97.9553 132.369 97.9553 132.172C97.9553 131.376 97.871 130.669 97.7024 130.051C97.5339 129.426 97.3091 128.901 97.0282 128.474C96.7473 128.047 96.4195 127.723 96.045 127.5C95.6766 127.277 95.2896 127.165 94.8838 127.165C94.5717 127.165 94.2658 127.226 93.9661 127.347C93.6665 127.468 93.398 127.652 93.1608 127.901C92.9236 128.149 92.7332 128.465 92.5896 128.847C92.446 129.229 92.3742 129.684 92.3742 130.213C92.3742 130.742 92.4522 131.236 92.6083 131.694C92.7644 132.146 92.986 132.541 93.2732 132.879C93.5603 133.21 93.9068 133.471 94.3126 133.663C94.7246 133.854 95.1835 133.949 95.6891 133.949Z" fill="white"/>
<path d="M105.409 128.417C104.879 128.417 104.413 128.423 104.014 128.436C103.621 128.449 103.28 128.468 102.993 128.493C102.706 128.519 102.466 128.547 102.272 128.579C102.079 128.611 101.916 128.646 101.785 128.684H101.748V126.611H101.785C101.916 126.624 102.079 126.636 102.272 126.649C102.466 126.656 102.706 126.662 102.993 126.668C103.28 126.668 103.621 126.668 104.014 126.668C104.413 126.668 104.879 126.668 105.409 126.668H110.279V126.869L102.553 140.37H101.476L108.265 128.417H105.409Z" fill="white"/>
<path d="M108.949 141.861C109.623 141.81 110.282 141.676 110.925 141.459C111.574 141.249 112.195 140.969 112.788 140.619C113.381 140.275 113.937 139.87 114.455 139.405C114.979 138.934 115.448 138.418 115.86 137.857C116.278 137.29 116.634 136.685 116.927 136.042C117.227 135.392 117.448 134.714 117.592 134.007C117.33 134.172 117.083 134.315 116.852 134.436C116.628 134.551 116.393 134.647 116.15 134.723C115.913 134.8 115.657 134.857 115.382 134.895C115.114 134.933 114.808 134.952 114.464 134.952C114.034 134.952 113.578 134.87 113.097 134.704C112.623 134.538 112.186 134.284 111.786 133.94C111.387 133.596 111.056 133.159 110.794 132.631C110.531 132.102 110.4 131.471 110.4 130.739C110.4 130.242 110.494 129.739 110.681 129.229C110.869 128.713 111.149 128.251 111.524 127.844C111.905 127.429 112.382 127.092 112.957 126.831C113.531 126.57 114.208 126.439 114.989 126.439C115.594 126.439 116.178 126.554 116.74 126.783C117.308 127.012 117.811 127.363 118.248 127.834C118.685 128.299 119.031 128.885 119.287 129.592C119.549 130.299 119.68 131.134 119.68 132.096C119.68 132.936 119.552 133.768 119.296 134.589C119.04 135.405 118.681 136.182 118.219 136.921C117.757 137.66 117.205 138.348 116.562 138.985C115.919 139.615 115.207 140.166 114.427 140.638C113.647 141.115 112.813 141.498 111.927 141.784C111.04 142.071 110.123 142.24 109.174 142.291L108.949 141.861ZM115.523 133.949C115.891 133.949 116.265 133.895 116.646 133.787C117.027 133.678 117.383 133.513 117.714 133.29C117.745 133.112 117.764 132.93 117.77 132.745C117.782 132.561 117.789 132.369 117.789 132.172C117.789 131.376 117.704 130.669 117.536 130.051C117.367 129.426 117.143 128.901 116.862 128.474C116.581 128.047 116.253 127.723 115.878 127.5C115.51 127.277 115.123 127.165 114.717 127.165C114.405 127.165 114.099 127.226 113.8 127.347C113.5 127.468 113.231 127.652 112.994 127.901C112.757 128.149 112.567 128.465 112.423 128.847C112.279 129.229 112.208 129.684 112.208 130.213C112.208 130.742 112.286 131.236 112.442 131.694C112.598 132.146 112.819 132.541 113.107 132.879C113.394 133.21 113.74 133.471 114.146 133.663C114.558 133.854 115.017 133.949 115.523 133.949Z" fill="white"/>
<path d="M33.7541 127.49C33.7416 128.203 33.7292 128.895 33.7167 129.563C33.7104 129.85 33.7042 130.143 33.6979 130.442C33.6979 130.742 33.6948 131.038 33.6886 131.331C33.6886 131.618 33.6855 131.895 33.6792 132.162C33.6792 132.424 33.6792 132.656 33.6792 132.86C33.6792 133.287 33.6823 133.803 33.6886 134.408C33.6948 135.013 33.7011 135.634 33.7073 136.271C33.7198 136.908 33.7354 137.52 33.7541 138.106C33.7729 138.692 33.7947 139.179 33.8197 139.567C33.9071 139.58 34.0226 139.596 34.1662 139.615C34.316 139.628 34.4721 139.641 34.6344 139.653C34.7967 139.66 34.9559 139.666 35.1119 139.673C35.268 139.679 35.3991 139.682 35.5052 139.682C35.9422 139.682 36.3886 139.653 36.8443 139.596C37.3063 139.532 37.7495 139.418 38.174 139.252C38.6048 139.087 39.0075 138.86 39.382 138.574C39.7628 138.281 40.0937 137.905 40.3746 137.446C40.6618 136.988 40.8866 136.437 41.0489 135.793C41.2112 135.144 41.2923 134.379 41.2923 133.5C41.2923 132.525 41.1768 131.659 40.9459 130.901C40.7149 130.137 40.3746 129.493 39.9252 128.971C39.4819 128.449 38.9294 128.054 38.2677 127.786C37.6122 127.512 36.8568 127.375 36.0015 127.375C35.833 127.375 35.6426 127.382 35.4303 127.394C35.2181 127.401 35.0058 127.41 34.7936 127.423C34.5876 127.429 34.3909 127.442 34.2036 127.461C34.0226 127.474 33.8727 127.484 33.7541 127.49ZM31.7034 126.63C31.847 126.636 31.9812 126.643 32.106 126.649C32.2122 126.656 32.3214 126.662 32.4338 126.668C32.5461 126.668 32.6367 126.668 32.7053 126.668C32.824 126.668 33.0206 126.662 33.2953 126.649C33.5762 126.636 33.8946 126.624 34.2504 126.611C34.6063 126.598 34.9746 126.585 35.3554 126.573C35.7425 126.56 36.1046 126.554 36.4417 126.554C37.3469 126.554 38.2084 126.668 39.0262 126.898C39.844 127.127 40.5619 127.503 41.18 128.025C41.798 128.547 42.2881 129.232 42.6502 130.079C43.0122 130.927 43.1933 131.968 43.1933 133.204C43.1933 134.089 43.0965 134.886 42.903 135.593C42.7157 136.3 42.4504 136.924 42.107 137.465C41.7637 138.007 41.3516 138.472 40.8709 138.86C40.3965 139.243 39.869 139.558 39.2884 139.806C38.7141 140.055 38.0991 140.236 37.4436 140.351C36.7881 140.466 36.1108 140.523 35.4116 140.523C35.1619 140.523 34.8591 140.513 34.5033 140.494C34.1537 140.482 33.801 140.466 33.4451 140.447C33.0893 140.427 32.7522 140.408 32.4338 140.389C32.1216 140.376 31.8782 140.37 31.7034 140.37V140.332C31.7408 140.198 31.7752 140.033 31.8064 139.835C31.8438 139.638 31.875 139.392 31.9 139.099C31.925 138.806 31.9437 138.459 31.9562 138.058C31.9687 137.65 31.9749 137.176 31.9749 136.634V130.414C31.9749 129.872 31.9687 129.398 31.9562 128.99C31.9437 128.576 31.925 128.223 31.9 127.93C31.875 127.63 31.8438 127.379 31.8064 127.175C31.7752 126.971 31.7408 126.802 31.7034 126.668V126.63Z" stroke="white" stroke-width="2" mask="url(#path-61-inside-1_341_756)"/>
<path d="M45.2815 130.099C45.8933 130.099 46.5207 130.099 47.1637 130.099C47.8067 130.092 48.4029 130.086 48.9523 130.079C49.5016 130.067 49.973 130.054 50.3663 130.041C50.7658 130.028 51.028 130.009 51.1529 129.984L50.7877 131.016C50.6191 130.971 50.4287 130.93 50.2164 130.892C50.0292 130.86 49.8013 130.831 49.5329 130.806C49.2707 130.774 48.9648 130.758 48.6152 130.758C48.4903 130.758 48.3467 130.764 48.1844 130.777C48.0221 130.783 47.866 130.793 47.7162 130.806C47.5414 130.818 47.3635 130.831 47.1824 130.844V134.618C47.6881 134.612 48.1438 134.599 48.5496 134.58C48.9554 134.561 49.3019 134.535 49.589 134.503C49.9262 134.478 50.2227 134.443 50.4786 134.398L50.2539 135.535C49.9105 135.491 49.5641 135.452 49.2145 135.421C48.9148 135.389 48.5839 135.363 48.2219 135.344C47.8598 135.319 47.5133 135.306 47.1824 135.306V139.644C47.763 139.644 48.2968 139.622 48.7837 139.577C49.2707 139.526 49.6952 139.472 50.0573 139.415C50.4818 139.345 50.8657 139.265 51.2091 139.176L50.9937 140.427C50.9 140.421 50.7471 140.412 50.5348 140.399C50.3288 140.392 50.1103 140.386 49.8793 140.38C49.6546 140.38 49.4423 140.376 49.2426 140.37C49.0428 140.37 48.9055 140.37 48.8305 140.37H45.2815V140.332C45.3252 140.198 45.3627 140.026 45.3939 139.816C45.4313 139.606 45.4594 139.348 45.4781 139.042C45.5031 138.73 45.5218 138.36 45.5343 137.934C45.5468 137.507 45.5531 137.007 45.5531 136.433V134.026C45.5531 133.452 45.5468 132.955 45.5343 132.535C45.5218 132.108 45.5031 131.742 45.4781 131.436C45.4594 131.124 45.4313 130.863 45.3939 130.653C45.3627 130.442 45.3252 130.271 45.2815 130.137V130.099Z" stroke="white" stroke-width="2" mask="url(#path-61-inside-1_341_756)"/>
<path d="M57.8577 132.096H57.6704C57.6329 131.987 57.5705 131.85 57.4831 131.685C57.4019 131.519 57.2896 131.357 57.146 131.197C57.0086 131.038 56.837 130.904 56.6309 130.796C56.4249 130.681 56.1783 130.624 55.8912 130.624C55.6727 130.624 55.476 130.662 55.3012 130.739C55.1327 130.809 54.9891 130.908 54.8705 131.035C54.7519 131.162 54.6613 131.315 54.5989 131.494C54.5365 131.666 54.5053 131.853 54.5053 132.057C54.5053 132.389 54.602 132.704 54.7956 133.003C54.9953 133.303 55.2419 133.602 55.5353 133.901C55.8287 134.194 56.1471 134.491 56.4905 134.79C56.8338 135.089 57.1522 135.402 57.4456 135.726C57.739 136.051 57.9825 136.395 58.176 136.758C58.3758 137.121 58.4757 137.51 58.4757 137.924C58.4757 138.23 58.4195 138.545 58.3071 138.87C58.201 139.195 58.0262 139.488 57.7827 139.749C57.5393 140.01 57.2271 140.224 56.8463 140.389C56.4655 140.561 56.0035 140.647 55.4604 140.647C55.1608 140.647 54.8736 140.622 54.5989 140.571C54.3305 140.52 54.0808 140.456 53.8498 140.38C53.625 140.31 53.4221 140.233 53.2411 140.15C53.0663 140.061 52.9196 139.978 52.801 139.902L52.9695 138.096H53.1662C53.2286 138.319 53.3191 138.542 53.4377 138.765C53.5626 138.988 53.7124 139.192 53.8872 139.376C54.0683 139.555 54.2774 139.701 54.5146 139.816C54.7581 139.924 55.0359 139.978 55.348 139.978C55.5665 139.978 55.7726 139.943 55.9661 139.873C56.1596 139.797 56.325 139.692 56.4624 139.558C56.606 139.424 56.7183 139.262 56.7995 139.071C56.8807 138.873 56.9212 138.653 56.9212 138.411C56.9212 138.125 56.865 137.86 56.7527 137.618C56.6403 137.37 56.4905 137.134 56.3032 136.911C56.1159 136.682 55.9037 136.462 55.6664 136.252C55.4354 136.042 55.1951 135.828 54.9454 135.612C54.6957 135.395 54.4522 135.175 54.215 134.952C53.984 134.723 53.7749 134.478 53.5876 134.217C53.4003 133.956 53.2505 133.678 53.1381 133.385C53.0257 133.086 52.9695 132.758 52.9695 132.401C52.9695 132.025 53.0476 131.688 53.2036 131.388C53.3597 131.089 53.5657 130.837 53.8217 130.634C54.0776 130.423 54.371 130.264 54.7019 130.156C55.0328 130.041 55.3761 129.984 55.732 129.984C55.9942 129.984 56.2376 130.003 56.4624 130.041C56.6934 130.079 56.8994 130.127 57.0804 130.185C57.2677 130.235 57.43 130.29 57.5674 130.347C57.7047 130.398 57.8171 130.439 57.9045 130.471L57.8577 132.096Z" stroke="white" stroke-width="2" mask="url(#path-61-inside-1_341_756)"/>
<path d="M62.3712 130.777C62.365 131.299 62.3587 131.806 62.3525 132.296C62.3525 132.506 62.3494 132.723 62.3431 132.946C62.3431 133.162 62.34 133.379 62.3338 133.596C62.3338 133.812 62.3338 134.019 62.3338 134.217C62.3338 134.408 62.3338 134.58 62.3338 134.733C62.3338 135.051 62.3338 135.437 62.3338 135.889C62.34 136.335 62.3462 136.793 62.3525 137.265C62.3587 137.736 62.3681 138.192 62.3806 138.631C62.3931 139.064 62.4087 139.427 62.4274 139.72C62.4898 139.733 62.571 139.746 62.6709 139.759C62.7708 139.765 62.8738 139.775 62.9799 139.787C63.0923 139.794 63.2015 139.8 63.3076 139.806C63.4138 139.806 63.5043 139.806 63.5792 139.806C63.9226 139.806 64.269 139.784 64.6186 139.739C64.9745 139.695 65.3147 139.612 65.6393 139.491C65.9702 139.364 66.2792 139.192 66.5664 138.975C66.8536 138.759 67.1033 138.481 67.3155 138.144C67.534 137.8 67.7026 137.389 67.8212 136.911C67.9461 136.427 68.0085 135.857 68.0085 135.201C68.0085 133.755 67.6682 132.64 66.9878 131.857C66.3136 131.073 65.3053 130.681 63.9631 130.681C63.832 130.681 63.6916 130.685 63.5417 130.691C63.3982 130.697 63.2546 130.707 63.111 130.72C62.9674 130.726 62.8301 130.736 62.699 130.748C62.5741 130.761 62.4649 130.771 62.3712 130.777ZM60.4328 130.079C60.5826 130.086 60.7231 130.089 60.8542 130.089C60.9666 130.095 61.0758 130.099 61.182 130.099C61.2881 130.099 61.3661 130.099 61.4161 130.099C61.5035 130.099 61.6595 130.095 61.8843 130.089C62.109 130.083 62.3618 130.076 62.6428 130.07C62.9299 130.057 63.2296 130.048 63.5417 130.041C63.8601 130.028 64.1535 130.022 64.422 130.022C65.1524 130.022 65.8485 130.108 66.5102 130.28C67.1719 130.452 67.7525 130.736 68.2519 131.13C68.7576 131.519 69.1572 132.032 69.4506 132.669C69.744 133.299 69.8907 134.08 69.8907 135.01C69.8907 136.01 69.7221 136.857 69.385 137.551C69.0479 138.246 68.5922 138.813 68.0178 139.252C67.4435 139.685 66.7755 140.001 66.0139 140.198C65.2585 140.389 64.4594 140.485 63.6167 140.485C63.4169 140.485 63.1672 140.478 62.8675 140.466C62.5679 140.453 62.262 140.44 61.9498 140.427C61.6377 140.415 61.3411 140.402 61.0602 140.389C60.7855 140.376 60.5764 140.37 60.4328 140.37V140.332C60.4765 140.198 60.514 140.026 60.5452 139.816C60.5826 139.606 60.6107 139.348 60.6295 139.042C60.6544 138.73 60.6732 138.36 60.6857 137.934C60.6981 137.507 60.7044 137.007 60.7044 136.433V134.026C60.7044 133.452 60.6981 132.952 60.6857 132.525C60.6732 132.099 60.6544 131.729 60.6295 131.417C60.6107 131.105 60.5826 130.844 60.5452 130.634C60.514 130.423 60.4765 130.251 60.4328 130.118V130.079Z" stroke="white" stroke-width="2" mask="url(#path-61-inside-1_341_756)"/>
<path d="M71.8759 130.099C72.4877 130.099 73.1151 130.099 73.7581 130.099C74.4011 130.092 74.9973 130.086 75.5467 130.079C76.096 130.067 76.5674 130.054 76.9607 130.041C77.3602 130.028 77.6224 130.009 77.7473 129.984L77.3821 131.016C77.2135 130.971 77.0231 130.93 76.8109 130.892C76.6236 130.86 76.3957 130.831 76.1273 130.806C75.8651 130.774 75.5592 130.758 75.2096 130.758C75.0847 130.758 74.9411 130.764 74.7788 130.777C74.6165 130.783 74.4604 130.793 74.3106 130.806C74.1358 130.818 73.9579 130.831 73.7768 130.844V134.618C74.2825 134.612 74.7382 134.599 75.144 134.58C75.5498 134.561 75.8963 134.535 76.1834 134.503C76.5206 134.478 76.8171 134.443 77.073 134.398L76.8483 135.535C76.505 135.491 76.1585 135.452 75.8089 135.421C75.5092 135.389 75.1784 135.363 74.8163 135.344C74.4542 135.319 74.1077 135.306 73.7768 135.306V139.644C74.3574 139.644 74.8912 139.622 75.3781 139.577C75.8651 139.526 76.2896 139.472 76.6517 139.415C77.0762 139.345 77.4601 139.265 77.8035 139.176L77.5881 140.427C77.4944 140.421 77.3415 140.412 77.1292 140.399C76.9232 140.392 76.7047 140.386 76.4737 140.38C76.249 140.38 76.0367 140.376 75.837 140.37C75.6372 140.37 75.4999 140.37 75.4249 140.37H71.8759V140.332C71.9196 140.198 71.9571 140.026 71.9883 139.816C72.0257 139.606 72.0538 139.348 72.0726 139.042C72.0975 138.73 72.1163 138.36 72.1287 137.934C72.1412 137.507 72.1475 137.007 72.1475 136.433V134.026C72.1475 133.452 72.1412 132.955 72.1287 132.535C72.1163 132.108 72.0975 131.742 72.0726 131.436C72.0538 131.124 72.0257 130.863 71.9883 130.653C71.9571 130.442 71.9196 130.271 71.8759 130.137V130.099Z" stroke="white" stroke-width="2" mask="url(#path-61-inside-1_341_756)"/>
<path d="M86.1563 140.332C86.1938 140.198 86.2281 140.033 86.2594 139.835C86.2968 139.638 86.328 139.392 86.353 139.099C86.378 138.806 86.3967 138.459 86.4092 138.058C86.4217 137.65 86.4279 137.176 86.4279 136.634V130.414C86.4279 129.872 86.3905 129.442 86.3155 129.124C86.2406 128.805 86.1501 128.56 86.044 128.388C85.9441 128.216 85.838 128.092 85.7256 128.016C85.6195 127.939 85.5289 127.869 85.454 127.805V127.767L88.3288 126.668V126.707C88.2914 126.84 88.2539 127.006 88.2165 127.203C88.1853 127.401 88.1572 127.649 88.1322 127.949C88.1072 128.242 88.0885 128.592 88.076 129C88.0635 129.401 88.0573 129.872 88.0573 130.414V136.634C88.0573 137.176 88.0635 137.65 88.076 138.058C88.0885 138.459 88.1072 138.806 88.1322 139.099C88.1572 139.392 88.1853 139.638 88.2165 139.835C88.2539 140.033 88.2914 140.198 88.3288 140.332V140.37H86.1563V140.332Z" stroke="white" stroke-width="2" mask="url(#path-61-inside-1_341_756)"/>
<path d="M89.1154 141.861C89.7897 141.81 90.4483 141.676 91.0913 141.459C91.7406 141.249 92.3617 140.969 92.9548 140.619C93.5478 140.275 94.1035 139.87 94.6216 139.405C95.146 138.934 95.6142 138.418 96.0262 137.857C96.4445 137.29 96.8003 136.685 97.0938 136.042C97.3934 135.392 97.615 134.714 97.7586 134.007C97.4964 134.172 97.2498 134.315 97.0188 134.436C96.7941 134.551 96.56 134.647 96.3165 134.723C96.0793 134.8 95.8233 134.857 95.5487 134.895C95.2802 134.933 94.9743 134.952 94.631 134.952C94.2002 134.952 93.7445 134.87 93.2638 134.704C92.7893 134.538 92.3523 134.284 91.9528 133.94C91.5533 133.596 91.2224 133.159 90.9602 132.631C90.698 132.102 90.5669 131.471 90.5669 130.739C90.5669 130.242 90.6605 129.739 90.8478 129.229C91.0351 128.713 91.316 128.251 91.6906 127.844C92.0714 127.429 92.549 127.092 93.1233 126.831C93.6977 126.57 94.375 126.439 95.1554 126.439C95.7609 126.439 96.3446 126.554 96.9065 126.783C97.4746 127.012 97.9771 127.363 98.4141 127.834C98.8511 128.299 99.1976 128.885 99.4535 129.592C99.7157 130.299 99.8468 131.134 99.8468 132.096C99.8468 132.936 99.7189 133.768 99.4629 134.589C99.207 135.405 98.848 136.182 98.386 136.921C97.9241 137.66 97.3716 138.348 96.7286 138.985C96.0855 139.615 95.3739 140.166 94.5935 140.638C93.8132 141.115 92.9797 141.498 92.0933 141.784C91.2068 142.071 90.2891 142.24 89.3402 142.291L89.1154 141.861ZM95.6891 133.949C96.0574 133.949 96.432 133.895 96.8128 133.787C97.1936 133.678 97.5495 133.513 97.8804 133.29C97.9116 133.112 97.9303 132.93 97.9365 132.745C97.949 132.561 97.9553 132.369 97.9553 132.172C97.9553 131.376 97.871 130.669 97.7024 130.051C97.5339 129.426 97.3091 128.901 97.0282 128.474C96.7473 128.047 96.4195 127.723 96.045 127.5C95.6766 127.277 95.2896 127.165 94.8838 127.165C94.5717 127.165 94.2658 127.226 93.9661 127.347C93.6665 127.468 93.398 127.652 93.1608 127.901C92.9236 128.149 92.7332 128.465 92.5896 128.847C92.446 129.229 92.3742 129.684 92.3742 130.213C92.3742 130.742 92.4522 131.236 92.6083 131.694C92.7644 132.146 92.986 132.541 93.2732 132.879C93.5603 133.21 93.9068 133.471 94.3126 133.663C94.7246 133.854 95.1835 133.949 95.6891 133.949Z" stroke="white" stroke-width="2" mask="url(#path-61-inside-1_341_756)"/>
<path d="M105.409 128.417C104.879 128.417 104.413 128.423 104.014 128.436C103.621 128.449 103.28 128.468 102.993 128.493C102.706 128.519 102.466 128.547 102.272 128.579C102.079 128.611 101.916 128.646 101.785 128.684H101.748V126.611H101.785C101.916 126.624 102.079 126.636 102.272 126.649C102.466 126.656 102.706 126.662 102.993 126.668C103.28 126.668 103.621 126.668 104.014 126.668C104.413 126.668 104.879 126.668 105.409 126.668H110.279V126.869L102.553 140.37H101.476L108.265 128.417H105.409Z" stroke="white" stroke-width="2" mask="url(#path-61-inside-1_341_756)"/>
<path d="M108.949 141.861C109.623 141.81 110.282 141.676 110.925 141.459C111.574 141.249 112.195 140.969 112.788 140.619C113.381 140.275 113.937 139.87 114.455 139.405C114.979 138.934 115.448 138.418 115.86 137.857C116.278 137.29 116.634 136.685 116.927 136.042C117.227 135.392 117.448 134.714 117.592 134.007C117.33 134.172 117.083 134.315 116.852 134.436C116.628 134.551 116.393 134.647 116.15 134.723C115.913 134.8 115.657 134.857 115.382 134.895C115.114 134.933 114.808 134.952 114.464 134.952C114.034 134.952 113.578 134.87 113.097 134.704C112.623 134.538 112.186 134.284 111.786 133.94C111.387 133.596 111.056 133.159 110.794 132.631C110.531 132.102 110.4 131.471 110.4 130.739C110.4 130.242 110.494 129.739 110.681 129.229C110.869 128.713 111.149 128.251 111.524 127.844C111.905 127.429 112.382 127.092 112.957 126.831C113.531 126.57 114.208 126.439 114.989 126.439C115.594 126.439 116.178 126.554 116.74 126.783C117.308 127.012 117.811 127.363 118.248 127.834C118.685 128.299 119.031 128.885 119.287 129.592C119.549 130.299 119.68 131.134 119.68 132.096C119.68 132.936 119.552 133.768 119.296 134.589C119.04 135.405 118.681 136.182 118.219 136.921C117.757 137.66 117.205 138.348 116.562 138.985C115.919 139.615 115.207 140.166 114.427 140.638C113.647 141.115 112.813 141.498 111.927 141.784C111.04 142.071 110.123 142.24 109.174 142.291L108.949 141.861ZM115.523 133.949C115.891 133.949 116.265 133.895 116.646 133.787C117.027 133.678 117.383 133.513 117.714 133.29C117.745 133.112 117.764 132.93 117.77 132.745C117.782 132.561 117.789 132.369 117.789 132.172C117.789 131.376 117.704 130.669 117.536 130.051C117.367 129.426 117.143 128.901 116.862 128.474C116.581 128.047 116.253 127.723 115.878 127.5C115.51 127.277 115.123 127.165 114.717 127.165C114.405 127.165 114.099 127.226 113.8 127.347C113.5 127.468 113.231 127.652 112.994 127.901C112.757 128.149 112.567 128.465 112.423 128.847C112.279 129.229 112.208 129.684 112.208 130.213C112.208 130.742 112.286 131.236 112.442 131.694C112.598 132.146 112.819 132.541 113.107 132.879C113.394 133.21 113.74 133.471 114.146 133.663C114.558 133.854 115.017 133.949 115.523 133.949Z" stroke="white" stroke-width="2" mask="url(#path-61-inside-1_341_756)"/>
<defs>
<clipPath id="clip0_341_756">
<rect width="322" height="170" fill="white" transform="translate(145 25)"/>
</clipPath>
</defs>
</svg>
