<svg width="188" height="210" viewBox="0 0 188 210" fill="none" xmlns="http://www.w3.org/2000/svg">
<rect width="188" height="210" fill="#E5E5E5"/>
<path d="M186.84 31.0725L186.895 150.607C186.895 153.915 186.003 157.162 184.313 160.005C182.624 162.848 180.198 165.183 177.293 166.763L102.228 207.588C99.5331 209.052 96.5147 209.82 93.4476 209.82C90.3804 209.82 87.362 209.052 84.667 207.588L9.60201 166.763C6.69683 165.183 4.27152 162.848 2.58164 160.005C0.891752 157.162 -0.000120762 153.915 1.22645e-08 150.607V0H132.997" fill="#FF0000"/>
<path d="M186.946 153.041L181.113 153.169L175.28 153.261L163.611 153.485L140.271 153.736L134.438 153.801L128.604 153.831L116.935 153.894L93.5953 153.926L70.2599 153.864C62.4745 153.801 54.7098 153.801 46.9244 153.706L23.589 153.452L11.9224 153.261L6.08912 153.169L0.244335 153.041V152.725L6.07762 152.599L11.9109 152.504L23.5798 152.313L46.9198 152.063C54.7052 151.967 62.4699 151.934 70.2553 151.902L93.5953 151.839L116.931 151.872L128.597 151.934L134.433 151.967L140.266 152.03L163.602 152.283L175.268 152.504L181.102 152.599L186.937 152.725V153.041H186.946Z" fill="black"/>
<path d="M186.946 146.359L93.6045 147.247L0.244335 146.359V146.052L93.6045 145.16L186.946 146.052V146.359Z" fill="black"/>
<path d="M186.946 139.426L93.6045 140.151L0.244335 139.426V139.184L93.6045 138.481L186.946 139.184V139.426Z" fill="black"/>
<path d="M186.946 132.76L140.271 133.119L116.94 133.305L105.273 133.402L99.4378 133.449C97.488 133.472 95.5566 133.472 93.6045 133.472L0.244335 132.76V132.521L93.5953 131.802C95.5474 131.802 97.4788 131.802 99.4286 131.827L105.264 131.874L116.931 131.969L140.266 132.161L186.942 132.521L186.946 132.76Z" fill="black"/>
<path d="M186.946 126.063L140.27 126.44L116.934 126.629L105.267 126.722L99.4311 126.769C97.4812 126.793 95.5498 126.793 93.5976 126.793L0.244335 126.063V125.828L93.5976 125.123C95.5498 125.123 97.4812 125.123 99.4311 125.147L105.267 125.194L116.934 125.287L140.27 125.476L186.946 125.853V126.063Z" fill="black"/>
<path d="M186.946 119.384L140.271 119.761L116.935 119.948L105.269 120.043L99.4332 120.09C97.4834 120.114 95.552 120.114 93.5999 120.114L0.244335 119.384V119.149L93.5953 118.444C95.5474 118.444 97.4788 118.444 99.4286 118.466L105.264 118.515L116.931 118.608L140.271 118.797L186.946 119.172V119.384Z" fill="black"/>
<path d="M186.946 112.95L140.271 113.422L116.935 113.655L105.269 113.775C101.385 113.802 97.4834 113.891 93.5999 113.833L0.244335 112.95V112.656L93.5953 111.774C97.4788 111.743 101.381 111.802 105.264 111.832L116.931 111.949L140.266 112.185L186.942 112.656L186.946 112.95Z" fill="black"/>
<path d="M186.946 106.282L140.271 106.747L116.935 106.979L105.269 107.094C101.385 107.124 97.4834 107.212 93.5999 107.154L0.244335 106.282V105.992L93.5953 105.095C97.4788 105.065 101.381 105.122 105.264 105.152L116.931 105.267L140.271 105.5L186.946 105.964V106.282Z" fill="black"/>
<path d="M186.946 99.5823L140.27 100.076L116.934 100.303L105.267 100.419C101.383 100.446 97.4812 100.532 93.5976 100.475L0.244335 99.5872V99.3011L93.5976 98.4154C97.4812 98.3858 101.383 98.4426 105.267 98.4722L116.934 98.5856L140.27 98.8151L186.946 99.3085V99.5823Z" fill="black"/>
<path d="M186.946 92.908L140.27 93.3988L116.934 93.6246L105.267 93.7399C101.383 93.7669 97.4812 93.8528 93.5976 93.7964L0.244335 92.9129V92.6282L93.5976 91.7472C97.4812 91.6907 101.383 91.7742 105.267 91.8036L116.934 91.9165L140.27 92.1447L186.946 92.6356V92.908Z" fill="black"/>
<path d="M186.946 86.2244L140.271 86.6995L116.94 86.9537L105.273 87.063C101.39 87.0915 97.488 87.1722 93.6045 87.1176L0.244335 86.2244V85.9488L93.5953 85.0675C97.4788 85.0128 101.381 85.0936 105.264 85.1221L116.931 85.2314L140.271 85.4808L186.946 85.9559V86.2244Z" fill="black"/>
<path d="M186.946 79.5499L140.271 80.0252L116.935 80.2747L105.269 80.384C101.385 80.4125 97.4834 80.4933 93.5999 80.4386L0.244335 79.5499V79.2743L93.5953 78.3926C97.4788 78.338 101.381 78.3926 105.264 78.4473L116.931 78.5566L140.271 78.8061L186.946 79.2814V79.5499Z" fill="black"/>
<path d="M186.946 72.4472L140.271 72.9379L116.94 73.1786L105.273 73.2871C101.39 73.3154 97.488 73.398 93.6045 73.3414L0.244335 72.4472V72.1736L93.5953 71.296C97.4788 71.2417 101.381 71.296 105.264 71.3526L116.931 71.4611L140.266 71.697L186.942 72.1901L186.946 72.4472Z" fill="black"/>
<path d="M186.946 65.785L140.271 66.2715L116.935 66.5172L105.269 66.6248C101.385 66.6786 97.4834 66.7067 93.5999 66.6528L0.244335 65.785V65.5136L93.5953 64.6177C97.4788 64.5639 101.381 64.6177 105.264 64.6434L116.931 64.7533L140.266 64.9873L186.942 65.4762L186.946 65.785Z" fill="black"/>
<path d="M186.946 59.092L140.271 59.5732L116.935 59.8035L105.269 59.937L99.4332 59.9923C97.4834 60.0176 95.552 59.9923 93.5999 59.9647L0.244335 59.092V58.825L93.5953 57.9409C95.5474 57.9155 97.4788 57.9155 99.4286 57.9155L105.264 57.9685L116.931 58.102L140.266 58.3323L186.942 58.8135L186.946 59.092Z" fill="black"/>
<path d="M186.946 52.4229L140.271 52.9044L116.935 53.1347L105.269 53.2684L99.4332 53.3236C97.4834 53.3236 95.552 53.3236 93.5999 53.296L0.244335 52.4229V52.1556L93.5953 51.2733C95.5474 51.248 97.4788 51.2203 99.4286 51.248L105.264 51.3009L116.931 51.4346L140.266 51.6649L186.942 52.1464L186.946 52.4229Z" fill="black"/>
<path d="M186.546 45.9291L139.969 46.3225L116.683 46.5005L105.041 46.6038L99.2182 46.6447C97.2726 46.6447 95.3453 46.6251 93.3973 46.6251L0.244335 45.9131V45.7066L93.3973 45.0052C95.3453 44.9838 97.2726 44.9625 99.2182 44.9838L105.041 45.0248L116.683 45.128L139.969 45.331L186.546 45.7226V45.9291Z" fill="black"/>
<path d="M182.139 39.4687L136.665 39.9473L113.93 40.1997L102.564 40.3258L96.879 40.3759C94.9794 40.402 93.0978 40.352 91.1959 40.3258L0.244335 39.4687V39.2163L91.1914 38.3461C93.0933 38.3221 94.9749 38.296 96.8745 38.296L102.56 38.3461L113.926 38.4722L136.665 38.7355L182.139 39.2163V39.4687Z" fill="black"/>
<path d="M168.917 32.6171L126.749 33.2228L105.667 33.4838L95.127 33.6352L89.8549 33.6953C88.0934 33.7266 86.3485 33.6666 84.5849 33.6352L0.244335 32.6171V32.3038L84.5808 31.2595C86.3443 31.2308 88.0892 31.1995 89.8507 31.1995L95.1228 31.2595L105.663 31.4109L126.745 31.672L168.913 32.2777L168.917 32.6171Z" fill="black"/>
<path d="M140.373 26.543L117.025 26.8152L105.35 26.9655L99.5102 27.0251C97.559 27.0251 95.6261 26.994 93.6726 26.9655L0.244335 25.9417V25.641L93.6634 24.5886C95.6169 24.5601 97.5497 24.4979 99.501 24.529L105.341 24.5886L117.016 24.739L140.373 25.0111" fill="black"/>
<path d="M140.373 19.8694L117.021 20.1667L105.345 20.3153L99.5056 20.3461C97.5544 20.3461 95.6215 20.2846 93.668 20.2846L0.244335 19.2466V18.9493L93.6634 17.9088C95.6169 17.8806 97.5497 17.8191 99.501 17.8498L105.341 17.9088L117.016 18.0574L140.373 18.3522" fill="black"/>
<path d="M141.673 13.3458L130.79 13.4925C127.17 13.5507 123.532 13.5507 119.913 13.5786C116.295 13.6064 112.655 13.6393 109.035 13.6393L98.1579 13.6671H87.2748C80.0166 13.6393 72.7776 13.6671 65.5194 13.5786L54.6234 13.5204L43.7596 13.404L32.8808 13.2573L22.0041 13.0802L11.1253 12.8449L5.68698 12.7285L0.24436 12.5818V12.2883L5.68269 12.1416L11.121 11.9948L21.9998 11.7595L32.8765 11.5824L43.7596 11.4256L54.6363 11.3092L65.5151 11.251C72.7733 11.1928 80.0123 11.1928 87.2705 11.1625H98.1429L109.022 11.1928C112.642 11.1928 116.28 11.251 119.898 11.251C123.517 11.251 127.157 11.2789 130.777 11.3396L141.654 11.4863" fill="black"/>
<path d="M41.6343 113.917C41.0954 106.906 22.9902 65.485 22.5996 58.4666C22.1423 50.0949 27.5189 43.6149 36.5073 41.3454C45.189 39.1549 53.6582 42.2393 58.6518 49.401C62.4809 54.8883 83.7652 94.7884 87.5746 100.286C88.6375 101.819 89.8266 103.165 92.2195 102.38C94.788 101.54 94.6471 99.8115 94.0538 97.9346C88.8625 81.453 78.1042 42.022 72.9228 25.5354C70.4186 17.5687 73.2392 10.5849 80.5194 6.45585C88.2569 2.0675 102.026 3.1862 107.932 12.1358C125.347 38.4807 148.78 87.5799 166.46 113.809C169.762 118.711 173.092 123.598 176.395 128.498C182.258 137.198 179.482 146.844 169.745 151.637C160.196 156.329 149.108 153.647 143.294 145.073C129.421 124.576 115.649 104.044 101.776 83.5521C100.459 81.6061 99.5936 78.3982 95.799 79.7589C92.0045 81.1196 94.1452 83.9077 94.8102 86.0587C99.6875 101.75 104.698 117.407 109.595 133.093C112.127 141.208 107.534 149.209 98.6097 152.528C89.7648 155.818 79.7728 153.092 74.6804 145.861C67.5338 135.721 60.5008 125.527 53.4209 115.355C52.2912 113.735 51.2801 111.732 48.4769 112.552C45.5772 113.394 46.2248 115.515 46.2397 117.58C46.2916 124.366 46.2916 130.103 46.2125 137.015C46.1334 143.927 43.1916 150.479 35.5209 152.901C27.9861 155.284 19.2574 153.198 14.3405 147.836C9.16159 142.189 8.85259 134.353 13.6113 128.478C18.2513 122.726 26.8836 120.205 34.7422 122.319C35.4393 122.506 36.1018 122.79 36.794 122.993C40.2549 124.008 42.1781 122.771 42.1138 119.565C42.0965 118.624 41.9531 117.683 41.8666 116.743C41.7801 115.802 41.6788 114.863 41.5848 113.922L41.6343 113.917Z" fill="black"/>
<path d="M169.852 106.36C167.945 110.606 166.135 114.891 164.419 119.215C163.432 121.742 161.839 122.972 159.026 122.903C157.237 122.854 155.444 122.822 153.648 122.807C150.767 122.792 147.878 122.807 145.006 122.917C142.467 123.001 141.02 121.996 139.739 119.864C131.59 106.296 123.323 92.8212 115.125 79.28C114.157 77.6698 113.033 76.4209 111.004 76.5266C108.794 76.6323 107.485 78.368 107.48 81.2419C107.453 92.4942 107.48 113.765 107.48 125.002V127.64C107.458 132.102 106.7 132.874 102.294 132.879H79.7645C75.6779 132.879 74.8877 132.078 74.8827 127.903V119.527C66.8082 106.07 58.6002 92.6982 50.4787 79.2702C49.5108 77.6599 48.3872 76.411 46.3575 76.5167C44.1474 76.6225 42.8387 78.3581 42.8338 81.232C42.8066 92.4844 42.8338 113.755 42.8338 124.992V127.63C42.8116 132.092 42.0535 132.864 37.6483 132.869H15.1184C11.0342 132.869 10.244 132.068 10.2391 127.893C10.2391 120.25 10.2391 102.571 10.2391 94.933C10.2391 87.3773 10.2391 79.8209 10.2391 72.2636C10.2391 67.7794 11.1083 66.946 15.7086 66.946C23.1165 66.946 30.5392 66.946 37.952 66.946C41.9276 66.946 42.8906 65.9503 42.9128 61.9259C42.9128 56.3845 42.9005 50.8506 42.9128 45.3117C42.9128 41.7666 43.866 40.8447 47.5008 40.8348C53.59 40.8176 59.6818 40.8816 65.7735 40.798C67.6601 40.7709 68.8626 41.388 69.875 43.0106C74.8646 50.9956 79.8608 58.9749 84.8636 66.9485C90.7735 66.9485 96.6833 66.9485 102.593 66.9485C106.569 66.9485 107.532 65.9528 107.554 61.9283C107.554 56.387 107.554 50.853 107.554 45.3141C107.554 41.7691 108.507 40.8471 112.142 40.8373C118.231 40.8201 124.325 40.884 130.415 40.8004C132.301 40.7734 133.504 41.3905 134.516 43.013C140.308 52.2765 146.105 61.5366 151.907 70.7935C157.646 79.9324 163.4 89.0589 169.17 98.1732C170.911 100.905 171.161 103.447 169.852 106.36Z" fill="white"/>
<path d="M169.023 105.758C167.231 109.907 165.528 114.095 163.914 118.321C162.978 120.797 161.488 121.99 158.844 121.913C157.16 121.866 155.475 121.834 153.79 121.819C158.923 116.959 167.779 102.737 150.955 69.2986L152.17 71.0045C157.565 79.933 162.974 88.8507 168.397 97.7576C170.021 100.427 170.253 102.913 169.023 105.758Z" fill="#BCBEC0"/>
<path d="M86.9533 131.544C86.9533 131.544 107.018 134.009 107.118 83.3302V128.417C107.118 129.246 106.79 130.042 106.206 130.628C105.623 131.215 104.831 131.544 104.005 131.544H86.9533Z" fill="#BCBEC0"/>
<path d="M24.2668 132.002H39.1538C40.0831 132.001 40.9742 131.641 41.6311 130.999C42.288 130.357 42.657 129.487 42.657 128.58V83.7686C42.657 83.7686 44.0487 132.002 24.2668 132.002Z" fill="#BCBEC0"/>
<path d="M143.121 43.2714C143.121 43.2714 151.635 18.6436 186.821 30.8838C188.911 39.3586 180.627 41.4301 172.344 37.2871C159.762 30.9943 143.121 43.2714 143.121 43.2714Z" fill="black"/>
<path d="M143.121 43.2875L132.997 0L186.821 30.6536C186.821 30.6536 154.166 21.1754 143.121 43.2875Z" fill="#E4232B"/>
<mask id="path-31-inside-1_0_1" fill="white">
<path d="M42.5874 160.326C42.5717 161.226 42.5559 162.098 42.5402 162.942C42.5323 163.304 42.5244 163.673 42.5166 164.051C42.5166 164.429 42.5126 164.803 42.5047 165.172C42.5047 165.534 42.5008 165.884 42.4929 166.221C42.4929 166.551 42.4929 166.844 42.4929 167.101C42.4929 167.64 42.4969 168.291 42.5047 169.054C42.5126 169.818 42.5205 170.601 42.5284 171.405C42.5441 172.209 42.5638 172.98 42.5874 173.72C42.6111 174.459 42.6386 175.074 42.6701 175.564C42.7804 175.58 42.9261 175.6 43.1073 175.624C43.2963 175.641 43.4932 175.657 43.698 175.673C43.9028 175.681 44.1037 175.689 44.3006 175.697C44.4975 175.705 44.6629 175.709 44.7968 175.709C45.3482 175.709 45.9113 175.673 46.4863 175.6C47.0692 175.52 47.6284 175.375 48.164 175.166C48.7075 174.957 49.2155 174.672 49.6881 174.31C50.1686 173.941 50.5861 173.467 50.9405 172.888C51.3028 172.309 51.5864 171.614 51.7912 170.802C51.996 169.983 52.0984 169.018 52.0984 167.909C52.0984 166.679 51.9526 165.586 51.6612 164.63C51.3698 163.665 50.9405 162.854 50.3734 162.195C49.8142 161.536 49.1171 161.037 48.2822 160.7C47.4551 160.354 46.5021 160.181 45.423 160.181C45.2103 160.181 44.9701 160.189 44.7023 160.206C44.4345 160.214 44.1667 160.226 43.8989 160.242C43.639 160.25 43.3908 160.266 43.1546 160.29C42.9261 160.306 42.7371 160.318 42.5874 160.326ZM40 159.241C40.1812 159.249 40.3505 159.257 40.508 159.265C40.6419 159.273 40.7798 159.281 40.9216 159.289C41.0633 159.289 41.1775 159.289 41.2642 159.289C41.4138 159.289 41.6619 159.281 42.0085 159.265C42.363 159.249 42.7647 159.233 43.2136 159.217C43.6626 159.201 44.1273 159.185 44.6078 159.169C45.0961 159.153 45.553 159.145 45.9783 159.145C47.1204 159.145 48.2073 159.289 49.2392 159.579C50.271 159.868 51.1768 160.342 51.9566 161.001C52.7364 161.66 53.3547 162.524 53.8115 163.593C54.2683 164.662 54.4968 165.976 54.4968 167.535C54.4968 168.652 54.3747 169.657 54.1305 170.549C53.8942 171.441 53.5594 172.229 53.1262 172.912C52.693 173.595 52.1732 174.182 51.5667 174.672C50.9681 175.154 50.3025 175.552 49.57 175.866C48.8453 176.179 48.0695 176.408 47.2425 176.553C46.4154 176.697 45.5608 176.77 44.6787 176.77C44.3636 176.77 43.9816 176.758 43.5326 176.734C43.0915 176.718 42.6465 176.697 42.1976 176.673C41.7486 176.649 41.3233 176.625 40.9216 176.601C40.5277 176.585 40.2205 176.577 40 176.577V176.529C40.0473 176.36 40.0906 176.151 40.13 175.902C40.1772 175.653 40.2166 175.343 40.2481 174.973C40.2796 174.604 40.3032 174.166 40.319 173.659C40.3348 173.145 40.3426 172.546 40.3426 171.863V164.015C40.3426 163.332 40.3348 162.733 40.319 162.219C40.3032 161.696 40.2796 161.25 40.2481 160.881C40.2166 160.503 40.1772 160.185 40.13 159.928C40.0906 159.671 40.0473 159.458 40 159.289V159.241Z"/>
<path d="M57.1315 163.617C57.9034 163.617 58.6949 163.617 59.5062 163.617C60.3175 163.609 61.0697 163.601 61.7629 163.593C62.456 163.577 63.0507 163.561 63.5469 163.545C64.051 163.529 64.3818 163.505 64.5393 163.473L64.0786 164.775C63.8659 164.718 63.6257 164.666 63.3579 164.618C63.1216 164.578 62.8341 164.541 62.4954 164.509C62.1646 164.469 61.7786 164.449 61.3375 164.449C61.18 164.449 60.9988 164.457 60.794 164.473C60.5892 164.481 60.3923 164.493 60.2033 164.509C59.9828 164.525 59.7583 164.541 59.5299 164.558V169.319C60.1679 169.311 60.7428 169.295 61.2548 169.271C61.7668 169.247 62.2039 169.215 62.5663 169.175C62.9916 169.143 63.3657 169.098 63.6887 169.042L63.4051 170.477C62.9719 170.421 62.5348 170.372 62.0937 170.332C61.7156 170.292 61.2981 170.26 60.8413 170.236C60.3845 170.204 59.9473 170.187 59.5299 170.187V175.661C60.2624 175.661 60.9358 175.633 61.5502 175.576C62.1646 175.512 62.7002 175.444 63.157 175.371C63.6926 175.283 64.177 175.182 64.6102 175.07L64.3385 176.649C64.2203 176.641 64.0274 176.629 63.7596 176.613C63.4996 176.605 63.2239 176.597 62.9325 176.589C62.649 176.589 62.3812 176.585 62.1291 176.577C61.8771 176.577 61.7038 176.577 61.6093 176.577H57.1315V176.529C57.1866 176.36 57.2338 176.143 57.2732 175.878C57.3205 175.612 57.3559 175.287 57.3796 174.901C57.4111 174.507 57.4347 174.041 57.4505 173.503C57.4662 172.964 57.4741 172.333 57.4741 171.61V168.572C57.4741 167.849 57.4662 167.222 57.4505 166.691C57.4347 166.153 57.4111 165.691 57.3796 165.305C57.3559 164.911 57.3205 164.582 57.2732 164.316C57.2338 164.051 57.1866 163.834 57.1315 163.665V163.617Z"/>
<path d="M72.9987 166.137H72.7624C72.7152 166 72.6364 165.827 72.5261 165.618C72.4237 165.409 72.282 165.205 72.1008 165.004C71.9275 164.803 71.7109 164.634 71.451 164.497C71.1911 164.353 70.8799 164.28 70.5176 164.28C70.2419 164.28 69.9938 164.329 69.7733 164.425C69.5606 164.513 69.3795 164.638 69.2298 164.799C69.0802 164.959 68.9659 165.152 68.8872 165.377C68.8084 165.594 68.769 165.831 68.769 166.089C68.769 166.507 68.8911 166.904 69.1353 167.282C69.3873 167.66 69.6985 168.038 70.0687 168.415C70.4389 168.785 70.8406 169.159 71.2738 169.536C71.707 169.914 72.1087 170.308 72.4789 170.718C72.8491 171.128 73.1563 171.562 73.4004 172.02C73.6525 172.478 73.7785 172.968 73.7785 173.491C73.7785 173.876 73.7076 174.274 73.5658 174.684C73.4319 175.094 73.2114 175.464 72.9042 175.793C72.597 176.123 72.2032 176.392 71.7227 176.601C71.2423 176.818 70.6594 176.926 69.9741 176.926C69.5961 176.926 69.2337 176.894 68.8872 176.83C68.5485 176.766 68.2334 176.685 67.942 176.589C67.6584 176.501 67.4025 176.404 67.174 176.3C66.9535 176.187 66.7684 176.083 66.6187 175.986L66.8314 173.708H67.0795C67.1583 173.989 67.2725 174.27 67.4221 174.552C67.5797 174.833 67.7687 175.09 67.9893 175.323C68.2177 175.548 68.4815 175.733 68.7808 175.878C69.088 176.014 69.4385 176.083 69.8324 176.083C70.108 176.083 70.368 176.038 70.6121 175.95C70.8563 175.854 71.065 175.721 71.2383 175.552C71.4195 175.383 71.5613 175.178 71.6637 174.937C71.766 174.688 71.8172 174.411 71.8172 174.105C71.8172 173.744 71.7464 173.41 71.6046 173.105C71.4628 172.791 71.2738 172.494 71.0375 172.213C70.8012 171.923 70.5334 171.646 70.2341 171.381C69.9426 171.116 69.6394 170.846 69.3243 170.573C69.0093 170.3 68.7021 170.023 68.4028 169.741C68.1113 169.452 67.8475 169.143 67.6112 168.813C67.3749 168.484 67.1858 168.134 67.0441 167.764C66.9023 167.387 66.8314 166.973 66.8314 166.523C66.8314 166.048 66.9299 165.622 67.1268 165.245C67.3237 164.867 67.5836 164.55 67.9065 164.292C68.2295 164.027 68.5997 163.826 69.0171 163.69C69.4346 163.545 69.8678 163.473 70.3168 163.473C70.6476 163.473 70.9548 163.497 71.2383 163.545C71.5298 163.593 71.7897 163.653 72.0181 163.726C72.2544 163.79 72.4592 163.858 72.6325 163.931C72.8057 163.995 72.9475 164.047 73.0578 164.087L72.9987 166.137Z"/>
<path d="M78.6935 164.473C78.6856 165.132 78.6777 165.771 78.6698 166.39C78.6698 166.655 78.6659 166.928 78.658 167.21C78.658 167.483 78.6541 167.756 78.6462 168.03C78.6462 168.303 78.6462 168.564 78.6462 168.813C78.6462 169.054 78.6462 169.271 78.6462 169.464C78.6462 169.866 78.6462 170.352 78.6462 170.923C78.6541 171.485 78.6619 172.064 78.6698 172.659C78.6777 173.254 78.6895 173.828 78.7053 174.383C78.721 174.929 78.7407 175.387 78.7643 175.757C78.8431 175.773 78.9455 175.789 79.0715 175.805C79.1976 175.813 79.3275 175.825 79.4614 175.841C79.6032 175.85 79.741 175.858 79.8749 175.866C80.0088 175.866 80.123 175.866 80.2176 175.866C80.6508 175.866 81.0879 175.837 81.529 175.781C81.978 175.725 82.4072 175.62 82.8168 175.468C83.2343 175.307 83.6242 175.09 83.9865 174.817C84.3488 174.543 84.6639 174.194 84.9317 173.768C85.2073 173.334 85.42 172.816 85.5697 172.213C85.7272 171.602 85.806 170.883 85.806 170.055C85.806 168.23 85.3767 166.824 84.5182 165.835C83.6675 164.847 82.3954 164.353 80.702 164.353C80.5366 164.353 80.3593 164.357 80.1703 164.365C79.9891 164.373 79.808 164.385 79.6268 164.401C79.4457 164.409 79.2724 164.421 79.107 164.437C78.9494 164.453 78.8116 164.465 78.6935 164.473ZM76.2478 163.593C76.4368 163.601 76.6141 163.605 76.7795 163.605C76.9212 163.613 77.0591 163.617 77.193 163.617C77.3269 163.617 77.4253 163.617 77.4883 163.617C77.5986 163.617 77.7955 163.613 78.0791 163.605C78.3626 163.597 78.6816 163.589 79.0361 163.581C79.3984 163.565 79.7765 163.553 80.1703 163.545C80.572 163.529 80.9422 163.521 81.2809 163.521C82.2024 163.521 83.0807 163.629 83.9156 163.846C84.7505 164.063 85.483 164.421 86.1131 164.919C86.7511 165.409 87.2552 166.056 87.6254 166.86C87.9956 167.656 88.1807 168.64 88.1807 169.814C88.1807 171.076 87.9681 172.144 87.5427 173.02C87.1174 173.897 86.5424 174.612 85.8178 175.166C85.0931 175.713 84.2504 176.111 83.2894 176.36C82.3364 176.601 81.3282 176.722 80.2648 176.722C80.0128 176.722 79.6977 176.713 79.3196 176.697C78.9416 176.681 78.5556 176.665 78.1618 176.649C77.768 176.633 77.3938 176.617 77.0394 176.601C76.6928 176.585 76.429 176.577 76.2478 176.577V176.529C76.3029 176.36 76.3502 176.143 76.3896 175.878C76.4368 175.612 76.4723 175.287 76.4959 174.901C76.5274 174.507 76.551 174.041 76.5668 173.503C76.5825 172.964 76.5904 172.333 76.5904 171.61V168.572C76.5904 167.849 76.5825 167.218 76.5668 166.679C76.551 166.141 76.5274 165.675 76.4959 165.281C76.4723 164.887 76.4368 164.558 76.3896 164.292C76.3502 164.027 76.3029 163.81 76.2478 163.641V163.593Z"/>
<path d="M90.6855 163.617C91.4574 163.617 92.249 163.617 93.0602 163.617C93.8715 163.609 94.6237 163.601 95.3169 163.593C96.01 163.577 96.6047 163.561 97.1009 163.545C97.605 163.529 97.9358 163.505 98.0933 163.473L97.6326 164.775C97.4199 164.718 97.1797 164.666 96.9119 164.618C96.6756 164.578 96.3881 164.541 96.0494 164.509C95.7186 164.469 95.3326 164.449 94.8915 164.449C94.734 164.449 94.5528 164.457 94.3481 164.473C94.1433 164.481 93.9464 164.493 93.7573 164.509C93.5368 164.525 93.3123 164.541 93.0839 164.558V169.319C93.7219 169.311 94.2969 169.295 94.8088 169.271C95.3208 169.247 95.758 169.215 96.1203 169.175C96.5456 169.143 96.9197 169.098 97.2427 169.042L96.9591 170.477C96.5259 170.421 96.0888 170.372 95.6477 170.332C95.2696 170.292 94.8522 170.26 94.3953 170.236C93.9385 170.204 93.5013 170.187 93.0839 170.187V175.661C93.8164 175.661 94.4898 175.633 95.1042 175.576C95.7186 175.512 96.2542 175.444 96.711 175.371C97.2466 175.283 97.731 175.182 98.1642 175.07L97.8925 176.649C97.7743 176.641 97.5814 176.629 97.3136 176.613C97.0536 176.605 96.778 176.597 96.4865 176.589C96.203 176.589 95.9352 176.585 95.6831 176.577C95.4311 176.577 95.2578 176.577 95.1633 176.577H90.6855V176.529C90.7406 176.36 90.7879 176.143 90.8272 175.878C90.8745 175.612 90.91 175.287 90.9336 174.901C90.9651 174.507 90.9887 174.041 91.0045 173.503C91.0202 172.964 91.0281 172.333 91.0281 171.61V168.572C91.0281 167.849 91.0202 167.222 91.0045 166.691C90.9887 166.153 90.9651 165.691 90.9336 165.305C90.91 164.911 90.8745 164.582 90.8272 164.316C90.7879 164.051 90.7406 163.834 90.6855 163.665V163.617Z"/>
<path d="M108.703 176.529C108.75 176.36 108.794 176.151 108.833 175.902C108.88 175.653 108.92 175.343 108.951 174.973C108.983 174.604 109.006 174.166 109.022 173.659C109.038 173.145 109.046 172.546 109.046 171.863V164.015C109.046 163.332 108.998 162.789 108.904 162.388C108.809 161.986 108.695 161.676 108.561 161.459C108.435 161.242 108.301 161.086 108.16 160.989C108.026 160.893 107.911 160.804 107.817 160.724V160.676L111.444 159.289V159.338C111.397 159.506 111.35 159.715 111.302 159.964C111.263 160.214 111.227 160.527 111.196 160.905C111.164 161.274 111.141 161.716 111.125 162.231C111.109 162.737 111.101 163.332 111.101 164.015V171.863C111.101 172.546 111.109 173.145 111.125 173.659C111.141 174.166 111.164 174.604 111.196 174.973C111.227 175.343 111.263 175.653 111.302 175.902C111.35 176.151 111.397 176.36 111.444 176.529V176.577H108.703V176.529Z"/>
<path d="M112.437 178.458C113.287 178.393 114.118 178.224 114.929 177.951C115.749 177.686 116.532 177.332 117.281 176.89C118.029 176.456 118.73 175.946 119.384 175.359C120.045 174.765 120.636 174.114 121.156 173.406C121.684 172.691 122.133 171.927 122.503 171.116C122.881 170.296 123.16 169.44 123.342 168.548C123.011 168.757 122.7 168.938 122.408 169.09C122.125 169.235 121.829 169.356 121.522 169.452C121.223 169.549 120.9 169.621 120.553 169.669C120.215 169.717 119.829 169.741 119.395 169.741C118.852 169.741 118.277 169.637 117.67 169.428C117.072 169.219 116.52 168.898 116.016 168.464C115.512 168.03 115.095 167.479 114.764 166.812C114.433 166.145 114.268 165.349 114.268 164.425C114.268 163.798 114.386 163.163 114.622 162.52C114.859 161.869 115.213 161.287 115.686 160.772C116.166 160.25 116.769 159.824 117.493 159.494C118.218 159.165 119.072 159 120.057 159C120.821 159 121.558 159.145 122.266 159.434C122.983 159.723 123.617 160.165 124.169 160.76C124.72 161.347 125.157 162.086 125.48 162.978C125.811 163.87 125.976 164.923 125.976 166.137C125.976 167.198 125.815 168.247 125.492 169.283C125.169 170.312 124.716 171.293 124.133 172.225C123.55 173.157 122.853 174.025 122.042 174.829C121.231 175.624 120.333 176.32 119.348 176.914C118.364 177.517 117.312 177.999 116.194 178.361C115.075 178.723 113.917 178.936 112.72 179L112.437 178.458ZM120.73 168.476C121.195 168.476 121.668 168.407 122.148 168.271C122.629 168.134 123.078 167.925 123.495 167.644C123.535 167.419 123.558 167.19 123.566 166.957C123.582 166.724 123.59 166.482 123.59 166.233C123.59 165.229 123.483 164.337 123.271 163.557C123.058 162.769 122.774 162.106 122.42 161.568C122.066 161.029 121.652 160.619 121.179 160.338C120.715 160.057 120.226 159.916 119.714 159.916C119.321 159.916 118.935 159.993 118.557 160.145C118.178 160.298 117.84 160.531 117.54 160.844C117.241 161.158 117.001 161.556 116.82 162.038C116.639 162.52 116.548 163.095 116.548 163.762C116.548 164.429 116.647 165.052 116.843 165.631C117.04 166.201 117.32 166.699 117.682 167.125C118.045 167.543 118.482 167.873 118.994 168.114C119.514 168.355 120.092 168.476 120.73 168.476Z"/>
<path d="M132.994 161.495C132.325 161.495 131.738 161.504 131.234 161.52C130.738 161.536 130.308 161.56 129.946 161.592C129.584 161.624 129.28 161.66 129.036 161.7C128.792 161.741 128.587 161.785 128.422 161.833H128.375V159.217H128.422C128.587 159.233 128.792 159.249 129.036 159.265C129.28 159.273 129.584 159.281 129.946 159.289C130.308 159.289 130.738 159.289 131.234 159.289C131.738 159.289 132.325 159.289 132.994 159.289H139.138V159.542L129.391 176.577H128.032L136.598 161.495H132.994Z"/>
<path d="M137.46 178.458C138.311 178.393 139.142 178.224 139.953 177.951C140.772 177.686 141.556 177.332 142.304 176.89C143.053 176.456 143.754 175.946 144.407 175.359C145.069 174.765 145.66 174.114 146.18 173.406C146.707 172.691 147.156 171.927 147.526 171.116C147.905 170.296 148.184 169.44 148.365 168.548C148.034 168.757 147.723 168.938 147.432 169.09C147.148 169.235 146.853 169.356 146.546 169.452C146.247 169.549 145.924 169.621 145.577 169.669C145.238 169.717 144.852 169.741 144.419 169.741C143.876 169.741 143.301 169.637 142.694 169.428C142.096 169.219 141.544 168.898 141.04 168.464C140.536 168.03 140.119 167.479 139.788 166.812C139.457 166.145 139.292 165.349 139.292 164.425C139.292 163.798 139.41 163.163 139.646 162.52C139.882 161.869 140.237 161.287 140.709 160.772C141.19 160.25 141.792 159.824 142.517 159.494C143.242 159.165 144.096 159 145.081 159C145.845 159 146.581 159.145 147.29 159.434C148.007 159.723 148.641 160.165 149.192 160.76C149.744 161.347 150.181 162.086 150.504 162.978C150.835 163.87 151 164.923 151 166.137C151 167.198 150.839 168.247 150.516 169.283C150.193 170.312 149.74 171.293 149.157 172.225C148.574 173.157 147.877 174.025 147.066 174.829C146.254 175.624 145.356 176.32 144.372 176.914C143.387 177.517 142.336 177.999 141.217 178.361C140.099 178.723 138.941 178.936 137.744 179L137.46 178.458ZM145.754 168.476C146.219 168.476 146.692 168.407 147.172 168.271C147.652 168.134 148.101 167.925 148.519 167.644C148.558 167.419 148.582 167.19 148.59 166.957C148.606 166.724 148.613 166.482 148.613 166.233C148.613 165.229 148.507 164.337 148.294 163.557C148.082 162.769 147.798 162.106 147.444 161.568C147.089 161.029 146.676 160.619 146.203 160.338C145.738 160.057 145.25 159.916 144.738 159.916C144.344 159.916 143.958 159.993 143.58 160.145C143.202 160.298 142.864 160.531 142.564 160.844C142.265 161.158 142.025 161.556 141.844 162.038C141.662 162.52 141.572 163.095 141.572 163.762C141.572 164.429 141.67 165.052 141.867 165.631C142.064 166.201 142.344 166.699 142.706 167.125C143.068 167.543 143.505 167.873 144.017 168.114C144.537 168.355 145.116 168.476 145.754 168.476Z"/>
</mask>
<path d="M42.5874 160.326C42.5717 161.226 42.5559 162.098 42.5402 162.942C42.5323 163.304 42.5244 163.673 42.5166 164.051C42.5166 164.429 42.5126 164.803 42.5047 165.172C42.5047 165.534 42.5008 165.884 42.4929 166.221C42.4929 166.551 42.4929 166.844 42.4929 167.101C42.4929 167.64 42.4969 168.291 42.5047 169.054C42.5126 169.818 42.5205 170.601 42.5284 171.405C42.5441 172.209 42.5638 172.98 42.5874 173.72C42.6111 174.459 42.6386 175.074 42.6701 175.564C42.7804 175.58 42.9261 175.6 43.1073 175.624C43.2963 175.641 43.4932 175.657 43.698 175.673C43.9028 175.681 44.1037 175.689 44.3006 175.697C44.4975 175.705 44.6629 175.709 44.7968 175.709C45.3482 175.709 45.9113 175.673 46.4863 175.6C47.0692 175.52 47.6284 175.375 48.164 175.166C48.7075 174.957 49.2155 174.672 49.6881 174.31C50.1686 173.941 50.5861 173.467 50.9405 172.888C51.3028 172.309 51.5864 171.614 51.7912 170.802C51.996 169.983 52.0984 169.018 52.0984 167.909C52.0984 166.679 51.9526 165.586 51.6612 164.63C51.3698 163.665 50.9405 162.854 50.3734 162.195C49.8142 161.536 49.1171 161.037 48.2822 160.7C47.4551 160.354 46.5021 160.181 45.423 160.181C45.2103 160.181 44.9701 160.189 44.7023 160.206C44.4345 160.214 44.1667 160.226 43.8989 160.242C43.639 160.25 43.3908 160.266 43.1546 160.29C42.9261 160.306 42.7371 160.318 42.5874 160.326ZM40 159.241C40.1812 159.249 40.3505 159.257 40.508 159.265C40.6419 159.273 40.7798 159.281 40.9216 159.289C41.0633 159.289 41.1775 159.289 41.2642 159.289C41.4138 159.289 41.6619 159.281 42.0085 159.265C42.363 159.249 42.7647 159.233 43.2136 159.217C43.6626 159.201 44.1273 159.185 44.6078 159.169C45.0961 159.153 45.553 159.145 45.9783 159.145C47.1204 159.145 48.2073 159.289 49.2392 159.579C50.271 159.868 51.1768 160.342 51.9566 161.001C52.7364 161.66 53.3547 162.524 53.8115 163.593C54.2683 164.662 54.4968 165.976 54.4968 167.535C54.4968 168.652 54.3747 169.657 54.1305 170.549C53.8942 171.441 53.5594 172.229 53.1262 172.912C52.693 173.595 52.1732 174.182 51.5667 174.672C50.9681 175.154 50.3025 175.552 49.57 175.866C48.8453 176.179 48.0695 176.408 47.2425 176.553C46.4154 176.697 45.5608 176.77 44.6787 176.77C44.3636 176.77 43.9816 176.758 43.5326 176.734C43.0915 176.718 42.6465 176.697 42.1976 176.673C41.7486 176.649 41.3233 176.625 40.9216 176.601C40.5277 176.585 40.2205 176.577 40 176.577V176.529C40.0473 176.36 40.0906 176.151 40.13 175.902C40.1772 175.653 40.2166 175.343 40.2481 174.973C40.2796 174.604 40.3032 174.166 40.319 173.659C40.3348 173.145 40.3426 172.546 40.3426 171.863V164.015C40.3426 163.332 40.3348 162.733 40.319 162.219C40.3032 161.696 40.2796 161.25 40.2481 160.881C40.2166 160.503 40.1772 160.185 40.13 159.928C40.0906 159.671 40.0473 159.458 40 159.289V159.241Z" fill="white"/>
<path d="M57.1315 163.617C57.9034 163.617 58.6949 163.617 59.5062 163.617C60.3175 163.609 61.0697 163.601 61.7629 163.593C62.456 163.577 63.0507 163.561 63.5469 163.545C64.051 163.529 64.3818 163.505 64.5393 163.473L64.0786 164.775C63.8659 164.718 63.6257 164.666 63.3579 164.618C63.1216 164.578 62.8341 164.541 62.4954 164.509C62.1646 164.469 61.7786 164.449 61.3375 164.449C61.18 164.449 60.9988 164.457 60.794 164.473C60.5892 164.481 60.3923 164.493 60.2033 164.509C59.9828 164.525 59.7583 164.541 59.5299 164.558V169.319C60.1679 169.311 60.7428 169.295 61.2548 169.271C61.7668 169.247 62.2039 169.215 62.5663 169.175C62.9916 169.143 63.3657 169.098 63.6887 169.042L63.4051 170.477C62.9719 170.421 62.5348 170.372 62.0937 170.332C61.7156 170.292 61.2981 170.26 60.8413 170.236C60.3845 170.204 59.9473 170.187 59.5299 170.187V175.661C60.2624 175.661 60.9358 175.633 61.5502 175.576C62.1646 175.512 62.7002 175.444 63.157 175.371C63.6926 175.283 64.177 175.182 64.6102 175.07L64.3385 176.649C64.2203 176.641 64.0274 176.629 63.7596 176.613C63.4996 176.605 63.2239 176.597 62.9325 176.589C62.649 176.589 62.3812 176.585 62.1291 176.577C61.8771 176.577 61.7038 176.577 61.6093 176.577H57.1315V176.529C57.1866 176.36 57.2338 176.143 57.2732 175.878C57.3205 175.612 57.3559 175.287 57.3796 174.901C57.4111 174.507 57.4347 174.041 57.4505 173.503C57.4662 172.964 57.4741 172.333 57.4741 171.61V168.572C57.4741 167.849 57.4662 167.222 57.4505 166.691C57.4347 166.153 57.4111 165.691 57.3796 165.305C57.3559 164.911 57.3205 164.582 57.2732 164.316C57.2338 164.051 57.1866 163.834 57.1315 163.665V163.617Z" fill="white"/>
<path d="M72.9987 166.137H72.7624C72.7152 166 72.6364 165.827 72.5261 165.618C72.4237 165.409 72.282 165.205 72.1008 165.004C71.9275 164.803 71.7109 164.634 71.451 164.497C71.1911 164.353 70.8799 164.28 70.5176 164.28C70.2419 164.28 69.9938 164.329 69.7733 164.425C69.5606 164.513 69.3795 164.638 69.2298 164.799C69.0802 164.959 68.9659 165.152 68.8872 165.377C68.8084 165.594 68.769 165.831 68.769 166.089C68.769 166.507 68.8911 166.904 69.1353 167.282C69.3873 167.66 69.6985 168.038 70.0687 168.415C70.4389 168.785 70.8406 169.159 71.2738 169.536C71.707 169.914 72.1087 170.308 72.4789 170.718C72.8491 171.128 73.1563 171.562 73.4004 172.02C73.6525 172.478 73.7785 172.968 73.7785 173.491C73.7785 173.876 73.7076 174.274 73.5658 174.684C73.4319 175.094 73.2114 175.464 72.9042 175.793C72.597 176.123 72.2032 176.392 71.7227 176.601C71.2423 176.818 70.6594 176.926 69.9741 176.926C69.5961 176.926 69.2337 176.894 68.8872 176.83C68.5485 176.766 68.2334 176.685 67.942 176.589C67.6584 176.501 67.4025 176.404 67.174 176.3C66.9535 176.187 66.7684 176.083 66.6187 175.986L66.8314 173.708H67.0795C67.1583 173.989 67.2725 174.27 67.4221 174.552C67.5797 174.833 67.7687 175.09 67.9893 175.323C68.2177 175.548 68.4815 175.733 68.7808 175.878C69.088 176.014 69.4385 176.083 69.8324 176.083C70.108 176.083 70.368 176.038 70.6121 175.95C70.8563 175.854 71.065 175.721 71.2383 175.552C71.4195 175.383 71.5613 175.178 71.6637 174.937C71.766 174.688 71.8172 174.411 71.8172 174.105C71.8172 173.744 71.7464 173.41 71.6046 173.105C71.4628 172.791 71.2738 172.494 71.0375 172.213C70.8012 171.923 70.5334 171.646 70.2341 171.381C69.9426 171.116 69.6394 170.846 69.3243 170.573C69.0093 170.3 68.7021 170.023 68.4028 169.741C68.1113 169.452 67.8475 169.143 67.6112 168.813C67.3749 168.484 67.1858 168.134 67.0441 167.764C66.9023 167.387 66.8314 166.973 66.8314 166.523C66.8314 166.048 66.9299 165.622 67.1268 165.245C67.3237 164.867 67.5836 164.55 67.9065 164.292C68.2295 164.027 68.5997 163.826 69.0171 163.69C69.4346 163.545 69.8678 163.473 70.3168 163.473C70.6476 163.473 70.9548 163.497 71.2383 163.545C71.5298 163.593 71.7897 163.653 72.0181 163.726C72.2544 163.79 72.4592 163.858 72.6325 163.931C72.8057 163.995 72.9475 164.047 73.0578 164.087L72.9987 166.137Z" fill="white"/>
<path d="M78.6935 164.473C78.6856 165.132 78.6777 165.771 78.6698 166.39C78.6698 166.655 78.6659 166.928 78.658 167.21C78.658 167.483 78.6541 167.756 78.6462 168.03C78.6462 168.303 78.6462 168.564 78.6462 168.813C78.6462 169.054 78.6462 169.271 78.6462 169.464C78.6462 169.866 78.6462 170.352 78.6462 170.923C78.6541 171.485 78.6619 172.064 78.6698 172.659C78.6777 173.254 78.6895 173.828 78.7053 174.383C78.721 174.929 78.7407 175.387 78.7643 175.757C78.8431 175.773 78.9455 175.789 79.0715 175.805C79.1976 175.813 79.3275 175.825 79.4614 175.841C79.6032 175.85 79.741 175.858 79.8749 175.866C80.0088 175.866 80.123 175.866 80.2176 175.866C80.6508 175.866 81.0879 175.837 81.529 175.781C81.978 175.725 82.4072 175.62 82.8168 175.468C83.2343 175.307 83.6242 175.09 83.9865 174.817C84.3488 174.543 84.6639 174.194 84.9317 173.768C85.2073 173.334 85.42 172.816 85.5697 172.213C85.7272 171.602 85.806 170.883 85.806 170.055C85.806 168.23 85.3767 166.824 84.5182 165.835C83.6675 164.847 82.3954 164.353 80.702 164.353C80.5366 164.353 80.3593 164.357 80.1703 164.365C79.9891 164.373 79.808 164.385 79.6268 164.401C79.4457 164.409 79.2724 164.421 79.107 164.437C78.9494 164.453 78.8116 164.465 78.6935 164.473ZM76.2478 163.593C76.4368 163.601 76.6141 163.605 76.7795 163.605C76.9212 163.613 77.0591 163.617 77.193 163.617C77.3269 163.617 77.4253 163.617 77.4883 163.617C77.5986 163.617 77.7955 163.613 78.0791 163.605C78.3626 163.597 78.6816 163.589 79.0361 163.581C79.3984 163.565 79.7765 163.553 80.1703 163.545C80.572 163.529 80.9422 163.521 81.2809 163.521C82.2024 163.521 83.0807 163.629 83.9156 163.846C84.7505 164.063 85.483 164.421 86.1131 164.919C86.7511 165.409 87.2552 166.056 87.6254 166.86C87.9956 167.656 88.1807 168.64 88.1807 169.814C88.1807 171.076 87.9681 172.144 87.5427 173.02C87.1174 173.897 86.5424 174.612 85.8178 175.166C85.0931 175.713 84.2504 176.111 83.2894 176.36C82.3364 176.601 81.3282 176.722 80.2648 176.722C80.0128 176.722 79.6977 176.713 79.3196 176.697C78.9416 176.681 78.5556 176.665 78.1618 176.649C77.768 176.633 77.3938 176.617 77.0394 176.601C76.6928 176.585 76.429 176.577 76.2478 176.577V176.529C76.3029 176.36 76.3502 176.143 76.3896 175.878C76.4368 175.612 76.4723 175.287 76.4959 174.901C76.5274 174.507 76.551 174.041 76.5668 173.503C76.5825 172.964 76.5904 172.333 76.5904 171.61V168.572C76.5904 167.849 76.5825 167.218 76.5668 166.679C76.551 166.141 76.5274 165.675 76.4959 165.281C76.4723 164.887 76.4368 164.558 76.3896 164.292C76.3502 164.027 76.3029 163.81 76.2478 163.641V163.593Z" fill="white"/>
<path d="M90.6855 163.617C91.4574 163.617 92.249 163.617 93.0602 163.617C93.8715 163.609 94.6237 163.601 95.3169 163.593C96.01 163.577 96.6047 163.561 97.1009 163.545C97.605 163.529 97.9358 163.505 98.0933 163.473L97.6326 164.775C97.4199 164.718 97.1797 164.666 96.9119 164.618C96.6756 164.578 96.3881 164.541 96.0494 164.509C95.7186 164.469 95.3326 164.449 94.8915 164.449C94.734 164.449 94.5528 164.457 94.3481 164.473C94.1433 164.481 93.9464 164.493 93.7573 164.509C93.5368 164.525 93.3123 164.541 93.0839 164.558V169.319C93.7219 169.311 94.2969 169.295 94.8088 169.271C95.3208 169.247 95.758 169.215 96.1203 169.175C96.5456 169.143 96.9197 169.098 97.2427 169.042L96.9591 170.477C96.5259 170.421 96.0888 170.372 95.6477 170.332C95.2696 170.292 94.8522 170.26 94.3953 170.236C93.9385 170.204 93.5013 170.187 93.0839 170.187V175.661C93.8164 175.661 94.4898 175.633 95.1042 175.576C95.7186 175.512 96.2542 175.444 96.711 175.371C97.2466 175.283 97.731 175.182 98.1642 175.07L97.8925 176.649C97.7743 176.641 97.5814 176.629 97.3136 176.613C97.0536 176.605 96.778 176.597 96.4865 176.589C96.203 176.589 95.9352 176.585 95.6831 176.577C95.4311 176.577 95.2578 176.577 95.1633 176.577H90.6855V176.529C90.7406 176.36 90.7879 176.143 90.8272 175.878C90.8745 175.612 90.91 175.287 90.9336 174.901C90.9651 174.507 90.9887 174.041 91.0045 173.503C91.0202 172.964 91.0281 172.333 91.0281 171.61V168.572C91.0281 167.849 91.0202 167.222 91.0045 166.691C90.9887 166.153 90.9651 165.691 90.9336 165.305C90.91 164.911 90.8745 164.582 90.8272 164.316C90.7879 164.051 90.7406 163.834 90.6855 163.665V163.617Z" fill="white"/>
<path d="M108.703 176.529C108.75 176.36 108.794 176.151 108.833 175.902C108.88 175.653 108.92 175.343 108.951 174.973C108.983 174.604 109.006 174.166 109.022 173.659C109.038 173.145 109.046 172.546 109.046 171.863V164.015C109.046 163.332 108.998 162.789 108.904 162.388C108.809 161.986 108.695 161.676 108.561 161.459C108.435 161.242 108.301 161.086 108.16 160.989C108.026 160.893 107.911 160.804 107.817 160.724V160.676L111.444 159.289V159.338C111.397 159.506 111.35 159.715 111.302 159.964C111.263 160.214 111.227 160.527 111.196 160.905C111.164 161.274 111.141 161.716 111.125 162.231C111.109 162.737 111.101 163.332 111.101 164.015V171.863C111.101 172.546 111.109 173.145 111.125 173.659C111.141 174.166 111.164 174.604 111.196 174.973C111.227 175.343 111.263 175.653 111.302 175.902C111.35 176.151 111.397 176.36 111.444 176.529V176.577H108.703V176.529Z" fill="white"/>
<path d="M112.437 178.458C113.287 178.393 114.118 178.224 114.929 177.951C115.749 177.686 116.532 177.332 117.281 176.89C118.029 176.456 118.73 175.946 119.384 175.359C120.045 174.765 120.636 174.114 121.156 173.406C121.684 172.691 122.133 171.927 122.503 171.116C122.881 170.296 123.16 169.44 123.342 168.548C123.011 168.757 122.7 168.938 122.408 169.09C122.125 169.235 121.829 169.356 121.522 169.452C121.223 169.549 120.9 169.621 120.553 169.669C120.215 169.717 119.829 169.741 119.395 169.741C118.852 169.741 118.277 169.637 117.67 169.428C117.072 169.219 116.52 168.898 116.016 168.464C115.512 168.03 115.095 167.479 114.764 166.812C114.433 166.145 114.268 165.349 114.268 164.425C114.268 163.798 114.386 163.163 114.622 162.52C114.859 161.869 115.213 161.287 115.686 160.772C116.166 160.25 116.769 159.824 117.493 159.494C118.218 159.165 119.072 159 120.057 159C120.821 159 121.558 159.145 122.266 159.434C122.983 159.723 123.617 160.165 124.169 160.76C124.72 161.347 125.157 162.086 125.48 162.978C125.811 163.87 125.976 164.923 125.976 166.137C125.976 167.198 125.815 168.247 125.492 169.283C125.169 170.312 124.716 171.293 124.133 172.225C123.55 173.157 122.853 174.025 122.042 174.829C121.231 175.624 120.333 176.32 119.348 176.914C118.364 177.517 117.312 177.999 116.194 178.361C115.075 178.723 113.917 178.936 112.72 179L112.437 178.458ZM120.73 168.476C121.195 168.476 121.668 168.407 122.148 168.271C122.629 168.134 123.078 167.925 123.495 167.644C123.535 167.419 123.558 167.19 123.566 166.957C123.582 166.724 123.59 166.482 123.59 166.233C123.59 165.229 123.483 164.337 123.271 163.557C123.058 162.769 122.774 162.106 122.42 161.568C122.066 161.029 121.652 160.619 121.179 160.338C120.715 160.057 120.226 159.916 119.714 159.916C119.321 159.916 118.935 159.993 118.557 160.145C118.178 160.298 117.84 160.531 117.54 160.844C117.241 161.158 117.001 161.556 116.82 162.038C116.639 162.52 116.548 163.095 116.548 163.762C116.548 164.429 116.647 165.052 116.843 165.631C117.04 166.201 117.32 166.699 117.682 167.125C118.045 167.543 118.482 167.873 118.994 168.114C119.514 168.355 120.092 168.476 120.73 168.476Z" fill="white"/>
<path d="M132.994 161.495C132.325 161.495 131.738 161.504 131.234 161.52C130.738 161.536 130.308 161.56 129.946 161.592C129.584 161.624 129.28 161.66 129.036 161.7C128.792 161.741 128.587 161.785 128.422 161.833H128.375V159.217H128.422C128.587 159.233 128.792 159.249 129.036 159.265C129.28 159.273 129.584 159.281 129.946 159.289C130.308 159.289 130.738 159.289 131.234 159.289C131.738 159.289 132.325 159.289 132.994 159.289H139.138V159.542L129.391 176.577H128.032L136.598 161.495H132.994Z" fill="white"/>
<path d="M137.46 178.458C138.311 178.393 139.142 178.224 139.953 177.951C140.772 177.686 141.556 177.332 142.304 176.89C143.053 176.456 143.754 175.946 144.407 175.359C145.069 174.765 145.66 174.114 146.18 173.406C146.707 172.691 147.156 171.927 147.526 171.116C147.905 170.296 148.184 169.44 148.365 168.548C148.034 168.757 147.723 168.938 147.432 169.09C147.148 169.235 146.853 169.356 146.546 169.452C146.247 169.549 145.924 169.621 145.577 169.669C145.238 169.717 144.852 169.741 144.419 169.741C143.876 169.741 143.301 169.637 142.694 169.428C142.096 169.219 141.544 168.898 141.04 168.464C140.536 168.03 140.119 167.479 139.788 166.812C139.457 166.145 139.292 165.349 139.292 164.425C139.292 163.798 139.41 163.163 139.646 162.52C139.882 161.869 140.237 161.287 140.709 160.772C141.19 160.25 141.792 159.824 142.517 159.494C143.242 159.165 144.096 159 145.081 159C145.845 159 146.581 159.145 147.29 159.434C148.007 159.723 148.641 160.165 149.192 160.76C149.744 161.347 150.181 162.086 150.504 162.978C150.835 163.87 151 164.923 151 166.137C151 167.198 150.839 168.247 150.516 169.283C150.193 170.312 149.74 171.293 149.157 172.225C148.574 173.157 147.877 174.025 147.066 174.829C146.254 175.624 145.356 176.32 144.372 176.914C143.387 177.517 142.336 177.999 141.217 178.361C140.099 178.723 138.941 178.936 137.744 179L137.46 178.458ZM145.754 168.476C146.219 168.476 146.692 168.407 147.172 168.271C147.652 168.134 148.101 167.925 148.519 167.644C148.558 167.419 148.582 167.19 148.59 166.957C148.606 166.724 148.613 166.482 148.613 166.233C148.613 165.229 148.507 164.337 148.294 163.557C148.082 162.769 147.798 162.106 147.444 161.568C147.089 161.029 146.676 160.619 146.203 160.338C145.738 160.057 145.25 159.916 144.738 159.916C144.344 159.916 143.958 159.993 143.58 160.145C143.202 160.298 142.864 160.531 142.564 160.844C142.265 161.158 142.025 161.556 141.844 162.038C141.662 162.52 141.572 163.095 141.572 163.762C141.572 164.429 141.67 165.052 141.867 165.631C142.064 166.201 142.344 166.699 142.706 167.125C143.068 167.543 143.505 167.873 144.017 168.114C144.537 168.355 145.116 168.476 145.754 168.476Z" fill="white"/>
<path d="M42.5874 160.326C42.5717 161.226 42.5559 162.098 42.5402 162.942C42.5323 163.304 42.5244 163.673 42.5166 164.051C42.5166 164.429 42.5126 164.803 42.5047 165.172C42.5047 165.534 42.5008 165.884 42.4929 166.221C42.4929 166.551 42.4929 166.844 42.4929 167.101C42.4929 167.64 42.4969 168.291 42.5047 169.054C42.5126 169.818 42.5205 170.601 42.5284 171.405C42.5441 172.209 42.5638 172.98 42.5874 173.72C42.6111 174.459 42.6386 175.074 42.6701 175.564C42.7804 175.58 42.9261 175.6 43.1073 175.624C43.2963 175.641 43.4932 175.657 43.698 175.673C43.9028 175.681 44.1037 175.689 44.3006 175.697C44.4975 175.705 44.6629 175.709 44.7968 175.709C45.3482 175.709 45.9113 175.673 46.4863 175.6C47.0692 175.52 47.6284 175.375 48.164 175.166C48.7075 174.957 49.2155 174.672 49.6881 174.31C50.1686 173.941 50.5861 173.467 50.9405 172.888C51.3028 172.309 51.5864 171.614 51.7912 170.802C51.996 169.983 52.0984 169.018 52.0984 167.909C52.0984 166.679 51.9526 165.586 51.6612 164.63C51.3698 163.665 50.9405 162.854 50.3734 162.195C49.8142 161.536 49.1171 161.037 48.2822 160.7C47.4551 160.354 46.5021 160.181 45.423 160.181C45.2103 160.181 44.9701 160.189 44.7023 160.206C44.4345 160.214 44.1667 160.226 43.8989 160.242C43.639 160.25 43.3908 160.266 43.1546 160.29C42.9261 160.306 42.7371 160.318 42.5874 160.326ZM40 159.241C40.1812 159.249 40.3505 159.257 40.508 159.265C40.6419 159.273 40.7798 159.281 40.9216 159.289C41.0633 159.289 41.1775 159.289 41.2642 159.289C41.4138 159.289 41.6619 159.281 42.0085 159.265C42.363 159.249 42.7647 159.233 43.2136 159.217C43.6626 159.201 44.1273 159.185 44.6078 159.169C45.0961 159.153 45.553 159.145 45.9783 159.145C47.1204 159.145 48.2073 159.289 49.2392 159.579C50.271 159.868 51.1768 160.342 51.9566 161.001C52.7364 161.66 53.3547 162.524 53.8115 163.593C54.2683 164.662 54.4968 165.976 54.4968 167.535C54.4968 168.652 54.3747 169.657 54.1305 170.549C53.8942 171.441 53.5594 172.229 53.1262 172.912C52.693 173.595 52.1732 174.182 51.5667 174.672C50.9681 175.154 50.3025 175.552 49.57 175.866C48.8453 176.179 48.0695 176.408 47.2425 176.553C46.4154 176.697 45.5608 176.77 44.6787 176.77C44.3636 176.77 43.9816 176.758 43.5326 176.734C43.0915 176.718 42.6465 176.697 42.1976 176.673C41.7486 176.649 41.3233 176.625 40.9216 176.601C40.5277 176.585 40.2205 176.577 40 176.577V176.529C40.0473 176.36 40.0906 176.151 40.13 175.902C40.1772 175.653 40.2166 175.343 40.2481 174.973C40.2796 174.604 40.3032 174.166 40.319 173.659C40.3348 173.145 40.3426 172.546 40.3426 171.863V164.015C40.3426 163.332 40.3348 162.733 40.319 162.219C40.3032 161.696 40.2796 161.25 40.2481 160.881C40.2166 160.503 40.1772 160.185 40.13 159.928C40.0906 159.671 40.0473 159.458 40 159.289V159.241Z" stroke="white" stroke-width="2" mask="url(#path-31-inside-1_0_1)"/>
<path d="M57.1315 163.617C57.9034 163.617 58.6949 163.617 59.5062 163.617C60.3175 163.609 61.0697 163.601 61.7629 163.593C62.456 163.577 63.0507 163.561 63.5469 163.545C64.051 163.529 64.3818 163.505 64.5393 163.473L64.0786 164.775C63.8659 164.718 63.6257 164.666 63.3579 164.618C63.1216 164.578 62.8341 164.541 62.4954 164.509C62.1646 164.469 61.7786 164.449 61.3375 164.449C61.18 164.449 60.9988 164.457 60.794 164.473C60.5892 164.481 60.3923 164.493 60.2033 164.509C59.9828 164.525 59.7583 164.541 59.5299 164.558V169.319C60.1679 169.311 60.7428 169.295 61.2548 169.271C61.7668 169.247 62.2039 169.215 62.5663 169.175C62.9916 169.143 63.3657 169.098 63.6887 169.042L63.4051 170.477C62.9719 170.421 62.5348 170.372 62.0937 170.332C61.7156 170.292 61.2981 170.26 60.8413 170.236C60.3845 170.204 59.9473 170.187 59.5299 170.187V175.661C60.2624 175.661 60.9358 175.633 61.5502 175.576C62.1646 175.512 62.7002 175.444 63.157 175.371C63.6926 175.283 64.177 175.182 64.6102 175.07L64.3385 176.649C64.2203 176.641 64.0274 176.629 63.7596 176.613C63.4996 176.605 63.2239 176.597 62.9325 176.589C62.649 176.589 62.3812 176.585 62.1291 176.577C61.8771 176.577 61.7038 176.577 61.6093 176.577H57.1315V176.529C57.1866 176.36 57.2338 176.143 57.2732 175.878C57.3205 175.612 57.3559 175.287 57.3796 174.901C57.4111 174.507 57.4347 174.041 57.4505 173.503C57.4662 172.964 57.4741 172.333 57.4741 171.61V168.572C57.4741 167.849 57.4662 167.222 57.4505 166.691C57.4347 166.153 57.4111 165.691 57.3796 165.305C57.3559 164.911 57.3205 164.582 57.2732 164.316C57.2338 164.051 57.1866 163.834 57.1315 163.665V163.617Z" stroke="white" stroke-width="2" mask="url(#path-31-inside-1_0_1)"/>
<path d="M72.9987 166.137H72.7624C72.7152 166 72.6364 165.827 72.5261 165.618C72.4237 165.409 72.282 165.205 72.1008 165.004C71.9275 164.803 71.7109 164.634 71.451 164.497C71.1911 164.353 70.8799 164.28 70.5176 164.28C70.2419 164.28 69.9938 164.329 69.7733 164.425C69.5606 164.513 69.3795 164.638 69.2298 164.799C69.0802 164.959 68.9659 165.152 68.8872 165.377C68.8084 165.594 68.769 165.831 68.769 166.089C68.769 166.507 68.8911 166.904 69.1353 167.282C69.3873 167.66 69.6985 168.038 70.0687 168.415C70.4389 168.785 70.8406 169.159 71.2738 169.536C71.707 169.914 72.1087 170.308 72.4789 170.718C72.8491 171.128 73.1563 171.562 73.4004 172.02C73.6525 172.478 73.7785 172.968 73.7785 173.491C73.7785 173.876 73.7076 174.274 73.5658 174.684C73.4319 175.094 73.2114 175.464 72.9042 175.793C72.597 176.123 72.2032 176.392 71.7227 176.601C71.2423 176.818 70.6594 176.926 69.9741 176.926C69.5961 176.926 69.2337 176.894 68.8872 176.83C68.5485 176.766 68.2334 176.685 67.942 176.589C67.6584 176.501 67.4025 176.404 67.174 176.3C66.9535 176.187 66.7684 176.083 66.6187 175.986L66.8314 173.708H67.0795C67.1583 173.989 67.2725 174.27 67.4221 174.552C67.5797 174.833 67.7687 175.09 67.9893 175.323C68.2177 175.548 68.4815 175.733 68.7808 175.878C69.088 176.014 69.4385 176.083 69.8324 176.083C70.108 176.083 70.368 176.038 70.6121 175.95C70.8563 175.854 71.065 175.721 71.2383 175.552C71.4195 175.383 71.5613 175.178 71.6637 174.937C71.766 174.688 71.8172 174.411 71.8172 174.105C71.8172 173.744 71.7464 173.41 71.6046 173.105C71.4628 172.791 71.2738 172.494 71.0375 172.213C70.8012 171.923 70.5334 171.646 70.2341 171.381C69.9426 171.116 69.6394 170.846 69.3243 170.573C69.0093 170.3 68.7021 170.023 68.4028 169.741C68.1113 169.452 67.8475 169.143 67.6112 168.813C67.3749 168.484 67.1858 168.134 67.0441 167.764C66.9023 167.387 66.8314 166.973 66.8314 166.523C66.8314 166.048 66.9299 165.622 67.1268 165.245C67.3237 164.867 67.5836 164.55 67.9065 164.292C68.2295 164.027 68.5997 163.826 69.0171 163.69C69.4346 163.545 69.8678 163.473 70.3168 163.473C70.6476 163.473 70.9548 163.497 71.2383 163.545C71.5298 163.593 71.7897 163.653 72.0181 163.726C72.2544 163.79 72.4592 163.858 72.6325 163.931C72.8057 163.995 72.9475 164.047 73.0578 164.087L72.9987 166.137Z" stroke="white" stroke-width="2" mask="url(#path-31-inside-1_0_1)"/>
<path d="M78.6935 164.473C78.6856 165.132 78.6777 165.771 78.6698 166.39C78.6698 166.655 78.6659 166.928 78.658 167.21C78.658 167.483 78.6541 167.756 78.6462 168.03C78.6462 168.303 78.6462 168.564 78.6462 168.813C78.6462 169.054 78.6462 169.271 78.6462 169.464C78.6462 169.866 78.6462 170.352 78.6462 170.923C78.6541 171.485 78.6619 172.064 78.6698 172.659C78.6777 173.254 78.6895 173.828 78.7053 174.383C78.721 174.929 78.7407 175.387 78.7643 175.757C78.8431 175.773 78.9455 175.789 79.0715 175.805C79.1976 175.813 79.3275 175.825 79.4614 175.841C79.6032 175.85 79.741 175.858 79.8749 175.866C80.0088 175.866 80.123 175.866 80.2176 175.866C80.6508 175.866 81.0879 175.837 81.529 175.781C81.978 175.725 82.4072 175.62 82.8168 175.468C83.2343 175.307 83.6242 175.09 83.9865 174.817C84.3488 174.543 84.6639 174.194 84.9317 173.768C85.2073 173.334 85.42 172.816 85.5697 172.213C85.7272 171.602 85.806 170.883 85.806 170.055C85.806 168.23 85.3767 166.824 84.5182 165.835C83.6675 164.847 82.3954 164.353 80.702 164.353C80.5366 164.353 80.3593 164.357 80.1703 164.365C79.9891 164.373 79.808 164.385 79.6268 164.401C79.4457 164.409 79.2724 164.421 79.107 164.437C78.9494 164.453 78.8116 164.465 78.6935 164.473ZM76.2478 163.593C76.4368 163.601 76.6141 163.605 76.7795 163.605C76.9212 163.613 77.0591 163.617 77.193 163.617C77.3269 163.617 77.4253 163.617 77.4883 163.617C77.5986 163.617 77.7955 163.613 78.0791 163.605C78.3626 163.597 78.6816 163.589 79.0361 163.581C79.3984 163.565 79.7765 163.553 80.1703 163.545C80.572 163.529 80.9422 163.521 81.2809 163.521C82.2024 163.521 83.0807 163.629 83.9156 163.846C84.7505 164.063 85.483 164.421 86.1131 164.919C86.7511 165.409 87.2552 166.056 87.6254 166.86C87.9956 167.656 88.1807 168.64 88.1807 169.814C88.1807 171.076 87.9681 172.144 87.5427 173.02C87.1174 173.897 86.5424 174.612 85.8178 175.166C85.0931 175.713 84.2504 176.111 83.2894 176.36C82.3364 176.601 81.3282 176.722 80.2648 176.722C80.0128 176.722 79.6977 176.713 79.3196 176.697C78.9416 176.681 78.5556 176.665 78.1618 176.649C77.768 176.633 77.3938 176.617 77.0394 176.601C76.6928 176.585 76.429 176.577 76.2478 176.577V176.529C76.3029 176.36 76.3502 176.143 76.3896 175.878C76.4368 175.612 76.4723 175.287 76.4959 174.901C76.5274 174.507 76.551 174.041 76.5668 173.503C76.5825 172.964 76.5904 172.333 76.5904 171.61V168.572C76.5904 167.849 76.5825 167.218 76.5668 166.679C76.551 166.141 76.5274 165.675 76.4959 165.281C76.4723 164.887 76.4368 164.558 76.3896 164.292C76.3502 164.027 76.3029 163.81 76.2478 163.641V163.593Z" stroke="white" stroke-width="2" mask="url(#path-31-inside-1_0_1)"/>
<path d="M90.6855 163.617C91.4574 163.617 92.249 163.617 93.0602 163.617C93.8715 163.609 94.6237 163.601 95.3169 163.593C96.01 163.577 96.6047 163.561 97.1009 163.545C97.605 163.529 97.9358 163.505 98.0933 163.473L97.6326 164.775C97.4199 164.718 97.1797 164.666 96.9119 164.618C96.6756 164.578 96.3881 164.541 96.0494 164.509C95.7186 164.469 95.3326 164.449 94.8915 164.449C94.734 164.449 94.5528 164.457 94.3481 164.473C94.1433 164.481 93.9464 164.493 93.7573 164.509C93.5368 164.525 93.3123 164.541 93.0839 164.558V169.319C93.7219 169.311 94.2969 169.295 94.8088 169.271C95.3208 169.247 95.758 169.215 96.1203 169.175C96.5456 169.143 96.9197 169.098 97.2427 169.042L96.9591 170.477C96.5259 170.421 96.0888 170.372 95.6477 170.332C95.2696 170.292 94.8522 170.26 94.3953 170.236C93.9385 170.204 93.5013 170.187 93.0839 170.187V175.661C93.8164 175.661 94.4898 175.633 95.1042 175.576C95.7186 175.512 96.2542 175.444 96.711 175.371C97.2466 175.283 97.731 175.182 98.1642 175.07L97.8925 176.649C97.7743 176.641 97.5814 176.629 97.3136 176.613C97.0536 176.605 96.778 176.597 96.4865 176.589C96.203 176.589 95.9352 176.585 95.6831 176.577C95.4311 176.577 95.2578 176.577 95.1633 176.577H90.6855V176.529C90.7406 176.36 90.7879 176.143 90.8272 175.878C90.8745 175.612 90.91 175.287 90.9336 174.901C90.9651 174.507 90.9887 174.041 91.0045 173.503C91.0202 172.964 91.0281 172.333 91.0281 171.61V168.572C91.0281 167.849 91.0202 167.222 91.0045 166.691C90.9887 166.153 90.9651 165.691 90.9336 165.305C90.91 164.911 90.8745 164.582 90.8272 164.316C90.7879 164.051 90.7406 163.834 90.6855 163.665V163.617Z" stroke="white" stroke-width="2" mask="url(#path-31-inside-1_0_1)"/>
<path d="M108.703 176.529C108.75 176.36 108.794 176.151 108.833 175.902C108.88 175.653 108.92 175.343 108.951 174.973C108.983 174.604 109.006 174.166 109.022 173.659C109.038 173.145 109.046 172.546 109.046 171.863V164.015C109.046 163.332 108.998 162.789 108.904 162.388C108.809 161.986 108.695 161.676 108.561 161.459C108.435 161.242 108.301 161.086 108.16 160.989C108.026 160.893 107.911 160.804 107.817 160.724V160.676L111.444 159.289V159.338C111.397 159.506 111.35 159.715 111.302 159.964C111.263 160.214 111.227 160.527 111.196 160.905C111.164 161.274 111.141 161.716 111.125 162.231C111.109 162.737 111.101 163.332 111.101 164.015V171.863C111.101 172.546 111.109 173.145 111.125 173.659C111.141 174.166 111.164 174.604 111.196 174.973C111.227 175.343 111.263 175.653 111.302 175.902C111.35 176.151 111.397 176.36 111.444 176.529V176.577H108.703V176.529Z" stroke="white" stroke-width="2" mask="url(#path-31-inside-1_0_1)"/>
<path d="M112.437 178.458C113.287 178.393 114.118 178.224 114.929 177.951C115.749 177.686 116.532 177.332 117.281 176.89C118.029 176.456 118.73 175.946 119.384 175.359C120.045 174.765 120.636 174.114 121.156 173.406C121.684 172.691 122.133 171.927 122.503 171.116C122.881 170.296 123.16 169.44 123.342 168.548C123.011 168.757 122.7 168.938 122.408 169.09C122.125 169.235 121.829 169.356 121.522 169.452C121.223 169.549 120.9 169.621 120.553 169.669C120.215 169.717 119.829 169.741 119.395 169.741C118.852 169.741 118.277 169.637 117.67 169.428C117.072 169.219 116.52 168.898 116.016 168.464C115.512 168.03 115.095 167.479 114.764 166.812C114.433 166.145 114.268 165.349 114.268 164.425C114.268 163.798 114.386 163.163 114.622 162.52C114.859 161.869 115.213 161.287 115.686 160.772C116.166 160.25 116.769 159.824 117.493 159.494C118.218 159.165 119.072 159 120.057 159C120.821 159 121.558 159.145 122.266 159.434C122.983 159.723 123.617 160.165 124.169 160.76C124.72 161.347 125.157 162.086 125.48 162.978C125.811 163.87 125.976 164.923 125.976 166.137C125.976 167.198 125.815 168.247 125.492 169.283C125.169 170.312 124.716 171.293 124.133 172.225C123.55 173.157 122.853 174.025 122.042 174.829C121.231 175.624 120.333 176.32 119.348 176.914C118.364 177.517 117.312 177.999 116.194 178.361C115.075 178.723 113.917 178.936 112.72 179L112.437 178.458ZM120.73 168.476C121.195 168.476 121.668 168.407 122.148 168.271C122.629 168.134 123.078 167.925 123.495 167.644C123.535 167.419 123.558 167.19 123.566 166.957C123.582 166.724 123.59 166.482 123.59 166.233C123.59 165.229 123.483 164.337 123.271 163.557C123.058 162.769 122.774 162.106 122.42 161.568C122.066 161.029 121.652 160.619 121.179 160.338C120.715 160.057 120.226 159.916 119.714 159.916C119.321 159.916 118.935 159.993 118.557 160.145C118.178 160.298 117.84 160.531 117.54 160.844C117.241 161.158 117.001 161.556 116.82 162.038C116.639 162.52 116.548 163.095 116.548 163.762C116.548 164.429 116.647 165.052 116.843 165.631C117.04 166.201 117.32 166.699 117.682 167.125C118.045 167.543 118.482 167.873 118.994 168.114C119.514 168.355 120.092 168.476 120.73 168.476Z" stroke="white" stroke-width="2" mask="url(#path-31-inside-1_0_1)"/>
<path d="M132.994 161.495C132.325 161.495 131.738 161.504 131.234 161.52C130.738 161.536 130.308 161.56 129.946 161.592C129.584 161.624 129.28 161.66 129.036 161.7C128.792 161.741 128.587 161.785 128.422 161.833H128.375V159.217H128.422C128.587 159.233 128.792 159.249 129.036 159.265C129.28 159.273 129.584 159.281 129.946 159.289C130.308 159.289 130.738 159.289 131.234 159.289C131.738 159.289 132.325 159.289 132.994 159.289H139.138V159.542L129.391 176.577H128.032L136.598 161.495H132.994Z" stroke="white" stroke-width="2" mask="url(#path-31-inside-1_0_1)"/>
<path d="M137.46 178.458C138.311 178.393 139.142 178.224 139.953 177.951C140.772 177.686 141.556 177.332 142.304 176.89C143.053 176.456 143.754 175.946 144.407 175.359C145.069 174.765 145.66 174.114 146.18 173.406C146.707 172.691 147.156 171.927 147.526 171.116C147.905 170.296 148.184 169.44 148.365 168.548C148.034 168.757 147.723 168.938 147.432 169.09C147.148 169.235 146.853 169.356 146.546 169.452C146.247 169.549 145.924 169.621 145.577 169.669C145.238 169.717 144.852 169.741 144.419 169.741C143.876 169.741 143.301 169.637 142.694 169.428C142.096 169.219 141.544 168.898 141.04 168.464C140.536 168.03 140.119 167.479 139.788 166.812C139.457 166.145 139.292 165.349 139.292 164.425C139.292 163.798 139.41 163.163 139.646 162.52C139.882 161.869 140.237 161.287 140.709 160.772C141.19 160.25 141.792 159.824 142.517 159.494C143.242 159.165 144.096 159 145.081 159C145.845 159 146.581 159.145 147.29 159.434C148.007 159.723 148.641 160.165 149.192 160.76C149.744 161.347 150.181 162.086 150.504 162.978C150.835 163.87 151 164.923 151 166.137C151 167.198 150.839 168.247 150.516 169.283C150.193 170.312 149.74 171.293 149.157 172.225C148.574 173.157 147.877 174.025 147.066 174.829C146.254 175.624 145.356 176.32 144.372 176.914C143.387 177.517 142.336 177.999 141.217 178.361C140.099 178.723 138.941 178.936 137.744 179L137.46 178.458ZM145.754 168.476C146.219 168.476 146.692 168.407 147.172 168.271C147.652 168.134 148.101 167.925 148.519 167.644C148.558 167.419 148.582 167.19 148.59 166.957C148.606 166.724 148.613 166.482 148.613 166.233C148.613 165.229 148.507 164.337 148.294 163.557C148.082 162.769 147.798 162.106 147.444 161.568C147.089 161.029 146.676 160.619 146.203 160.338C145.738 160.057 145.25 159.916 144.738 159.916C144.344 159.916 143.958 159.993 143.58 160.145C143.202 160.298 142.864 160.531 142.564 160.844C142.265 161.158 142.025 161.556 141.844 162.038C141.662 162.52 141.572 163.095 141.572 163.762C141.572 164.429 141.67 165.052 141.867 165.631C142.064 166.201 142.344 166.699 142.706 167.125C143.068 167.543 143.505 167.873 144.017 168.114C144.537 168.355 145.116 168.476 145.754 168.476Z" stroke="white" stroke-width="2" mask="url(#path-31-inside-1_0_1)"/>
</svg>
