<svg width="276" height="217" viewBox="0 0 276 217" fill="none" xmlns="http://www.w3.org/2000/svg">
<g clip-path="url(#clip0_238_107)">
<path d="M276 115.498C274.488 116.724 273.12 118.167 271.464 119.105C263.687 123.722 255.766 128.195 247.918 132.739C241.797 136.274 241.149 136.13 236.757 130.359C235.964 130.792 235.172 131.224 234.164 131.802C239.781 141.685 234.02 148.971 228.692 156.041C227.324 157.917 224.227 158.422 222.067 159.792C221.347 160.225 220.483 161.091 220.339 161.812C219.403 168.161 216.091 173.283 211.986 177.828C209.106 181.074 204.858 181.795 201.402 181.435C198.953 186.196 197.009 190.741 194.417 194.925C190.745 200.84 183.112 202.716 176.847 199.614C175.983 199.181 175.119 198.676 174.831 198.532C172.383 202.933 170.367 207.477 167.631 211.517C163.742 217.144 156.254 218.443 150.061 215.052C145.813 212.744 141.636 210.291 137.46 207.766C136.164 206.972 135.444 207.261 134.22 208.127C130.331 210.796 126.371 213.537 122.051 215.485C116.002 218.226 109.017 215.702 105.489 209.786C103.257 206.035 101.313 202.139 99.0806 198.027C98.5766 198.171 97.6405 198.388 96.7044 198.532C90.5119 199.326 85.5434 197.161 82.3031 191.751C80.143 187.999 78.1988 184.032 75.9666 179.775C75.5345 179.775 74.3104 179.775 73.0143 179.775C69.342 179.775 65.8857 178.549 63.7255 175.663C59.7652 170.469 55.7328 165.203 55.9488 157.772C47.6681 156.474 44.8599 149.476 41.8356 143.056C40.6835 140.675 40.6115 137.356 41.0435 134.687C41.4756 132.234 40.6835 131.441 38.6673 130.792C38.2353 131.441 37.8033 132.09 37.3712 132.739C35.7151 135.12 33.3389 135.914 30.8187 134.471C21.2418 128.988 11.665 123.505 2.16017 117.878C-0.576069 116.219 -0.864094 113.622 1.08007 110.376C9.21678 96.3083 17.2815 82.1686 25.4182 68.1011C30.9627 58.5064 36.4352 48.9838 41.9796 39.389C44.4278 35.2049 46.588 34.6277 50.7644 37.0084C52.2765 37.8741 53.7887 38.6676 55.1568 39.6055C57.461 41.1204 57.965 43.4289 56.7409 45.6653C55.7328 47.4688 53.3566 47.9738 51.0524 46.8917C50.1883 46.4588 49.3243 45.9539 48.1722 45.3767C35.2831 67.7404 22.3939 90.032 9.4328 112.54C16.9215 116.796 24.1941 120.98 31.8988 125.381C44.7879 103.017 57.605 80.7979 70.4941 58.4342C69.27 57.6407 68.1899 56.9914 67.1818 56.27C65.3817 54.8993 64.8056 53.0237 65.7417 51.0037C66.7498 48.8395 69.342 48.0459 71.5022 49.1281C73.7344 50.2823 75.9666 51.5087 78.0548 52.8794C80.719 54.6829 80.863 56.7029 78.7028 61.392C84.5353 64.4941 89.7918 68.6061 96.4884 69.9047C98.6486 70.3375 100.449 70.1932 102.393 69.039C109.882 64.5662 117.37 60.2378 125.003 55.9815C133.716 51.0759 142.572 51.0037 151.501 55.6207C154.381 57.1357 155.245 59.2999 154.165 61.4642C152.941 63.8448 150.709 64.2777 147.685 62.7627C142.14 59.8771 136.308 59.2278 130.907 62.1856C118.522 68.8947 106.425 76.1088 94.2562 83.1065C96.8484 91.8355 107.577 96.164 116.074 91.9798C118.306 90.8977 120.466 89.4549 122.627 88.3006C127.235 85.8478 131.411 86.3528 135.228 89.8877C143.292 97.3182 153.949 94.7211 157.694 84.5493C158.774 81.6636 160.574 80.5815 162.95 81.3751C165.326 82.2408 166.19 84.2607 165.326 87.0742C165.038 88.012 164.75 88.9499 164.318 90.032C164.966 90.4648 165.614 90.8977 166.262 91.2584C185.344 102.296 204.498 113.334 223.507 124.515C226.172 126.102 228.332 126.391 230.636 124.371C231.14 123.938 231.788 123.65 232.652 123.145C222.139 104.965 211.77 86.8578 201.185 68.534C198.161 70.2654 195.209 71.9967 192.257 73.5838C184.336 77.9123 176.199 78.1287 167.991 74.4495C167.199 74.0888 166.334 73.656 165.686 73.151C163.814 71.7803 163.382 69.9047 164.39 67.8847C165.47 65.7926 167.559 65.0712 169.431 66.1533C177.855 70.8425 185.488 68.8947 192.905 63.8448C194.129 62.9791 195.497 62.3299 196.937 61.4642C196.505 60.6706 196.145 59.9492 195.857 59.2278C194.633 56.5586 195.209 54.1779 197.729 52.663C207.162 47.1081 216.667 41.6254 226.172 36.2148C229.052 34.5556 231.5 35.5656 233.444 38.9562C241.653 53.0958 249.79 67.3076 257.926 81.4472C263.831 91.6912 269.807 102.007 275.712 112.251C276 113.334 276 114.416 276 115.498ZM119.89 177.972C121.835 178.116 123.707 178.044 125.435 178.333C134.652 180.208 140.124 187.494 139.764 197.017C139.692 198.027 139.98 199.614 140.628 199.975C145.093 202.788 149.701 205.458 154.381 207.91C157.262 209.425 160.07 208.56 161.798 205.746C162.878 204.015 163.886 202.139 164.822 200.336C167.055 196.223 166.262 193.482 162.23 191.101C159.134 189.298 155.966 187.567 152.941 185.691C151.141 184.609 150.349 182.877 151.141 180.785C151.789 178.91 153.301 177.828 155.317 178.044C156.398 178.188 157.478 178.838 158.486 179.342C165.542 183.382 172.599 187.494 179.728 191.534C183.328 193.626 186.28 192.761 188.368 189.154C189.304 187.494 190.241 185.835 191.105 184.176C193.265 180.136 192.473 177.539 188.512 175.158C181.672 171.191 174.831 167.223 167.991 163.255C167.055 162.75 166.118 162.173 165.398 161.379C164.03 159.864 163.958 158.061 165.11 156.474C166.262 154.887 167.847 154.165 169.791 154.959C170.583 155.32 171.375 155.752 172.167 156.185C181.168 161.379 190.169 166.646 199.169 171.768C202.986 173.932 205.794 173.138 208.026 169.459C208.89 168.016 209.754 166.501 210.618 165.059C213.067 160.73 212.346 157.989 207.954 155.464C199.097 150.342 190.241 145.22 181.384 140.098C180.592 139.665 179.8 139.232 179.152 138.655C177.567 137.212 177.207 135.409 178.287 133.533C179.44 131.657 181.168 130.864 183.328 131.802C184.12 132.162 184.912 132.595 185.704 133.028C195.569 138.727 205.434 144.426 215.299 150.125C219.475 152.506 222.427 151.713 224.66 147.6C225.524 146.013 226.388 144.426 227.18 142.839C229.124 139.016 228.404 136.346 224.732 134.182C203.562 121.918 182.32 109.654 161.078 97.4625C160.286 97.0297 158.774 97.1018 158.054 97.6068C148.621 104.099 138.612 103.522 130.043 95.8033C128.747 94.649 127.667 94.5047 126.227 95.3704C124.427 96.5247 122.555 97.5347 120.61 98.5446C108.945 104.677 95.4083 100.997 88.4237 89.8156C84.6793 83.9 84.8234 81.5194 88.9277 76.1809C84.1753 73.5838 79.4229 70.9146 74.4545 68.2454C63.9415 86.5692 53.4286 104.749 42.9157 123C46.8041 125.814 46.8041 125.742 50.4764 123.722C55.1568 121.053 59.7652 118.311 64.5176 115.786C67.2538 114.343 69.702 115.137 70.7101 117.446C71.7182 119.682 70.6381 121.774 67.9019 123.217C62.4294 126.247 56.9569 129.349 51.5565 132.523C48.6762 134.254 48.0282 137.284 49.5403 140.242C50.5484 142.118 51.6285 143.993 52.7806 145.869C55.0128 149.548 57.893 150.27 61.6373 148.178C65.5977 145.941 69.558 143.633 73.5184 141.324C80.575 137.212 81.5831 134.687 79.2789 126.824C78.6308 124.588 79.3509 122.784 81.3671 121.846C83.3832 120.908 85.2554 121.413 86.5515 123.361C87.0555 124.155 87.4156 125.092 87.7756 126.03C89.5038 130.647 88.9997 135.192 87.0555 139.737C95.6243 142.983 99.5846 149.404 99.6566 158.205C112.69 158.494 119.746 166.646 119.89 177.972ZM205.29 58.2178C215.731 76.2531 225.884 93.9276 236.036 111.53C245.469 108.139 249.502 100.06 244.173 91.2584C240.213 84.7657 236.541 78.0566 232.724 71.4196C230.708 67.8847 228.62 64.3498 226.46 60.5985C224.155 64.3498 222.499 65.3598 220.267 64.5662C218.251 63.8448 216.883 61.6806 217.243 59.7328C217.675 57.28 219.619 56.1257 223.795 56.0536C222.499 53.8172 221.347 51.7973 220.051 49.633C214.939 52.5908 210.258 55.3322 205.29 58.2178ZM91.3759 156.762C91.5919 150.414 84.5353 145.581 78.3428 148.538C74.4545 150.414 70.7821 152.65 67.1818 154.959C64.4456 156.69 63.7255 159.504 65.2377 162.462C66.3177 164.626 67.5419 166.718 68.838 168.738C70.7821 171.768 73.5904 172.489 76.7587 170.758C80.215 168.882 83.5993 166.862 86.9835 164.842C89.7918 163.111 91.1599 160.514 91.3759 156.762ZM101.889 166.934C101.529 167.006 100.809 167.006 100.161 167.295C95.6963 169.748 91.0879 171.984 86.9115 174.798C84.8234 176.168 84.6073 178.838 85.7594 181.146C86.9835 183.527 88.2797 185.907 89.7918 188.144C91.3759 190.596 94.2562 191.462 96.8484 190.091C100.521 188.144 104.121 186.124 107.577 183.887C111.034 181.651 112.258 177.323 111.034 173.427C109.81 169.676 106.209 167.006 101.889 166.934ZM131.987 195.646C131.555 188.721 124.643 184.32 118.522 187.206C115.858 188.432 113.338 190.019 110.818 191.606C108.225 193.266 107.433 196.079 108.801 198.893C110.026 201.273 111.106 203.87 112.906 205.818C114.13 207.117 116.938 208.704 118.09 208.127C122.267 206.179 126.299 203.582 129.971 200.696C131.195 199.758 131.339 197.378 131.987 195.646Z" fill="black" fill-opacity="0.1"/>
<path d="M100.377 45.3766C96.2003 45.3045 92.888 43.501 90.7278 39.9661C87.9916 35.5655 85.3994 31.0206 82.9512 26.4757C79.9269 20.8487 81.9431 14.1396 87.2715 11.0375C92.672 7.93547 99.4406 9.52257 102.825 14.9331C105.633 19.4059 108.297 24.0229 110.746 28.7121C114.778 36.5033 109.089 45.5209 100.377 45.3766ZM93.6801 17.8188C90.3678 17.9631 89.0717 20.4159 90.5118 23.0129C92.744 27.125 95.1202 31.0927 97.4964 35.1326C98.5765 37.0083 100.161 37.874 102.177 36.6476C104.049 35.4933 104.193 33.7619 103.185 31.9584C100.881 27.8464 98.5045 23.6622 95.9843 19.6223C95.4082 18.6845 94.1841 18.1795 93.6801 17.8188Z" fill="black" fill-opacity="0.1"/>
<path d="M174.975 45.3766C166.55 45.4487 160.79 36.7197 164.534 29.1449C166.983 24.095 169.935 19.1894 172.959 14.5003C176.271 9.37825 182.968 8.07971 188.152 11.1096C193.337 14.1396 195.425 20.7044 192.617 26.0428C190.097 30.8763 187.288 35.6376 184.408 40.2546C182.392 43.7173 179.08 45.3766 174.975 45.3766ZM185.848 20.488C185.056 19.6944 184.264 18.1073 183.328 18.0352C182.104 17.963 180.232 18.6123 179.584 19.6223C176.991 23.5179 174.831 27.6299 172.455 31.6698C171.375 33.5455 171.303 35.2769 173.247 36.5754C174.975 37.7296 176.775 37.1525 178.144 34.844C180.448 30.9484 182.68 27.0528 184.84 23.1572C185.2 22.58 185.416 21.7865 185.848 20.488Z" fill="black" fill-opacity="0.1"/>
<path d="M149.269 19.0452C149.269 21.5701 149.341 24.0951 149.269 26.62C149.053 32.9684 143.869 38.0904 137.676 38.0904C131.411 38.0183 126.299 32.9684 126.227 26.5479C126.155 21.498 126.155 16.5203 126.227 11.4704C126.299 5.04987 131.555 0 137.82 0C143.941 0 149.053 4.97773 149.269 11.254C149.341 13.8511 149.269 16.4481 149.269 19.0452ZM141.06 19.1174C141.06 16.6646 141.132 14.2839 141.06 11.8311C140.988 9.73903 139.836 8.29621 137.748 8.36835C135.66 8.36835 134.508 9.88331 134.508 11.9033C134.436 16.6646 134.436 21.4259 134.508 26.1872C134.58 28.2071 135.588 29.6499 137.82 29.6499C140.124 29.6499 140.988 28.135 141.06 26.115C141.132 23.8065 141.06 21.4259 141.06 19.1174Z" fill="black" fill-opacity="0.1"/>
<path d="M54.5807 64.9268C52.4205 64.9268 50.3324 62.8347 50.2604 60.5983C50.1884 58.2898 52.1325 56.342 54.5087 56.2699C56.9569 56.1977 59.0451 58.2898 58.9731 60.6705C58.8291 62.9068 56.8129 64.9268 54.5807 64.9268Z" fill="black" fill-opacity="0.1"/>
</g>
<defs>
<clipPath id="clip0_238_107">
<rect width="276" height="217" fill="white"/>
</clipPath>
</defs>
</svg>
