<svg width="827" height="274" viewBox="0 0 827 274" fill="none" xmlns="http://www.w3.org/2000/svg">
<path d="M224.84 35.0725L224.895 154.607C224.895 157.915 224.003 161.162 222.313 164.005C220.624 166.848 218.198 169.183 215.293 170.763L140.228 211.588C137.533 213.052 134.515 213.82 131.448 213.82C128.38 213.82 125.362 213.052 122.667 211.588L47.602 170.763C44.6968 169.183 42.2715 166.848 40.5816 164.005C38.8918 161.162 37.9999 157.915 38 154.607V4H170.997" fill="#FF0000"/>
<path d="M224.946 157.041L219.113 157.169L213.28 157.261L201.611 157.485L178.271 157.736L172.438 157.801L166.604 157.831L154.935 157.894L131.595 157.926L108.26 157.864C100.475 157.801 92.7098 157.801 84.9244 157.706L61.589 157.452L49.9224 157.261L44.0891 157.169L38.2443 157.041V156.725L44.0776 156.599L49.9109 156.504L61.5798 156.313L84.9198 156.063C92.7052 155.967 100.47 155.934 108.255 155.902L131.595 155.839L154.931 155.872L166.597 155.934L172.433 155.967L178.266 156.03L201.602 156.283L213.268 156.504L219.102 156.599L224.937 156.725V157.041H224.946Z" fill="black"/>
<path d="M224.946 150.359L131.605 151.247L38.2443 150.359V150.052L131.605 149.16L224.946 150.052V150.359Z" fill="black"/>
<path d="M224.946 143.426L131.605 144.151L38.2443 143.426V143.184L131.605 142.481L224.946 143.184V143.426Z" fill="black"/>
<path d="M224.946 136.76L178.271 137.119L154.94 137.305L143.273 137.402L137.438 137.449C135.488 137.472 133.557 137.472 131.605 137.472L38.2443 136.76V136.521L131.595 135.802C133.547 135.802 135.479 135.802 137.429 135.827L143.264 135.874L154.931 135.969L178.266 136.161L224.942 136.521L224.946 136.76Z" fill="black"/>
<path d="M224.946 130.063L178.27 130.44L154.934 130.629L143.267 130.722L137.431 130.769C135.481 130.793 133.55 130.793 131.598 130.793L38.2443 130.063V129.828L131.598 129.123C133.55 129.123 135.481 129.123 137.431 129.147L143.267 129.194L154.934 129.287L178.27 129.476L224.946 129.853V130.063Z" fill="black"/>
<path d="M224.946 123.384L178.271 123.761L154.935 123.948L143.269 124.043L137.433 124.09C135.483 124.114 133.552 124.114 131.6 124.114L38.2443 123.384V123.149L131.595 122.444C133.547 122.444 135.479 122.444 137.429 122.466L143.264 122.515L154.931 122.608L178.271 122.797L224.946 123.172V123.384Z" fill="black"/>
<path d="M224.946 116.95L178.271 117.422L154.935 117.655L143.269 117.775C139.385 117.802 135.483 117.891 131.6 117.833L38.2443 116.95V116.656L131.595 115.774C135.479 115.743 139.381 115.802 143.264 115.832L154.931 115.949L178.266 116.185L224.942 116.656L224.946 116.95Z" fill="black"/>
<path d="M224.946 110.282L178.271 110.747L154.935 110.979L143.269 111.094C139.385 111.124 135.483 111.212 131.6 111.154L38.2443 110.282V109.992L131.595 109.095C135.479 109.065 139.381 109.122 143.264 109.152L154.931 109.267L178.271 109.5L224.946 109.964V110.282Z" fill="black"/>
<path d="M224.946 103.582L178.27 104.076L154.934 104.303L143.267 104.419C139.383 104.446 135.481 104.532 131.598 104.475L38.2443 103.587V103.301L131.598 102.415C135.481 102.386 139.383 102.443 143.267 102.472L154.934 102.586L178.27 102.815L224.946 103.308V103.582Z" fill="black"/>
<path d="M224.946 96.908L178.27 97.3988L154.934 97.6246L143.267 97.7399C139.383 97.7669 135.481 97.8528 131.598 97.7964L38.2443 96.9129V96.6282L131.598 95.7472C135.481 95.6907 139.383 95.7742 143.267 95.8036L154.934 95.9165L178.27 96.1447L224.946 96.6356V96.908Z" fill="black"/>
<path d="M224.946 90.2244L178.271 90.6995L154.94 90.9537L143.273 91.063C139.39 91.0915 135.488 91.1722 131.605 91.1176L38.2443 90.2244V89.9488L131.595 89.0675C135.479 89.0128 139.381 89.0936 143.264 89.1221L154.931 89.2314L178.271 89.4808L224.946 89.9559V90.2244Z" fill="black"/>
<path d="M224.946 83.5499L178.271 84.0252L154.935 84.2747L143.269 84.384C139.385 84.4125 135.483 84.4933 131.6 84.4386L38.2443 83.5499V83.2743L131.595 82.3926C135.479 82.338 139.381 82.3926 143.264 82.4473L154.931 82.5566L178.271 82.8061L224.946 83.2814V83.5499Z" fill="black"/>
<path d="M224.946 76.4472L178.271 76.9379L154.94 77.1786L143.273 77.2871C139.39 77.3154 135.488 77.398 131.605 77.3414L38.2443 76.4472V76.1736L131.595 75.296C135.479 75.2417 139.381 75.296 143.264 75.3526L154.931 75.4611L178.266 75.697L224.942 76.1901L224.946 76.4472Z" fill="black"/>
<path d="M224.946 69.785L178.271 70.2715L154.935 70.5172L143.269 70.6248C139.385 70.6786 135.483 70.7067 131.6 70.6528L38.2443 69.785V69.5136L131.595 68.6177C135.479 68.5639 139.381 68.6177 143.264 68.6434L154.931 68.7533L178.266 68.9873L224.942 69.4762L224.946 69.785Z" fill="black"/>
<path d="M224.946 63.092L178.271 63.5732L154.935 63.8035L143.269 63.937L137.433 63.9923C135.483 64.0176 133.552 63.9923 131.6 63.9647L38.2443 63.092V62.825L131.595 61.9409C133.547 61.9155 135.479 61.9155 137.429 61.9155L143.264 61.9685L154.931 62.102L178.266 62.3323L224.942 62.8135L224.946 63.092Z" fill="black"/>
<path d="M224.946 56.4229L178.271 56.9044L154.935 57.1347L143.269 57.2684L137.433 57.3236C135.483 57.3236 133.552 57.3236 131.6 57.296L38.2443 56.4229V56.1556L131.595 55.2733C133.547 55.248 135.479 55.2203 137.429 55.248L143.264 55.3009L154.931 55.4346L178.266 55.6649L224.942 56.1464L224.946 56.4229Z" fill="black"/>
<path d="M224.546 49.9291L177.969 50.3225L154.683 50.5005L143.041 50.6038L137.218 50.6447C135.273 50.6447 133.345 50.6251 131.397 50.6251L38.2443 49.9131V49.7066L131.397 49.0052C133.345 48.9838 135.273 48.9625 137.218 48.9838L143.041 49.0248L154.683 49.128L177.969 49.331L224.546 49.7226V49.9291Z" fill="black"/>
<path d="M220.139 43.4687L174.665 43.9473L151.93 44.1997L140.564 44.3258L134.879 44.3759C132.979 44.402 131.098 44.352 129.196 44.3258L38.2443 43.4687V43.2163L129.191 42.3461C131.093 42.3221 132.975 42.296 134.875 42.296L140.56 42.3461L151.926 42.4722L174.665 42.7355L220.139 43.2163V43.4687Z" fill="black"/>
<path d="M206.917 36.6171L164.749 37.2228L143.667 37.4838L133.127 37.6352L127.855 37.6953C126.093 37.7266 124.348 37.6666 122.585 37.6352L38.2443 36.6171V36.3038L122.581 35.2595C124.344 35.2308 126.089 35.1995 127.851 35.1995L133.123 35.2595L143.663 35.4109L164.745 35.672L206.913 36.2777L206.917 36.6171Z" fill="black"/>
<path d="M178.373 30.543L155.025 30.8152L143.35 30.9655L137.51 31.0251C135.559 31.0251 133.626 30.994 131.673 30.9655L38.2443 29.9417V29.641L131.663 28.5886C133.617 28.5601 135.55 28.4979 137.501 28.529L143.341 28.5886L155.016 28.739L178.373 29.0111" fill="black"/>
<path d="M178.373 23.8694L155.021 24.1667L143.345 24.3153L137.506 24.3461C135.554 24.3461 133.622 24.2846 131.668 24.2846L38.2443 23.2466V22.9493L131.663 21.9088C133.617 21.8806 135.55 21.8191 137.501 21.8498L143.341 21.9088L155.016 22.0574L178.373 22.3522" fill="black"/>
<path d="M179.673 17.3458L168.79 17.4925C165.17 17.5507 161.532 17.5507 157.913 17.5786C154.295 17.6064 150.655 17.6393 147.035 17.6393L136.158 17.6671H125.275C118.017 17.6393 110.778 17.6671 103.519 17.5786L92.6234 17.5204L81.7596 17.404L70.8808 17.2573L60.0041 17.0802L49.1253 16.8449L43.687 16.7285L38.2444 16.5818V16.2883L43.6827 16.1416L49.121 15.9948L59.9998 15.7595L70.8765 15.5824L81.7596 15.4256L92.6363 15.3092L103.515 15.251C110.773 15.1928 118.012 15.1928 125.271 15.1625H136.143L147.022 15.1928C150.642 15.1928 154.28 15.251 157.898 15.251C161.517 15.251 165.157 15.2789 168.777 15.3396L179.654 15.4863" fill="black"/>
<path d="M79.6343 117.917C79.0954 110.906 60.9902 69.485 60.5996 62.4666C60.1423 54.0949 65.5189 47.6149 74.5073 45.3454C83.189 43.1549 91.6582 46.2393 96.6518 53.401C100.481 58.8883 121.765 98.7884 125.575 104.286C126.638 105.819 127.827 107.165 130.22 106.38C132.788 105.54 132.647 103.811 132.054 101.935C126.862 85.453 116.104 46.022 110.923 29.5354C108.419 21.5687 111.239 14.5849 118.519 10.4559C126.257 6.0675 140.026 7.1862 145.932 16.1358C163.347 42.4807 186.78 91.5799 204.46 117.809C207.762 122.711 211.092 127.598 214.395 132.498C220.258 141.198 217.482 150.844 207.745 155.637C198.196 160.329 187.108 157.647 181.294 149.073C167.421 128.576 153.649 108.044 139.776 87.5521C138.459 85.6061 137.594 82.3982 133.799 83.7589C130.004 85.1196 132.145 87.9077 132.81 90.0587C137.688 105.75 142.698 121.407 147.595 137.093C150.127 145.208 145.534 153.209 136.61 156.528C127.765 159.818 117.773 157.092 112.68 149.861C105.534 139.721 98.5008 129.527 91.4209 119.355C90.2912 117.735 89.2801 115.732 86.4769 116.552C83.5772 117.394 84.2248 119.515 84.2397 121.58C84.2916 128.366 84.2916 134.103 84.2125 141.015C84.1334 147.927 81.1916 154.479 73.5209 156.901C65.9861 159.284 57.2574 157.198 52.3405 151.836C47.1616 146.189 46.8526 138.353 51.6113 132.478C56.2513 126.726 64.8836 124.205 72.7422 126.319C73.4393 126.506 74.1018 126.79 74.794 126.993C78.2549 128.008 80.1781 126.771 80.1138 123.565C80.0965 122.624 79.9531 121.683 79.8666 120.743C79.7801 119.802 79.6788 118.863 79.5848 117.922L79.6343 117.917Z" fill="black"/>
<path d="M207.852 110.36C205.945 114.606 204.135 118.891 202.419 123.215C201.432 125.742 199.839 126.972 197.026 126.903C195.237 126.854 193.444 126.822 191.648 126.807C188.767 126.792 185.878 126.807 183.006 126.917C180.467 127.001 179.02 125.996 177.739 123.864C169.59 110.296 161.323 96.8212 153.125 83.28C152.157 81.6698 151.033 80.4209 149.004 80.5266C146.794 80.6323 145.485 82.368 145.48 85.2419C145.453 96.4942 145.48 117.765 145.48 129.002V131.64C145.458 136.102 144.7 136.874 140.294 136.879H117.765C113.678 136.879 112.888 136.078 112.883 131.903V123.527C104.808 110.07 96.6002 96.6982 88.4787 83.2702C87.5108 81.6599 86.3872 80.411 84.3575 80.5167C82.1474 80.6225 80.8387 82.3581 80.8338 85.232C80.8066 96.4844 80.8338 117.755 80.8338 128.992V131.63C80.8116 136.092 80.0535 136.864 75.6483 136.869H53.1184C49.0342 136.869 48.244 136.068 48.2391 131.893C48.2391 124.25 48.2391 106.571 48.2391 98.933C48.2391 91.3773 48.2391 83.8209 48.2391 76.2636C48.2391 71.7794 49.1083 70.946 53.7086 70.946C61.1165 70.946 68.5392 70.946 75.952 70.946C79.9276 70.946 80.8906 69.9503 80.9128 65.9259C80.9128 60.3845 80.9005 54.8506 80.9128 49.3117C80.9128 45.7666 81.866 44.8447 85.5008 44.8348C91.59 44.8176 97.6818 44.8816 103.774 44.798C105.66 44.7709 106.863 45.388 107.875 47.0106C112.865 54.9956 117.861 62.9749 122.864 70.9485C128.773 70.9485 134.683 70.9485 140.593 70.9485C144.569 70.9485 145.532 69.9528 145.554 65.9283C145.554 60.387 145.554 54.853 145.554 49.3141C145.554 45.7691 146.507 44.8471 150.142 44.8373C156.231 44.8201 162.325 44.884 168.415 44.8004C170.301 44.7734 171.504 45.3905 172.516 47.013C178.308 56.2765 184.105 65.5366 189.907 74.7935C195.646 83.9324 201.4 93.0589 207.17 102.173C208.911 104.905 209.161 107.447 207.852 110.36Z" fill="white"/>
<path d="M207.023 109.758C205.231 113.907 203.528 118.095 201.914 122.321C200.978 124.797 199.488 125.99 196.844 125.913C195.16 125.866 193.475 125.834 191.79 125.819C196.923 120.959 205.779 106.737 188.955 73.2986L190.17 75.0045C195.565 83.933 200.974 92.8507 206.397 101.758C208.021 104.427 208.253 106.913 207.023 109.758Z" fill="#BCBEC0"/>
<path d="M124.953 135.544C124.953 135.544 145.018 138.009 145.118 87.3302V132.417C145.118 133.246 144.79 134.042 144.206 134.628C143.623 135.215 142.831 135.544 142.005 135.544H124.953Z" fill="#BCBEC0"/>
<path d="M62.2668 136.002H77.1538C78.0831 136.001 78.9742 135.641 79.6311 134.999C80.288 134.357 80.657 133.487 80.657 132.58V87.7686C80.657 87.7686 82.0487 136.002 62.2668 136.002Z" fill="#BCBEC0"/>
<path d="M181.121 47.2714C181.121 47.2714 189.635 22.6436 224.821 34.8838C226.911 43.3586 218.627 45.4301 210.344 41.2871C197.762 34.9943 181.121 47.2714 181.121 47.2714Z" fill="black"/>
<path d="M181.121 47.2875L170.997 4L224.821 34.6536C224.821 34.6536 192.166 25.1754 181.121 47.2875Z" fill="#E4232B"/>
<mask id="path-31-inside-1_283_68" fill="white">
<path d="M80.5874 164.326C80.5717 165.226 80.5559 166.098 80.5402 166.942C80.5323 167.304 80.5244 167.673 80.5166 168.051C80.5166 168.429 80.5126 168.803 80.5047 169.172C80.5047 169.534 80.5008 169.884 80.4929 170.221C80.4929 170.551 80.4929 170.844 80.4929 171.101C80.4929 171.64 80.4969 172.291 80.5047 173.054C80.5126 173.818 80.5205 174.601 80.5284 175.405C80.5441 176.209 80.5638 176.98 80.5874 177.72C80.6111 178.459 80.6386 179.074 80.6701 179.564C80.7804 179.58 80.9261 179.6 81.1073 179.624C81.2963 179.641 81.4932 179.657 81.698 179.673C81.9028 179.681 82.1037 179.689 82.3006 179.697C82.4975 179.705 82.6629 179.709 82.7968 179.709C83.3482 179.709 83.9113 179.673 84.4863 179.6C85.0692 179.52 85.6284 179.375 86.164 179.166C86.7075 178.957 87.2155 178.672 87.6881 178.31C88.1686 177.941 88.5861 177.467 88.9405 176.888C89.3028 176.309 89.5864 175.614 89.7912 174.802C89.996 173.983 90.0984 173.018 90.0984 171.909C90.0984 170.679 89.9526 169.586 89.6612 168.63C89.3698 167.665 88.9405 166.854 88.3734 166.195C87.8142 165.536 87.1171 165.037 86.2822 164.7C85.4551 164.354 84.5021 164.181 83.423 164.181C83.2103 164.181 82.9701 164.189 82.7023 164.206C82.4345 164.214 82.1667 164.226 81.8989 164.242C81.639 164.25 81.3908 164.266 81.1546 164.29C80.9261 164.306 80.7371 164.318 80.5874 164.326ZM78 163.241C78.1812 163.249 78.3505 163.257 78.508 163.265C78.6419 163.273 78.7798 163.281 78.9216 163.289C79.0633 163.289 79.1775 163.289 79.2642 163.289C79.4138 163.289 79.6619 163.281 80.0085 163.265C80.363 163.249 80.7647 163.233 81.2136 163.217C81.6626 163.201 82.1273 163.185 82.6078 163.169C83.0961 163.153 83.553 163.145 83.9783 163.145C85.1204 163.145 86.2073 163.289 87.2392 163.579C88.271 163.868 89.1768 164.342 89.9566 165.001C90.7364 165.66 91.3547 166.524 91.8115 167.593C92.2683 168.662 92.4968 169.976 92.4968 171.535C92.4968 172.652 92.3747 173.657 92.1305 174.549C91.8942 175.441 91.5594 176.229 91.1262 176.912C90.693 177.595 90.1732 178.182 89.5667 178.672C88.9681 179.154 88.3025 179.552 87.57 179.866C86.8453 180.179 86.0695 180.408 85.2425 180.553C84.4154 180.697 83.5608 180.77 82.6787 180.77C82.3636 180.77 81.9816 180.758 81.5326 180.734C81.0915 180.718 80.6465 180.697 80.1976 180.673C79.7486 180.649 79.3233 180.625 78.9216 180.601C78.5277 180.585 78.2205 180.577 78 180.577V180.529C78.0473 180.36 78.0906 180.151 78.13 179.902C78.1772 179.653 78.2166 179.343 78.2481 178.973C78.2796 178.604 78.3032 178.166 78.319 177.659C78.3348 177.145 78.3426 176.546 78.3426 175.863V168.015C78.3426 167.332 78.3348 166.733 78.319 166.219C78.3032 165.696 78.2796 165.25 78.2481 164.881C78.2166 164.503 78.1772 164.185 78.13 163.928C78.0906 163.671 78.0473 163.458 78 163.289V163.241Z"/>
<path d="M95.1315 167.617C95.9034 167.617 96.6949 167.617 97.5062 167.617C98.3175 167.609 99.0697 167.601 99.7629 167.593C100.456 167.577 101.051 167.561 101.547 167.545C102.051 167.529 102.382 167.505 102.539 167.473L102.079 168.775C101.866 168.718 101.626 168.666 101.358 168.618C101.122 168.578 100.834 168.541 100.495 168.509C100.165 168.469 99.7786 168.449 99.3375 168.449C99.18 168.449 98.9988 168.457 98.794 168.473C98.5892 168.481 98.3923 168.493 98.2033 168.509C97.9828 168.525 97.7583 168.541 97.5299 168.558V173.319C98.1679 173.311 98.7428 173.295 99.2548 173.271C99.7668 173.247 100.204 173.215 100.566 173.175C100.992 173.143 101.366 173.098 101.689 173.042L101.405 174.477C100.972 174.421 100.535 174.372 100.094 174.332C99.7156 174.292 99.2981 174.26 98.8413 174.236C98.3845 174.204 97.9473 174.187 97.5299 174.187V179.661C98.2624 179.661 98.9358 179.633 99.5502 179.576C100.165 179.512 100.7 179.444 101.157 179.371C101.693 179.283 102.177 179.182 102.61 179.07L102.338 180.649C102.22 180.641 102.027 180.629 101.76 180.613C101.5 180.605 101.224 180.597 100.933 180.589C100.649 180.589 100.381 180.585 100.129 180.577C99.8771 180.577 99.7038 180.577 99.6093 180.577H95.1315V180.529C95.1866 180.36 95.2338 180.143 95.2732 179.878C95.3205 179.612 95.3559 179.287 95.3796 178.901C95.4111 178.507 95.4347 178.041 95.4505 177.503C95.4662 176.964 95.4741 176.333 95.4741 175.61V172.572C95.4741 171.849 95.4662 171.222 95.4505 170.691C95.4347 170.153 95.4111 169.691 95.3796 169.305C95.3559 168.911 95.3205 168.582 95.2732 168.316C95.2338 168.051 95.1866 167.834 95.1315 167.665V167.617Z"/>
<path d="M110.999 170.137H110.762C110.715 170 110.636 169.827 110.526 169.618C110.424 169.409 110.282 169.205 110.101 169.004C109.928 168.803 109.711 168.634 109.451 168.497C109.191 168.353 108.88 168.28 108.518 168.28C108.242 168.28 107.994 168.329 107.773 168.425C107.561 168.513 107.379 168.638 107.23 168.799C107.08 168.959 106.966 169.152 106.887 169.377C106.808 169.594 106.769 169.831 106.769 170.089C106.769 170.507 106.891 170.904 107.135 171.282C107.387 171.66 107.698 172.038 108.069 172.415C108.439 172.785 108.841 173.159 109.274 173.536C109.707 173.914 110.109 174.308 110.479 174.718C110.849 175.128 111.156 175.562 111.4 176.02C111.652 176.478 111.778 176.968 111.778 177.491C111.778 177.876 111.708 178.274 111.566 178.684C111.432 179.094 111.211 179.464 110.904 179.793C110.597 180.123 110.203 180.392 109.723 180.601C109.242 180.818 108.659 180.926 107.974 180.926C107.596 180.926 107.234 180.894 106.887 180.83C106.548 180.766 106.233 180.685 105.942 180.589C105.658 180.501 105.402 180.404 105.174 180.3C104.953 180.187 104.768 180.083 104.619 179.986L104.831 177.708H105.08C105.158 177.989 105.272 178.27 105.422 178.552C105.58 178.833 105.769 179.09 105.989 179.323C106.218 179.548 106.482 179.733 106.781 179.878C107.088 180.014 107.439 180.083 107.832 180.083C108.108 180.083 108.368 180.038 108.612 179.95C108.856 179.854 109.065 179.721 109.238 179.552C109.419 179.383 109.561 179.178 109.664 178.937C109.766 178.688 109.817 178.411 109.817 178.105C109.817 177.744 109.746 177.41 109.605 177.105C109.463 176.791 109.274 176.494 109.037 176.213C108.801 175.923 108.533 175.646 108.234 175.381C107.943 175.116 107.639 174.846 107.324 174.573C107.009 174.3 106.702 174.023 106.403 173.741C106.111 173.452 105.847 173.143 105.611 172.813C105.375 172.484 105.186 172.134 105.044 171.764C104.902 171.387 104.831 170.973 104.831 170.523C104.831 170.048 104.93 169.622 105.127 169.245C105.324 168.867 105.584 168.55 105.907 168.292C106.229 168.027 106.6 167.826 107.017 167.69C107.435 167.545 107.868 167.473 108.317 167.473C108.648 167.473 108.955 167.497 109.238 167.545C109.53 167.593 109.79 167.653 110.018 167.726C110.254 167.79 110.459 167.858 110.632 167.931C110.806 167.995 110.948 168.047 111.058 168.087L110.999 170.137Z"/>
<path d="M116.693 168.473C116.686 169.132 116.678 169.771 116.67 170.39C116.67 170.655 116.666 170.928 116.658 171.21C116.658 171.483 116.654 171.756 116.646 172.03C116.646 172.303 116.646 172.564 116.646 172.813C116.646 173.054 116.646 173.271 116.646 173.464C116.646 173.866 116.646 174.352 116.646 174.923C116.654 175.485 116.662 176.064 116.67 176.659C116.678 177.254 116.69 177.828 116.705 178.383C116.721 178.929 116.741 179.387 116.764 179.757C116.843 179.773 116.946 179.789 117.072 179.805C117.198 179.813 117.328 179.825 117.461 179.841C117.603 179.85 117.741 179.858 117.875 179.866C118.009 179.866 118.123 179.866 118.218 179.866C118.651 179.866 119.088 179.837 119.529 179.781C119.978 179.725 120.407 179.62 120.817 179.468C121.234 179.307 121.624 179.09 121.986 178.817C122.349 178.543 122.664 178.194 122.932 177.768C123.207 177.334 123.42 176.816 123.57 176.213C123.727 175.602 123.806 174.883 123.806 174.055C123.806 172.23 123.377 170.824 122.518 169.835C121.667 168.847 120.395 168.353 118.702 168.353C118.537 168.353 118.359 168.357 118.17 168.365C117.989 168.373 117.808 168.385 117.627 168.401C117.446 168.409 117.272 168.421 117.107 168.437C116.949 168.453 116.812 168.465 116.693 168.473ZM114.248 167.593C114.437 167.601 114.614 167.605 114.779 167.605C114.921 167.613 115.059 167.617 115.193 167.617C115.327 167.617 115.425 167.617 115.488 167.617C115.599 167.617 115.796 167.613 116.079 167.605C116.363 167.597 116.682 167.589 117.036 167.581C117.398 167.565 117.776 167.553 118.17 167.545C118.572 167.529 118.942 167.521 119.281 167.521C120.202 167.521 121.081 167.629 121.916 167.846C122.751 168.063 123.483 168.421 124.113 168.919C124.751 169.409 125.255 170.056 125.625 170.86C125.996 171.656 126.181 172.64 126.181 173.814C126.181 175.076 125.968 176.144 125.543 177.02C125.117 177.897 124.542 178.612 123.818 179.166C123.093 179.713 122.25 180.111 121.289 180.36C120.336 180.601 119.328 180.722 118.265 180.722C118.013 180.722 117.698 180.713 117.32 180.697C116.942 180.681 116.556 180.665 116.162 180.649C115.768 180.633 115.394 180.617 115.039 180.601C114.693 180.585 114.429 180.577 114.248 180.577V180.529C114.303 180.36 114.35 180.143 114.39 179.878C114.437 179.612 114.472 179.287 114.496 178.901C114.527 178.507 114.551 178.041 114.567 177.503C114.583 176.964 114.59 176.333 114.59 175.61V172.572C114.59 171.849 114.583 171.218 114.567 170.679C114.551 170.141 114.527 169.675 114.496 169.281C114.472 168.887 114.437 168.558 114.39 168.292C114.35 168.027 114.303 167.81 114.248 167.641V167.593Z"/>
<path d="M128.685 167.617C129.457 167.617 130.249 167.617 131.06 167.617C131.872 167.609 132.624 167.601 133.317 167.593C134.01 167.577 134.605 167.561 135.101 167.545C135.605 167.529 135.936 167.505 136.093 167.473L135.633 168.775C135.42 168.718 135.18 168.666 134.912 168.618C134.676 168.578 134.388 168.541 134.049 168.509C133.719 168.469 133.333 168.449 132.892 168.449C132.734 168.449 132.553 168.457 132.348 168.473C132.143 168.481 131.946 168.493 131.757 168.509C131.537 168.525 131.312 168.541 131.084 168.558V173.319C131.722 173.311 132.297 173.295 132.809 173.271C133.321 173.247 133.758 173.215 134.12 173.175C134.546 173.143 134.92 173.098 135.243 173.042L134.959 174.477C134.526 174.421 134.089 174.372 133.648 174.332C133.27 174.292 132.852 174.26 132.395 174.236C131.938 174.204 131.501 174.187 131.084 174.187V179.661C131.816 179.661 132.49 179.633 133.104 179.576C133.719 179.512 134.254 179.444 134.711 179.371C135.247 179.283 135.731 179.182 136.164 179.07L135.892 180.649C135.774 180.641 135.581 180.629 135.314 180.613C135.054 180.605 134.778 180.597 134.487 180.589C134.203 180.589 133.935 180.585 133.683 180.577C133.431 180.577 133.258 180.577 133.163 180.577H128.685V180.529C128.741 180.36 128.788 180.143 128.827 179.878C128.875 179.612 128.91 179.287 128.934 178.901C128.965 178.507 128.989 178.041 129.004 177.503C129.02 176.964 129.028 176.333 129.028 175.61V172.572C129.028 171.849 129.02 171.222 129.004 170.691C128.989 170.153 128.965 169.691 128.934 169.305C128.91 168.911 128.875 168.582 128.827 168.316C128.788 168.051 128.741 167.834 128.685 167.665V167.617Z"/>
<path d="M146.703 180.529C146.75 180.36 146.794 180.151 146.833 179.902C146.88 179.653 146.92 179.343 146.951 178.973C146.983 178.604 147.006 178.166 147.022 177.659C147.038 177.145 147.046 176.546 147.046 175.863V168.015C147.046 167.332 146.998 166.789 146.904 166.388C146.809 165.986 146.695 165.676 146.561 165.459C146.435 165.242 146.301 165.086 146.16 164.989C146.026 164.893 145.911 164.804 145.817 164.724V164.676L149.444 163.289V163.338C149.397 163.506 149.35 163.715 149.302 163.964C149.263 164.214 149.227 164.527 149.196 164.905C149.164 165.274 149.141 165.716 149.125 166.231C149.109 166.737 149.101 167.332 149.101 168.015V175.863C149.101 176.546 149.109 177.145 149.125 177.659C149.141 178.166 149.164 178.604 149.196 178.973C149.227 179.343 149.263 179.653 149.302 179.902C149.35 180.151 149.397 180.36 149.444 180.529V180.577H146.703V180.529Z"/>
<path d="M150.437 182.458C151.287 182.393 152.118 182.224 152.929 181.951C153.749 181.686 154.532 181.332 155.281 180.89C156.029 180.456 156.73 179.946 157.384 179.359C158.045 178.765 158.636 178.114 159.156 177.406C159.684 176.691 160.133 175.927 160.503 175.116C160.881 174.296 161.16 173.44 161.342 172.548C161.011 172.757 160.7 172.938 160.408 173.09C160.125 173.235 159.829 173.356 159.522 173.452C159.223 173.549 158.9 173.621 158.553 173.669C158.215 173.717 157.829 173.741 157.395 173.741C156.852 173.741 156.277 173.637 155.67 173.428C155.072 173.219 154.52 172.898 154.016 172.464C153.512 172.03 153.095 171.479 152.764 170.812C152.433 170.145 152.268 169.349 152.268 168.425C152.268 167.798 152.386 167.163 152.622 166.52C152.859 165.869 153.213 165.287 153.686 164.772C154.166 164.25 154.769 163.824 155.493 163.494C156.218 163.165 157.072 163 158.057 163C158.821 163 159.558 163.145 160.266 163.434C160.983 163.723 161.617 164.165 162.169 164.76C162.72 165.347 163.157 166.086 163.48 166.978C163.811 167.87 163.976 168.923 163.976 170.137C163.976 171.198 163.815 172.247 163.492 173.283C163.169 174.312 162.716 175.293 162.133 176.225C161.55 177.157 160.853 178.025 160.042 178.829C159.231 179.624 158.333 180.32 157.348 180.914C156.364 181.517 155.312 181.999 154.194 182.361C153.075 182.723 151.917 182.936 150.72 183L150.437 182.458ZM158.73 172.476C159.195 172.476 159.668 172.407 160.148 172.271C160.629 172.134 161.078 171.925 161.495 171.644C161.535 171.419 161.558 171.19 161.566 170.957C161.582 170.724 161.59 170.482 161.59 170.233C161.59 169.229 161.483 168.337 161.271 167.557C161.058 166.769 160.774 166.106 160.42 165.568C160.066 165.029 159.652 164.619 159.179 164.338C158.715 164.057 158.226 163.916 157.714 163.916C157.321 163.916 156.935 163.993 156.557 164.145C156.178 164.298 155.84 164.531 155.54 164.844C155.241 165.158 155.001 165.556 154.82 166.038C154.639 166.52 154.548 167.095 154.548 167.762C154.548 168.429 154.647 169.052 154.843 169.631C155.04 170.201 155.32 170.699 155.682 171.125C156.045 171.543 156.482 171.873 156.994 172.114C157.514 172.355 158.092 172.476 158.73 172.476Z"/>
<path d="M170.994 165.495C170.325 165.495 169.738 165.504 169.234 165.52C168.738 165.536 168.308 165.56 167.946 165.592C167.584 165.624 167.28 165.66 167.036 165.7C166.792 165.741 166.587 165.785 166.422 165.833H166.375V163.217H166.422C166.587 163.233 166.792 163.249 167.036 163.265C167.28 163.273 167.584 163.281 167.946 163.289C168.308 163.289 168.738 163.289 169.234 163.289C169.738 163.289 170.325 163.289 170.994 163.289H177.138V163.542L167.391 180.577H166.032L174.598 165.495H170.994Z"/>
<path d="M175.46 182.458C176.311 182.393 177.142 182.224 177.953 181.951C178.772 181.686 179.556 181.332 180.304 180.89C181.053 180.456 181.754 179.946 182.407 179.359C183.069 178.765 183.66 178.114 184.18 177.406C184.707 176.691 185.156 175.927 185.526 175.116C185.905 174.296 186.184 173.44 186.365 172.548C186.034 172.757 185.723 172.938 185.432 173.09C185.148 173.235 184.853 173.356 184.546 173.452C184.247 173.549 183.924 173.621 183.577 173.669C183.238 173.717 182.852 173.741 182.419 173.741C181.876 173.741 181.301 173.637 180.694 173.428C180.096 173.219 179.544 172.898 179.04 172.464C178.536 172.03 178.119 171.479 177.788 170.812C177.457 170.145 177.292 169.349 177.292 168.425C177.292 167.798 177.41 167.163 177.646 166.52C177.882 165.869 178.237 165.287 178.709 164.772C179.19 164.25 179.792 163.824 180.517 163.494C181.242 163.165 182.096 163 183.081 163C183.845 163 184.581 163.145 185.29 163.434C186.007 163.723 186.641 164.165 187.192 164.76C187.744 165.347 188.181 166.086 188.504 166.978C188.835 167.87 189 168.923 189 170.137C189 171.198 188.839 172.247 188.516 173.283C188.193 174.312 187.74 175.293 187.157 176.225C186.574 177.157 185.877 178.025 185.066 178.829C184.254 179.624 183.356 180.32 182.372 180.914C181.387 181.517 180.336 181.999 179.217 182.361C178.099 182.723 176.941 182.936 175.744 183L175.46 182.458ZM183.754 172.476C184.219 172.476 184.692 172.407 185.172 172.271C185.652 172.134 186.101 171.925 186.519 171.644C186.558 171.419 186.582 171.19 186.59 170.957C186.606 170.724 186.613 170.482 186.613 170.233C186.613 169.229 186.507 168.337 186.294 167.557C186.082 166.769 185.798 166.106 185.444 165.568C185.089 165.029 184.676 164.619 184.203 164.338C183.738 164.057 183.25 163.916 182.738 163.916C182.344 163.916 181.958 163.993 181.58 164.145C181.202 164.298 180.864 164.531 180.564 164.844C180.265 165.158 180.025 165.556 179.844 166.038C179.662 166.52 179.572 167.095 179.572 167.762C179.572 168.429 179.67 169.052 179.867 169.631C180.064 170.201 180.344 170.699 180.706 171.125C181.068 171.543 181.505 171.873 182.017 172.114C182.537 172.355 183.116 172.476 183.754 172.476Z"/>
</mask>
<path d="M80.5874 164.326C80.5717 165.226 80.5559 166.098 80.5402 166.942C80.5323 167.304 80.5244 167.673 80.5166 168.051C80.5166 168.429 80.5126 168.803 80.5047 169.172C80.5047 169.534 80.5008 169.884 80.4929 170.221C80.4929 170.551 80.4929 170.844 80.4929 171.101C80.4929 171.64 80.4969 172.291 80.5047 173.054C80.5126 173.818 80.5205 174.601 80.5284 175.405C80.5441 176.209 80.5638 176.98 80.5874 177.72C80.6111 178.459 80.6386 179.074 80.6701 179.564C80.7804 179.58 80.9261 179.6 81.1073 179.624C81.2963 179.641 81.4932 179.657 81.698 179.673C81.9028 179.681 82.1037 179.689 82.3006 179.697C82.4975 179.705 82.6629 179.709 82.7968 179.709C83.3482 179.709 83.9113 179.673 84.4863 179.6C85.0692 179.52 85.6284 179.375 86.164 179.166C86.7075 178.957 87.2155 178.672 87.6881 178.31C88.1686 177.941 88.5861 177.467 88.9405 176.888C89.3028 176.309 89.5864 175.614 89.7912 174.802C89.996 173.983 90.0984 173.018 90.0984 171.909C90.0984 170.679 89.9526 169.586 89.6612 168.63C89.3698 167.665 88.9405 166.854 88.3734 166.195C87.8142 165.536 87.1171 165.037 86.2822 164.7C85.4551 164.354 84.5021 164.181 83.423 164.181C83.2103 164.181 82.9701 164.189 82.7023 164.206C82.4345 164.214 82.1667 164.226 81.8989 164.242C81.639 164.25 81.3908 164.266 81.1546 164.29C80.9261 164.306 80.7371 164.318 80.5874 164.326ZM78 163.241C78.1812 163.249 78.3505 163.257 78.508 163.265C78.6419 163.273 78.7798 163.281 78.9216 163.289C79.0633 163.289 79.1775 163.289 79.2642 163.289C79.4138 163.289 79.6619 163.281 80.0085 163.265C80.363 163.249 80.7647 163.233 81.2136 163.217C81.6626 163.201 82.1273 163.185 82.6078 163.169C83.0961 163.153 83.553 163.145 83.9783 163.145C85.1204 163.145 86.2073 163.289 87.2392 163.579C88.271 163.868 89.1768 164.342 89.9566 165.001C90.7364 165.66 91.3547 166.524 91.8115 167.593C92.2683 168.662 92.4968 169.976 92.4968 171.535C92.4968 172.652 92.3747 173.657 92.1305 174.549C91.8942 175.441 91.5594 176.229 91.1262 176.912C90.693 177.595 90.1732 178.182 89.5667 178.672C88.9681 179.154 88.3025 179.552 87.57 179.866C86.8453 180.179 86.0695 180.408 85.2425 180.553C84.4154 180.697 83.5608 180.77 82.6787 180.77C82.3636 180.77 81.9816 180.758 81.5326 180.734C81.0915 180.718 80.6465 180.697 80.1976 180.673C79.7486 180.649 79.3233 180.625 78.9216 180.601C78.5277 180.585 78.2205 180.577 78 180.577V180.529C78.0473 180.36 78.0906 180.151 78.13 179.902C78.1772 179.653 78.2166 179.343 78.2481 178.973C78.2796 178.604 78.3032 178.166 78.319 177.659C78.3348 177.145 78.3426 176.546 78.3426 175.863V168.015C78.3426 167.332 78.3348 166.733 78.319 166.219C78.3032 165.696 78.2796 165.25 78.2481 164.881C78.2166 164.503 78.1772 164.185 78.13 163.928C78.0906 163.671 78.0473 163.458 78 163.289V163.241Z" fill="white"/>
<path d="M95.1315 167.617C95.9034 167.617 96.6949 167.617 97.5062 167.617C98.3175 167.609 99.0697 167.601 99.7629 167.593C100.456 167.577 101.051 167.561 101.547 167.545C102.051 167.529 102.382 167.505 102.539 167.473L102.079 168.775C101.866 168.718 101.626 168.666 101.358 168.618C101.122 168.578 100.834 168.541 100.495 168.509C100.165 168.469 99.7786 168.449 99.3375 168.449C99.18 168.449 98.9988 168.457 98.794 168.473C98.5892 168.481 98.3923 168.493 98.2033 168.509C97.9828 168.525 97.7583 168.541 97.5299 168.558V173.319C98.1679 173.311 98.7428 173.295 99.2548 173.271C99.7668 173.247 100.204 173.215 100.566 173.175C100.992 173.143 101.366 173.098 101.689 173.042L101.405 174.477C100.972 174.421 100.535 174.372 100.094 174.332C99.7156 174.292 99.2981 174.26 98.8413 174.236C98.3845 174.204 97.9473 174.187 97.5299 174.187V179.661C98.2624 179.661 98.9358 179.633 99.5502 179.576C100.165 179.512 100.7 179.444 101.157 179.371C101.693 179.283 102.177 179.182 102.61 179.07L102.338 180.649C102.22 180.641 102.027 180.629 101.76 180.613C101.5 180.605 101.224 180.597 100.933 180.589C100.649 180.589 100.381 180.585 100.129 180.577C99.8771 180.577 99.7038 180.577 99.6093 180.577H95.1315V180.529C95.1866 180.36 95.2338 180.143 95.2732 179.878C95.3205 179.612 95.3559 179.287 95.3796 178.901C95.4111 178.507 95.4347 178.041 95.4505 177.503C95.4662 176.964 95.4741 176.333 95.4741 175.61V172.572C95.4741 171.849 95.4662 171.222 95.4505 170.691C95.4347 170.153 95.4111 169.691 95.3796 169.305C95.3559 168.911 95.3205 168.582 95.2732 168.316C95.2338 168.051 95.1866 167.834 95.1315 167.665V167.617Z" fill="white"/>
<path d="M110.999 170.137H110.762C110.715 170 110.636 169.827 110.526 169.618C110.424 169.409 110.282 169.205 110.101 169.004C109.928 168.803 109.711 168.634 109.451 168.497C109.191 168.353 108.88 168.28 108.518 168.28C108.242 168.28 107.994 168.329 107.773 168.425C107.561 168.513 107.379 168.638 107.23 168.799C107.08 168.959 106.966 169.152 106.887 169.377C106.808 169.594 106.769 169.831 106.769 170.089C106.769 170.507 106.891 170.904 107.135 171.282C107.387 171.66 107.698 172.038 108.069 172.415C108.439 172.785 108.841 173.159 109.274 173.536C109.707 173.914 110.109 174.308 110.479 174.718C110.849 175.128 111.156 175.562 111.4 176.02C111.652 176.478 111.778 176.968 111.778 177.491C111.778 177.876 111.708 178.274 111.566 178.684C111.432 179.094 111.211 179.464 110.904 179.793C110.597 180.123 110.203 180.392 109.723 180.601C109.242 180.818 108.659 180.926 107.974 180.926C107.596 180.926 107.234 180.894 106.887 180.83C106.548 180.766 106.233 180.685 105.942 180.589C105.658 180.501 105.402 180.404 105.174 180.3C104.953 180.187 104.768 180.083 104.619 179.986L104.831 177.708H105.08C105.158 177.989 105.272 178.27 105.422 178.552C105.58 178.833 105.769 179.09 105.989 179.323C106.218 179.548 106.482 179.733 106.781 179.878C107.088 180.014 107.439 180.083 107.832 180.083C108.108 180.083 108.368 180.038 108.612 179.95C108.856 179.854 109.065 179.721 109.238 179.552C109.419 179.383 109.561 179.178 109.664 178.937C109.766 178.688 109.817 178.411 109.817 178.105C109.817 177.744 109.746 177.41 109.605 177.105C109.463 176.791 109.274 176.494 109.037 176.213C108.801 175.923 108.533 175.646 108.234 175.381C107.943 175.116 107.639 174.846 107.324 174.573C107.009 174.3 106.702 174.023 106.403 173.741C106.111 173.452 105.847 173.143 105.611 172.813C105.375 172.484 105.186 172.134 105.044 171.764C104.902 171.387 104.831 170.973 104.831 170.523C104.831 170.048 104.93 169.622 105.127 169.245C105.324 168.867 105.584 168.55 105.907 168.292C106.229 168.027 106.6 167.826 107.017 167.69C107.435 167.545 107.868 167.473 108.317 167.473C108.648 167.473 108.955 167.497 109.238 167.545C109.53 167.593 109.79 167.653 110.018 167.726C110.254 167.79 110.459 167.858 110.632 167.931C110.806 167.995 110.948 168.047 111.058 168.087L110.999 170.137Z" fill="white"/>
<path d="M116.693 168.473C116.686 169.132 116.678 169.771 116.67 170.39C116.67 170.655 116.666 170.928 116.658 171.21C116.658 171.483 116.654 171.756 116.646 172.03C116.646 172.303 116.646 172.564 116.646 172.813C116.646 173.054 116.646 173.271 116.646 173.464C116.646 173.866 116.646 174.352 116.646 174.923C116.654 175.485 116.662 176.064 116.67 176.659C116.678 177.254 116.69 177.828 116.705 178.383C116.721 178.929 116.741 179.387 116.764 179.757C116.843 179.773 116.946 179.789 117.072 179.805C117.198 179.813 117.328 179.825 117.461 179.841C117.603 179.85 117.741 179.858 117.875 179.866C118.009 179.866 118.123 179.866 118.218 179.866C118.651 179.866 119.088 179.837 119.529 179.781C119.978 179.725 120.407 179.62 120.817 179.468C121.234 179.307 121.624 179.09 121.986 178.817C122.349 178.543 122.664 178.194 122.932 177.768C123.207 177.334 123.42 176.816 123.57 176.213C123.727 175.602 123.806 174.883 123.806 174.055C123.806 172.23 123.377 170.824 122.518 169.835C121.667 168.847 120.395 168.353 118.702 168.353C118.537 168.353 118.359 168.357 118.17 168.365C117.989 168.373 117.808 168.385 117.627 168.401C117.446 168.409 117.272 168.421 117.107 168.437C116.949 168.453 116.812 168.465 116.693 168.473ZM114.248 167.593C114.437 167.601 114.614 167.605 114.779 167.605C114.921 167.613 115.059 167.617 115.193 167.617C115.327 167.617 115.425 167.617 115.488 167.617C115.599 167.617 115.796 167.613 116.079 167.605C116.363 167.597 116.682 167.589 117.036 167.581C117.398 167.565 117.776 167.553 118.17 167.545C118.572 167.529 118.942 167.521 119.281 167.521C120.202 167.521 121.081 167.629 121.916 167.846C122.751 168.063 123.483 168.421 124.113 168.919C124.751 169.409 125.255 170.056 125.625 170.86C125.996 171.656 126.181 172.64 126.181 173.814C126.181 175.076 125.968 176.144 125.543 177.02C125.117 177.897 124.542 178.612 123.818 179.166C123.093 179.713 122.25 180.111 121.289 180.36C120.336 180.601 119.328 180.722 118.265 180.722C118.013 180.722 117.698 180.713 117.32 180.697C116.942 180.681 116.556 180.665 116.162 180.649C115.768 180.633 115.394 180.617 115.039 180.601C114.693 180.585 114.429 180.577 114.248 180.577V180.529C114.303 180.36 114.35 180.143 114.39 179.878C114.437 179.612 114.472 179.287 114.496 178.901C114.527 178.507 114.551 178.041 114.567 177.503C114.583 176.964 114.59 176.333 114.59 175.61V172.572C114.59 171.849 114.583 171.218 114.567 170.679C114.551 170.141 114.527 169.675 114.496 169.281C114.472 168.887 114.437 168.558 114.39 168.292C114.35 168.027 114.303 167.81 114.248 167.641V167.593Z" fill="white"/>
<path d="M128.685 167.617C129.457 167.617 130.249 167.617 131.06 167.617C131.872 167.609 132.624 167.601 133.317 167.593C134.01 167.577 134.605 167.561 135.101 167.545C135.605 167.529 135.936 167.505 136.093 167.473L135.633 168.775C135.42 168.718 135.18 168.666 134.912 168.618C134.676 168.578 134.388 168.541 134.049 168.509C133.719 168.469 133.333 168.449 132.892 168.449C132.734 168.449 132.553 168.457 132.348 168.473C132.143 168.481 131.946 168.493 131.757 168.509C131.537 168.525 131.312 168.541 131.084 168.558V173.319C131.722 173.311 132.297 173.295 132.809 173.271C133.321 173.247 133.758 173.215 134.12 173.175C134.546 173.143 134.92 173.098 135.243 173.042L134.959 174.477C134.526 174.421 134.089 174.372 133.648 174.332C133.27 174.292 132.852 174.26 132.395 174.236C131.938 174.204 131.501 174.187 131.084 174.187V179.661C131.816 179.661 132.49 179.633 133.104 179.576C133.719 179.512 134.254 179.444 134.711 179.371C135.247 179.283 135.731 179.182 136.164 179.07L135.892 180.649C135.774 180.641 135.581 180.629 135.314 180.613C135.054 180.605 134.778 180.597 134.487 180.589C134.203 180.589 133.935 180.585 133.683 180.577C133.431 180.577 133.258 180.577 133.163 180.577H128.685V180.529C128.741 180.36 128.788 180.143 128.827 179.878C128.875 179.612 128.91 179.287 128.934 178.901C128.965 178.507 128.989 178.041 129.004 177.503C129.02 176.964 129.028 176.333 129.028 175.61V172.572C129.028 171.849 129.02 171.222 129.004 170.691C128.989 170.153 128.965 169.691 128.934 169.305C128.91 168.911 128.875 168.582 128.827 168.316C128.788 168.051 128.741 167.834 128.685 167.665V167.617Z" fill="white"/>
<path d="M146.703 180.529C146.75 180.36 146.794 180.151 146.833 179.902C146.88 179.653 146.92 179.343 146.951 178.973C146.983 178.604 147.006 178.166 147.022 177.659C147.038 177.145 147.046 176.546 147.046 175.863V168.015C147.046 167.332 146.998 166.789 146.904 166.388C146.809 165.986 146.695 165.676 146.561 165.459C146.435 165.242 146.301 165.086 146.16 164.989C146.026 164.893 145.911 164.804 145.817 164.724V164.676L149.444 163.289V163.338C149.397 163.506 149.35 163.715 149.302 163.964C149.263 164.214 149.227 164.527 149.196 164.905C149.164 165.274 149.141 165.716 149.125 166.231C149.109 166.737 149.101 167.332 149.101 168.015V175.863C149.101 176.546 149.109 177.145 149.125 177.659C149.141 178.166 149.164 178.604 149.196 178.973C149.227 179.343 149.263 179.653 149.302 179.902C149.35 180.151 149.397 180.36 149.444 180.529V180.577H146.703V180.529Z" fill="white"/>
<path d="M150.437 182.458C151.287 182.393 152.118 182.224 152.929 181.951C153.749 181.686 154.532 181.332 155.281 180.89C156.029 180.456 156.73 179.946 157.384 179.359C158.045 178.765 158.636 178.114 159.156 177.406C159.684 176.691 160.133 175.927 160.503 175.116C160.881 174.296 161.16 173.44 161.342 172.548C161.011 172.757 160.7 172.938 160.408 173.09C160.125 173.235 159.829 173.356 159.522 173.452C159.223 173.549 158.9 173.621 158.553 173.669C158.215 173.717 157.829 173.741 157.395 173.741C156.852 173.741 156.277 173.637 155.67 173.428C155.072 173.219 154.52 172.898 154.016 172.464C153.512 172.03 153.095 171.479 152.764 170.812C152.433 170.145 152.268 169.349 152.268 168.425C152.268 167.798 152.386 167.163 152.622 166.52C152.859 165.869 153.213 165.287 153.686 164.772C154.166 164.25 154.769 163.824 155.493 163.494C156.218 163.165 157.072 163 158.057 163C158.821 163 159.558 163.145 160.266 163.434C160.983 163.723 161.617 164.165 162.169 164.76C162.72 165.347 163.157 166.086 163.48 166.978C163.811 167.87 163.976 168.923 163.976 170.137C163.976 171.198 163.815 172.247 163.492 173.283C163.169 174.312 162.716 175.293 162.133 176.225C161.55 177.157 160.853 178.025 160.042 178.829C159.231 179.624 158.333 180.32 157.348 180.914C156.364 181.517 155.312 181.999 154.194 182.361C153.075 182.723 151.917 182.936 150.72 183L150.437 182.458ZM158.73 172.476C159.195 172.476 159.668 172.407 160.148 172.271C160.629 172.134 161.078 171.925 161.495 171.644C161.535 171.419 161.558 171.19 161.566 170.957C161.582 170.724 161.59 170.482 161.59 170.233C161.59 169.229 161.483 168.337 161.271 167.557C161.058 166.769 160.774 166.106 160.42 165.568C160.066 165.029 159.652 164.619 159.179 164.338C158.715 164.057 158.226 163.916 157.714 163.916C157.321 163.916 156.935 163.993 156.557 164.145C156.178 164.298 155.84 164.531 155.54 164.844C155.241 165.158 155.001 165.556 154.82 166.038C154.639 166.52 154.548 167.095 154.548 167.762C154.548 168.429 154.647 169.052 154.843 169.631C155.04 170.201 155.32 170.699 155.682 171.125C156.045 171.543 156.482 171.873 156.994 172.114C157.514 172.355 158.092 172.476 158.73 172.476Z" fill="white"/>
<path d="M170.994 165.495C170.325 165.495 169.738 165.504 169.234 165.52C168.738 165.536 168.308 165.56 167.946 165.592C167.584 165.624 167.28 165.66 167.036 165.7C166.792 165.741 166.587 165.785 166.422 165.833H166.375V163.217H166.422C166.587 163.233 166.792 163.249 167.036 163.265C167.28 163.273 167.584 163.281 167.946 163.289C168.308 163.289 168.738 163.289 169.234 163.289C169.738 163.289 170.325 163.289 170.994 163.289H177.138V163.542L167.391 180.577H166.032L174.598 165.495H170.994Z" fill="white"/>
<path d="M175.46 182.458C176.311 182.393 177.142 182.224 177.953 181.951C178.772 181.686 179.556 181.332 180.304 180.89C181.053 180.456 181.754 179.946 182.407 179.359C183.069 178.765 183.66 178.114 184.18 177.406C184.707 176.691 185.156 175.927 185.526 175.116C185.905 174.296 186.184 173.44 186.365 172.548C186.034 172.757 185.723 172.938 185.432 173.09C185.148 173.235 184.853 173.356 184.546 173.452C184.247 173.549 183.924 173.621 183.577 173.669C183.238 173.717 182.852 173.741 182.419 173.741C181.876 173.741 181.301 173.637 180.694 173.428C180.096 173.219 179.544 172.898 179.04 172.464C178.536 172.03 178.119 171.479 177.788 170.812C177.457 170.145 177.292 169.349 177.292 168.425C177.292 167.798 177.41 167.163 177.646 166.52C177.882 165.869 178.237 165.287 178.709 164.772C179.19 164.25 179.792 163.824 180.517 163.494C181.242 163.165 182.096 163 183.081 163C183.845 163 184.581 163.145 185.29 163.434C186.007 163.723 186.641 164.165 187.192 164.76C187.744 165.347 188.181 166.086 188.504 166.978C188.835 167.87 189 168.923 189 170.137C189 171.198 188.839 172.247 188.516 173.283C188.193 174.312 187.74 175.293 187.157 176.225C186.574 177.157 185.877 178.025 185.066 178.829C184.254 179.624 183.356 180.32 182.372 180.914C181.387 181.517 180.336 181.999 179.217 182.361C178.099 182.723 176.941 182.936 175.744 183L175.46 182.458ZM183.754 172.476C184.219 172.476 184.692 172.407 185.172 172.271C185.652 172.134 186.101 171.925 186.519 171.644C186.558 171.419 186.582 171.19 186.59 170.957C186.606 170.724 186.613 170.482 186.613 170.233C186.613 169.229 186.507 168.337 186.294 167.557C186.082 166.769 185.798 166.106 185.444 165.568C185.089 165.029 184.676 164.619 184.203 164.338C183.738 164.057 183.25 163.916 182.738 163.916C182.344 163.916 181.958 163.993 181.58 164.145C181.202 164.298 180.864 164.531 180.564 164.844C180.265 165.158 180.025 165.556 179.844 166.038C179.662 166.52 179.572 167.095 179.572 167.762C179.572 168.429 179.67 169.052 179.867 169.631C180.064 170.201 180.344 170.699 180.706 171.125C181.068 171.543 181.505 171.873 182.017 172.114C182.537 172.355 183.116 172.476 183.754 172.476Z" fill="white"/>
<path d="M80.5874 164.326C80.5717 165.226 80.5559 166.098 80.5402 166.942C80.5323 167.304 80.5244 167.673 80.5166 168.051C80.5166 168.429 80.5126 168.803 80.5047 169.172C80.5047 169.534 80.5008 169.884 80.4929 170.221C80.4929 170.551 80.4929 170.844 80.4929 171.101C80.4929 171.64 80.4969 172.291 80.5047 173.054C80.5126 173.818 80.5205 174.601 80.5284 175.405C80.5441 176.209 80.5638 176.98 80.5874 177.72C80.6111 178.459 80.6386 179.074 80.6701 179.564C80.7804 179.58 80.9261 179.6 81.1073 179.624C81.2963 179.641 81.4932 179.657 81.698 179.673C81.9028 179.681 82.1037 179.689 82.3006 179.697C82.4975 179.705 82.6629 179.709 82.7968 179.709C83.3482 179.709 83.9113 179.673 84.4863 179.6C85.0692 179.52 85.6284 179.375 86.164 179.166C86.7075 178.957 87.2155 178.672 87.6881 178.31C88.1686 177.941 88.5861 177.467 88.9405 176.888C89.3028 176.309 89.5864 175.614 89.7912 174.802C89.996 173.983 90.0984 173.018 90.0984 171.909C90.0984 170.679 89.9526 169.586 89.6612 168.63C89.3698 167.665 88.9405 166.854 88.3734 166.195C87.8142 165.536 87.1171 165.037 86.2822 164.7C85.4551 164.354 84.5021 164.181 83.423 164.181C83.2103 164.181 82.9701 164.189 82.7023 164.206C82.4345 164.214 82.1667 164.226 81.8989 164.242C81.639 164.25 81.3908 164.266 81.1546 164.29C80.9261 164.306 80.7371 164.318 80.5874 164.326ZM78 163.241C78.1812 163.249 78.3505 163.257 78.508 163.265C78.6419 163.273 78.7798 163.281 78.9216 163.289C79.0633 163.289 79.1775 163.289 79.2642 163.289C79.4138 163.289 79.6619 163.281 80.0085 163.265C80.363 163.249 80.7647 163.233 81.2136 163.217C81.6626 163.201 82.1273 163.185 82.6078 163.169C83.0961 163.153 83.553 163.145 83.9783 163.145C85.1204 163.145 86.2073 163.289 87.2392 163.579C88.271 163.868 89.1768 164.342 89.9566 165.001C90.7364 165.66 91.3547 166.524 91.8115 167.593C92.2683 168.662 92.4968 169.976 92.4968 171.535C92.4968 172.652 92.3747 173.657 92.1305 174.549C91.8942 175.441 91.5594 176.229 91.1262 176.912C90.693 177.595 90.1732 178.182 89.5667 178.672C88.9681 179.154 88.3025 179.552 87.57 179.866C86.8453 180.179 86.0695 180.408 85.2425 180.553C84.4154 180.697 83.5608 180.77 82.6787 180.77C82.3636 180.77 81.9816 180.758 81.5326 180.734C81.0915 180.718 80.6465 180.697 80.1976 180.673C79.7486 180.649 79.3233 180.625 78.9216 180.601C78.5277 180.585 78.2205 180.577 78 180.577V180.529C78.0473 180.36 78.0906 180.151 78.13 179.902C78.1772 179.653 78.2166 179.343 78.2481 178.973C78.2796 178.604 78.3032 178.166 78.319 177.659C78.3348 177.145 78.3426 176.546 78.3426 175.863V168.015C78.3426 167.332 78.3348 166.733 78.319 166.219C78.3032 165.696 78.2796 165.25 78.2481 164.881C78.2166 164.503 78.1772 164.185 78.13 163.928C78.0906 163.671 78.0473 163.458 78 163.289V163.241Z" stroke="white" stroke-width="2" mask="url(#path-31-inside-1_283_68)"/>
<path d="M95.1315 167.617C95.9034 167.617 96.6949 167.617 97.5062 167.617C98.3175 167.609 99.0697 167.601 99.7629 167.593C100.456 167.577 101.051 167.561 101.547 167.545C102.051 167.529 102.382 167.505 102.539 167.473L102.079 168.775C101.866 168.718 101.626 168.666 101.358 168.618C101.122 168.578 100.834 168.541 100.495 168.509C100.165 168.469 99.7786 168.449 99.3375 168.449C99.18 168.449 98.9988 168.457 98.794 168.473C98.5892 168.481 98.3923 168.493 98.2033 168.509C97.9828 168.525 97.7583 168.541 97.5299 168.558V173.319C98.1679 173.311 98.7428 173.295 99.2548 173.271C99.7668 173.247 100.204 173.215 100.566 173.175C100.992 173.143 101.366 173.098 101.689 173.042L101.405 174.477C100.972 174.421 100.535 174.372 100.094 174.332C99.7156 174.292 99.2981 174.26 98.8413 174.236C98.3845 174.204 97.9473 174.187 97.5299 174.187V179.661C98.2624 179.661 98.9358 179.633 99.5502 179.576C100.165 179.512 100.7 179.444 101.157 179.371C101.693 179.283 102.177 179.182 102.61 179.07L102.338 180.649C102.22 180.641 102.027 180.629 101.76 180.613C101.5 180.605 101.224 180.597 100.933 180.589C100.649 180.589 100.381 180.585 100.129 180.577C99.8771 180.577 99.7038 180.577 99.6093 180.577H95.1315V180.529C95.1866 180.36 95.2338 180.143 95.2732 179.878C95.3205 179.612 95.3559 179.287 95.3796 178.901C95.4111 178.507 95.4347 178.041 95.4505 177.503C95.4662 176.964 95.4741 176.333 95.4741 175.61V172.572C95.4741 171.849 95.4662 171.222 95.4505 170.691C95.4347 170.153 95.4111 169.691 95.3796 169.305C95.3559 168.911 95.3205 168.582 95.2732 168.316C95.2338 168.051 95.1866 167.834 95.1315 167.665V167.617Z" stroke="white" stroke-width="2" mask="url(#path-31-inside-1_283_68)"/>
<path d="M110.999 170.137H110.762C110.715 170 110.636 169.827 110.526 169.618C110.424 169.409 110.282 169.205 110.101 169.004C109.928 168.803 109.711 168.634 109.451 168.497C109.191 168.353 108.88 168.28 108.518 168.28C108.242 168.28 107.994 168.329 107.773 168.425C107.561 168.513 107.379 168.638 107.23 168.799C107.08 168.959 106.966 169.152 106.887 169.377C106.808 169.594 106.769 169.831 106.769 170.089C106.769 170.507 106.891 170.904 107.135 171.282C107.387 171.66 107.698 172.038 108.069 172.415C108.439 172.785 108.841 173.159 109.274 173.536C109.707 173.914 110.109 174.308 110.479 174.718C110.849 175.128 111.156 175.562 111.4 176.02C111.652 176.478 111.778 176.968 111.778 177.491C111.778 177.876 111.708 178.274 111.566 178.684C111.432 179.094 111.211 179.464 110.904 179.793C110.597 180.123 110.203 180.392 109.723 180.601C109.242 180.818 108.659 180.926 107.974 180.926C107.596 180.926 107.234 180.894 106.887 180.83C106.548 180.766 106.233 180.685 105.942 180.589C105.658 180.501 105.402 180.404 105.174 180.3C104.953 180.187 104.768 180.083 104.619 179.986L104.831 177.708H105.08C105.158 177.989 105.272 178.27 105.422 178.552C105.58 178.833 105.769 179.09 105.989 179.323C106.218 179.548 106.482 179.733 106.781 179.878C107.088 180.014 107.439 180.083 107.832 180.083C108.108 180.083 108.368 180.038 108.612 179.95C108.856 179.854 109.065 179.721 109.238 179.552C109.419 179.383 109.561 179.178 109.664 178.937C109.766 178.688 109.817 178.411 109.817 178.105C109.817 177.744 109.746 177.41 109.605 177.105C109.463 176.791 109.274 176.494 109.037 176.213C108.801 175.923 108.533 175.646 108.234 175.381C107.943 175.116 107.639 174.846 107.324 174.573C107.009 174.3 106.702 174.023 106.403 173.741C106.111 173.452 105.847 173.143 105.611 172.813C105.375 172.484 105.186 172.134 105.044 171.764C104.902 171.387 104.831 170.973 104.831 170.523C104.831 170.048 104.93 169.622 105.127 169.245C105.324 168.867 105.584 168.55 105.907 168.292C106.229 168.027 106.6 167.826 107.017 167.69C107.435 167.545 107.868 167.473 108.317 167.473C108.648 167.473 108.955 167.497 109.238 167.545C109.53 167.593 109.79 167.653 110.018 167.726C110.254 167.79 110.459 167.858 110.632 167.931C110.806 167.995 110.948 168.047 111.058 168.087L110.999 170.137Z" stroke="white" stroke-width="2" mask="url(#path-31-inside-1_283_68)"/>
<path d="M116.693 168.473C116.686 169.132 116.678 169.771 116.67 170.39C116.67 170.655 116.666 170.928 116.658 171.21C116.658 171.483 116.654 171.756 116.646 172.03C116.646 172.303 116.646 172.564 116.646 172.813C116.646 173.054 116.646 173.271 116.646 173.464C116.646 173.866 116.646 174.352 116.646 174.923C116.654 175.485 116.662 176.064 116.67 176.659C116.678 177.254 116.69 177.828 116.705 178.383C116.721 178.929 116.741 179.387 116.764 179.757C116.843 179.773 116.946 179.789 117.072 179.805C117.198 179.813 117.328 179.825 117.461 179.841C117.603 179.85 117.741 179.858 117.875 179.866C118.009 179.866 118.123 179.866 118.218 179.866C118.651 179.866 119.088 179.837 119.529 179.781C119.978 179.725 120.407 179.62 120.817 179.468C121.234 179.307 121.624 179.09 121.986 178.817C122.349 178.543 122.664 178.194 122.932 177.768C123.207 177.334 123.42 176.816 123.57 176.213C123.727 175.602 123.806 174.883 123.806 174.055C123.806 172.23 123.377 170.824 122.518 169.835C121.667 168.847 120.395 168.353 118.702 168.353C118.537 168.353 118.359 168.357 118.17 168.365C117.989 168.373 117.808 168.385 117.627 168.401C117.446 168.409 117.272 168.421 117.107 168.437C116.949 168.453 116.812 168.465 116.693 168.473ZM114.248 167.593C114.437 167.601 114.614 167.605 114.779 167.605C114.921 167.613 115.059 167.617 115.193 167.617C115.327 167.617 115.425 167.617 115.488 167.617C115.599 167.617 115.796 167.613 116.079 167.605C116.363 167.597 116.682 167.589 117.036 167.581C117.398 167.565 117.776 167.553 118.17 167.545C118.572 167.529 118.942 167.521 119.281 167.521C120.202 167.521 121.081 167.629 121.916 167.846C122.751 168.063 123.483 168.421 124.113 168.919C124.751 169.409 125.255 170.056 125.625 170.86C125.996 171.656 126.181 172.64 126.181 173.814C126.181 175.076 125.968 176.144 125.543 177.02C125.117 177.897 124.542 178.612 123.818 179.166C123.093 179.713 122.25 180.111 121.289 180.36C120.336 180.601 119.328 180.722 118.265 180.722C118.013 180.722 117.698 180.713 117.32 180.697C116.942 180.681 116.556 180.665 116.162 180.649C115.768 180.633 115.394 180.617 115.039 180.601C114.693 180.585 114.429 180.577 114.248 180.577V180.529C114.303 180.36 114.35 180.143 114.39 179.878C114.437 179.612 114.472 179.287 114.496 178.901C114.527 178.507 114.551 178.041 114.567 177.503C114.583 176.964 114.59 176.333 114.59 175.61V172.572C114.59 171.849 114.583 171.218 114.567 170.679C114.551 170.141 114.527 169.675 114.496 169.281C114.472 168.887 114.437 168.558 114.39 168.292C114.35 168.027 114.303 167.81 114.248 167.641V167.593Z" stroke="white" stroke-width="2" mask="url(#path-31-inside-1_283_68)"/>
<path d="M128.685 167.617C129.457 167.617 130.249 167.617 131.06 167.617C131.872 167.609 132.624 167.601 133.317 167.593C134.01 167.577 134.605 167.561 135.101 167.545C135.605 167.529 135.936 167.505 136.093 167.473L135.633 168.775C135.42 168.718 135.18 168.666 134.912 168.618C134.676 168.578 134.388 168.541 134.049 168.509C133.719 168.469 133.333 168.449 132.892 168.449C132.734 168.449 132.553 168.457 132.348 168.473C132.143 168.481 131.946 168.493 131.757 168.509C131.537 168.525 131.312 168.541 131.084 168.558V173.319C131.722 173.311 132.297 173.295 132.809 173.271C133.321 173.247 133.758 173.215 134.12 173.175C134.546 173.143 134.92 173.098 135.243 173.042L134.959 174.477C134.526 174.421 134.089 174.372 133.648 174.332C133.27 174.292 132.852 174.26 132.395 174.236C131.938 174.204 131.501 174.187 131.084 174.187V179.661C131.816 179.661 132.49 179.633 133.104 179.576C133.719 179.512 134.254 179.444 134.711 179.371C135.247 179.283 135.731 179.182 136.164 179.07L135.892 180.649C135.774 180.641 135.581 180.629 135.314 180.613C135.054 180.605 134.778 180.597 134.487 180.589C134.203 180.589 133.935 180.585 133.683 180.577C133.431 180.577 133.258 180.577 133.163 180.577H128.685V180.529C128.741 180.36 128.788 180.143 128.827 179.878C128.875 179.612 128.91 179.287 128.934 178.901C128.965 178.507 128.989 178.041 129.004 177.503C129.02 176.964 129.028 176.333 129.028 175.61V172.572C129.028 171.849 129.02 171.222 129.004 170.691C128.989 170.153 128.965 169.691 128.934 169.305C128.91 168.911 128.875 168.582 128.827 168.316C128.788 168.051 128.741 167.834 128.685 167.665V167.617Z" stroke="white" stroke-width="2" mask="url(#path-31-inside-1_283_68)"/>
<path d="M146.703 180.529C146.75 180.36 146.794 180.151 146.833 179.902C146.88 179.653 146.92 179.343 146.951 178.973C146.983 178.604 147.006 178.166 147.022 177.659C147.038 177.145 147.046 176.546 147.046 175.863V168.015C147.046 167.332 146.998 166.789 146.904 166.388C146.809 165.986 146.695 165.676 146.561 165.459C146.435 165.242 146.301 165.086 146.16 164.989C146.026 164.893 145.911 164.804 145.817 164.724V164.676L149.444 163.289V163.338C149.397 163.506 149.35 163.715 149.302 163.964C149.263 164.214 149.227 164.527 149.196 164.905C149.164 165.274 149.141 165.716 149.125 166.231C149.109 166.737 149.101 167.332 149.101 168.015V175.863C149.101 176.546 149.109 177.145 149.125 177.659C149.141 178.166 149.164 178.604 149.196 178.973C149.227 179.343 149.263 179.653 149.302 179.902C149.35 180.151 149.397 180.36 149.444 180.529V180.577H146.703V180.529Z" stroke="white" stroke-width="2" mask="url(#path-31-inside-1_283_68)"/>
<path d="M150.437 182.458C151.287 182.393 152.118 182.224 152.929 181.951C153.749 181.686 154.532 181.332 155.281 180.89C156.029 180.456 156.73 179.946 157.384 179.359C158.045 178.765 158.636 178.114 159.156 177.406C159.684 176.691 160.133 175.927 160.503 175.116C160.881 174.296 161.16 173.44 161.342 172.548C161.011 172.757 160.7 172.938 160.408 173.09C160.125 173.235 159.829 173.356 159.522 173.452C159.223 173.549 158.9 173.621 158.553 173.669C158.215 173.717 157.829 173.741 157.395 173.741C156.852 173.741 156.277 173.637 155.67 173.428C155.072 173.219 154.52 172.898 154.016 172.464C153.512 172.03 153.095 171.479 152.764 170.812C152.433 170.145 152.268 169.349 152.268 168.425C152.268 167.798 152.386 167.163 152.622 166.52C152.859 165.869 153.213 165.287 153.686 164.772C154.166 164.25 154.769 163.824 155.493 163.494C156.218 163.165 157.072 163 158.057 163C158.821 163 159.558 163.145 160.266 163.434C160.983 163.723 161.617 164.165 162.169 164.76C162.72 165.347 163.157 166.086 163.48 166.978C163.811 167.87 163.976 168.923 163.976 170.137C163.976 171.198 163.815 172.247 163.492 173.283C163.169 174.312 162.716 175.293 162.133 176.225C161.55 177.157 160.853 178.025 160.042 178.829C159.231 179.624 158.333 180.32 157.348 180.914C156.364 181.517 155.312 181.999 154.194 182.361C153.075 182.723 151.917 182.936 150.72 183L150.437 182.458ZM158.73 172.476C159.195 172.476 159.668 172.407 160.148 172.271C160.629 172.134 161.078 171.925 161.495 171.644C161.535 171.419 161.558 171.19 161.566 170.957C161.582 170.724 161.59 170.482 161.59 170.233C161.59 169.229 161.483 168.337 161.271 167.557C161.058 166.769 160.774 166.106 160.42 165.568C160.066 165.029 159.652 164.619 159.179 164.338C158.715 164.057 158.226 163.916 157.714 163.916C157.321 163.916 156.935 163.993 156.557 164.145C156.178 164.298 155.84 164.531 155.54 164.844C155.241 165.158 155.001 165.556 154.82 166.038C154.639 166.52 154.548 167.095 154.548 167.762C154.548 168.429 154.647 169.052 154.843 169.631C155.04 170.201 155.32 170.699 155.682 171.125C156.045 171.543 156.482 171.873 156.994 172.114C157.514 172.355 158.092 172.476 158.73 172.476Z" stroke="white" stroke-width="2" mask="url(#path-31-inside-1_283_68)"/>
<path d="M170.994 165.495C170.325 165.495 169.738 165.504 169.234 165.52C168.738 165.536 168.308 165.56 167.946 165.592C167.584 165.624 167.28 165.66 167.036 165.7C166.792 165.741 166.587 165.785 166.422 165.833H166.375V163.217H166.422C166.587 163.233 166.792 163.249 167.036 163.265C167.28 163.273 167.584 163.281 167.946 163.289C168.308 163.289 168.738 163.289 169.234 163.289C169.738 163.289 170.325 163.289 170.994 163.289H177.138V163.542L167.391 180.577H166.032L174.598 165.495H170.994Z" stroke="white" stroke-width="2" mask="url(#path-31-inside-1_283_68)"/>
<path d="M175.46 182.458C176.311 182.393 177.142 182.224 177.953 181.951C178.772 181.686 179.556 181.332 180.304 180.89C181.053 180.456 181.754 179.946 182.407 179.359C183.069 178.765 183.66 178.114 184.18 177.406C184.707 176.691 185.156 175.927 185.526 175.116C185.905 174.296 186.184 173.44 186.365 172.548C186.034 172.757 185.723 172.938 185.432 173.09C185.148 173.235 184.853 173.356 184.546 173.452C184.247 173.549 183.924 173.621 183.577 173.669C183.238 173.717 182.852 173.741 182.419 173.741C181.876 173.741 181.301 173.637 180.694 173.428C180.096 173.219 179.544 172.898 179.04 172.464C178.536 172.03 178.119 171.479 177.788 170.812C177.457 170.145 177.292 169.349 177.292 168.425C177.292 167.798 177.41 167.163 177.646 166.52C177.882 165.869 178.237 165.287 178.709 164.772C179.19 164.25 179.792 163.824 180.517 163.494C181.242 163.165 182.096 163 183.081 163C183.845 163 184.581 163.145 185.29 163.434C186.007 163.723 186.641 164.165 187.192 164.76C187.744 165.347 188.181 166.086 188.504 166.978C188.835 167.87 189 168.923 189 170.137C189 171.198 188.839 172.247 188.516 173.283C188.193 174.312 187.74 175.293 187.157 176.225C186.574 177.157 185.877 178.025 185.066 178.829C184.254 179.624 183.356 180.32 182.372 180.914C181.387 181.517 180.336 181.999 179.217 182.361C178.099 182.723 176.941 182.936 175.744 183L175.46 182.458ZM183.754 172.476C184.219 172.476 184.692 172.407 185.172 172.271C185.652 172.134 186.101 171.925 186.519 171.644C186.558 171.419 186.582 171.19 186.59 170.957C186.606 170.724 186.613 170.482 186.613 170.233C186.613 169.229 186.507 168.337 186.294 167.557C186.082 166.769 185.798 166.106 185.444 165.568C185.089 165.029 184.676 164.619 184.203 164.338C183.738 164.057 183.25 163.916 182.738 163.916C182.344 163.916 181.958 163.993 181.58 164.145C181.202 164.298 180.864 164.531 180.564 164.844C180.265 165.158 180.025 165.556 179.844 166.038C179.662 166.52 179.572 167.095 179.572 167.762C179.572 168.429 179.67 169.052 179.867 169.631C180.064 170.201 180.344 170.699 180.706 171.125C181.068 171.543 181.505 171.873 182.017 172.114C182.537 172.355 183.116 172.476 183.754 172.476Z" stroke="white" stroke-width="2" mask="url(#path-31-inside-1_283_68)"/>
<path d="M260.083 134.953C259.081 138.321 257.258 141.116 253.717 142.191C250.534 143.159 248.925 141.833 248.352 137.891C247.601 138.644 246.922 139.396 246.171 140.041C244.096 141.869 241.772 143.338 238.982 142.012C236.336 140.794 235.978 138.178 236.193 135.598C236.586 130.331 238.339 125.637 242.559 122.234C243.775 121.266 245.42 120.621 246.958 120.263C249.139 119.725 251.035 120.621 252.751 122.95C253.538 118.722 254.253 114.996 255.004 110.983C257.222 110.732 259.761 110.481 262.622 110.159C262.229 111.771 261.943 113.097 261.585 114.458C259.689 121.553 257.758 128.647 255.899 135.742C255.755 136.279 255.934 136.888 255.97 137.461C256.542 137.318 257.222 137.318 257.651 136.996C258.509 136.422 259.26 135.634 260.083 134.953ZM242.988 136.351C243.274 136.852 243.453 137.856 243.989 138.106C244.561 138.357 245.599 138.106 246.135 137.712C247.029 137.067 247.959 136.207 248.352 135.24C249.568 132.338 250.534 129.328 251.571 126.354C251.965 125.207 252.036 124.025 250.82 123.344C249.604 122.664 248.638 123.488 247.887 124.348C244.883 127.68 243.846 131.836 242.988 136.351Z" fill="black"/>
<path d="M462.264 72.7799C463.869 71.3731 465.274 69.8456 466.959 68.7201C468.844 67.4741 471.011 67.3133 472.977 68.7201C474.903 70.0868 474.983 72.0966 474.461 74.1466C473.739 77.0005 472.897 79.8142 472.134 82.6681C471.934 83.3916 471.853 84.1553 471.733 84.9191C471.894 85.0396 472.054 85.2004 472.214 85.321C473.538 84.4367 474.822 83.5122 476.066 82.6681C475.865 86.2857 471.131 90.2249 467.52 89.7828C465.595 89.5416 464.511 88.3759 464.712 86.5269C464.953 84.2759 465.554 82.0652 466.076 79.8946C466.437 78.3269 467.079 76.8397 467.36 75.2721C467.52 74.3074 467.119 73.3025 466.999 72.2976C465.996 72.6995 464.591 72.8201 464.11 73.5436C462.545 75.9956 461.101 78.5681 459.978 81.221C459.055 83.4318 458.533 85.8034 457.971 88.1347C457.731 89.1798 457.249 89.5818 456.206 89.5416C454.481 89.4612 452.756 89.5416 450.75 89.5416C451.632 86.4063 452.475 83.5122 453.277 80.6583C453.839 78.7289 454.481 76.8397 454.842 74.8701C455.003 74.0662 454.561 73.1819 454.401 72.2976C453.558 72.5387 452.555 72.5789 451.913 73.1015C449.265 75.3524 448.062 78.4877 447.059 81.7034C446.417 83.7936 445.895 85.9642 445.414 88.0945C445.173 89.0994 444.732 89.5818 443.648 89.5416C441.923 89.4612 440.198 89.5014 438.232 89.5014C438.994 86.5671 439.797 83.9142 440.398 81.1808C441.241 77.2015 441.923 73.2221 442.766 69.2427C442.886 68.7603 443.448 68.0368 443.849 68.0368C445.895 67.9162 447.981 67.9966 450.308 67.9966C449.827 69.926 449.426 71.6544 449.024 73.3426C449.145 73.423 449.225 73.4632 449.345 73.5436C449.907 72.8603 450.389 72.0564 451.031 71.4936C452.314 70.3682 453.598 69.0819 455.123 68.3584C458.734 66.6701 461.382 68.3986 462.264 72.7799Z" fill="black"/>
<path d="M555.626 67.9967C554.102 73.8251 552.657 79.3319 551.213 84.8789C551.454 85.0397 551.735 85.1603 551.975 85.3211C553.259 84.3966 554.543 83.4721 555.827 82.5476C555.145 85.8838 552.056 89.1799 549.127 89.7024C545.837 90.3054 544.112 88.8583 544.232 85.4819C544.232 85.1603 544.272 84.8387 544.312 84.1554C543.47 85.1201 542.908 85.8838 542.226 86.4466C541.183 87.3711 540.14 88.376 538.936 88.9789C537.09 89.9436 535.044 90.0642 533.239 88.8181C531.393 87.5318 531.233 85.6024 531.674 83.5927C532.035 81.9848 532.597 80.377 532.998 78.7691C533.8 75.2721 534.523 71.7751 535.325 68.077C537.451 68.077 539.939 68.077 542.788 68.077C542.507 69.2427 542.266 70.328 541.985 71.3731C541.022 74.7898 539.979 78.1662 539.016 81.5427C538.816 82.226 538.655 82.9897 538.615 83.7132C538.575 85.2809 539.538 85.9642 540.741 85.0397C542.065 84.075 543.47 82.9093 544.112 81.4623C545.676 77.9652 547 74.3074 548.084 70.6094C548.645 68.6398 549.327 67.5545 551.534 67.9163C552.778 68.1574 554.062 67.9967 555.626 67.9967Z" fill="black"/>
<path d="M641.445 68.1172C643.531 68.1172 646.059 68.1172 648.868 68.1172C647.824 71.7348 646.862 75.1515 645.899 78.6083C645.497 80.0152 645.016 81.422 644.815 82.8691C644.695 83.6328 645.056 84.4769 645.217 85.2808C646.059 85.0397 647.263 85.0799 647.664 84.5171C649.309 82.3064 650.954 80.0152 652.117 77.4829C653.241 75.0309 653.802 72.2976 654.444 69.6447C654.765 68.3182 655.367 67.9162 656.651 67.9966C658.216 68.077 659.821 68.0368 661.666 68.0368C660.142 73.8652 658.697 79.3721 657.253 84.8789C657.494 85.0397 657.774 85.1603 658.015 85.321C659.259 84.4367 660.543 83.5524 661.706 82.7083C661.626 86.4867 656.37 90.6269 652.679 89.7024C651.154 89.3406 650.472 88.2955 650.352 86.8083C650.312 86.0848 650.352 85.3612 650.352 84.2759C649.269 85.4416 648.346 86.4465 647.383 87.371C645.778 88.8985 643.933 89.8632 641.606 89.6622C639.198 89.4612 637.553 87.9338 637.594 85.522C637.634 84.0348 638.035 82.5073 638.396 81.0201C639.359 76.8397 640.402 72.6593 641.445 68.1172Z" fill="black"/>
<path d="M515.545 68.117C515.144 69.966 514.783 71.7346 514.422 73.463C514.502 73.5434 514.623 73.5836 514.703 73.664C515.265 72.9807 515.706 72.1768 516.388 71.6542C517.872 70.4483 519.277 68.9611 521.002 68.2777C525.054 66.6297 528.384 69.6042 527.421 73.8248C526.739 76.8797 525.696 79.8542 524.894 82.909C524.733 83.5522 524.813 84.2757 524.813 84.959C525.536 84.7179 526.298 84.6375 526.94 84.2757C527.702 83.7934 528.344 83.11 529.147 82.4267C528.585 85.9639 525.014 89.5012 521.804 89.8227C518.876 90.1041 517.19 88.6571 517.592 85.7228C517.953 83.2306 518.795 80.8189 519.437 78.3669C519.798 76.8797 520.32 75.3924 520.44 73.9052C520.601 72.2169 519.558 71.5738 518.234 72.5787C516.91 73.6238 515.465 74.8699 514.823 76.3973C513.259 80.0551 512.055 83.8737 510.932 87.6924C510.53 89.059 510.089 89.7423 508.564 89.6218C507 89.461 505.395 89.5816 503.75 89.5816C505.435 82.3463 507.08 75.3522 508.725 68.1572C510.651 68.117 513.018 68.117 515.545 68.117Z" fill="black"/>
<path d="M702.309 85.361C703.553 84.4767 704.836 83.5522 706 82.7081C705.839 86.4061 700.985 90.4257 697.294 89.7424C695.488 89.4208 694.846 88.4561 694.485 85.5218C693.362 86.5267 692.359 87.5718 691.235 88.3757C686.942 91.5512 683.051 89.9031 682.288 84.6375C681.526 79.3718 685.538 71.2523 690.192 68.9209C693.241 67.3935 696.291 67.0719 699.099 69.6846C699.42 69.966 700.182 70.0464 700.664 69.8856C702.309 69.3228 703.874 68.6797 705.96 67.8356C704.435 73.7444 702.951 79.3316 701.506 84.8787C701.787 85.0394 702.068 85.2002 702.309 85.361ZM689.149 83.6728C689.39 84.1953 689.59 85.361 690.112 85.562C690.794 85.8032 691.877 85.4414 692.6 84.959C693.362 84.4767 694.084 83.713 694.405 82.8689C695.769 79.412 697.053 75.915 698.176 72.3777C698.658 70.8905 697.254 69.765 695.769 70.3679C695.007 70.6895 694.244 71.2523 693.763 71.9356C691.195 75.312 689.992 79.211 689.149 83.6728Z" fill="black"/>
<path d="M490.59 85.4818C489.427 86.5269 488.343 87.6122 487.14 88.4965C485.334 89.823 483.248 90.4661 481.122 89.421C479.035 88.3759 478.313 86.3259 478.433 84.1955C478.714 77.8848 480.52 72.2574 486.377 68.9211C489.306 67.2329 492.476 67.0721 495.284 69.6848C495.605 69.9662 496.368 70.0064 496.849 69.8456C498.494 69.2829 500.059 68.6397 502.105 67.8358C500.58 73.7848 499.136 79.3318 497.692 84.8789C497.932 85.0396 498.213 85.1602 498.454 85.321C499.698 84.4367 500.981 83.5524 502.185 82.7083C501.984 86.2857 497.33 90.2651 493.679 89.7828C491.673 89.5014 491.112 88.7779 490.59 85.4818ZM485.294 83.7132C485.495 84.1955 485.695 85.3612 486.217 85.5622C486.899 85.8034 487.942 85.4014 488.704 84.9995C489.306 84.6779 489.948 84.0348 490.189 83.4318C491.633 79.7338 493.118 76.0358 494.321 72.2574C494.763 70.8907 493.118 69.7652 491.673 70.4486C490.911 70.8103 490.189 71.4132 489.707 72.0966C487.3 75.4328 485.976 79.2112 485.294 83.7132Z" fill="black"/>
<path d="M591.133 70.2878C592.979 69.5642 594.905 68.8005 597.352 67.8358C595.828 73.7446 594.383 79.2916 592.939 84.8387C593.18 84.9995 593.42 85.1602 593.661 85.321C594.905 84.4367 596.149 83.5926 597.352 82.7485C597.432 86.4867 591.655 91.0288 588.165 89.5014C587.001 88.9788 586.359 87.2102 585.316 85.7632C585.155 85.9642 584.674 86.6475 584.072 87.2102C581.946 89.1798 579.498 90.8681 576.529 89.4612C573.681 88.0945 573.52 85.2406 573.801 82.5073C574.283 77.925 575.887 73.7848 579.258 70.5691C582.909 67.0319 587.603 66.9515 591.133 70.2878ZM580.542 83.7534C580.822 84.2759 581.023 85.3612 581.585 85.6024C582.186 85.8436 583.27 85.4818 583.872 85.0396C584.714 84.4367 585.557 83.5926 585.918 82.6279C587.242 79.2112 588.486 75.7946 589.569 72.2976C590.01 70.9309 588.686 69.8456 587.242 70.328C586.479 70.6093 585.677 71.1319 585.155 71.8152C582.628 75.2319 581.344 79.2112 580.542 83.7534Z" fill="black"/>
<path d="M562.688 70.0868C561.604 70.0065 560.762 69.9261 559.919 69.8859C559.799 69.6849 559.719 69.5241 559.598 69.3231C560.2 68.881 560.882 68.0369 561.444 68.1172C563.33 68.3182 563.771 67.3133 564.212 65.7859C566.499 57.8673 574.644 56.9428 579.98 59.7967C579.539 61.5653 579.057 63.3339 578.536 65.5045C577.693 64.0173 577.131 62.7712 576.369 61.6457C574.965 59.5555 573.159 59.6761 572.196 62.0075C571.434 63.8565 570.953 65.7859 570.271 67.9967C572.397 67.9967 574.283 67.9967 576.168 67.9967C576.289 69.4839 575.807 70.0065 574.483 70.0065C569.629 70.127 569.669 70.1672 568.385 74.9103C567.181 79.4123 566.098 83.9946 564.613 88.4162C562.607 94.4053 557.512 97.7416 551.374 97.2995C551.775 96.8975 552.056 96.6161 552.377 96.375C555.346 94.0838 557.231 91.0691 558.234 87.4917C559.759 82.1456 561.123 76.7996 562.527 71.4535C562.648 71.0515 562.607 70.6496 562.688 70.0868Z" fill="black"/>
<path d="M634.825 61.324C634.344 63.2936 633.782 65.4641 633.18 67.9563C634.946 67.9563 636.631 67.9563 638.276 67.9563C638.476 69.8857 637.473 70.0867 636.189 70.0063C635.066 69.9259 633.943 70.0063 632.619 70.0063C631.335 74.5484 630.051 79.0102 628.887 83.5121C628.526 84.8787 629.489 85.2807 630.492 84.718C631.856 83.9542 633.06 82.869 634.264 81.9846C633.782 85.0797 630.091 89.0993 627.082 89.7023C623.952 90.3454 621.746 88.7375 622.027 85.5621C622.267 82.7886 623.11 80.0954 623.792 77.3621C624.354 74.9906 625.036 72.619 625.678 70.1269C624.675 70.0465 623.912 69.9661 622.749 69.8455C623.15 69.0818 623.31 68.2779 623.792 67.9965C627.483 65.7053 631.174 63.5347 634.825 61.324Z" fill="black"/>
<path d="M618.657 82.1054C616.37 85.8838 613.481 89.1397 608.626 89.8632C605.256 90.3456 602.167 88.6975 601.003 85.6426C598.556 79.4123 602.006 68.3584 612.438 67.9565C614.685 67.8761 616.971 69.0819 619.258 69.6849C618.737 71.7751 618.255 73.8251 617.734 75.9956C617.012 74.428 616.45 72.8604 615.647 71.4133C614.484 69.2427 612.999 68.9614 611.395 70.73C608.345 74.1064 606.901 78.126 607.583 82.7083C607.904 84.9191 609.629 86.0044 611.716 85.2809C614.083 84.477 616.33 83.1907 618.657 82.1054Z" fill="black"/>
<path d="M663.391 89.5414C665.077 82.3463 666.721 75.3523 668.447 68.1572C670.212 68.1572 672.539 68.1572 675.147 68.1572C674.746 70.167 674.344 72.1366 673.863 74.4278C676.471 70.8905 678.477 66.9513 683.974 68.1974C683.011 70.7699 682.168 73.0611 681.326 75.3925C678.276 73.2219 676.07 73.3827 674.385 76.7189C672.7 80.0552 671.656 83.7532 670.613 87.411C670.132 89.0993 669.53 89.7424 667.805 89.5816C666.4 89.4208 664.956 89.5414 663.391 89.5414Z" fill="black"/>
<path d="M321.132 112.918C320.416 115.426 319.772 117.755 319.021 120.442C318.413 119.69 318.02 119.152 317.555 118.651C315.91 116.967 314.444 115.032 312.548 113.67C310.295 112.022 307.255 112.739 305.789 114.853C304.358 116.895 304.787 119.439 307.076 121.302C308.757 122.628 310.617 123.739 312.334 125.029C317.591 128.97 318.199 134.631 313.836 138.967C311.976 140.83 309.723 141.905 307.148 142.371C302.677 143.159 297.384 142.227 293.021 139.827C293.629 137.569 294.237 135.24 294.952 132.517C295.703 133.52 296.168 134.309 296.776 134.918C298.493 136.602 300.138 138.465 302.105 139.827C304.287 141.331 307.148 140.651 308.65 138.752C310.224 136.745 310.152 133.879 308.221 131.908C307.076 130.761 305.682 129.83 304.394 128.827C303.464 128.11 302.463 127.465 301.497 126.748C295.417 122.09 298.457 114.638 303.285 112.38C307.72 110.302 312.262 110.481 316.876 111.592C318.27 111.915 319.629 112.416 321.132 112.918Z" fill="black"/>
<path d="M339.8 137.856C341.124 136.924 342.411 135.957 343.663 135.061C343.627 138.859 338.119 143.23 334.436 142.263C332.898 141.833 331.897 140.185 332.04 138.214C332.075 137.713 332.183 137.247 332.254 136.53C331.145 137.748 330.251 138.859 329.25 139.827C327.641 141.331 325.817 142.442 323.492 142.299C320.989 142.156 319.272 140.436 319.272 137.928C319.272 136.817 319.487 135.67 319.773 134.595C320.989 130.045 322.884 125.602 322.383 120.586C325.173 120.586 327.784 120.586 330.609 120.586C329.393 124.885 328.177 129.113 326.997 133.341C326.747 134.273 326.46 135.204 326.389 136.136C326.246 137.856 327.247 138.537 328.678 137.533C329.822 136.745 330.824 135.67 331.61 134.559C334.221 130.869 335.008 126.462 336.188 122.234C336.582 120.801 337.154 120.299 338.584 120.406C340.158 120.514 341.732 120.442 343.448 120.442C341.91 126.247 340.48 131.801 339.014 137.354C339.335 137.533 339.55 137.677 339.8 137.856Z" fill="black"/>
<path d="M366.087 137.856C367.446 136.888 368.769 135.921 370.414 134.739C369.055 138.142 367.303 140.794 363.977 142.048C360.543 143.302 358.648 141.869 358.362 137.82C357.289 138.823 356.287 139.898 355.179 140.794C353.319 142.263 351.209 143.087 348.884 142.048C346.524 140.973 345.987 138.68 346.059 136.458C346.238 130.941 347.954 125.96 352.318 122.305C354.749 120.299 357.611 119.582 360.722 120.55C361.044 120.657 361.473 120.729 361.616 120.98C363.333 123.38 365.193 121.983 367.052 121.266C367.839 120.944 368.662 120.657 369.878 120.191C368.304 126.211 366.838 131.765 365.371 137.318C365.586 137.533 365.836 137.712 366.087 137.856ZM352.854 136.243C353.069 136.709 353.283 137.856 353.82 138.071C354.499 138.322 355.679 138.071 356.216 137.569C357.289 136.602 358.362 135.455 358.862 134.129C360.114 131.048 361.08 127.859 362.01 124.67C362.367 123.452 361.545 122.592 360.4 122.664C359.506 122.735 358.362 123.237 357.789 123.918C354.964 127.357 353.784 131.55 352.854 136.243Z" fill="black"/>
<path d="M270.133 132.266C269.167 136.387 271.563 138.859 275.426 137.605C277.25 136.996 278.895 135.778 280.576 134.81C280.933 134.595 281.219 134.309 281.684 134.165C280.611 136.853 278.752 138.895 276.391 140.436C275.211 141.188 273.923 141.869 272.564 142.191C266.985 143.589 262.515 139.719 262.765 133.95C263.087 127.035 267.128 122.019 273.745 120.442C275.926 119.941 278.108 120.048 280.182 121.015C283.115 122.377 283.866 125.279 281.97 127.931C280.289 130.224 277.893 131.263 275.211 131.729C273.602 132.015 271.921 132.087 270.133 132.266ZM270.311 130.511C273.566 130.69 276.892 128.182 277.393 125.028C277.536 124.133 276.928 123.094 276.642 122.162C275.747 122.449 274.639 122.485 273.995 123.058C271.885 125.028 270.955 127.716 270.311 130.511Z" fill="black"/>
<path d="M391.729 132.302C391.729 133.019 391.693 133.556 391.729 134.13C391.98 137.283 393.947 138.752 396.986 137.713C399.275 136.924 401.35 135.527 403.567 134.38C403.424 134.201 403.567 134.309 403.531 134.345C401.493 138.358 398.453 141.331 393.982 142.263C388.475 143.445 384.362 139.647 384.576 133.879C384.827 127.107 388.868 121.947 395.449 120.514C397.38 120.084 399.633 120.335 401.528 120.908C405.033 121.983 405.82 125.566 403.388 128.361C401.672 130.332 399.418 131.299 396.915 131.729C395.306 132.016 393.625 132.087 391.729 132.302ZM391.98 130.654C395.949 130.224 398.918 127.895 399.132 124.885C399.204 123.954 398.596 122.986 398.274 122.019C397.38 122.377 396.307 122.521 395.663 123.13C393.625 125.136 392.766 127.788 391.98 130.654Z" fill="black"/>
<path d="M405.069 140.436C405.677 138.286 406.214 136.279 406.857 133.95C407.716 135.133 408.288 136.172 409.075 136.924C410.362 138.143 411.721 139.361 413.223 140.292C414.296 140.973 415.584 140.651 416.406 139.576C417.265 138.393 417.014 137.139 416.084 136.136C415.262 135.24 414.225 134.488 413.295 133.7C412.293 132.875 411.22 132.123 410.291 131.191C406.822 127.752 407.859 122.879 412.436 121.087C416.621 119.439 420.698 120.084 424.989 121.625C424.489 123.595 424.024 125.494 423.487 127.68C422.772 126.713 422.343 125.817 421.663 125.244C420.269 124.061 418.802 122.879 417.193 122.091C416.585 121.804 415.19 122.377 414.582 122.986C413.76 123.81 414.189 124.921 415.011 125.709C415.834 126.462 416.764 127.107 417.658 127.823C418.445 128.468 419.303 129.042 420.054 129.722C422.128 131.693 423.559 133.915 422.558 136.924C421.556 140.042 419.232 141.69 416.12 142.227C412.329 142.944 408.753 142.012 405.069 140.436Z" fill="black"/>
<path d="M376.458 120.55C378.926 120.55 381.358 120.55 384.04 120.55C383.146 123.918 382.359 127.142 381.465 130.331C380.464 133.914 379.605 137.569 378.318 141.045C376.386 146.132 371.415 149.25 366.265 149.106C366.051 149.106 365.872 149.071 365.443 149.035C365.693 148.712 365.765 148.497 365.908 148.426C369.627 145.846 371.666 142.155 372.81 137.856C373.74 134.308 374.777 130.761 375.6 127.178C376.065 125.028 376.172 122.807 376.458 120.55Z" fill="black"/>
<path d="M378.032 114.674C378.032 112.058 380.607 109.407 383.217 109.371C385.077 109.335 386.579 110.876 386.436 112.739C386.257 115.068 384.004 117.504 381.68 117.827C379.569 118.149 378.067 116.859 378.032 114.674Z" fill="black"/>
<path d="M255.724 78.6103C257.13 76.5143 258.502 74.4183 259.908 72.288C262.515 68.3021 265.121 64.3163 267.659 60.2961C268.242 59.334 268.894 58.9904 269.991 59.0248C272.118 59.0935 274.278 59.0591 276.576 59.0591C272.426 68.6114 269.477 78.3698 267.556 88.6093C264.881 88.6093 262 88.6093 259.256 88.6093C261.692 81.2904 264.161 73.8686 266.63 66.481C266.459 66.4123 266.287 66.3092 266.082 66.2405C264.23 69.0237 262.412 71.8413 260.56 74.6245C257.782 78.8852 254.969 83.1116 252.26 87.4066C251.54 88.5405 250.717 89.1247 249.173 88.4718C248.556 80.9812 247.904 73.3875 247.287 65.8282C247.184 65.7938 247.047 65.7938 246.944 65.7595C246.43 67.5118 245.846 69.2299 245.366 70.9823C243.823 76.4112 241.628 81.7371 242.348 87.5784C242.383 87.922 241.662 88.6436 241.285 88.678C239.673 88.8154 238.061 88.7467 236.141 88.7467C241.628 79.5381 244.543 69.7796 245.778 59.1966C248.076 59.1966 250.751 59.1966 253.632 59.1966C254.215 65.5877 254.764 72.0131 255.347 78.4042C255.45 78.4729 255.587 78.5416 255.724 78.6103Z" fill="black"/>
<path d="M313.754 69.8485C313.891 67.7181 315.297 67.6494 316.909 67.7525C318.521 67.8212 320.099 67.7869 321.436 67.7869C319.962 72.6661 318.418 77.4078 317.115 82.2183C315.846 86.9601 314.817 91.8049 313.617 96.8216C311.696 96.8216 309.33 96.8216 306.586 96.8216C307.649 92.767 308.678 88.8156 309.741 84.761C308.404 85.8949 307.238 87.1319 305.866 88.0253C302.024 90.5336 298.389 88.8843 298.012 84.3143C297.532 78.6448 299.486 73.7656 303.636 69.9172C306.895 66.8248 310.016 66.9279 313.754 69.8485ZM304.494 83.1804C304.734 83.5927 304.974 84.7266 305.557 84.9328C306.209 85.139 307.238 84.6236 307.923 84.1425C308.575 83.6958 309.227 82.9743 309.535 82.2183C310.633 79.4695 311.628 76.6519 312.622 73.8343C313.034 72.6661 313.342 71.1886 312.005 70.8106C311.147 70.5701 309.57 71.2229 308.918 71.9789C306.346 75.037 305.111 78.7479 304.494 83.1804Z" fill="black"/>
<path d="M341.568 84.6576C342.837 83.7643 344.106 82.8365 345.307 81.9775C344.998 84.9325 341.671 88.4373 338.688 88.9184C335.635 89.3994 334.092 88.1281 334.023 85.0356C334.023 84.7264 334.023 84.3828 334.023 83.7299C333.097 84.7264 332.411 85.551 331.622 86.307C330.045 87.8188 328.296 89.0214 325.929 88.9184C323.014 88.8153 321.093 86.5475 321.642 83.6612C321.951 82.0119 322.568 80.3969 322.945 78.7476C323.734 75.2085 324.489 71.6693 325.278 67.924C327.37 67.924 329.839 67.924 332.651 67.924C331.451 72.1504 330.319 76.2049 329.187 80.2595C328.947 81.1185 328.639 82.0119 328.57 82.9053C328.536 83.455 328.776 84.314 329.187 84.5546C329.599 84.7951 330.525 84.6233 330.937 84.2797C332 83.3519 333.269 82.3898 333.817 81.1872C335.326 77.6824 336.733 74.1089 337.796 70.4324C338.379 68.4051 339.168 67.443 341.328 67.7522C342.46 67.924 343.661 67.7866 345.135 67.7866C343.661 73.4217 342.254 78.8163 340.848 84.2453C341.123 84.3484 341.328 84.5202 341.568 84.6576Z" fill="black"/>
<path d="M394.008 84.658C395.243 83.7646 396.443 82.9056 397.678 82.0122C397.266 85.4483 393.322 89.0561 389.995 89.0218C387.629 89.0218 386.806 88.0597 386.394 84.7954C385.262 85.7919 384.268 86.8571 383.102 87.7161C378.883 90.7742 375.042 88.9874 374.562 83.8333C374.047 78.1638 377.717 70.8107 382.313 68.5772C385.228 67.1684 388.178 66.8935 390.853 69.3331C391.196 69.6424 392.053 69.6768 392.533 69.5393C394.111 69.0239 395.62 68.371 397.575 67.5808C396.066 73.3877 394.66 78.7823 393.219 84.1769C393.494 84.3487 393.768 84.4862 394.008 84.658ZM381.181 83.1117C381.421 83.5584 381.661 84.7267 382.244 84.9329C382.896 85.139 383.891 84.6236 384.611 84.1769C385.194 83.8333 385.777 83.2148 386.017 82.5963C387.389 79.0572 388.761 75.4837 389.927 71.8758C390.338 70.6388 389.069 69.5737 387.766 70.0204C387.011 70.2609 386.223 70.7763 385.743 71.4291C383.205 74.6934 381.936 78.5761 381.181 83.1117Z" fill="black"/>
<path d="M284.362 85.3105C282.338 86.5131 280.452 88.0593 278.257 88.884C275.685 89.8117 273.524 88.2999 272.769 85.6197C271.329 80.4657 274.724 71.9099 279.32 69.0579C282.75 66.9619 285.528 67.0994 288.855 69.4359C289.232 69.7108 289.952 69.7108 290.398 69.539C291.976 69.0236 293.519 68.3707 295.508 67.5804C293.999 73.353 292.593 78.7476 291.152 84.1422C291.358 84.314 291.598 84.4858 291.804 84.6576C293.107 83.7643 294.376 82.8709 295.988 81.7714C294.651 85.07 292.936 87.6127 289.815 88.7466C286.625 89.8805 284.945 88.6778 284.362 85.3105ZM279.114 83.0427C279.354 83.5581 279.56 84.692 280.075 84.8638C280.761 85.07 281.721 84.6233 282.475 84.2453C282.956 84.0048 283.47 83.5237 283.676 83.0083C285.116 79.2974 286.625 75.5864 287.86 71.7724C288.271 70.4667 287.174 69.6764 285.871 69.9513C285.116 70.1231 284.293 70.6385 283.813 71.257C281.138 74.6243 279.972 78.5758 279.114 83.0427Z" fill="black"/>
<path d="M424.361 69.436C426.315 68.9893 428.545 68.4395 431.323 67.821C430.671 70.0888 430.225 71.9443 429.574 73.7654C426.796 81.4966 422.954 88.5405 416.267 93.5915C412.46 96.4778 408.173 97.5773 403.165 96.2029C404.228 93.9695 405.257 91.9078 406.355 89.6057C406.904 90.2929 407.247 90.9801 407.795 91.3237C408.927 92.0109 410.093 92.8356 411.362 93.0417C413.42 93.3853 413.934 92.8356 413.832 90.7396C413.591 85.7229 413.386 80.7063 413.043 75.724C412.974 74.7275 412.357 73.7311 411.979 72.769C411.019 73.2157 410.059 73.5936 409.133 74.109C408.756 74.3152 408.481 74.6932 408.07 75.0711C408.31 72.0474 412.288 68.4739 414.38 68.1303C416.541 67.7523 418.016 68.5083 418.599 70.8791C419.182 73.3531 419.49 75.8614 419.731 78.4041C420.005 81.1186 420.108 83.8331 420.279 86.8912C422.303 84.3141 423.366 81.4966 423.846 78.6446C424.292 75.6896 424.189 72.6659 424.361 69.436Z" fill="black"/>
<path d="M367.6 58.7157C369.52 58.5095 371.921 58.269 374.665 57.9941C372.333 66.8935 370.035 75.5524 367.737 84.2113C367.943 84.3144 368.183 84.4518 368.389 84.5549C369.109 84.1769 369.829 83.8333 370.481 83.3523C371.098 82.9056 371.612 82.3214 372.264 81.703C371.784 84.8298 368.629 88.2658 365.885 88.85C362.318 89.5715 360.294 87.4755 361.152 83.9364C361.598 82.1153 362.112 80.2942 362.592 78.4731C364.239 71.9789 365.885 65.4848 367.6 58.7157Z" fill="black"/>
<path d="M358.717 67.9244C357.208 73.4564 355.767 78.7823 354.292 84.1082C354.533 84.28 354.773 84.4518 355.013 84.5893C356.282 83.6959 357.516 82.8025 358.751 81.9435C358.374 85.2421 354.738 88.7813 351.549 88.9187C349.011 89.0562 347.673 87.8879 347.776 85.3796C347.845 83.7646 348.256 82.184 348.634 80.6034C349.594 76.4458 350.623 72.3225 351.72 67.89C353.607 67.9244 356.007 67.9244 358.717 67.9244Z" fill="black"/>
<path d="M353.161 62.186C353.195 59.7464 355.836 57.1693 358.271 57.1693C359.951 57.1693 361.358 58.6125 361.323 60.2961C361.255 62.8388 358.58 65.4159 356.076 65.3471C354.258 65.3128 353.126 64.0758 353.161 62.186Z" fill="black"/>
</svg>
