<svg width="365" height="70" viewBox="0 0 365 70" fill="none" xmlns="http://www.w3.org/2000/svg">
<mask id="path-1-outside-1_235_7" maskUnits="userSpaceOnUse" x="-1" y="-1" width="367" height="72" fill="black">
<rect fill="white" x="-1" y="-1" width="367" height="72"/>
<path d="M0.314631 57.4943V46.5959L27.6406 3.54545H37.0369V18.6307H31.4759L14.2493 45.8928V46.4041H53.081V57.4943H0.314631ZM31.7315 69V54.1705L31.9872 49.3445V3.54545H44.9631V69H31.7315ZM61.3107 57.4943V46.5959L88.6367 3.54545H98.033V18.6307H92.4719L75.2454 45.8928V46.4041H114.077V57.4943H61.3107ZM92.7276 69V54.1705L92.9833 49.3445V3.54545H105.959V69H92.7276ZM155.793 69H140.964L163.559 3.54545H181.393L203.957 69H189.128L172.732 18.5028H172.221L155.793 69ZM154.866 43.272H189.895V54.0746H154.866V43.272ZM225.195 40.6193V69H211.58V19.9091H224.556V28.5703H225.131C226.218 25.7152 228.039 23.4567 230.596 21.7947C233.153 20.1115 236.253 19.2699 239.896 19.2699C243.306 19.2699 246.278 20.0156 248.813 21.5071C251.349 22.9986 253.32 25.1293 254.726 27.8991C256.132 30.6477 256.835 33.929 256.835 37.7429V69H243.22V40.1719C243.242 37.1676 242.475 34.8239 240.919 33.1406C239.364 31.4361 237.222 30.5838 234.495 30.5838C232.663 30.5838 231.044 30.978 229.637 31.7663C228.252 32.5547 227.166 33.7053 226.377 35.218C225.61 36.7095 225.216 38.5099 225.195 40.6193ZM225.035 13.8686L217.46 13.7727C217.46 9.70313 218.462 6.58168 220.465 4.40838C222.489 2.23508 224.95 1.13778 227.847 1.11648C229.339 1.11648 230.617 1.36151 231.683 1.85156C232.769 2.32031 233.739 2.87429 234.591 3.51349C235.465 4.1527 236.296 4.71733 237.084 5.20739C237.872 5.67614 238.725 5.91051 239.641 5.91051C240.877 5.8892 241.814 5.43111 242.453 4.53622C243.114 3.62003 243.444 2.42684 243.444 0.956676L250.891 1.18039C250.848 5.20738 249.825 8.31818 247.823 10.5128C245.82 12.6861 243.38 13.7834 240.504 13.8047C238.906 13.8047 237.563 13.5703 236.477 13.1016C235.411 12.6115 234.474 12.0575 233.664 11.4396C232.855 10.8004 232.066 10.2358 231.299 9.74574C230.532 9.25568 229.669 9.01065 228.71 9.01065C227.602 9.01065 226.708 9.44744 226.026 10.321C225.365 11.1946 225.035 12.3771 225.035 13.8686ZM289.746 69.9588C284.782 69.9588 280.489 68.9041 276.866 66.7947C273.266 64.6641 270.485 61.7024 268.525 57.9098C266.565 54.0959 265.585 49.6747 265.585 44.6463C265.585 39.5753 266.565 35.1435 268.525 31.3509C270.485 27.5369 273.266 24.5753 276.866 22.4659C280.489 20.3352 284.782 19.2699 289.746 19.2699C294.711 19.2699 298.994 20.3352 302.594 22.4659C306.217 24.5753 309.008 27.5369 310.968 31.3509C312.928 35.1435 313.908 39.5753 313.908 44.6463C313.908 49.6747 312.928 54.0959 310.968 57.9098C309.008 61.7024 306.217 64.6641 302.594 66.7947C298.994 68.9041 294.711 69.9588 289.746 69.9588ZM289.81 59.4119C292.069 59.4119 293.955 58.7727 295.467 57.4943C296.98 56.1946 298.12 54.4261 298.887 52.1889C299.675 49.9517 300.07 47.4055 300.07 44.5504C300.07 41.6953 299.675 39.1491 298.887 36.9119C298.12 34.6747 296.98 32.9062 295.467 31.6065C293.955 30.3068 292.069 29.657 289.81 29.657C287.531 29.657 285.613 30.3068 284.058 31.6065C282.523 32.9062 281.362 34.6747 280.574 36.9119C279.807 39.1491 279.423 41.6953 279.423 44.5504C279.423 47.4055 279.807 49.9517 280.574 52.1889C281.362 54.4261 282.523 56.1946 284.058 57.4943C285.613 58.7727 287.531 59.4119 289.81 59.4119ZM363.607 33.9077L351.142 34.6747C350.929 33.6094 350.471 32.6506 349.768 31.7983C349.065 30.9247 348.138 30.2322 346.987 29.7209C345.858 29.1882 344.505 28.9219 342.928 28.9219C340.819 28.9219 339.04 29.3693 337.591 30.2642C336.142 31.1378 335.418 32.3097 335.418 33.7798C335.418 34.9517 335.886 35.9425 336.824 36.7521C337.761 37.5618 339.37 38.2116 341.65 38.7017L350.535 40.4915C355.308 41.4716 358.866 43.0483 361.21 45.2216C363.553 47.3949 364.725 50.25 364.725 53.7869C364.725 57.0043 363.777 59.8274 361.881 62.2564C360.006 64.6854 357.428 66.5817 354.146 67.9453C350.886 69.2876 347.126 69.9588 342.864 69.9588C336.366 69.9588 331.188 68.6058 327.332 65.8999C323.496 63.1726 321.249 59.4652 320.588 54.7777L333.979 54.0746C334.384 56.0561 335.364 57.5689 336.92 58.6129C338.475 59.6357 340.467 60.147 342.896 60.147C345.283 60.147 347.2 59.6889 348.649 58.7727C350.119 57.8352 350.865 56.6314 350.886 55.1612C350.865 53.9254 350.343 52.9134 349.32 52.125C348.298 51.3153 346.721 50.6974 344.59 50.2713L336.089 48.5774C331.295 47.6186 327.726 45.9567 325.382 43.5916C323.06 41.2266 321.898 38.2116 321.898 34.5469C321.898 31.3935 322.751 28.6768 324.455 26.397C326.181 24.1172 328.599 22.3594 331.71 21.1236C334.842 19.8878 338.507 19.2699 342.705 19.2699C348.905 19.2699 353.784 20.5803 357.342 23.201C360.922 25.8217 363.01 29.3906 363.607 33.9077Z"/>
</mask>
<path d="M0.314631 57.4943H-0.685369V58.4943H0.314631V57.4943ZM0.314631 46.5959L-0.529649 46.06L-0.685369 46.3053V46.5959H0.314631ZM27.6406 3.54545V2.54545H27.0909L26.7963 3.00955L27.6406 3.54545ZM37.0369 3.54545H38.0369V2.54545H37.0369V3.54545ZM37.0369 18.6307V19.6307H38.0369V18.6307H37.0369ZM31.4759 18.6307V17.6307H30.9248L30.6305 18.0965L31.4759 18.6307ZM14.2493 45.8928L13.4039 45.3586L13.2493 45.6033V45.8928H14.2493ZM14.2493 46.4041H13.2493V47.4041H14.2493V46.4041ZM53.081 46.4041H54.081V45.4041H53.081V46.4041ZM53.081 57.4943V58.4943H54.081V57.4943H53.081ZM31.7315 69H30.7315V70H31.7315V69ZM31.7315 54.1705L30.7329 54.1175L30.7315 54.144V54.1705H31.7315ZM31.9872 49.3445L32.9858 49.3974L32.9872 49.3709V49.3445H31.9872ZM31.9872 3.54545V2.54545H30.9872V3.54545H31.9872ZM44.9631 3.54545H45.9631V2.54545H44.9631V3.54545ZM44.9631 69V70H45.9631V69H44.9631ZM1.31463 57.4943V46.5959H-0.685369V57.4943H1.31463ZM1.15891 47.1318L28.4849 4.08135L26.7963 3.00955L-0.529649 46.06L1.15891 47.1318ZM27.6406 4.54545H37.0369V2.54545H27.6406V4.54545ZM36.0369 3.54545V18.6307H38.0369V3.54545H36.0369ZM37.0369 17.6307H31.4759V19.6307H37.0369V17.6307ZM30.6305 18.0965L13.4039 45.3586L15.0947 46.4269L32.3212 19.1649L30.6305 18.0965ZM13.2493 45.8928V46.4041H15.2493V45.8928H13.2493ZM14.2493 47.4041H53.081V45.4041H14.2493V47.4041ZM52.081 46.4041V57.4943H54.081V46.4041H52.081ZM53.081 56.4943H0.314631V58.4943H53.081V56.4943ZM32.7315 69V54.1705H30.7315V69H32.7315ZM32.7301 54.2234L32.9858 49.3974L30.9886 49.2916L30.7329 54.1175L32.7301 54.2234ZM32.9872 49.3445V3.54545H30.9872V49.3445H32.9872ZM31.9872 4.54545H44.9631V2.54545H31.9872V4.54545ZM43.9631 3.54545V69H45.9631V3.54545H43.9631ZM44.9631 68H31.7315V70H44.9631V68ZM61.3107 57.4943H60.3107V58.4943H61.3107V57.4943ZM61.3107 46.5959L60.4664 46.06L60.3107 46.3053V46.5959H61.3107ZM88.6367 3.54545V2.54545H88.087L87.7924 3.00955L88.6367 3.54545ZM98.033 3.54545H99.033V2.54545H98.033V3.54545ZM98.033 18.6307V19.6307H99.033V18.6307H98.033ZM92.4719 18.6307V17.6307H91.9209L91.6266 18.0965L92.4719 18.6307ZM75.2454 45.8928L74.4 45.3586L74.2454 45.6033V45.8928H75.2454ZM75.2454 46.4041H74.2454V47.4041H75.2454V46.4041ZM114.077 46.4041H115.077V45.4041H114.077V46.4041ZM114.077 57.4943V58.4943H115.077V57.4943H114.077ZM92.7276 69H91.7276V70H92.7276V69ZM92.7276 54.1705L91.729 54.1175L91.7276 54.144V54.1705H92.7276ZM92.9833 49.3445L93.9819 49.3974L93.9833 49.3709V49.3445H92.9833ZM92.9833 3.54545V2.54545H91.9833V3.54545H92.9833ZM105.959 3.54545H106.959V2.54545H105.959V3.54545ZM105.959 69V70H106.959V69H105.959ZM62.3107 57.4943V46.5959H60.3107V57.4943H62.3107ZM62.155 47.1318L89.481 4.08135L87.7924 3.00955L60.4664 46.06L62.155 47.1318ZM88.6367 4.54545H98.033V2.54545H88.6367V4.54545ZM97.033 3.54545V18.6307H99.033V3.54545H97.033ZM98.033 17.6307H92.4719V19.6307H98.033V17.6307ZM91.6266 18.0965L74.4 45.3586L76.0908 46.4269L93.3173 19.1649L91.6266 18.0965ZM74.2454 45.8928V46.4041H76.2454V45.8928H74.2454ZM75.2454 47.4041H114.077V45.4041H75.2454V47.4041ZM113.077 46.4041V57.4943H115.077V46.4041H113.077ZM114.077 56.4943H61.3107V58.4943H114.077V56.4943ZM93.7276 69V54.1705H91.7276V69H93.7276ZM93.7262 54.2234L93.9819 49.3974L91.9847 49.2916L91.729 54.1175L93.7262 54.2234ZM93.9833 49.3445V3.54545H91.9833V49.3445H93.9833ZM92.9833 4.54545H105.959V2.54545H92.9833V4.54545ZM104.959 3.54545V69H106.959V3.54545H104.959ZM105.959 68H92.7276V70H105.959V68ZM155.793 69V70H156.519L156.744 69.3094L155.793 69ZM140.964 69L140.018 68.6737L139.56 70H140.964V69ZM163.559 3.54545V2.54545H162.847L162.614 3.21914L163.559 3.54545ZM181.393 3.54545L182.339 3.21955L182.106 2.54545H181.393V3.54545ZM203.957 69V70H205.36L204.903 68.6741L203.957 69ZM189.128 69L188.177 69.3088L188.401 70H189.128V69ZM172.732 18.5028L173.683 18.194L173.459 17.5028H172.732V18.5028ZM172.221 18.5028V17.5028H171.494L171.27 18.1935L172.221 18.5028ZM154.866 43.272V42.272H153.866V43.272H154.866ZM189.895 43.272H190.895V42.272H189.895V43.272ZM189.895 54.0746V55.0746H190.895V54.0746H189.895ZM154.866 54.0746H153.866V55.0746H154.866V54.0746ZM155.793 68H140.964V70H155.793V68ZM141.909 69.3263L164.505 3.87177L162.614 3.21914L140.018 68.6737L141.909 69.3263ZM163.559 4.54545H181.393V2.54545H163.559V4.54545ZM180.448 3.87136L203.012 69.3259L204.903 68.6741L182.339 3.21955L180.448 3.87136ZM203.957 68H189.128V70H203.957V68ZM190.079 68.6912L173.683 18.194L171.781 18.8117L188.177 69.3088L190.079 68.6912ZM172.732 17.5028H172.221V19.5028H172.732V17.5028ZM171.27 18.1935L154.842 68.6906L156.744 69.3094L173.172 18.8122L171.27 18.1935ZM154.866 44.272H189.895V42.272H154.866V44.272ZM188.895 43.272V54.0746H190.895V43.272H188.895ZM189.895 53.0746H154.866V55.0746H189.895V53.0746ZM155.866 54.0746V43.272H153.866V54.0746H155.866ZM225.195 40.6193L224.195 40.6092V40.6193H225.195ZM225.195 69V70H226.195V69H225.195ZM211.58 69H210.58V70H211.58V69ZM211.58 19.9091V18.9091H210.58V19.9091H211.58ZM224.556 19.9091H225.556V18.9091H224.556V19.9091ZM224.556 28.5703H223.556V29.5703H224.556V28.5703ZM225.131 28.5703V29.5703H225.82L226.065 28.926L225.131 28.5703ZM230.596 21.7947L231.141 22.6332L231.146 22.63L230.596 21.7947ZM254.726 27.8991L253.834 28.3518L253.836 28.3546L254.726 27.8991ZM256.835 69V70H257.835V69H256.835ZM243.22 69H242.22V70H243.22V69ZM243.22 40.1719L242.22 40.1648V40.1719H243.22ZM240.919 33.1406L240.181 33.8147L240.185 33.8193L240.919 33.1406ZM229.637 31.7663L229.148 30.894L229.143 30.8973L229.637 31.7663ZM226.377 35.218L225.49 34.7559L225.488 34.7607L226.377 35.218ZM225.035 13.8686L225.022 14.8685L226.035 14.8813V13.8686H225.035ZM217.46 13.7727H216.46V14.7601L217.448 14.7726L217.46 13.7727ZM220.465 4.40838L219.733 3.72682L219.729 3.7307L220.465 4.40838ZM227.847 1.11648V0.116449L227.84 0.116503L227.847 1.11648ZM231.683 1.85156L231.265 2.76005L231.276 2.76504L231.287 2.76977L231.683 1.85156ZM234.591 3.51349L233.991 4.31355L234.001 4.32052L234.591 3.51349ZM237.084 5.20739L236.556 6.05667L236.564 6.06188L236.573 6.06692L237.084 5.20739ZM239.641 5.91051V6.91051H239.649L239.658 6.91036L239.641 5.91051ZM242.453 4.53622L241.642 3.95141L241.64 3.95498L242.453 4.53622ZM243.444 0.956676L243.474 -0.0428734L242.444 -0.0738182V0.956676H243.444ZM250.891 1.18039L251.891 1.19098L251.901 0.210295L250.921 0.180843L250.891 1.18039ZM247.823 10.5128L248.558 11.1905L248.561 11.1869L247.823 10.5128ZM240.504 13.8047V14.8047L240.511 14.8047L240.504 13.8047ZM236.477 13.1016L236.059 14.0101L236.07 14.015L236.081 14.0198L236.477 13.1016ZM233.664 11.4396L233.045 12.2245L233.051 12.2296L233.058 12.2346L233.664 11.4396ZM226.026 10.321L225.237 9.70575L225.233 9.71179L225.228 9.71791L226.026 10.321ZM224.195 40.6193V69H226.195V40.6193H224.195ZM225.195 68H211.58V70H225.195V68ZM212.58 69V19.9091H210.58V69H212.58ZM211.58 20.9091H224.556V18.9091H211.58V20.9091ZM223.556 19.9091V28.5703H225.556V19.9091H223.556ZM224.556 29.5703H225.131V27.5703H224.556V29.5703ZM226.065 28.926C227.077 26.2687 228.762 24.1794 231.141 22.6332L230.051 20.9563C227.316 22.734 225.358 25.1617 224.196 28.2146L226.065 28.926ZM231.146 22.63C233.511 21.0733 236.411 20.2699 239.896 20.2699V18.2699C236.095 18.2699 232.795 19.1497 230.046 20.9595L231.146 22.63ZM239.896 20.2699C243.156 20.2699 245.948 20.9815 248.306 22.369L249.32 20.6452C246.608 19.0498 243.455 18.2699 239.896 18.2699V20.2699ZM248.306 22.369C250.668 23.7581 252.51 25.7423 253.834 28.3518L255.618 27.4465C254.13 24.5162 252.03 22.239 249.32 20.6452L248.306 22.369ZM253.836 28.3546C255.155 30.9329 255.835 34.0507 255.835 37.7429H257.835C257.835 33.8072 257.11 30.3626 255.616 27.4437L253.836 28.3546ZM255.835 37.7429V69H257.835V37.7429H255.835ZM256.835 68H243.22V70H256.835V68ZM244.22 69V40.1719H242.22V69H244.22ZM244.22 40.179C244.243 37.002 243.43 34.3839 241.654 32.462L240.185 33.8193C241.52 35.2638 242.24 37.3333 242.22 40.1648L244.22 40.179ZM241.658 32.4666C239.878 30.5165 237.448 29.5838 234.495 29.5838V31.5838C236.997 31.5838 238.849 32.3557 240.181 33.8147L241.658 32.4666ZM234.495 29.5838C232.515 29.5838 230.723 30.0111 229.148 30.8941L230.126 32.6386C231.364 31.9449 232.81 31.5838 234.495 31.5838V29.5838ZM229.143 30.8973C227.579 31.7875 226.361 33.0852 225.49 34.7559L227.264 35.6802C227.97 34.3253 228.926 33.3219 230.132 32.6354L229.143 30.8973ZM225.488 34.7607C224.634 36.4216 224.217 38.3833 224.195 40.6092L226.195 40.6294C226.215 38.6366 226.587 36.9974 227.267 35.6754L225.488 34.7607ZM225.048 12.8687L217.473 12.7728L217.448 14.7726L225.022 14.8685L225.048 12.8687ZM218.46 13.7727C218.46 9.85874 219.423 7.01479 221.2 5.08606L219.729 3.7307C217.501 6.14856 216.46 9.54751 216.46 13.7727H218.46ZM221.196 5.08993C223.038 3.11221 225.24 2.13568 227.855 2.11645L227.84 0.116503C224.66 0.139889 221.939 1.35796 219.733 3.72683L221.196 5.08993ZM227.847 2.11648C229.233 2.11648 230.361 2.34434 231.265 2.76005L232.101 0.943071C230.874 0.378674 229.445 0.116476 227.847 0.116476V2.11648ZM231.287 2.76977C232.309 3.2107 233.208 3.72648 233.991 4.31349L235.191 2.71349C234.269 2.02209 233.23 1.42993 232.079 0.933352L231.287 2.76977ZM234.001 4.32052C234.891 4.97223 235.743 5.55136 236.556 6.05667L237.612 4.3581C236.848 3.8833 236.038 3.33317 235.182 2.70646L234.001 4.32052ZM236.573 6.06692C237.516 6.62751 238.545 6.91051 239.641 6.91051V4.91051C238.905 4.91051 238.229 4.72477 237.595 4.34785L236.573 6.06692ZM239.658 6.91036C241.166 6.88437 242.419 6.30484 243.267 5.11745L241.64 3.95498C241.209 4.55737 240.588 4.89404 239.624 4.91066L239.658 6.91036ZM243.264 5.12102C244.08 3.98964 244.444 2.57365 244.444 0.956676H242.444C242.444 2.28004 242.148 3.25041 241.642 3.95142L243.264 5.12102ZM243.414 1.95622L250.861 2.17994L250.921 0.180843L243.474 -0.0428734L243.414 1.95622ZM249.891 1.16981C249.85 5.03927 248.87 7.88166 247.084 9.83868L248.561 11.1869C250.781 8.75469 251.846 5.3755 251.891 1.19098L249.891 1.16981ZM247.087 9.8351C245.266 11.8112 243.087 12.7855 240.496 12.8047L240.511 14.8047C243.673 14.7812 246.373 13.561 248.558 11.1905L247.087 9.8351ZM240.504 12.8047C238.997 12.8047 237.799 12.5828 236.873 12.1834L236.081 14.0198C237.328 14.5578 238.814 14.8047 240.504 14.8047V12.8047ZM236.895 12.1931C235.886 11.7293 235.014 11.2118 234.271 10.6447L233.058 12.2346C233.934 12.9033 234.936 13.4937 236.059 14.0101L236.895 12.1931ZM234.284 10.6547C233.451 9.99759 232.636 9.41318 231.838 8.90304L230.761 10.5884C231.496 11.0584 232.258 11.6033 233.045 12.2245L234.284 10.6547ZM231.838 8.90304C230.901 8.30466 229.849 8.01065 228.71 8.01065V10.0107C229.489 10.0107 230.163 10.2067 230.761 10.5884L231.838 8.90304ZM228.71 8.01065C227.294 8.01065 226.109 8.58942 225.237 9.70575L226.814 10.9363C227.306 10.3055 227.911 10.0107 228.71 10.0107V8.01065ZM225.228 9.71791C224.396 10.8183 224.035 12.2371 224.035 13.8686H226.035C226.035 12.5171 226.334 11.5709 226.823 10.9241L225.228 9.71791ZM276.866 66.7947L276.357 67.6554L276.363 67.6589L276.866 66.7947ZM268.525 57.9098L267.635 58.3669L267.637 58.3689L268.525 57.9098ZM268.525 31.3509L269.413 31.81L269.414 31.808L268.525 31.3509ZM276.866 22.4659L277.372 23.3288L277.374 23.3278L276.866 22.4659ZM302.594 22.4659L302.085 23.3265L302.091 23.3301L302.594 22.4659ZM310.968 31.3509L310.079 31.808L310.08 31.81L310.968 31.3509ZM310.968 57.9098L311.856 58.3689L311.857 58.3669L310.968 57.9098ZM302.594 66.7947L303.1 67.6576L303.101 67.6567L302.594 66.7947ZM295.467 57.4943L296.113 58.2581L296.119 58.2528L295.467 57.4943ZM298.887 52.1889L297.944 51.8566L297.941 51.8646L298.887 52.1889ZM298.887 36.9119L297.941 37.2363L297.944 37.2443L298.887 36.9119ZM284.058 31.6065L283.416 30.8392L283.411 30.8435L284.058 31.6065ZM280.574 36.9119L279.631 36.5796L279.628 36.5876L280.574 36.9119ZM280.574 52.1889L279.628 52.5133L279.631 52.5213L280.574 52.1889ZM284.058 57.4943L283.411 58.2573L283.417 58.2621L283.423 58.2669L284.058 57.4943ZM289.746 68.9588C284.926 68.9588 280.813 67.9358 277.37 65.9306L276.363 67.6589C280.164 69.8724 284.638 70.9588 289.746 70.9588V68.9588ZM277.376 65.9341C273.94 63.9011 271.289 61.0801 269.413 57.4506L267.637 58.3689C269.681 62.3247 272.591 65.4271 276.357 67.6554L277.376 65.9341ZM269.414 57.4527C267.538 53.8027 266.585 49.5431 266.585 44.6463H264.585C264.585 49.8063 265.591 54.3891 267.635 58.3669L269.414 57.4527ZM266.585 44.6463C266.585 39.7052 267.539 35.4363 269.413 31.81L267.637 30.8917C265.59 34.8506 264.585 39.4454 264.585 44.6463H266.585ZM269.414 31.808C271.29 28.1581 273.94 25.3394 277.372 23.3288L276.361 21.6031C272.592 23.8112 269.68 26.9158 267.635 30.8937L269.414 31.808ZM277.374 23.3278C280.816 21.3028 284.928 20.2699 289.746 20.2699V18.2699C284.636 18.2699 280.161 19.3677 276.359 21.604L277.374 23.3278ZM289.746 20.2699C294.565 20.2699 298.665 21.3028 302.085 23.3265L303.104 21.6053C299.322 19.3676 294.856 18.2699 289.746 18.2699V20.2699ZM302.091 23.3301C305.544 25.3411 308.204 28.1597 310.079 31.808L311.857 30.8937C309.812 26.9142 306.889 23.8095 303.098 21.6018L302.091 23.3301ZM310.08 31.81C311.954 35.4363 312.908 39.7052 312.908 44.6463H314.908C314.908 39.4454 313.903 34.8506 311.856 30.8917L310.08 31.81ZM312.908 44.6463C312.908 49.5431 311.955 53.8027 310.079 57.4527L311.857 58.3669C313.902 54.3891 314.908 49.8063 314.908 44.6463H312.908ZM310.08 57.4507C308.205 61.0786 305.544 63.8993 302.087 65.9328L303.101 67.6567C306.889 65.4288 309.811 62.3263 311.856 58.3689L310.08 57.4507ZM302.089 65.9319C298.668 67.9358 294.567 68.9588 289.746 68.9588V70.9588C294.855 70.9588 299.319 69.8725 303.1 67.6576L302.089 65.9319ZM289.81 60.4119C292.27 60.4119 294.394 59.7103 296.113 58.2581L294.822 56.7305C293.515 57.8352 291.868 58.4119 289.81 58.4119V60.4119ZM296.119 58.2528C297.79 56.8172 299.019 54.8873 299.833 52.5132L297.941 51.8646C297.221 53.965 296.17 55.572 294.816 56.7358L296.119 58.2528ZM299.83 52.5213C300.663 50.1581 301.07 47.4964 301.07 44.5504H299.07C299.07 47.3147 298.688 49.7454 297.944 51.8566L299.83 52.5213ZM301.07 44.5504C301.07 41.6045 300.663 38.9428 299.83 36.5796L297.944 37.2443C298.688 39.3555 299.07 41.7861 299.07 44.5504H301.07ZM299.833 36.5876C299.019 34.2135 297.79 32.2836 296.119 30.848L294.816 32.365C296.17 33.5289 297.221 35.1359 297.941 37.2363L299.833 36.5876ZM296.119 30.848C294.401 29.3718 292.274 28.657 289.81 28.657V30.657C291.864 30.657 293.508 31.2418 294.816 32.365L296.119 30.848ZM289.81 28.657C287.327 28.657 285.174 29.3704 283.416 30.8392L284.699 32.3739C286.052 31.2433 287.734 30.657 289.81 30.657V28.657ZM283.411 30.8435C281.719 32.2771 280.467 34.2053 279.631 36.5796L281.517 37.2443C282.257 35.1441 283.328 33.5354 284.704 32.3695L283.411 30.8435ZM279.628 36.5876C278.819 38.9483 278.423 41.6071 278.423 44.5504H280.423C280.423 41.7835 280.795 39.35 281.52 37.2363L279.628 36.5876ZM278.423 44.5504C278.423 47.4938 278.819 50.1526 279.628 52.5132L281.52 51.8646C280.795 49.7508 280.423 47.3173 280.423 44.5504H278.423ZM279.631 52.5213C280.467 54.8955 281.719 56.8238 283.411 58.2573L284.704 56.7313C283.328 55.5654 282.257 53.9568 281.517 51.8566L279.631 52.5213ZM283.423 58.2669C285.18 59.7117 287.331 60.4119 289.81 60.4119V58.4119C287.73 58.4119 286.045 57.8338 284.693 56.7218L283.423 58.2669ZM363.607 33.9077L363.668 34.9058L364.738 34.8399L364.598 33.7767L363.607 33.9077ZM351.142 34.6747L350.161 34.8708L350.333 35.7264L351.203 35.6728L351.142 34.6747ZM349.768 31.7983L348.989 32.4254L348.996 32.4347L349.768 31.7983ZM346.987 29.7209L346.561 30.6253L346.571 30.6301L346.581 30.6347L346.987 29.7209ZM337.591 30.2642L338.107 31.1206L338.116 31.115L337.591 30.2642ZM336.824 36.7521L336.17 37.509L336.824 36.7521ZM341.65 38.7017L341.44 39.6795L341.452 39.682L341.65 38.7017ZM350.535 40.4915L350.736 39.5119L350.732 39.5112L350.535 40.4915ZM361.21 45.2216L360.53 45.9549L361.21 45.2216ZM361.881 62.2564L361.092 61.641L361.089 61.6453L361.881 62.2564ZM354.146 67.9453L354.527 68.87L354.53 68.8687L354.146 67.9453ZM327.332 65.8999L326.752 66.7148L326.757 66.7185L327.332 65.8999ZM320.588 54.7777L320.536 53.7791L319.446 53.8363L319.598 54.9172L320.588 54.7777ZM333.979 54.0746L334.959 53.8744L334.787 53.0308L333.927 53.076L333.979 54.0746ZM336.92 58.6129L336.362 59.4433L336.37 59.4485L336.92 58.6129ZM348.649 58.7727L349.184 59.6179L349.187 59.6159L348.649 58.7727ZM350.886 55.1612L351.886 55.1757L351.887 55.1599L351.886 55.144L350.886 55.1612ZM349.32 52.125L348.7 52.9091L348.71 52.917L349.32 52.125ZM344.59 50.2713L344.786 49.2907L344.786 49.2906L344.59 50.2713ZM336.089 48.5774L335.893 49.558L335.893 49.5581L336.089 48.5774ZM325.382 43.5916L324.669 44.2923L324.672 44.2955L325.382 43.5916ZM324.455 26.397L323.658 25.7934L323.654 25.7982L324.455 26.397ZM331.71 21.1236L331.343 20.1934L331.341 20.1942L331.71 21.1236ZM357.342 23.201L356.749 24.0062L356.752 24.0079L357.342 23.201ZM363.545 32.9096L351.081 33.6766L351.203 35.6728L363.668 34.9058L363.545 32.9096ZM352.123 34.4786C351.877 33.2487 351.345 32.1392 350.539 31.1619L348.996 32.4347C349.596 33.1619 349.981 33.9701 350.161 34.8708L352.123 34.4786ZM350.547 31.1713C349.732 30.1593 348.671 29.375 347.393 28.8071L346.581 30.6347C347.604 31.0895 348.397 31.6901 348.989 32.4253L350.547 31.1713ZM347.414 28.8164C346.121 28.2066 344.615 27.9219 342.928 27.9219V29.9219C344.395 29.9219 345.595 30.1699 346.561 30.6253L347.414 28.8164ZM342.928 27.9219C340.677 27.9219 338.706 28.4001 337.065 29.4134L338.116 31.115C339.374 30.3385 340.96 29.9219 342.928 29.9219V27.9219ZM337.075 29.4078C335.379 30.43 334.418 31.9007 334.418 33.7798H336.418C336.418 32.7186 336.905 31.8456 338.107 31.1206L337.075 29.4078ZM334.418 33.7798C334.418 35.2607 335.027 36.5217 336.17 37.509L337.477 35.9953C336.746 35.3633 336.418 34.6427 336.418 33.7798H334.418ZM336.17 37.509C337.304 38.4877 339.117 39.1801 341.44 39.6794L341.86 37.724C339.623 37.2432 338.219 36.6359 337.477 35.9953L336.17 37.509ZM341.452 39.682L350.337 41.4718L350.732 39.5112L341.847 37.7214L341.452 39.682ZM350.334 41.471C355.014 42.4322 358.373 43.9548 360.53 45.9549L361.889 44.4883C359.359 42.1418 355.601 40.511 350.736 39.5119L350.334 41.471ZM360.53 45.9549C362.646 47.9176 363.725 50.4954 363.725 53.7869H365.725C365.725 50.0046 364.46 46.8721 361.889 44.4883L360.53 45.9549ZM363.725 53.7869C363.725 56.7918 362.845 59.396 361.092 61.641L362.669 62.8718C364.709 60.2589 365.725 57.2167 365.725 53.7869H363.725ZM361.089 61.6453C359.336 63.916 356.909 65.7144 353.763 67.0219L354.53 68.8687C357.946 67.449 360.675 65.4548 362.672 62.8674L361.089 61.6453ZM353.766 67.0206C350.649 68.304 347.022 68.9588 342.864 68.9588V70.9588C347.23 70.9588 351.124 70.2713 354.527 68.87L353.766 67.0206ZM342.864 68.9588C336.495 68.9588 331.541 67.632 327.906 65.0813L326.757 66.7185C330.835 69.5797 336.236 70.9588 342.864 70.9588V68.9588ZM327.911 65.0849C324.301 62.5179 322.201 59.0555 321.578 54.6382L319.598 54.9172C320.296 59.8749 322.692 63.8273 326.752 66.7148L327.911 65.0849ZM320.641 55.7763L334.032 55.0732L333.927 53.076L320.536 53.7791L320.641 55.7763ZM333 54.2747C333.452 56.4911 334.57 58.2404 336.362 59.4432L337.477 57.7826C336.158 56.8974 335.316 55.6211 334.959 53.8744L333 54.2747ZM336.37 59.4485C338.132 60.6067 340.331 61.147 342.896 61.147V59.147C340.604 59.147 338.818 58.6646 337.469 57.7774L336.37 59.4485ZM342.896 61.147C345.401 61.147 347.524 60.6675 349.184 59.6179L348.115 57.9275C346.877 58.7103 345.165 59.147 342.896 59.147V61.147ZM349.187 59.6159C350.88 58.5364 351.859 57.0487 351.886 55.1757L349.886 55.1467C349.871 56.2141 349.359 57.1341 348.111 57.9296L349.187 59.6159ZM351.886 55.144C351.859 53.5888 351.182 52.2974 349.931 51.333L348.71 52.917C349.504 53.5294 349.871 54.2621 349.887 55.1785L351.886 55.144ZM349.941 51.341C348.738 50.3884 346.981 49.7297 344.786 49.2907L344.394 51.2519C346.46 51.6652 347.857 52.2422 348.7 52.909L349.941 51.341ZM344.786 49.2906L336.284 47.5967L335.893 49.5581L344.395 51.252L344.786 49.2906ZM336.285 47.5968C331.599 46.6597 328.245 45.0596 326.092 42.8877L324.672 44.2955C327.207 46.8537 330.99 48.5775 335.893 49.558L336.285 47.5968ZM326.096 42.891C323.977 40.7334 322.898 37.9799 322.898 34.5469H320.898C320.898 38.4434 322.142 41.7197 324.669 44.2923L326.096 42.891ZM322.898 34.5469C322.898 31.5848 323.695 29.0841 325.256 26.9958L323.654 25.7982C321.807 28.2696 320.898 31.2021 320.898 34.5469H322.898ZM325.253 27.0006C326.851 24.8897 329.109 23.2329 332.079 22.0529L331.341 20.1942C328.09 21.4858 325.512 23.3447 323.658 25.7934L325.253 27.0006ZM332.077 22.0538C335.068 20.8739 338.603 20.2699 342.705 20.2699V18.2699C338.411 18.2699 334.617 18.9016 331.343 20.1934L332.077 22.0538ZM342.705 20.2699C348.775 20.2699 353.42 21.5539 356.749 24.0062L357.935 22.3958C354.148 19.6066 349.035 18.2699 342.705 18.2699V20.2699ZM356.752 24.0079C360.104 26.4625 362.053 29.7839 362.615 34.0386L364.598 33.7767C363.967 28.9974 361.739 25.1809 357.933 22.3941L356.752 24.0079Z" fill="black" mask="url(#path-1-outside-1_235_7)"/>
</svg>
