<svg width="366" height="38" viewBox="0 0 366 38" fill="none" xmlns="http://www.w3.org/2000/svg">
<mask id="path-1-outside-1_235_3" maskUnits="userSpaceOnUse" x="-1" y="-1" width="368" height="40" fill="black">
<rect fill="white" x="-1" y="-1" width="368" height="40"/>
<path d="M8.15909 21.8636V37H0.897727V10.8182H7.81818V15.4375H8.125C8.70455 13.9148 9.67614 12.7102 11.0398 11.8239C12.4034 10.9261 14.0568 10.4773 16 10.4773C17.8182 10.4773 19.4034 10.875 20.7557 11.6705C22.108 12.4659 23.1591 13.6023 23.9091 15.0795C24.6591 16.5455 25.0341 18.2955 25.0341 20.3295V37H17.7727V21.625C17.7841 20.0227 17.375 18.7727 16.5455 17.875C15.7159 16.9659 14.5739 16.5114 13.1193 16.5114C12.142 16.5114 11.2784 16.7216 10.5284 17.142C9.78977 17.5625 9.21023 18.1761 8.78977 18.983C8.38068 19.7784 8.17045 20.7386 8.15909 21.8636ZM47.5469 25.8523V10.8182H54.8082V37H47.8366V32.2443H47.5639C46.973 33.7784 45.9901 35.0114 44.6151 35.9432C43.2514 36.875 41.5866 37.3409 39.6207 37.3409C37.8707 37.3409 36.331 36.9432 35.0014 36.1477C33.6719 35.3523 32.6321 34.2216 31.8821 32.7557C31.1435 31.2898 30.7685 29.5341 30.7571 27.4886V10.8182H38.0185V26.1932C38.0298 27.7386 38.4446 28.9602 39.2628 29.858C40.081 30.7557 41.1776 31.2045 42.5526 31.2045C43.4276 31.2045 44.2457 31.0057 45.0071 30.608C45.7685 30.1989 46.3821 29.5966 46.848 28.8011C47.3253 28.0057 47.5582 27.0227 47.5469 25.8523ZM72.5483 37.5114C69.8551 37.5114 67.5369 36.9659 65.5938 35.875C63.6619 34.7727 62.1733 33.2159 61.1278 31.2045C60.0824 29.1818 59.5597 26.7898 59.5597 24.0284C59.5597 21.3352 60.0824 18.9716 61.1278 16.9375C62.1733 14.9034 63.6449 13.3182 65.5426 12.1818C67.4517 11.0455 69.6903 10.4773 72.2585 10.4773C73.9858 10.4773 75.5938 10.7557 77.0824 11.3125C78.5824 11.858 79.8892 12.6818 81.0028 13.7841C82.1278 14.8864 83.0028 16.2727 83.6278 17.9432C84.2528 19.6023 84.5653 21.5455 84.5653 23.7727V25.767H62.4574V21.267H77.7301C77.7301 20.2216 77.5028 19.2955 77.0483 18.4886C76.5938 17.6818 75.9631 17.0511 75.1562 16.5966C74.3608 16.1307 73.4347 15.8977 72.3778 15.8977C71.2756 15.8977 70.2983 16.1534 69.446 16.6648C68.6051 17.1648 67.946 17.8409 67.4688 18.6932C66.9915 19.5341 66.7472 20.4716 66.7358 21.5057V25.7841C66.7358 27.0795 66.9744 28.1989 67.4517 29.142C67.9403 30.0852 68.6278 30.8125 69.5142 31.3239C70.4006 31.8352 71.4517 32.0909 72.6676 32.0909C73.4744 32.0909 74.2131 31.9773 74.8835 31.75C75.554 31.5227 76.1278 31.1818 76.6051 30.7273C77.0824 30.2727 77.446 29.7159 77.696 29.0568L84.4119 29.5C84.071 31.1136 83.3722 32.5227 82.3153 33.7273C81.2699 34.9205 79.9176 35.8523 78.2585 36.5227C76.6108 37.1818 74.7074 37.5114 72.5483 37.5114ZM111.088 18.2841L104.44 18.6932C104.327 18.125 104.082 17.6136 103.707 17.1591C103.332 16.6932 102.838 16.3239 102.224 16.0511C101.622 15.767 100.901 15.625 100.06 15.625C98.9347 15.625 97.9858 15.8636 97.2131 16.3409C96.4403 16.8068 96.054 17.4318 96.054 18.2159C96.054 18.8409 96.304 19.3693 96.804 19.8011C97.304 20.233 98.1619 20.5795 99.3778 20.8409L104.116 21.7955C106.662 22.3182 108.56 23.1591 109.81 24.3182C111.06 25.4773 111.685 27 111.685 28.8864C111.685 30.6023 111.179 32.108 110.168 33.4034C109.168 34.6989 107.793 35.7102 106.043 36.4375C104.304 37.1534 102.298 37.5114 100.026 37.5114C96.5597 37.5114 93.7983 36.7898 91.7415 35.3466C89.696 33.892 88.4972 31.9148 88.1449 29.4148L95.2869 29.0398C95.5028 30.0966 96.0256 30.9034 96.8551 31.4602C97.6847 32.0057 98.7472 32.2784 100.043 32.2784C101.315 32.2784 102.338 32.0341 103.111 31.5455C103.895 31.0455 104.293 30.4034 104.304 29.6193C104.293 28.9602 104.014 28.4205 103.469 28C102.923 27.5682 102.082 27.2386 100.946 27.0114L96.4119 26.108C93.8551 25.5966 91.9517 24.7102 90.7017 23.4489C89.4631 22.1875 88.8438 20.5795 88.8438 18.625C88.8438 16.9432 89.2983 15.4943 90.2074 14.2784C91.1278 13.0625 92.4176 12.125 94.0767 11.4659C95.7472 10.8068 97.7017 10.4773 99.9403 10.4773C103.247 10.4773 105.849 11.1761 107.747 12.5739C109.656 13.9716 110.77 15.875 111.088 18.2841ZM130.183 10.8182V16.2727H114.416V10.8182H130.183ZM117.996 4.54545H125.257V28.9545C125.257 29.625 125.359 30.1477 125.564 30.5227C125.768 30.8864 126.053 31.142 126.416 31.2898C126.791 31.4375 127.223 31.5114 127.712 31.5114C128.053 31.5114 128.393 31.483 128.734 31.4261C129.075 31.358 129.337 31.3068 129.518 31.2727L130.661 36.6761C130.297 36.7898 129.786 36.9205 129.126 37.0682C128.467 37.2273 127.666 37.3239 126.723 37.358C124.973 37.4261 123.439 37.1932 122.121 36.6591C120.814 36.125 119.797 35.2955 119.07 34.1705C118.342 33.0455 117.984 31.625 117.996 29.9091V4.54545ZM134.913 37V10.8182H141.953V15.3864H142.226C142.703 13.7614 143.504 12.5341 144.629 11.7045C145.754 10.8636 147.05 10.4432 148.516 10.4432C148.879 10.4432 149.271 10.4659 149.692 10.5114C150.112 10.5568 150.482 10.6193 150.8 10.6989V17.142C150.459 17.0398 149.987 16.9489 149.385 16.8693C148.783 16.7898 148.232 16.75 147.732 16.75C146.663 16.75 145.709 16.983 144.868 17.4489C144.038 17.9034 143.379 18.5398 142.891 19.358C142.413 20.1761 142.175 21.1193 142.175 22.1875V37H134.913ZM161.27 37.4943C159.599 37.4943 158.111 37.2045 156.804 36.625C155.497 36.0341 154.463 35.1648 153.702 34.017C152.952 32.858 152.577 31.4148 152.577 29.6875C152.577 28.233 152.844 27.0114 153.378 26.0227C153.912 25.0341 154.639 24.2386 155.56 23.6364C156.48 23.0341 157.526 22.5795 158.696 22.2727C159.878 21.9659 161.116 21.75 162.412 21.625C163.935 21.4659 165.162 21.3182 166.094 21.1818C167.026 21.0341 167.702 20.8182 168.122 20.5341C168.543 20.25 168.753 19.8295 168.753 19.2727V19.1705C168.753 18.0909 168.412 17.2557 167.73 16.6648C167.06 16.0739 166.105 15.7784 164.866 15.7784C163.56 15.7784 162.52 16.0682 161.747 16.6477C160.974 17.2159 160.463 17.9318 160.213 18.7955L153.497 18.25C153.838 16.6591 154.509 15.2841 155.509 14.125C156.509 12.9545 157.798 12.0568 159.378 11.4318C160.969 10.7955 162.81 10.4773 164.901 10.4773C166.355 10.4773 167.747 10.6477 169.077 10.9886C170.418 11.3295 171.605 11.858 172.639 12.5739C173.685 13.2898 174.509 14.2102 175.111 15.3352C175.713 16.4489 176.014 17.7841 176.014 19.3409V37H169.128V33.3693H168.923C168.503 34.1875 167.94 34.9091 167.236 35.5341C166.531 36.1477 165.685 36.6307 164.696 36.983C163.707 37.3239 162.565 37.4943 161.27 37.4943ZM163.349 32.483C164.418 32.483 165.361 32.2727 166.179 31.8523C166.997 31.4205 167.639 30.8409 168.105 30.1136C168.571 29.3864 168.804 28.5625 168.804 27.642V24.8636C168.577 25.0114 168.264 25.1477 167.866 25.2727C167.48 25.3864 167.043 25.4943 166.554 25.5966C166.065 25.6875 165.577 25.7727 165.088 25.8523C164.599 25.9205 164.156 25.983 163.759 26.0398C162.906 26.1648 162.162 26.3636 161.526 26.6364C160.889 26.9091 160.395 27.2784 160.043 27.7443C159.69 28.1989 159.514 28.767 159.514 29.4489C159.514 30.4375 159.872 31.1932 160.588 31.7159C161.315 32.2273 162.236 32.483 163.349 32.483ZM200.018 21.8636V37H192.757V2.09091H199.814V15.4375H200.121C200.712 13.892 201.666 12.6818 202.984 11.8068C204.303 10.9205 205.956 10.4773 207.945 10.4773C209.763 10.4773 211.348 10.875 212.7 11.6705C214.064 12.4545 215.121 13.5852 215.871 15.0625C216.632 16.5284 217.007 18.2841 216.996 20.3295V37H209.734V21.625C209.746 20.0114 209.337 18.7557 208.507 17.858C207.689 16.9602 206.541 16.5114 205.064 16.5114C204.075 16.5114 203.2 16.7216 202.439 17.142C201.689 17.5625 201.098 18.1761 200.666 18.983C200.246 19.7784 200.03 20.7386 200.018 21.8636ZM222.71 37V10.8182H229.972V37H222.71ZM226.358 7.44318C225.278 7.44318 224.352 7.08523 223.58 6.36932C222.818 5.64204 222.438 4.77273 222.438 3.76136C222.438 2.76136 222.818 1.90341 223.58 1.1875C224.352 0.460226 225.278 0.0965891 226.358 0.0965891C227.438 0.0965891 228.358 0.460226 229.119 1.1875C229.892 1.90341 230.278 2.76136 230.278 3.76136C230.278 4.77273 229.892 5.64204 229.119 6.36932C228.358 7.08523 227.438 7.44318 226.358 7.44318ZM257.572 18.2841L250.925 18.6932C250.811 18.125 250.567 17.6136 250.192 17.1591C249.817 16.6932 249.322 16.3239 248.709 16.0511C248.107 15.767 247.385 15.625 246.544 15.625C245.419 15.625 244.47 15.8636 243.697 16.3409C242.925 16.8068 242.538 17.4318 242.538 18.2159C242.538 18.8409 242.788 19.3693 243.288 19.8011C243.788 20.233 244.646 20.5795 245.862 20.8409L250.601 21.7955C253.146 22.3182 255.044 23.1591 256.294 24.3182C257.544 25.4773 258.169 27 258.169 28.8864C258.169 30.6023 257.663 32.108 256.652 33.4034C255.652 34.6989 254.277 35.7102 252.527 36.4375C250.788 37.1534 248.783 37.5114 246.51 37.5114C243.044 37.5114 240.283 36.7898 238.226 35.3466C236.18 33.892 234.982 31.9148 234.629 29.4148L241.771 29.0398C241.987 30.0966 242.51 30.9034 243.339 31.4602C244.169 32.0057 245.232 32.2784 246.527 32.2784C247.8 32.2784 248.822 32.0341 249.595 31.5455C250.379 31.0455 250.777 30.4034 250.788 29.6193C250.777 28.9602 250.499 28.4205 249.953 28C249.408 27.5682 248.567 27.2386 247.43 27.0114L242.896 26.108C240.339 25.5966 238.436 24.7102 237.186 23.4489C235.947 22.1875 235.328 20.5795 235.328 18.625C235.328 16.9432 235.783 15.4943 236.692 14.2784C237.612 13.0625 238.902 12.125 240.561 11.4659C242.232 10.8068 244.186 10.4773 246.425 10.4773C249.732 10.4773 252.334 11.1761 254.232 12.5739C256.141 13.9716 257.254 15.875 257.572 18.2841ZM276.668 10.8182V16.2727H260.901V10.8182H276.668ZM264.48 4.54545H271.741V28.9545C271.741 29.625 271.844 30.1477 272.048 30.5227C272.253 30.8864 272.537 31.142 272.901 31.2898C273.276 31.4375 273.707 31.5114 274.196 31.5114C274.537 31.5114 274.878 31.483 275.219 31.4261C275.56 31.358 275.821 31.3068 276.003 31.2727L277.145 36.6761C276.781 36.7898 276.27 36.9205 275.611 37.0682C274.952 37.2273 274.151 37.3239 273.207 37.358C271.457 37.4261 269.923 37.1932 268.605 36.6591C267.298 36.125 266.281 35.2955 265.554 34.1705C264.827 33.0455 264.469 31.625 264.48 29.9091V4.54545ZM292.946 37.5114C290.298 37.5114 288.009 36.9489 286.077 35.8239C284.156 34.6875 282.673 33.108 281.628 31.0852C280.582 29.0511 280.06 26.6932 280.06 24.0114C280.06 21.3068 280.582 18.9432 281.628 16.9205C282.673 14.8864 284.156 13.3068 286.077 12.1818C288.009 11.0455 290.298 10.4773 292.946 10.4773C295.594 10.4773 297.878 11.0455 299.798 12.1818C301.73 13.3068 303.219 14.8864 304.264 16.9205C305.31 18.9432 305.832 21.3068 305.832 24.0114C305.832 26.6932 305.31 29.0511 304.264 31.0852C303.219 33.108 301.73 34.6875 299.798 35.8239C297.878 36.9489 295.594 37.5114 292.946 37.5114ZM292.98 31.8864C294.185 31.8864 295.19 31.5455 295.997 30.8636C296.804 30.1705 297.412 29.2273 297.821 28.0341C298.241 26.8409 298.452 25.483 298.452 23.9602C298.452 22.4375 298.241 21.0795 297.821 19.8864C297.412 18.6932 296.804 17.75 295.997 17.0568C295.19 16.3636 294.185 16.017 292.98 16.017C291.764 16.017 290.741 16.3636 289.912 17.0568C289.094 17.75 288.474 18.6932 288.054 19.8864C287.645 21.0795 287.44 22.4375 287.44 23.9602C287.44 25.483 287.645 26.8409 288.054 28.0341C288.474 29.2273 289.094 30.1705 289.912 30.8636C290.741 31.5455 291.764 31.8864 292.98 31.8864ZM310.554 37V10.8182H317.594V15.3864H317.866C318.344 13.7614 319.145 12.5341 320.27 11.7045C321.395 10.8636 322.69 10.4432 324.156 10.4432C324.52 10.4432 324.912 10.4659 325.332 10.5114C325.753 10.5568 326.122 10.6193 326.44 10.6989V17.142C326.099 17.0398 325.628 16.9489 325.026 16.8693C324.423 16.7898 323.872 16.75 323.372 16.75C322.304 16.75 321.349 16.983 320.509 17.4489C319.679 17.9034 319.02 18.5398 318.531 19.358C318.054 20.1761 317.815 21.1193 317.815 22.1875V37H310.554ZM330.195 37V10.8182H337.456V37H330.195ZM333.842 7.44318C332.763 7.44318 331.837 7.08523 331.064 6.36932C330.303 5.64204 329.922 4.77273 329.922 3.76136C329.922 2.76136 330.303 1.90341 331.064 1.1875C331.837 0.460226 332.763 0.0965891 333.842 0.0965891C334.922 0.0965891 335.842 0.460226 336.604 1.1875C337.376 1.90341 337.763 2.76136 337.763 3.76136C337.763 4.77273 337.376 5.64204 336.604 6.36932C335.842 7.08523 334.922 7.44318 333.842 7.44318ZM350.739 37.4943C349.068 37.4943 347.58 37.2045 346.273 36.625C344.966 36.0341 343.932 35.1648 343.17 34.017C342.42 32.858 342.045 31.4148 342.045 29.6875C342.045 28.233 342.313 27.0114 342.847 26.0227C343.381 25.0341 344.108 24.2386 345.028 23.6364C345.949 23.0341 346.994 22.5795 348.165 22.2727C349.347 21.9659 350.585 21.75 351.881 21.625C353.403 21.4659 354.631 21.3182 355.562 21.1818C356.494 21.0341 357.17 20.8182 357.591 20.5341C358.011 20.25 358.222 19.8295 358.222 19.2727V19.1705C358.222 18.0909 357.881 17.2557 357.199 16.6648C356.528 16.0739 355.574 15.7784 354.335 15.7784C353.028 15.7784 351.989 16.0682 351.216 16.6477C350.443 17.2159 349.932 17.9318 349.682 18.7955L342.966 18.25C343.307 16.6591 343.977 15.2841 344.977 14.125C345.977 12.9545 347.267 12.0568 348.847 11.4318C350.438 10.7955 352.278 10.4773 354.369 10.4773C355.824 10.4773 357.216 10.6477 358.545 10.9886C359.886 11.3295 361.074 11.858 362.108 12.5739C363.153 13.2898 363.977 14.2102 364.58 15.3352C365.182 16.4489 365.483 17.7841 365.483 19.3409V37H358.597V33.3693H358.392C357.972 34.1875 357.409 34.9091 356.705 35.5341C356 36.1477 355.153 36.6307 354.165 36.983C353.176 37.3239 352.034 37.4943 350.739 37.4943ZM352.818 32.483C353.886 32.483 354.83 32.2727 355.648 31.8523C356.466 31.4205 357.108 30.8409 357.574 30.1136C358.04 29.3864 358.273 28.5625 358.273 27.642V24.8636C358.045 25.0114 357.733 25.1477 357.335 25.2727C356.949 25.3864 356.511 25.4943 356.023 25.5966C355.534 25.6875 355.045 25.7727 354.557 25.8523C354.068 25.9205 353.625 25.983 353.227 26.0398C352.375 26.1648 351.631 26.3636 350.994 26.6364C350.358 26.9091 349.864 27.2784 349.511 27.7443C349.159 28.1989 348.983 28.767 348.983 29.4489C348.983 30.4375 349.341 31.1932 350.057 31.7159C350.784 32.2273 351.705 32.483 352.818 32.483Z"/>
</mask>
<path d="M8.15909 21.8636L7.15909 21.8535V21.8636H8.15909ZM8.15909 37V38H9.15909V37H8.15909ZM0.897727 37H-0.102273V38H0.897727V37ZM0.897727 10.8182V9.81818H-0.102273V10.8182H0.897727ZM7.81818 10.8182H8.81818V9.81818H7.81818V10.8182ZM7.81818 15.4375H6.81818V16.4375H7.81818V15.4375ZM8.125 15.4375V16.4375H8.81438L9.0596 15.7932L8.125 15.4375ZM11.0398 11.8239L11.5848 12.6623L11.5896 12.6591L11.0398 11.8239ZM23.9091 15.0795L23.0174 15.5322L23.0188 15.535L23.9091 15.0795ZM25.0341 37V38H26.0341V37H25.0341ZM17.7727 37H16.7727V38H17.7727V37ZM17.7727 21.625L16.7727 21.6179V21.625H17.7727ZM16.5455 17.875L15.8068 18.5491L15.811 18.5537L16.5455 17.875ZM10.5284 17.142L10.0394 16.2697L10.0337 16.273L10.5284 17.142ZM8.78977 18.983L7.90295 18.5208L7.90049 18.5256L8.78977 18.983ZM7.15909 21.8636V37H9.15909V21.8636H7.15909ZM8.15909 36H0.897727V38H8.15909V36ZM1.89773 37V10.8182H-0.102273V37H1.89773ZM0.897727 11.8182H7.81818V9.81818H0.897727V11.8182ZM6.81818 10.8182V15.4375H8.81818V10.8182H6.81818ZM7.81818 16.4375H8.125V14.4375H7.81818V16.4375ZM9.0596 15.7932C9.56388 14.4682 10.3992 13.4329 11.5848 12.6623L10.4948 10.9854C8.95305 11.9875 7.84522 13.3613 7.1904 15.0818L9.0596 15.7932ZM11.5896 12.6591C12.7611 11.8879 14.2145 11.4773 16 11.4773V9.47727C13.8991 9.47727 12.0457 9.96437 10.4899 10.9886L11.5896 12.6591ZM16 11.4773C17.6686 11.4773 19.0731 11.8409 20.2487 12.5324L21.2627 10.8085C19.7338 9.90914 17.9678 9.47727 16 9.47727V11.4773ZM20.2487 12.5324C21.4268 13.2254 22.3488 14.2153 23.0174 15.5322L24.8008 14.6269C23.9694 12.9892 22.7891 11.7064 21.2627 10.8085L20.2487 12.5324ZM23.0188 15.535C23.6817 16.8306 24.0341 18.4172 24.0341 20.3295H26.0341C26.0341 18.1737 25.6365 16.2603 24.7993 14.6241L23.0188 15.535ZM24.0341 20.3295V37H26.0341V20.3295H24.0341ZM25.0341 36H17.7727V38H25.0341V36ZM18.7727 37V21.625H16.7727V37H18.7727ZM18.7727 21.6321C18.7853 19.8571 18.3301 18.3328 17.2799 17.1963L15.811 18.5537C16.4199 19.2127 16.7829 20.1884 16.7728 21.6179L18.7727 21.6321ZM17.2841 17.2009C16.2305 16.0463 14.7992 15.5114 13.1193 15.5114V17.5114C14.3486 17.5114 15.2013 17.8855 15.8068 18.5491L17.2841 17.2009ZM13.1193 15.5114C11.9945 15.5114 10.9582 15.7547 10.0394 16.2698L11.0174 18.0143C11.5986 17.6885 12.2895 17.5114 13.1193 17.5114V15.5114ZM10.0337 16.273C9.11607 16.7953 8.40573 17.556 7.90297 18.5208L9.67658 19.4451C10.0147 18.7962 10.4635 18.3297 11.0231 18.0111L10.0337 16.273ZM7.90049 18.5256C7.40423 19.4905 7.17168 20.612 7.15914 21.8535L9.15904 21.8737C9.16923 20.8653 9.35713 20.0663 9.67906 19.4403L7.90049 18.5256ZM47.5469 25.8523H46.5468L46.5469 25.862L47.5469 25.8523ZM47.5469 10.8182V9.81818H46.5469V10.8182H47.5469ZM54.8082 10.8182H55.8082V9.81818H54.8082V10.8182ZM54.8082 37V38H55.8082V37H54.8082ZM47.8366 37H46.8366V38H47.8366V37ZM47.8366 32.2443H48.8366V31.2443H47.8366V32.2443ZM47.5639 32.2443V31.2443H46.8775L46.6308 31.8849L47.5639 32.2443ZM44.6151 35.9432L44.0541 35.1154L44.0509 35.1175L44.6151 35.9432ZM35.0014 36.1477L35.5148 35.2896L35.0014 36.1477ZM31.8821 32.7557L30.989 33.2057L30.9919 33.2112L31.8821 32.7557ZM30.7571 27.4886H29.7571L29.7571 27.4942L30.7571 27.4886ZM30.7571 10.8182V9.81818H29.7571V10.8182H30.7571ZM38.0185 10.8182H39.0185V9.81818H38.0185V10.8182ZM38.0185 26.1932H37.0184L37.0185 26.2005L38.0185 26.1932ZM39.2628 29.858L40.0019 29.1843L39.2628 29.858ZM45.0071 30.608L45.4702 31.4944L45.4804 31.4888L45.0071 30.608ZM46.848 28.8011L45.9905 28.2866L45.9851 28.2957L46.848 28.8011ZM48.5469 25.8523V10.8182H46.5469V25.8523H48.5469ZM47.5469 11.8182H54.8082V9.81818H47.5469V11.8182ZM53.8082 10.8182V37H55.8082V10.8182H53.8082ZM54.8082 36H47.8366V38H54.8082V36ZM48.8366 37V32.2443H46.8366V37H48.8366ZM47.8366 31.2443H47.5639V33.2443H47.8366V31.2443ZM46.6308 31.8849C46.114 33.2264 45.262 34.2968 44.0541 35.1154L45.1761 36.771C46.7181 35.726 47.832 34.3304 48.4971 32.6038L46.6308 31.8849ZM44.0509 35.1175C42.883 35.9156 41.4244 36.3409 39.6207 36.3409V38.3409C41.7489 38.3409 43.6198 37.8344 45.1792 36.7688L44.0509 35.1175ZM39.6207 36.3409C38.0276 36.3409 36.6699 35.9806 35.5148 35.2896L34.488 37.0059C35.9921 37.9057 37.7139 38.3409 39.6207 38.3409V36.3409ZM35.5148 35.2896C34.3564 34.5965 33.4426 33.6102 32.7724 32.3002L30.9919 33.2112C31.8216 34.833 32.9874 36.108 34.488 37.0059L35.5148 35.2896ZM32.7751 32.3057C32.121 31.0074 31.7678 29.4113 31.7571 27.4831L29.7571 27.4942C29.7691 29.6569 30.166 31.5721 30.9891 33.2057L32.7751 32.3057ZM31.7571 27.4886V10.8182H29.7571V27.4886H31.7571ZM30.7571 11.8182H38.0185V9.81818H30.7571V11.8182ZM37.0185 10.8182V26.1932H39.0185V10.8182H37.0185ZM37.0185 26.2005C37.0312 27.9232 37.4979 29.406 38.5237 30.5316L40.0019 29.1843C39.3913 28.5144 39.0285 27.5541 39.0184 26.1858L37.0185 26.2005ZM38.5237 30.5316C39.5574 31.6657 40.9373 32.2045 42.5526 32.2045V30.2045C41.4178 30.2045 40.6046 29.8456 40.0019 29.1843L38.5237 30.5316ZM42.5526 32.2045C43.5857 32.2045 44.5631 31.9681 45.4701 31.4943L44.5441 29.7216C43.9284 30.0432 43.2694 30.2045 42.5526 30.2045V32.2045ZM45.4804 31.4888C46.4145 30.9869 47.1585 30.2496 47.7109 29.3065L45.9851 28.2957C45.6057 28.9436 45.1224 29.4108 44.5338 29.7271L45.4804 31.4888ZM47.7055 29.3156C48.2996 28.3254 48.5595 27.1497 48.5468 25.8426L46.5469 25.862C46.557 26.8957 46.3509 27.686 45.9905 28.2866L47.7055 29.3156ZM65.5938 35.875L65.0982 36.7436L65.1042 36.747L65.5938 35.875ZM61.1278 31.2045L60.2395 31.6637L60.2405 31.6657L61.1278 31.2045ZM61.1278 16.9375L60.2384 16.4804L61.1278 16.9375ZM65.5426 12.1818L65.0311 11.3225L65.0289 11.3239L65.5426 12.1818ZM77.0824 11.3125L76.732 12.2492L76.7406 12.2523L77.0824 11.3125ZM81.0028 13.7841L80.2994 14.4948L80.303 14.4984L81.0028 13.7841ZM83.6278 17.9432L82.6912 18.2936L82.692 18.2957L83.6278 17.9432ZM84.5653 25.767V26.767H85.5653V25.767H84.5653ZM62.4574 25.767H61.4574V26.767H62.4574V25.767ZM62.4574 21.267V20.267H61.4574V21.267H62.4574ZM77.7301 21.267V22.267H78.7301V21.267H77.7301ZM77.0483 18.4886L76.177 18.9795V18.9795L77.0483 18.4886ZM75.1562 16.5966L74.6508 17.4595L74.6581 17.4637L74.6654 17.4678L75.1562 16.5966ZM69.446 16.6648L69.9571 17.5243L69.9605 17.5223L69.446 16.6648ZM67.4688 18.6932L68.3384 19.1868L68.3413 19.1818L67.4688 18.6932ZM66.7358 21.5057L65.7358 21.4947V21.5057H66.7358ZM67.4517 29.142L66.5594 29.5936L66.5638 29.6021L67.4517 29.142ZM74.8835 31.75L74.5625 30.8029L74.8835 31.75ZM76.6051 30.7273L75.9155 30.0031L76.6051 30.7273ZM77.696 29.0568L77.7619 28.059L77.0235 28.0103L76.761 28.7022L77.696 29.0568ZM84.4119 29.5L85.3903 29.7067L85.6288 28.5781L84.4778 28.5022L84.4119 29.5ZM82.3153 33.7273L81.5636 33.0678L81.5632 33.0683L82.3153 33.7273ZM78.2585 36.5227L78.6299 37.4512L78.6332 37.4499L78.2585 36.5227ZM72.5483 36.5114C69.9909 36.5114 67.8487 35.9941 66.0833 35.003L65.1042 36.747C67.2252 37.9377 69.7193 38.5114 72.5483 38.5114V36.5114ZM66.0893 35.0064C64.3279 34.0014 62.9737 32.5876 62.0151 30.7434L60.2405 31.6657C61.3729 33.8443 62.996 35.5441 65.0982 36.7436L66.0893 35.0064ZM62.0162 30.7454C61.0581 28.8917 60.5597 26.6636 60.5597 24.0284H58.5597C58.5597 26.9159 59.1067 29.4719 60.2395 31.6637L62.0162 30.7454ZM60.5597 24.0284C60.5597 21.4661 61.0563 19.2642 62.0172 17.3946L60.2384 16.4804C59.1084 18.679 58.5597 21.2044 58.5597 24.0284H60.5597ZM62.0172 17.3946C62.9804 15.5207 64.3244 14.0768 66.0564 13.0398L65.0289 11.3239C62.9653 12.5595 61.3662 14.2862 60.2384 16.4804L62.0172 17.3946ZM66.0541 13.0411C67.7857 12.0104 69.8419 11.4773 72.2585 11.4773V9.47727C69.5388 9.47727 67.1177 10.0805 65.0311 11.3225L66.0541 13.0411ZM72.2585 11.4773C73.8766 11.4773 75.3648 11.7377 76.732 12.2491L77.4327 10.3759C75.8227 9.77365 74.095 9.47727 72.2585 9.47727V11.4773ZM76.7406 12.2523C78.1076 12.7493 79.2903 13.4961 80.2994 14.4948L81.7063 13.0734C80.4881 11.8676 79.0572 10.9666 77.4241 10.3727L76.7406 12.2523ZM80.303 14.4984C81.3103 15.4854 82.1108 16.7421 82.6913 18.2936L84.5644 17.5928C83.8949 15.8034 82.9454 14.2874 81.7027 13.0698L80.303 14.4984ZM82.692 18.2957C83.2653 19.8174 83.5653 21.6363 83.5653 23.7727H85.5653C85.5653 21.4547 85.2404 19.3872 84.5636 17.5907L82.692 18.2957ZM83.5653 23.7727V25.767H85.5653V23.7727H83.5653ZM84.5653 24.767H62.4574V26.767H84.5653V24.767ZM63.4574 25.767V21.267H61.4574V25.767H63.4574ZM62.4574 22.267H77.7301V20.267H62.4574V22.267ZM78.7301 21.267C78.7301 20.0722 78.4689 18.9729 77.9195 17.9978L76.177 18.9795C76.5368 19.618 76.7301 20.371 76.7301 21.267H78.7301ZM77.9195 17.9978C77.3753 17.0318 76.6131 16.2696 75.6471 15.7253L74.6654 17.4678C75.3131 17.8327 75.8122 18.3318 76.177 18.9795L77.9195 17.9978ZM75.6617 15.7337C74.6916 15.1655 73.5859 14.8977 72.3778 14.8977V16.8977C73.2834 16.8977 74.03 17.0958 74.6508 17.4595L75.6617 15.7337ZM72.3778 14.8977C71.1146 14.8977 69.9558 15.1927 68.9315 15.8073L69.9605 17.5223C70.6408 17.1141 71.4365 16.8977 72.3778 16.8977V14.8977ZM68.9349 15.8052C67.9433 16.3948 67.1595 17.1988 66.5962 18.2046L68.3413 19.1818C68.7326 18.483 69.2669 17.9347 69.9571 17.5243L68.9349 15.8052ZM66.5991 18.1996C66.0324 19.1979 65.7489 20.3034 65.7359 21.4947L67.7357 21.5167C67.7454 20.6397 67.9505 19.8702 68.3384 19.1868L66.5991 18.1996ZM65.7358 21.5057V25.7841H67.7358V21.5057H65.7358ZM65.7358 25.7841C65.7358 27.2016 65.9971 28.4823 66.5594 29.5936L68.344 28.6905C67.9517 27.9154 67.7358 26.9575 67.7358 25.7841H65.7358ZM66.5638 29.6021C67.1368 30.7081 67.956 31.5794 69.0145 32.19L70.0139 30.4577C69.2996 30.0456 68.7439 29.4623 68.3396 28.682L66.5638 29.6021ZM69.0145 32.19C70.0791 32.8043 71.3094 33.0909 72.6676 33.0909V31.0909C71.594 31.0909 70.722 30.8662 70.0139 30.4577L69.0145 32.19ZM72.6676 33.0909C73.5686 33.0909 74.4174 32.9639 75.2046 32.6971L74.5625 30.8029C74.0088 30.9906 73.3803 31.0909 72.6676 31.0909V33.0909ZM75.2046 32.6971C76.0023 32.4267 76.7046 32.0135 77.2948 31.4514L75.9155 30.0031C75.5511 30.3502 75.1057 30.6188 74.5625 30.8029L75.2046 32.6971ZM77.2948 31.4514C77.8879 30.8865 78.3317 30.2006 78.631 29.4115L76.761 28.7022C76.5603 29.2312 76.2769 29.6589 75.9155 30.0031L77.2948 31.4514ZM77.6302 30.0546L84.3461 30.4978L84.4778 28.5022L77.7619 28.059L77.6302 30.0546ZM83.4335 29.2933C83.127 30.7442 82.5039 31.9961 81.5636 33.0678L83.067 34.3868C84.2404 33.0494 85.015 31.4831 85.3903 29.7067L83.4335 29.2933ZM81.5632 33.0683C80.6334 34.1295 79.4166 34.9762 77.8839 35.5956L78.6332 37.4499C80.4186 36.7284 81.9064 35.7115 83.0675 34.3863L81.5632 33.0683ZM77.8871 35.5942C76.3801 36.1971 74.607 36.5114 72.5483 36.5114V38.5114C74.8078 38.5114 76.8415 38.1666 78.6299 37.4512L77.8871 35.5942ZM111.088 18.2841L111.149 19.2822L112.22 19.2163L112.079 18.1532L111.088 18.2841ZM104.44 18.6932L103.46 18.8893L103.631 19.7449L104.502 19.6913L104.44 18.6932ZM103.707 17.1591L102.928 17.7861L102.936 17.7955L103.707 17.1591ZM102.224 16.0511L101.798 16.9556L101.808 16.9604L101.818 16.9649L102.224 16.0511ZM97.2131 16.3409L97.7294 17.1973L97.7386 17.1917L97.2131 16.3409ZM96.804 19.8011L96.1504 20.558V20.558L96.804 19.8011ZM99.3778 20.8409L99.1677 21.8187L99.1804 21.8212L99.3778 20.8409ZM104.116 21.7955L104.318 20.8159L104.314 20.8151L104.116 21.7955ZM109.81 24.3182L109.13 25.0514L109.81 24.3182ZM110.168 33.4034L109.379 32.788L109.376 32.7924L110.168 33.4034ZM106.043 36.4375L106.423 37.3622L106.426 37.3609L106.043 36.4375ZM91.7415 35.3466L91.1619 36.1616L91.1671 36.1652L91.7415 35.3466ZM88.1449 29.4148L88.0925 28.4161L87.0024 28.4734L87.1547 29.5543L88.1449 29.4148ZM95.2869 29.0398L96.2667 28.8396L96.0943 27.996L95.2345 28.0411L95.2869 29.0398ZM96.8551 31.4602L96.2978 32.2906L96.3057 32.2958L96.8551 31.4602ZM103.111 31.5455L103.645 32.3907L103.648 32.3886L103.111 31.5455ZM104.304 29.6193L105.304 29.6338L105.304 29.6179L105.304 29.6021L104.304 29.6193ZM103.469 28L102.848 28.7841L102.858 28.792L103.469 28ZM100.946 27.0114L101.142 26.0308L101.141 26.0306L100.946 27.0114ZM96.4119 26.108L96.2158 27.0885L96.2165 27.0887L96.4119 26.108ZM90.7017 23.4489L89.9882 24.1495L89.9914 24.1528L90.7017 23.4489ZM90.2074 14.2784L89.4101 13.6748L89.4065 13.6796L90.2074 14.2784ZM94.0767 11.4659L93.7097 10.5357L93.7075 10.5366L94.0767 11.4659ZM107.747 12.5739L107.154 13.379L107.156 13.3807L107.747 12.5739ZM111.027 17.286L104.379 17.6951L104.502 19.6913L111.149 19.2822L111.027 17.286ZM105.421 18.4971C105.274 17.7643 104.957 17.1023 104.479 16.5227L102.936 17.7955C103.208 18.125 103.379 18.4857 103.46 18.8893L105.421 18.4971ZM104.486 16.5321C104 15.9278 103.371 15.4666 102.631 15.1373L101.818 16.9649C102.305 17.1811 102.665 17.4586 102.928 17.7861L104.486 16.5321ZM102.651 15.1467C101.885 14.7854 101.01 14.625 100.06 14.625V16.625C100.791 16.625 101.359 16.7487 101.798 16.9556L102.651 15.1467ZM100.06 14.625C98.7932 14.625 97.652 14.8944 96.6876 15.4901L97.7386 17.1917C98.3196 16.8328 99.0761 16.625 100.06 16.625V14.625ZM96.6967 15.4845C95.6775 16.099 95.054 17.0229 95.054 18.2159H97.054C97.054 17.8408 97.2031 17.5146 97.7294 17.1973L96.6967 15.4845ZM95.054 18.2159C95.054 19.1499 95.4447 19.9485 96.1504 20.558L97.4576 19.0443C97.1633 18.7901 97.054 18.5319 97.054 18.2159H95.054ZM96.1504 20.558C96.8462 21.1589 97.9088 21.548 99.1677 21.8186L99.588 19.8632C98.415 19.6111 97.7618 19.307 97.4576 19.0443L96.1504 20.558ZM99.1804 21.8212L103.919 22.7758L104.314 20.8151L99.5753 19.8606L99.1804 21.8212ZM103.915 22.775C106.368 23.2788 108.067 24.0656 109.13 25.0514L110.49 23.5849C109.053 22.2526 106.955 21.3576 104.318 20.8159L103.915 22.775ZM109.13 25.0514C110.153 26 110.685 27.2454 110.685 28.8864H112.685C112.685 26.7546 111.967 24.9545 110.49 23.5849L109.13 25.0514ZM110.685 28.8864C110.685 30.3898 110.247 31.6765 109.379 32.788L110.956 34.0188C112.111 32.5394 112.685 30.8147 112.685 28.8864H110.685ZM109.376 32.7924C108.498 33.9295 107.274 34.843 105.659 35.5141L106.426 37.3609C108.312 36.5775 109.837 35.4683 110.959 34.0145L109.376 32.7924ZM105.662 35.5128C104.066 36.1698 102.194 36.5114 100.026 36.5114V38.5114C102.402 38.5114 104.542 38.137 106.423 37.3622L105.662 35.5128ZM100.026 36.5114C96.6893 36.5114 94.1514 35.8159 92.3158 34.528L91.1671 36.1652C93.4452 37.7636 96.43 38.5114 100.026 38.5114V36.5114ZM92.321 34.5316C90.5009 33.2373 89.4493 31.5051 89.1351 29.2752L87.1547 29.5543C87.545 32.3245 88.8912 34.5468 91.162 36.1615L92.321 34.5316ZM88.1973 30.4134L95.3394 30.0384L95.2345 28.0411L88.0925 28.4161L88.1973 30.4134ZM94.3072 29.2399C94.571 30.5316 95.2317 31.5749 96.2978 32.2905L97.4124 30.6299C96.8194 30.2319 96.4346 29.6616 96.2667 28.8396L94.3072 29.2399ZM96.3057 32.2958C97.3414 32.9768 98.6106 33.2784 100.043 33.2784V31.2784C98.8837 31.2784 98.028 31.0346 97.4045 30.6247L96.3057 32.2958ZM100.043 33.2784C101.433 33.2784 102.662 33.0127 103.645 32.3906L102.576 30.7003C102.015 31.0555 101.197 31.2784 100.043 31.2784V33.2784ZM103.648 32.3886C104.655 31.7466 105.287 30.8207 105.304 29.6338L103.304 29.6048C103.299 29.9861 103.135 30.3443 102.573 30.7023L103.648 32.3886ZM105.304 29.6021C105.287 28.6236 104.853 27.8045 104.079 27.208L102.858 28.792C103.175 29.0364 103.298 29.2969 103.304 29.6366L105.304 29.6021ZM104.089 27.216C103.364 26.6413 102.343 26.2709 101.142 26.0308L100.75 27.9919C101.822 28.2063 102.483 28.4951 102.848 28.784L104.089 27.216ZM101.141 26.0306L96.6073 25.1272L96.2165 27.0887L100.751 27.9921L101.141 26.0306ZM96.608 25.1274C94.1598 24.6377 92.4706 23.8132 91.412 22.745L89.9914 24.1528C91.4328 25.6073 93.5504 26.5555 96.2158 27.0885L96.608 25.1274ZM91.4152 22.7482C90.3804 21.6944 89.8438 20.3478 89.8438 18.625H87.8438C87.8438 20.8113 88.5458 22.6806 89.9882 24.1495L91.4152 22.7482ZM89.8438 18.625C89.8438 17.1345 90.2424 15.9016 91.0083 14.8772L89.4065 13.6796C88.3542 15.087 87.8438 16.7518 87.8438 18.625H89.8438ZM91.0047 14.882C91.7973 13.835 92.9272 12.9986 94.4459 12.3953L93.7075 10.5366C91.908 11.2514 90.4584 12.29 89.4101 13.6748L91.0047 14.882ZM94.4437 12.3961C95.9724 11.793 97.7975 11.4773 99.9403 11.4773V9.47727C97.6059 9.47727 95.5219 9.82067 93.7097 10.5357L94.4437 12.3961ZM99.9403 11.4773C103.117 11.4773 105.485 12.1498 107.154 13.379L108.34 11.7687C106.214 10.2025 103.377 9.47727 99.9403 9.47727V11.4773ZM107.156 13.3807C108.839 14.6124 109.813 16.2682 110.097 18.415L112.079 18.1532C111.727 15.4818 110.474 13.3308 108.338 11.767L107.156 13.3807ZM130.183 10.8182H131.183V9.81818H130.183V10.8182ZM130.183 16.2727V17.2727H131.183V16.2727H130.183ZM114.416 16.2727H113.416V17.2727H114.416V16.2727ZM114.416 10.8182V9.81818H113.416V10.8182H114.416ZM117.996 4.54545V3.54545H116.996V4.54545H117.996ZM125.257 4.54545H126.257V3.54545H125.257V4.54545ZM125.564 30.5227L124.686 31.0016L124.692 31.013L125.564 30.5227ZM126.416 31.2898L126.04 32.2163L126.05 32.2202L126.416 31.2898ZM128.734 31.4261L128.899 32.4125L128.915 32.4099L128.93 32.4067L128.734 31.4261ZM129.518 31.2727L130.497 31.0659L130.295 30.1097L129.334 30.2899L129.518 31.2727ZM130.661 36.6761L130.959 37.6306L131.827 37.3593L131.639 36.4693L130.661 36.6761ZM129.126 37.0682L128.908 36.0924L128.9 36.0942L128.892 36.0961L129.126 37.0682ZM126.723 37.358L126.687 36.3586L126.684 36.3587L126.723 37.358ZM122.121 36.6591L121.742 37.5848L121.745 37.5859L122.121 36.6591ZM119.07 34.1705L119.909 33.6276L119.07 34.1705ZM117.996 29.9091L118.996 29.9157V29.9091H117.996ZM129.183 10.8182V16.2727H131.183V10.8182H129.183ZM130.183 15.2727H114.416V17.2727H130.183V15.2727ZM115.416 16.2727V10.8182H113.416V16.2727H115.416ZM114.416 11.8182H130.183V9.81818H114.416V11.8182ZM117.996 5.54545H125.257V3.54545H117.996V5.54545ZM124.257 4.54545V28.9545H126.257V4.54545H124.257ZM124.257 28.9545C124.257 29.7061 124.368 30.4191 124.686 31.0016L126.442 30.0439C126.35 29.8764 126.257 29.5439 126.257 28.9545H124.257ZM124.692 31.013C125 31.5605 125.453 31.9777 126.04 32.2162L126.793 30.3633C126.652 30.3063 126.537 30.2122 126.436 30.0325L124.692 31.013ZM126.05 32.2202C126.563 32.4225 127.123 32.5114 127.712 32.5114V30.5114C127.323 30.5114 127.019 30.4525 126.783 30.3594L126.05 32.2202ZM127.712 32.5114C128.108 32.5114 128.504 32.4783 128.899 32.4125L128.57 30.4397C128.283 30.4876 127.997 30.5114 127.712 30.5114V32.5114ZM128.93 32.4067C129.27 32.3388 129.527 32.2886 129.703 32.2556L129.334 30.2899C129.146 30.3251 128.88 30.3771 128.538 30.4456L128.93 32.4067ZM128.54 31.4795L129.682 36.8829L131.639 36.4693L130.497 31.0659L128.54 31.4795ZM130.362 35.7217C130.037 35.8232 129.557 35.9469 128.908 36.0924L129.345 38.044C130.014 37.8941 130.556 37.7564 130.959 37.6306L130.362 35.7217ZM128.892 36.0961C128.318 36.2347 127.587 36.3261 126.687 36.3586L126.759 38.3573C127.745 38.3217 128.617 38.2198 129.361 38.0403L128.892 36.0961ZM126.684 36.3587C125.044 36.4226 123.656 36.2023 122.496 35.7323L121.745 37.5859C123.222 38.1841 124.902 38.4297 126.762 38.3572L126.684 36.3587ZM122.499 35.7334C121.371 35.2723 120.519 34.5712 119.909 33.6276L118.23 34.7134C119.074 36.0197 120.257 36.9777 121.742 37.5848L122.499 35.7334ZM119.909 33.6276C119.314 32.7065 118.985 31.4911 118.996 29.9157L116.996 29.9025C116.983 31.7589 117.371 33.3844 118.23 34.7134L119.909 33.6276ZM118.996 29.9091V4.54545H116.996V29.9091H118.996ZM134.913 37H133.913V38H134.913V37ZM134.913 10.8182V9.81818H133.913V10.8182H134.913ZM141.953 10.8182H142.953V9.81818H141.953V10.8182ZM141.953 15.3864H140.953V16.3864H141.953V15.3864ZM142.226 15.3864V16.3864H142.974L143.185 15.6682L142.226 15.3864ZM144.629 11.7045L145.223 12.5094L145.228 12.5055L144.629 11.7045ZM149.692 10.5114L149.799 9.51715L149.692 10.5114ZM150.8 10.6989H151.8V9.91808L151.042 9.72872L150.8 10.6989ZM150.8 17.142L150.512 18.0999L151.8 18.4861V17.142H150.8ZM144.868 17.4489L145.348 18.3258L145.353 18.3236L144.868 17.4489ZM142.891 19.358L142.032 18.8452L142.027 18.8541L142.891 19.358ZM142.175 37V38H143.175V37H142.175ZM135.913 37V10.8182H133.913V37H135.913ZM134.913 11.8182H141.953V9.81818H134.913V11.8182ZM140.953 10.8182V15.3864H142.953V10.8182H140.953ZM141.953 16.3864H142.226V14.3864H141.953V16.3864ZM143.185 15.6682C143.614 14.2072 144.308 13.1836 145.223 12.5094L144.036 10.8997C142.7 11.8845 141.792 13.3155 141.266 15.1046L143.185 15.6682ZM145.228 12.5055C146.172 11.7997 147.255 11.4432 148.516 11.4432V9.44318C146.844 9.44318 145.336 9.92754 144.031 10.9036L145.228 12.5055ZM148.516 11.4432C148.838 11.4432 149.194 11.4634 149.584 11.5056L149.799 9.51715C149.349 9.46845 148.92 9.44318 148.516 9.44318V11.4432ZM149.584 11.5056C149.971 11.5474 150.294 11.6032 150.557 11.669L151.042 9.72872C150.669 9.63543 150.253 9.5662 149.799 9.51715L149.584 11.5056ZM149.8 10.6989V17.142H151.8V10.6989H149.8ZM151.087 16.1842C150.672 16.0596 150.14 15.9603 149.516 15.8779L149.254 17.8607C149.835 17.9374 150.246 18.0199 150.512 18.0999L151.087 16.1842ZM149.516 15.8779C148.879 15.7938 148.283 15.75 147.732 15.75V17.75C148.18 17.75 148.686 17.7857 149.254 17.8607L149.516 15.8779ZM147.732 15.75C146.513 15.75 145.388 16.0172 144.383 16.5742L145.353 18.3236C146.029 17.9487 146.814 17.75 147.732 17.75V15.75ZM144.387 16.5719C143.4 17.1127 142.611 17.8753 142.032 18.8452L143.749 19.8707C144.147 19.2042 144.676 18.6941 145.348 18.3258L144.387 16.5719ZM142.027 18.8541C141.449 19.844 141.175 20.9653 141.175 22.1875H143.175C143.175 21.2733 143.377 20.5083 143.754 19.8618L142.027 18.8541ZM141.175 22.1875V37H143.175V22.1875H141.175ZM142.175 36H134.913V38H142.175V36ZM156.804 36.625L156.392 37.5362L156.399 37.5391L156.804 36.625ZM153.702 34.017L152.862 34.5603L152.868 34.5698L153.702 34.017ZM153.378 26.0227L152.498 25.5474L153.378 26.0227ZM155.56 23.6364L155.012 22.7996L155.56 23.6364ZM158.696 22.2727L158.445 21.3048L158.442 21.3054L158.696 22.2727ZM162.412 21.625L162.508 22.6204L162.516 22.6196L162.412 21.625ZM166.094 21.1818L166.239 22.1713L166.25 22.1695L166.094 21.1818ZM168.122 20.5341L167.562 19.7055L168.122 20.5341ZM167.73 16.6648L167.069 17.415L167.075 17.4205L167.73 16.6648ZM161.747 16.6477L162.34 17.4534L162.347 17.4477L161.747 16.6477ZM160.213 18.7955L160.132 19.7922L160.946 19.8583L161.174 19.0735L160.213 18.7955ZM153.497 18.25L152.519 18.0405L152.281 19.1545L153.416 19.2467L153.497 18.25ZM155.509 14.125L156.266 14.7782L156.269 14.7746L155.509 14.125ZM159.378 11.4318L159.746 12.3617L159.749 12.3603L159.378 11.4318ZM169.077 10.9886L168.828 11.9573L168.83 11.9578L169.077 10.9886ZM172.639 12.5739L172.07 13.3961L172.074 13.3989L172.639 12.5739ZM175.111 15.3352L174.229 15.8072L174.231 15.8109L175.111 15.3352ZM176.014 37V38H177.014V37H176.014ZM169.128 37H168.128V38H169.128V37ZM169.128 33.3693H170.128V32.3693H169.128V33.3693ZM168.923 33.3693V32.3693H168.313L168.034 32.9123L168.923 33.3693ZM167.236 35.5341L167.893 36.2882L167.899 36.2822L167.236 35.5341ZM164.696 36.983L165.022 37.9284L165.032 37.9249L164.696 36.983ZM166.179 31.8523L166.636 32.7418L166.646 32.7367L166.179 31.8523ZM168.105 30.1136L167.263 29.5742V29.5742L168.105 30.1136ZM168.804 24.8636H169.804V23.021L168.259 24.0252L168.804 24.8636ZM167.866 25.2727L168.149 26.2321L168.158 26.2295L168.166 26.2267L167.866 25.2727ZM166.554 25.5966L166.737 26.5797L166.748 26.5777L166.759 26.5754L166.554 25.5966ZM165.088 25.8523L165.226 26.8427L165.238 26.8411L165.249 26.8393L165.088 25.8523ZM163.759 26.0398L163.617 25.0498L163.613 25.0504L163.759 26.0398ZM161.526 26.6364L161.919 27.5555L161.526 26.6364ZM160.043 27.7443L160.833 28.3569L160.84 28.3474L160.043 27.7443ZM160.588 31.7159L159.998 32.5235L160.006 32.5288L160.013 32.5339L160.588 31.7159ZM161.27 36.4943C159.716 36.4943 158.369 36.2251 157.209 35.7109L156.399 37.5391C157.853 38.184 159.483 38.4943 161.27 38.4943V36.4943ZM157.216 35.7138C156.073 35.197 155.188 34.4486 154.535 33.4643L152.868 34.5698C153.738 35.8809 154.921 36.8712 156.392 37.5362L157.216 35.7138ZM154.541 33.4738C153.919 32.5128 153.577 31.2703 153.577 29.6875H151.577C151.577 31.5592 151.984 33.2031 152.862 34.5603L154.541 33.4738ZM153.577 29.6875C153.577 28.3514 153.822 27.3039 154.258 26.498L152.498 25.5474C151.865 26.7188 151.577 28.1145 151.577 29.6875H153.577ZM154.258 26.498C154.715 25.6524 155.329 24.9824 156.107 24.4732L155.012 22.7996C153.95 23.4949 153.109 24.4158 152.498 25.5474L154.258 26.498ZM156.107 24.4732C156.929 23.9356 157.873 23.5222 158.95 23.24L158.442 21.3054C157.178 21.6369 156.031 22.1326 155.012 22.7996L156.107 24.4732ZM158.947 23.2406C160.075 22.9479 161.262 22.7407 162.508 22.6204L162.316 20.6296C160.971 20.7593 159.681 20.9839 158.445 21.3048L158.947 23.2406ZM162.516 22.6196C164.045 22.4598 165.287 22.3105 166.239 22.1713L165.949 20.1924C165.036 20.3259 163.824 20.472 162.308 20.6304L162.516 22.6196ZM166.25 22.1695C167.223 22.0152 168.076 21.7719 168.682 21.3627L167.562 19.7055C167.327 19.8644 166.828 20.0529 165.937 20.1942L166.25 22.1695ZM168.682 21.3627C169.408 20.8723 169.753 20.1236 169.753 19.2727H167.753C167.753 19.5355 167.677 19.6277 167.562 19.7055L168.682 21.3627ZM169.753 19.2727V19.1705H167.753V19.2727H169.753ZM169.753 19.1705C169.753 17.8634 169.329 16.7274 168.385 15.9091L167.075 17.4205C167.495 17.784 167.753 18.3184 167.753 19.1705H169.753ZM168.391 15.9146C167.478 15.1098 166.255 14.7784 164.866 14.7784V16.7784C165.956 16.7784 166.641 17.0379 167.069 17.415L168.391 15.9146ZM164.866 14.7784C163.419 14.7784 162.145 15.0994 161.147 15.8477L162.347 17.4477C162.895 17.037 163.701 16.7784 164.866 16.7784V14.7784ZM161.155 15.8421C160.217 16.5315 159.568 17.4275 159.253 18.5174L161.174 19.0735C161.358 18.4361 161.732 17.9004 162.34 17.4534L161.155 15.8421ZM160.294 17.7987L153.578 17.2533L153.416 19.2467L160.132 19.7922L160.294 17.7987ZM154.475 18.4595C154.783 17.022 155.382 15.8023 156.266 14.7782L154.751 13.4718C153.635 14.7659 152.893 16.2961 152.519 18.0405L154.475 18.4595ZM156.269 14.7746C157.152 13.7406 158.302 12.933 159.746 12.3617L159.01 10.502C157.295 11.1807 155.865 12.1685 154.748 13.4754L156.269 14.7746ZM159.749 12.3603C161.199 11.7803 162.91 11.4773 164.901 11.4773V9.47727C162.71 9.47727 160.738 9.81057 159.006 10.5033L159.749 12.3603ZM164.901 11.4773C166.276 11.4773 167.585 11.6384 168.828 11.9573L169.325 10.02C167.91 9.65705 166.434 9.47727 164.901 9.47727V11.4773ZM168.83 11.9578C170.067 12.2723 171.143 12.7544 172.07 13.3961L173.208 11.7517C172.067 10.9615 170.768 10.3868 169.323 10.0195L168.83 11.9578ZM172.074 13.3989C172.986 14.0236 173.702 14.8225 174.229 15.8072L175.992 14.8633C175.315 13.5979 174.383 12.556 173.204 11.7488L172.074 13.3989ZM174.231 15.8109C174.738 16.7486 175.014 17.9125 175.014 19.3409H177.014C177.014 17.6557 176.688 16.1492 175.99 14.8595L174.231 15.8109ZM175.014 19.3409V37H177.014V19.3409H175.014ZM176.014 36H169.128V38H176.014V36ZM170.128 37V33.3693H168.128V37H170.128ZM169.128 32.3693H168.923V34.3693H169.128V32.3693ZM168.034 32.9123C167.671 33.6176 167.186 34.2412 166.572 34.786L167.899 36.2822C168.694 35.577 169.334 34.7574 169.813 33.8264L168.034 32.9123ZM166.579 34.78C165.98 35.302 165.246 35.7255 164.36 36.041L165.032 37.9249C166.124 37.5358 167.083 36.9935 167.893 36.2882L166.579 34.78ZM164.37 36.0376C163.508 36.3349 162.48 36.4943 161.27 36.4943V38.4943C162.651 38.4943 163.907 38.3129 165.022 37.9283L164.37 36.0376ZM163.349 33.483C164.551 33.483 165.655 33.2457 166.636 32.7417L165.722 30.9628C165.066 31.2997 164.284 31.483 163.349 31.483V33.483ZM166.646 32.7367C167.605 32.2301 168.381 31.5361 168.947 30.6531L167.263 29.5742C166.897 30.1457 166.389 30.6108 165.712 30.9679L166.646 32.7367ZM168.947 30.6531C169.523 29.7541 169.804 28.7406 169.804 27.642H167.804C167.804 28.3844 167.619 29.0187 167.263 29.5742L168.947 30.6531ZM169.804 27.642V24.8636H167.804V27.642H169.804ZM168.259 24.0252C168.137 24.1045 167.919 24.208 167.567 24.3187L168.166 26.2267C168.609 26.0874 169.016 25.9183 169.349 25.7021L168.259 24.0252ZM167.584 24.3134C167.229 24.418 166.818 24.5197 166.349 24.6178L166.759 26.5754C167.268 26.4689 167.732 26.3547 168.149 26.2321L167.584 24.3134ZM166.371 24.6135C165.89 24.703 165.409 24.7869 164.927 24.8653L165.249 26.8393C165.745 26.7585 166.241 26.672 166.737 26.5797L166.371 24.6135ZM164.95 24.8619C164.46 24.9302 164.016 24.9928 163.617 25.0498L163.9 27.0297C164.296 26.9731 164.738 26.9107 165.226 26.8427L164.95 24.8619ZM163.613 25.0504C162.695 25.185 161.864 25.4033 161.132 25.7172L161.919 27.5555C162.46 27.324 163.117 27.1445 163.904 27.0292L163.613 25.0504ZM161.132 25.7172C160.365 26.0457 159.72 26.513 159.245 27.1412L160.84 28.3474C161.07 28.0439 161.413 27.7725 161.919 27.5555L161.132 25.7172ZM159.252 27.1317C158.74 27.7926 158.514 28.5879 158.514 29.4489H160.514C160.514 28.9462 160.641 28.6052 160.833 28.3569L159.252 27.1317ZM158.514 29.4489C158.514 30.7142 158.992 31.7888 159.998 32.5235L161.178 30.9083C160.752 30.5976 160.514 30.1608 160.514 29.4489H158.514ZM160.013 32.5339C160.947 33.1906 162.082 33.483 163.349 33.483V31.483C162.389 31.483 161.684 31.2639 161.163 30.8979L160.013 32.5339ZM200.018 21.8636L199.018 21.8535V21.8636H200.018ZM200.018 37V38H201.018V37H200.018ZM192.757 37H191.757V38H192.757V37ZM192.757 2.09091V1.09091H191.757V2.09091H192.757ZM199.814 2.09091H200.814V1.09091H199.814V2.09091ZM199.814 15.4375H198.814V16.4375H199.814V15.4375ZM200.121 15.4375V16.4375H200.809L201.055 15.7946L200.121 15.4375ZM202.984 11.8068L203.537 12.64L203.542 12.6367L202.984 11.8068ZM212.7 11.6705L212.193 12.5324L212.202 12.5374L212.7 11.6705ZM215.871 15.0625L214.979 15.5152L214.983 15.5234L215.871 15.0625ZM216.996 20.3295L215.996 20.324V20.3295H216.996ZM216.996 37V38H217.996V37H216.996ZM209.734 37H208.734V38H209.734V37ZM209.734 21.625L208.734 21.618V21.625H209.734ZM208.507 17.858L207.768 18.5316L207.773 18.5366L208.507 17.858ZM202.439 17.142L201.955 16.2666L201.95 16.2698L202.439 17.142ZM200.666 18.983L199.785 18.5111L199.782 18.5156L200.666 18.983ZM199.018 21.8636V37H201.018V21.8636H199.018ZM200.018 36H192.757V38H200.018V36ZM193.757 37V2.09091H191.757V37H193.757ZM192.757 3.09091H199.814V1.09091H192.757V3.09091ZM198.814 2.09091V15.4375H200.814V2.09091H198.814ZM199.814 16.4375H200.121V14.4375H199.814V16.4375ZM201.055 15.7946C201.575 14.4342 202.401 13.3943 203.537 12.64L202.431 10.9737C200.931 11.9693 199.848 13.3499 199.187 15.0804L201.055 15.7946ZM203.542 12.6367C204.658 11.8862 206.105 11.4773 207.945 11.4773V9.47727C205.807 9.47727 203.947 9.95466 202.426 10.977L203.542 12.6367ZM207.945 11.4773C209.613 11.4773 211.018 11.8409 212.193 12.5324L213.207 10.8085C211.678 9.90914 209.912 9.47727 207.945 9.47727V11.4773ZM212.202 12.5374C213.388 13.2192 214.312 14.2016 214.979 15.5152L216.762 14.6098C215.929 12.9689 214.74 11.6898 213.199 10.8035L212.202 12.5374ZM214.983 15.5234C215.654 16.8149 216.006 18.4028 215.996 20.324L217.996 20.3351C218.008 18.1654 217.61 16.2419 216.758 14.6016L214.983 15.5234ZM215.996 20.3295V37H217.996V20.3295H215.996ZM216.996 36H209.734V38H216.996V36ZM210.734 37V21.625H208.734V37H210.734ZM210.734 21.632C210.747 19.8479 210.293 18.317 209.242 17.1793L207.773 18.5366C208.38 19.1944 208.745 20.1748 208.734 21.618L210.734 21.632ZM209.246 17.1844C208.198 16.0346 206.757 15.5114 205.064 15.5114V17.5114C206.326 17.5114 207.18 17.8859 207.768 18.5316L209.246 17.1844ZM205.064 15.5114C203.93 15.5114 202.884 15.7538 201.956 16.2667L202.922 18.0174C203.516 17.6893 204.221 17.5114 205.064 17.5114V15.5114ZM201.95 16.2698C201.023 16.7896 200.3 17.5474 199.785 18.5111L201.548 19.4548C201.896 18.8049 202.355 18.3354 202.928 18.0143L201.95 16.2698ZM199.782 18.5156C199.271 19.483 199.031 20.6082 199.019 21.8535L201.018 21.8737C201.029 20.8691 201.221 20.0738 201.55 19.4503L199.782 18.5156ZM222.71 37H221.71V38H222.71V37ZM222.71 10.8182V9.81818H221.71V10.8182H222.71ZM229.972 10.8182H230.972V9.81818H229.972V10.8182ZM229.972 37V38H230.972V37H229.972ZM223.58 6.36932L222.889 7.09243L222.894 7.09769L222.9 7.10288L223.58 6.36932ZM223.58 1.1875L224.265 1.91602L224.265 1.9157L223.58 1.1875ZM229.119 1.1875L228.429 1.91061L228.434 1.91588L228.44 1.92106L229.119 1.1875ZM229.119 6.36932L229.804 7.09784L229.805 7.09752L229.119 6.36932ZM223.71 37V10.8182H221.71V37H223.71ZM222.71 11.8182H229.972V9.81818H222.71V11.8182ZM228.972 10.8182V37H230.972V10.8182H228.972ZM229.972 36H222.71V38H229.972V36ZM226.358 6.44318C225.523 6.44318 224.842 6.17574 224.259 5.63575L222.9 7.10288C223.863 7.99472 225.033 8.44318 226.358 8.44318V6.44318ZM224.27 5.6462C223.697 5.09891 223.438 4.48721 223.438 3.76136H221.438C221.438 5.05824 221.939 6.18518 222.889 7.09243L224.27 5.6462ZM223.438 3.76136C223.438 3.05095 223.694 2.45252 224.265 1.91602L222.895 0.458981C221.942 1.35429 221.438 2.47178 221.438 3.76136H223.438ZM224.265 1.9157C224.849 1.36635 225.528 1.09659 226.358 1.09659V-0.903411C225.029 -0.903411 223.856 -0.445896 222.894 0.459301L224.265 1.9157ZM226.358 1.09659C227.187 1.09659 227.858 1.36599 228.429 1.91061L229.81 0.46439C228.857 -0.445542 227.688 -0.903411 226.358 -0.903411V1.09659ZM228.44 1.92106C229.02 2.4591 229.278 3.05613 229.278 3.76136H231.278C231.278 2.46659 230.764 1.34772 229.799 0.453938L228.44 1.92106ZM229.278 3.76136C229.278 4.4821 229.017 5.09236 228.434 5.64112L229.805 7.09752C230.767 6.19172 231.278 5.06335 231.278 3.76136H229.278ZM228.434 5.6408C227.865 6.17605 227.192 6.44318 226.358 6.44318V8.44318C227.683 8.44318 228.851 7.9944 229.804 7.09784L228.434 5.6408ZM257.572 18.2841L257.634 19.2822L258.704 19.2163L258.564 18.1532L257.572 18.2841ZM250.925 18.6932L249.944 18.8893L250.115 19.7449L250.986 19.6913L250.925 18.6932ZM250.192 17.1591L249.413 17.7861L249.42 17.7955L250.192 17.1591ZM248.709 16.0511L248.282 16.9556L248.292 16.9604L248.303 16.9649L248.709 16.0511ZM243.697 16.3409L244.214 17.1973L244.223 17.1917L243.697 16.3409ZM243.288 19.8011L242.635 20.558V20.558L243.288 19.8011ZM245.862 20.8409L245.652 21.8187L245.665 21.8212L245.862 20.8409ZM250.601 21.7955L250.802 20.8159L250.798 20.8151L250.601 21.7955ZM256.294 24.3182L255.614 25.0514L256.294 24.3182ZM256.652 33.4034L255.864 32.788L255.86 32.7924L256.652 33.4034ZM252.527 36.4375L252.908 37.3622L252.911 37.3609L252.527 36.4375ZM238.226 35.3466L237.646 36.1616L237.651 36.1652L238.226 35.3466ZM234.629 29.4148L234.577 28.4161L233.487 28.4734L233.639 29.5543L234.629 29.4148ZM241.771 29.0398L242.751 28.8396L242.579 27.996L241.719 28.0411L241.771 29.0398ZM243.339 31.4602L242.782 32.2906L242.79 32.2958L243.339 31.4602ZM249.595 31.5455L250.13 32.3907L250.133 32.3886L249.595 31.5455ZM250.788 29.6193L251.788 29.6338L251.788 29.6179L251.788 29.6021L250.788 29.6193ZM249.953 28L249.332 28.7841L249.343 28.792L249.953 28ZM247.43 27.0114L247.627 26.0308L247.626 26.0306L247.43 27.0114ZM242.896 26.108L242.7 27.0885L242.701 27.0887L242.896 26.108ZM237.186 23.4489L236.473 24.1495L236.476 24.1528L237.186 23.4489ZM236.692 14.2784L235.894 13.6748L235.891 13.6796L236.692 14.2784ZM240.561 11.4659L240.194 10.5357L240.192 10.5366L240.561 11.4659ZM254.232 12.5739L253.639 13.379L253.641 13.3807L254.232 12.5739ZM257.511 17.286L250.863 17.6951L250.986 19.6913L257.634 19.2822L257.511 17.286ZM251.905 18.4971C251.759 17.7643 251.441 17.1023 250.963 16.5227L249.42 17.7955C249.692 18.125 249.863 18.4857 249.944 18.8893L251.905 18.4971ZM250.971 16.5321C250.484 15.9278 249.856 15.4666 249.115 15.1373L248.303 16.9649C248.789 17.1811 249.149 17.4586 249.413 17.7861L250.971 16.5321ZM249.135 15.1467C248.369 14.7854 247.495 14.625 246.544 14.625V16.625C247.275 16.625 247.844 16.7487 248.282 16.9556L249.135 15.1467ZM246.544 14.625C245.278 14.625 244.136 14.8944 243.172 15.4901L244.223 17.1917C244.804 16.8328 245.56 16.625 246.544 16.625V14.625ZM243.181 15.4845C242.162 16.099 241.538 17.0229 241.538 18.2159H243.538C243.538 17.8408 243.688 17.5146 244.214 17.1973L243.181 15.4845ZM241.538 18.2159C241.538 19.1499 241.929 19.9485 242.635 20.558L243.942 19.0443C243.648 18.7901 243.538 18.5319 243.538 18.2159H241.538ZM242.635 20.558C243.331 21.1589 244.393 21.548 245.652 21.8186L246.072 19.8632C244.899 19.6111 244.246 19.307 243.942 19.0443L242.635 20.558ZM245.665 21.8212L250.403 22.7758L250.798 20.8151L246.06 19.8606L245.665 21.8212ZM250.4 22.775C252.853 23.2788 254.551 24.0656 255.614 25.0514L256.974 23.5849C255.537 22.2526 253.44 21.3576 250.802 20.8159L250.4 22.775ZM255.614 25.0514C256.637 26 257.169 27.2454 257.169 28.8864H259.169C259.169 26.7546 258.451 24.9545 256.974 23.5849L255.614 25.0514ZM257.169 28.8864C257.169 30.3898 256.732 31.6765 255.864 32.788L257.44 34.0188C258.595 32.5394 259.169 30.8147 259.169 28.8864H257.169ZM255.86 32.7924C254.983 33.9295 253.758 34.843 252.143 35.5141L252.911 37.3609C254.796 36.5775 256.321 35.4683 257.444 34.0145L255.86 32.7924ZM252.146 35.5128C250.551 36.1698 248.679 36.5114 246.51 36.5114V38.5114C248.887 38.5114 251.026 38.137 252.908 37.3622L252.146 35.5128ZM246.51 36.5114C243.174 36.5114 240.636 35.8159 238.8 34.528L237.651 36.1652C239.93 37.7636 242.914 38.5114 246.51 38.5114V36.5114ZM238.805 34.5316C236.985 33.2373 235.934 31.5051 235.619 29.2752L233.639 29.5543C234.029 32.3245 235.376 34.5468 237.646 36.1615L238.805 34.5316ZM234.682 30.4134L241.824 30.0384L241.719 28.0411L234.577 28.4161L234.682 30.4134ZM240.792 29.2399C241.055 30.5316 241.716 31.5749 242.782 32.2905L243.897 30.6299C243.304 30.2319 242.919 29.6616 242.751 28.8396L240.792 29.2399ZM242.79 32.2958C243.826 32.9768 245.095 33.2784 246.527 33.2784V31.2784C245.368 31.2784 244.512 31.0346 243.889 30.6247L242.79 32.2958ZM246.527 33.2784C247.918 33.2784 249.146 33.0127 250.13 32.3906L249.061 30.7003C248.499 31.0555 247.682 31.2784 246.527 31.2784V33.2784ZM250.133 32.3886C251.14 31.7466 251.771 30.8207 251.788 29.6338L249.788 29.6048C249.783 29.9861 249.619 30.3443 249.058 30.7023L250.133 32.3886ZM251.788 29.6021C251.771 28.6236 251.337 27.8045 250.564 27.208L249.343 28.792C249.66 29.0364 249.783 29.2969 249.788 29.6366L251.788 29.6021ZM250.574 27.216C249.848 26.6413 248.827 26.2709 247.627 26.0308L247.234 27.9919C248.306 28.2063 248.967 28.4951 249.332 28.784L250.574 27.216ZM247.626 26.0306L243.092 25.1272L242.701 27.0887L247.235 27.9921L247.626 26.0306ZM243.092 25.1274C240.644 24.6377 238.955 23.8132 237.896 22.745L236.476 24.1528C237.917 25.6073 240.035 26.5555 242.7 27.0885L243.092 25.1274ZM237.9 22.7482C236.865 21.6944 236.328 20.3478 236.328 18.625H234.328C234.328 20.8113 235.03 22.6806 236.473 24.1495L237.9 22.7482ZM236.328 18.625C236.328 17.1345 236.727 15.9016 237.493 14.8772L235.891 13.6796C234.839 15.087 234.328 16.7518 234.328 18.625H236.328ZM237.489 14.882C238.282 13.835 239.412 12.9986 240.93 12.3953L240.192 10.5366C238.392 11.2514 236.943 12.29 235.894 13.6748L237.489 14.882ZM240.928 12.3961C242.457 11.793 244.282 11.4773 246.425 11.4773V9.47727C244.09 9.47727 242.006 9.82067 240.194 10.5357L240.928 12.3961ZM246.425 11.4773C249.602 11.4773 251.97 12.1498 253.639 13.379L254.825 11.7687C252.698 10.2025 249.861 9.47727 246.425 9.47727V11.4773ZM253.641 13.3807C255.323 14.6124 256.298 16.2682 256.581 18.415L258.564 18.1532C258.211 15.4818 256.958 13.3308 254.822 11.767L253.641 13.3807ZM276.668 10.8182H277.668V9.81818H276.668V10.8182ZM276.668 16.2727V17.2727H277.668V16.2727H276.668ZM260.901 16.2727H259.901V17.2727H260.901V16.2727ZM260.901 10.8182V9.81818H259.901V10.8182H260.901ZM264.48 4.54545V3.54545H263.48V4.54545H264.48ZM271.741 4.54545H272.741V3.54545H271.741V4.54545ZM272.048 30.5227L271.17 31.0016L271.177 31.013L272.048 30.5227ZM272.901 31.2898L272.524 32.2163L272.534 32.2202L272.901 31.2898ZM275.219 31.4261L275.383 32.4125L275.399 32.4099L275.415 32.4067L275.219 31.4261ZM276.003 31.2727L276.981 31.0659L276.779 30.1097L275.819 30.2899L276.003 31.2727ZM277.145 36.6761L277.443 37.6306L278.311 37.3593L278.123 36.4693L277.145 36.6761ZM275.611 37.0682L275.392 36.0924L275.384 36.0942L275.376 36.0961L275.611 37.0682ZM273.207 37.358L273.171 36.3586L273.168 36.3587L273.207 37.358ZM268.605 36.6591L268.227 37.5848L268.23 37.5859L268.605 36.6591ZM265.554 34.1705L266.394 33.6276L265.554 34.1705ZM264.48 29.9091L265.48 29.9157V29.9091H264.48ZM275.668 10.8182V16.2727H277.668V10.8182H275.668ZM276.668 15.2727H260.901V17.2727H276.668V15.2727ZM261.901 16.2727V10.8182H259.901V16.2727H261.901ZM260.901 11.8182H276.668V9.81818H260.901V11.8182ZM264.48 5.54545H271.741V3.54545H264.48V5.54545ZM270.741 4.54545V28.9545H272.741V4.54545H270.741ZM270.741 28.9545C270.741 29.7061 270.853 30.4191 271.17 31.0016L272.926 30.0439C272.835 29.8764 272.741 29.5439 272.741 28.9545H270.741ZM271.177 31.013C271.485 31.5605 271.937 31.9777 272.524 32.2162L273.277 30.3633C273.137 30.3063 273.021 30.2122 272.92 30.0325L271.177 31.013ZM272.534 32.2202C273.048 32.4225 273.608 32.5114 274.196 32.5114V30.5114C273.807 30.5114 273.503 30.4525 273.267 30.3594L272.534 32.2202ZM274.196 32.5114C274.593 32.5114 274.989 32.4783 275.383 32.4125L275.054 30.4397C274.767 30.4876 274.481 30.5114 274.196 30.5114V32.5114ZM275.415 32.4067C275.755 32.3388 276.011 32.2886 276.187 32.2556L275.819 30.2899C275.631 30.3251 275.365 30.3771 275.023 30.4456L275.415 32.4067ZM275.024 31.4795L276.167 36.8829L278.123 36.4693L276.981 31.0659L275.024 31.4795ZM276.847 35.7217C276.522 35.8232 276.041 35.9469 275.392 36.0924L275.829 38.044C276.498 37.8941 277.041 37.7564 277.443 37.6306L276.847 35.7217ZM275.376 36.0961C274.802 36.2347 274.071 36.3261 273.171 36.3586L273.243 38.3573C274.23 38.3217 275.102 38.2198 275.845 38.0403L275.376 36.0961ZM273.168 36.3587C271.528 36.4226 270.141 36.2023 268.981 35.7323L268.23 37.5859C269.706 38.1841 271.387 38.4297 273.246 38.3572L273.168 36.3587ZM268.983 35.7334C267.855 35.2723 267.004 34.5712 266.394 33.6276L264.714 34.7134C265.559 36.0197 266.741 36.9777 268.227 37.5848L268.983 35.7334ZM266.394 33.6276C265.798 32.7065 265.47 31.4911 265.48 29.9157L263.48 29.9025C263.468 31.7589 263.855 33.3844 264.714 34.7134L266.394 33.6276ZM265.48 29.9091V4.54545H263.48V29.9091H265.48ZM286.077 35.8239L285.567 36.6845L285.573 36.688L286.077 35.8239ZM281.628 31.0852L280.738 31.5424L280.739 31.5444L281.628 31.0852ZM281.628 16.9205L282.516 17.3796L282.517 17.3776L281.628 16.9205ZM286.077 12.1818L286.582 13.0447L286.584 13.0438L286.077 12.1818ZM299.798 12.1818L299.289 13.0425L299.295 13.046L299.798 12.1818ZM304.264 16.9205L303.375 17.3776L303.376 17.3796L304.264 16.9205ZM304.264 31.0852L305.153 31.5444L305.154 31.5424L304.264 31.0852ZM299.798 35.8239L300.304 36.6867L300.305 36.6858L299.798 35.8239ZM295.997 30.8636L296.643 31.6275L296.649 31.6221L295.997 30.8636ZM297.821 28.0341L296.878 27.7017L296.875 27.7098L297.821 28.0341ZM297.821 19.8864L296.875 20.2107L296.878 20.2187L297.821 19.8864ZM289.912 17.0568L289.271 16.2894L289.266 16.2938L289.912 17.0568ZM288.054 19.8864L287.111 19.554L287.108 19.562L288.054 19.8864ZM288.054 28.0341L287.108 28.3584L287.111 28.3664L288.054 28.0341ZM289.912 30.8636L289.266 31.6266L289.271 31.6314L289.277 31.6362L289.912 30.8636ZM292.946 36.5114C290.442 36.5114 288.333 35.9806 286.58 34.9597L285.573 36.688C287.684 37.9172 290.154 38.5114 292.946 38.5114V36.5114ZM286.586 34.9632C284.83 33.9245 283.477 32.4856 282.516 30.6261L280.739 31.5444C281.869 33.7303 283.482 35.4505 285.567 36.6845L286.586 34.9632ZM282.517 30.6281C281.556 28.7579 281.06 26.5616 281.06 24.0114H279.06C279.06 26.8248 279.609 29.3443 280.738 31.5424L282.517 30.6281ZM281.06 24.0114C281.06 21.4367 281.557 19.2361 282.516 17.3796L280.739 16.4613C279.608 18.6503 279.06 21.1769 279.06 24.0114H281.06ZM282.517 17.3776C283.478 15.5075 284.83 14.0709 286.582 13.0447L285.571 11.319C283.482 12.5427 281.868 14.2652 280.738 16.4633L282.517 17.3776ZM286.584 13.0438C288.336 12.013 290.444 11.4773 292.946 11.4773V9.47727C290.153 9.47727 287.681 10.0779 285.57 11.3199L286.584 13.0438ZM292.946 11.4773C295.448 11.4773 297.549 12.013 299.289 13.0424L300.308 11.3212C298.206 10.0779 295.739 9.47727 292.946 9.47727V11.4773ZM299.295 13.046C301.058 14.0726 302.414 15.5091 303.375 17.3776L305.154 16.4633C304.023 14.2636 302.402 12.541 300.302 11.3177L299.295 13.046ZM303.376 17.3796C304.335 19.2361 304.832 21.4367 304.832 24.0114H306.832C306.832 21.1769 306.284 18.6503 305.153 16.4613L303.376 17.3796ZM304.832 24.0114C304.832 26.5616 304.336 28.7579 303.375 30.6281L305.154 31.5424C306.283 29.3443 306.832 26.8248 306.832 24.0114H304.832ZM303.376 30.6261C302.416 32.4841 301.058 33.9228 299.291 34.9619L300.305 36.6858C302.402 35.4522 304.022 33.7318 305.153 31.5444L303.376 30.6261ZM299.293 34.961C297.552 35.9805 295.45 36.5114 292.946 36.5114V38.5114C295.738 38.5114 298.203 37.9172 300.304 36.6867L299.293 34.961ZM292.98 32.8864C294.386 32.8864 295.63 32.483 296.643 31.6274L295.352 30.0998C294.751 30.6079 293.984 30.8864 292.98 30.8864V32.8864ZM296.649 31.6221C297.614 30.7931 298.311 29.6885 298.767 28.3584L296.875 27.7098C296.513 28.7661 295.994 29.5478 295.345 30.1051L296.649 31.6221ZM298.764 28.3664C299.229 27.0473 299.452 25.5738 299.452 23.9602H297.452C297.452 25.3921 297.254 26.6346 296.878 27.7017L298.764 28.3664ZM299.452 23.9602C299.452 22.3467 299.229 20.8732 298.764 19.554L296.878 20.2187C297.254 21.2859 297.452 22.5283 297.452 23.9602H299.452ZM298.767 19.562C298.311 18.232 297.614 17.1274 296.649 16.2983L295.345 17.8153C295.994 18.3726 296.513 19.1544 296.875 20.2107L298.767 19.562ZM296.649 16.2983C295.637 15.4287 294.39 15.017 292.98 15.017V17.017C293.979 17.017 294.744 17.2986 295.345 17.8153L296.649 16.2983ZM292.98 15.017C291.561 15.017 290.303 15.4272 289.271 16.2895L290.553 17.8242C291.18 17.3001 291.967 17.017 292.98 17.017V15.017ZM289.266 16.2938C288.289 17.1208 287.58 18.2238 287.111 19.554L288.997 20.2187C289.369 19.1626 289.898 18.3792 290.558 17.8198L289.266 16.2938ZM287.108 19.562C286.657 20.8787 286.44 22.3493 286.44 23.9602H288.44C288.44 22.5257 288.633 21.2804 289 20.2107L287.108 19.562ZM286.44 23.9602C286.44 25.5712 286.657 27.0418 287.108 28.3584L289 27.7098C288.633 26.64 288.44 25.3947 288.44 23.9602H286.44ZM287.111 28.3664C287.58 29.6967 288.289 30.7996 289.266 31.6266L290.558 30.1007C289.898 29.5413 289.369 28.7579 288.997 27.7017L287.111 28.3664ZM289.277 31.6362C290.309 32.4844 291.565 32.8864 292.98 32.8864V30.8864C291.963 30.8864 291.174 30.6065 290.547 30.0911L289.277 31.6362ZM310.554 37H309.554V38H310.554V37ZM310.554 10.8182V9.81818H309.554V10.8182H310.554ZM317.594 10.8182H318.594V9.81818H317.594V10.8182ZM317.594 15.3864H316.594V16.3864H317.594V15.3864ZM317.866 15.3864V16.3864H318.615L318.826 15.6682L317.866 15.3864ZM320.27 11.7045L320.863 12.5094L320.869 12.5055L320.27 11.7045ZM325.332 10.5114L325.44 9.51715L325.332 10.5114ZM326.44 10.6989H327.44V9.91808L326.683 9.72872L326.44 10.6989ZM326.44 17.142L326.153 18.0999L327.44 18.4861V17.142H326.44ZM320.509 17.4489L320.989 18.3258L320.993 18.3236L320.509 17.4489ZM318.531 19.358L317.673 18.8452L317.667 18.8541L318.531 19.358ZM317.815 37V38H318.815V37H317.815ZM311.554 37V10.8182H309.554V37H311.554ZM310.554 11.8182H317.594V9.81818H310.554V11.8182ZM316.594 10.8182V15.3864H318.594V10.8182H316.594ZM317.594 16.3864H317.866V14.3864H317.594V16.3864ZM318.826 15.6682C319.255 14.2072 319.949 13.1836 320.863 12.5094L319.676 10.8997C318.341 11.8845 317.432 13.3155 316.907 15.1046L318.826 15.6682ZM320.869 12.5055C321.813 11.7997 322.896 11.4432 324.156 11.4432V9.44318C322.485 9.44318 320.977 9.92754 319.671 10.9036L320.869 12.5055ZM324.156 11.4432C324.479 11.4432 324.835 11.4634 325.225 11.5056L325.44 9.51715C324.989 9.46845 324.561 9.44318 324.156 9.44318V11.4432ZM325.225 11.5056C325.612 11.5474 325.935 11.6032 326.198 11.669L326.683 9.72872C326.31 9.63543 325.894 9.5662 325.44 9.51715L325.225 11.5056ZM325.44 10.6989V17.142H327.44V10.6989H325.44ZM326.728 16.1842C326.312 16.0596 325.78 15.9603 325.156 15.8779L324.895 17.8607C325.475 17.9374 325.887 18.0199 326.153 18.0999L326.728 16.1842ZM325.156 15.8779C324.52 15.7938 323.924 15.75 323.372 15.75V17.75C323.82 17.75 324.327 17.7857 324.895 17.8607L325.156 15.8779ZM323.372 15.75C322.154 15.75 321.029 16.0172 320.024 16.5742L320.993 18.3236C321.67 17.9487 322.454 17.75 323.372 17.75V15.75ZM320.028 16.5719C319.041 17.1127 318.252 17.8753 317.673 18.8452L319.39 19.8707C319.788 19.2042 320.317 18.6941 320.989 18.3258L320.028 16.5719ZM317.667 18.8541C317.09 19.844 316.815 20.9653 316.815 22.1875H318.815C318.815 21.2733 319.018 20.5083 319.395 19.8618L317.667 18.8541ZM316.815 22.1875V37H318.815V22.1875H316.815ZM317.815 36H310.554V38H317.815V36ZM330.195 37H329.195V38H330.195V37ZM330.195 10.8182V9.81818H329.195V10.8182H330.195ZM337.456 10.8182H338.456V9.81818H337.456V10.8182ZM337.456 37V38H338.456V37H337.456ZM331.064 6.36932L330.373 7.09243L330.379 7.09769L330.384 7.10288L331.064 6.36932ZM331.064 1.1875L331.749 1.91602L331.749 1.9157L331.064 1.1875ZM336.604 1.1875L335.913 1.91061L335.918 1.91588L335.924 1.92106L336.604 1.1875ZM336.604 6.36932L337.289 7.09784L337.289 7.09752L336.604 6.36932ZM331.195 37V10.8182H329.195V37H331.195ZM330.195 11.8182H337.456V9.81818H330.195V11.8182ZM336.456 10.8182V37H338.456V10.8182H336.456ZM337.456 36H330.195V38H337.456V36ZM333.842 6.44318C333.008 6.44318 332.326 6.17574 331.744 5.63575L330.384 7.10288C331.347 7.99472 332.518 8.44318 333.842 8.44318V6.44318ZM331.755 5.6462C331.182 5.09891 330.922 4.48721 330.922 3.76136H328.922C328.922 5.05824 329.423 6.18518 330.373 7.09243L331.755 5.6462ZM330.922 3.76136C330.922 3.05095 331.178 2.45252 331.749 1.91602L330.379 0.458981C329.427 1.35429 328.922 2.47178 328.922 3.76136H330.922ZM331.749 1.9157C332.333 1.36635 333.013 1.09659 333.842 1.09659V-0.903411C332.513 -0.903411 331.34 -0.445896 330.379 0.459301L331.749 1.9157ZM333.842 1.09659C334.672 1.09659 335.343 1.36599 335.913 1.91061L337.294 0.46439C336.342 -0.445542 335.172 -0.903411 333.842 -0.903411V1.09659ZM335.924 1.92106C336.505 2.4591 336.763 3.05613 336.763 3.76136H338.763C338.763 2.46659 338.248 1.34772 337.283 0.453938L335.924 1.92106ZM336.763 3.76136C336.763 4.4821 336.501 5.09236 335.918 5.64112L337.289 7.09752C338.251 6.19172 338.763 5.06335 338.763 3.76136H336.763ZM335.919 5.6408C335.349 6.17605 334.677 6.44318 333.842 6.44318V8.44318C335.167 8.44318 336.335 7.9944 337.289 7.09784L335.919 5.6408ZM346.273 36.625L345.861 37.5362L345.867 37.5391L346.273 36.625ZM343.17 34.017L342.331 34.5603L342.337 34.5698L343.17 34.017ZM342.847 26.0227L341.967 25.5474L342.847 26.0227ZM345.028 23.6364L344.481 22.7996L345.028 23.6364ZM348.165 22.2727L347.913 21.3048L347.911 21.3054L348.165 22.2727ZM351.881 21.625L351.977 22.6204L351.985 22.6196L351.881 21.625ZM355.562 21.1818L355.707 22.1713L355.719 22.1695L355.562 21.1818ZM357.591 20.5341L357.031 19.7055H357.031L357.591 20.5341ZM357.199 16.6648L356.538 17.415L356.544 17.4205L357.199 16.6648ZM351.216 16.6477L351.808 17.4534L351.816 17.4477L351.216 16.6477ZM349.682 18.7955L349.601 19.7922L350.415 19.8583L350.642 19.0735L349.682 18.7955ZM342.966 18.25L341.988 18.0405L341.749 19.1545L342.885 19.2467L342.966 18.25ZM344.977 14.125L345.734 14.7782L345.738 14.7746L344.977 14.125ZM348.847 11.4318L349.215 12.3617L349.218 12.3603L348.847 11.4318ZM358.545 10.9886L358.297 11.9573L358.299 11.9578L358.545 10.9886ZM362.108 12.5739L361.539 13.3961L361.543 13.3989L362.108 12.5739ZM364.58 15.3352L363.698 15.8072L363.7 15.8109L364.58 15.3352ZM365.483 37V38H366.483V37H365.483ZM358.597 37H357.597V38H358.597V37ZM358.597 33.3693H359.597V32.3693H358.597V33.3693ZM358.392 33.3693V32.3693H357.782L357.503 32.9123L358.392 33.3693ZM356.705 35.5341L357.361 36.2882L357.368 36.2822L356.705 35.5341ZM354.165 36.983L354.491 37.9284L354.5 37.9249L354.165 36.983ZM355.648 31.8523L356.105 32.7418L356.114 32.7367L355.648 31.8523ZM357.574 30.1136L356.732 29.5742V29.5742L357.574 30.1136ZM358.273 24.8636H359.273V23.021L357.728 24.0252L358.273 24.8636ZM357.335 25.2727L357.617 26.2321L357.626 26.2295L357.635 26.2267L357.335 25.2727ZM356.023 25.5966L356.206 26.5797L356.217 26.5777L356.228 26.5754L356.023 25.5966ZM354.557 25.8523L354.695 26.8427L354.706 26.8411L354.717 26.8393L354.557 25.8523ZM353.227 26.0398L353.086 25.0498L353.082 25.0504L353.227 26.0398ZM350.994 26.6364L351.388 27.5555L350.994 26.6364ZM349.511 27.7443L350.302 28.3569L350.309 28.3474L349.511 27.7443ZM350.057 31.7159L349.467 32.5235L349.474 32.5288L349.482 32.5339L350.057 31.7159ZM350.739 36.4943C349.185 36.4943 347.838 36.2251 346.678 35.7109L345.867 37.5391C347.322 38.184 348.952 38.4943 350.739 38.4943V36.4943ZM346.685 35.7138C345.542 35.197 344.657 34.4486 344.004 33.4643L342.337 34.5698C343.207 35.8809 344.39 36.8712 345.861 37.5362L346.685 35.7138ZM344.01 33.4738C343.388 32.5128 343.045 31.2703 343.045 29.6875H341.045C341.045 31.5592 341.453 33.2031 342.331 34.5603L344.01 33.4738ZM343.045 29.6875C343.045 28.3514 343.291 27.3039 343.726 26.498L341.967 25.5474C341.334 26.7188 341.045 28.1145 341.045 29.6875H343.045ZM343.726 26.498C344.183 25.6524 344.798 24.9824 345.576 24.4732L344.481 22.7996C343.418 23.4949 342.578 24.4158 341.967 25.5474L343.726 26.498ZM345.576 24.4732C346.398 23.9356 347.342 23.5222 348.418 23.24L347.911 21.3054C346.647 21.6369 345.5 22.1326 344.481 22.7996L345.576 24.4732ZM348.416 23.2406C349.544 22.9479 350.73 22.7407 351.977 22.6204L351.785 20.6296C350.44 20.7593 349.149 20.9839 347.913 21.3048L348.416 23.2406ZM351.985 22.6196C353.514 22.4598 354.756 22.3105 355.707 22.1713L355.418 20.1924C354.505 20.3259 353.293 20.472 351.777 20.6304L351.985 22.6196ZM355.719 22.1695C356.692 22.0152 357.545 21.7719 358.151 21.3627L357.031 19.7055C356.796 19.8644 356.297 20.0529 355.406 20.1942L355.719 22.1695ZM358.151 21.3627C358.877 20.8723 359.222 20.1236 359.222 19.2727H357.222C357.222 19.5355 357.146 19.6277 357.031 19.7055L358.151 21.3627ZM359.222 19.2727V19.1705H357.222V19.2727H359.222ZM359.222 19.1705C359.222 17.8634 358.798 16.7274 357.854 15.9091L356.544 17.4205C356.963 17.784 357.222 18.3184 357.222 19.1705H359.222ZM357.86 15.9146C356.947 15.1098 355.723 14.7784 354.335 14.7784V16.7784C355.424 16.7784 356.11 17.0379 356.538 17.415L357.86 15.9146ZM354.335 14.7784C352.887 14.7784 351.614 15.0994 350.616 15.8477L351.816 17.4477C352.364 17.037 353.169 16.7784 354.335 16.7784V14.7784ZM350.624 15.8421C349.686 16.5315 349.037 17.4275 348.721 18.5174L350.642 19.0735C350.827 18.4361 351.2 17.9004 351.808 17.4534L350.624 15.8421ZM349.763 17.7987L343.047 17.2533L342.885 19.2467L349.601 19.7922L349.763 17.7987ZM343.944 18.4595C344.252 17.022 344.851 15.8023 345.734 14.7782L344.22 13.4718C343.104 14.7659 342.362 16.2961 341.988 18.0405L343.944 18.4595ZM345.738 14.7746C346.621 13.7406 347.771 12.933 349.215 12.3617L348.479 10.502C346.763 11.1807 345.334 12.1685 344.217 13.4754L345.738 14.7746ZM349.218 12.3603C350.668 11.7803 352.378 11.4773 354.369 11.4773V9.47727C352.178 9.47727 350.207 9.81057 348.475 10.5033L349.218 12.3603ZM354.369 11.4773C355.745 11.4773 357.053 11.6384 358.297 11.9573L358.794 10.02C357.378 9.65705 355.903 9.47727 354.369 9.47727V11.4773ZM358.299 11.9578C359.536 12.2723 360.612 12.7544 361.539 13.3961L362.677 11.7517C361.536 10.9615 360.237 10.3868 358.792 10.0195L358.299 11.9578ZM361.543 13.3989C362.455 14.0236 363.171 14.8225 363.698 15.8072L365.461 14.8633C364.784 13.5979 363.852 12.556 362.673 11.7488L361.543 13.3989ZM363.7 15.8109C364.207 16.7486 364.483 17.9125 364.483 19.3409H366.483C366.483 17.6557 366.157 16.1492 365.459 14.8595L363.7 15.8109ZM364.483 19.3409V37H366.483V19.3409H364.483ZM365.483 36H358.597V38H365.483V36ZM359.597 37V33.3693H357.597V37H359.597ZM358.597 32.3693H358.392V34.3693H358.597V32.3693ZM357.503 32.9123C357.14 33.6176 356.655 34.2412 356.041 34.786L357.368 36.2822C358.163 35.577 358.803 34.7574 359.281 33.8264L357.503 32.9123ZM356.048 34.78C355.448 35.302 354.714 35.7255 353.829 36.041L354.5 37.9249C355.592 37.5358 356.552 36.9935 357.361 36.2882L356.048 34.78ZM353.839 36.0376C352.977 36.3349 351.949 36.4943 350.739 36.4943V38.4943C352.12 38.4943 353.376 38.3129 354.491 37.9283L353.839 36.0376ZM352.818 33.483C354.02 33.483 355.124 33.2457 356.105 32.7417L355.191 30.9628C354.535 31.2997 353.753 31.483 352.818 31.483V33.483ZM356.114 32.7367C357.074 32.2301 357.85 31.5361 358.416 30.6531L356.732 29.5742C356.366 30.1457 355.858 30.6108 355.181 30.9679L356.114 32.7367ZM358.416 30.6531C358.992 29.7541 359.273 28.7406 359.273 27.642H357.273C357.273 28.3844 357.088 29.0187 356.732 29.5742L358.416 30.6531ZM359.273 27.642V24.8636H357.273V27.642H359.273ZM357.728 24.0252C357.606 24.1045 357.388 24.208 357.035 24.3187L357.635 26.2267C358.078 26.0874 358.485 25.9183 358.818 25.7021L357.728 24.0252ZM357.053 24.3134C356.697 24.418 356.286 24.5197 355.818 24.6178L356.228 26.5754C356.736 26.4689 357.2 26.3547 357.617 26.2321L357.053 24.3134ZM355.84 24.6135C355.359 24.703 354.877 24.7869 354.396 24.8653L354.717 26.8393C355.214 26.7585 355.71 26.672 356.206 26.5797L355.84 24.6135ZM354.419 24.8619C353.929 24.9302 353.485 24.9928 353.086 25.0498L353.369 27.0297C353.765 26.9731 354.207 26.9107 354.695 26.8427L354.419 24.8619ZM353.082 25.0504C352.164 25.185 351.333 25.4033 350.6 25.7172L351.388 27.5555C351.928 27.324 352.586 27.1445 353.372 27.0292L353.082 25.0504ZM350.6 25.7172C349.834 26.0457 349.189 26.513 348.714 27.1412L350.309 28.3474C350.539 28.0439 350.882 27.7725 351.388 27.5555L350.6 25.7172ZM348.721 27.1317C348.209 27.7926 347.983 28.5879 347.983 29.4489H349.983C349.983 28.9462 350.109 28.6052 350.302 28.3569L348.721 27.1317ZM347.983 29.4489C347.983 30.7142 348.461 31.7888 349.467 32.5235L350.647 30.9083C350.221 30.5976 349.983 30.1608 349.983 29.4489H347.983ZM349.482 32.5339C350.416 33.1906 351.551 33.483 352.818 33.483V31.483C351.858 31.483 351.153 31.2639 350.632 30.8979L349.482 32.5339Z" fill="black" mask="url(#path-1-outside-1_235_3)"/>
</svg>
